/* XPM */
static char *cfdf42edfe4c4043ef5735ff5852d156AxVFdmHeWYRr7nlA[] = {
/* columns rows colors chars-per-pixel */
"75 75 193 2 ",
"   c None",
".  c #292435",
"X  c #292A36",
"o  c #3F2C3A",
"O  c #342837",
"+  c #2F3137",
"@  c #363E37",
"#  c #3B3E35",
"$  c #3B333B",
"%  c #333A39",
"&  c #3C3A38",
"*  c #4D3D2E",
"=  c #482F37",
"-  c #45293C",
";  c #4B2B3B",
":  c #532F37",
">  c #512E38",
",  c #5A2A3A",
"<  c #4A3334",
"1  c #463C33",
"2  c #4B3931",
"3  c #42333A",
"4  c #4C3239",
"5  c #4A3B3B",
"6  c #553136",
"7  c #5B3435",
"8  c #54323A",
"9  c #5B363A",
"0  c #563939",
"q  c #5C3A3B",
"w  c #593B33",
"e  c #613733",
"r  c #663932",
"t  c #6B3D33",
"y  c #643C3B",
"u  c #6B3F3B",
"i  c #683336",
"p  c #3D4132",
"a  c #4E412B",
"s  c #48462B",
"d  c #514727",
"f  c #524B24",
"g  c #504528",
"h  c #574F2B",
"j  c #5E5A2D",
"k  c #5B4938",
"l  c #6F4034",
"z  c #64443A",
"x  c #6C413B",
"c  c #644835",
"v  c #734235",
"b  c #794636",
"n  c #7D4937",
"m  c #73453B",
"M  c #76493D",
"N  c #7D4A39",
"B  c #714B31",
"V  c #675637",
"C  c #755C33",
"Z  c #7A5834",
"A  c #7E6332",
"S  c #776B39",
"D  c #76783B",
"F  c #482E40",
"G  c #4A3342",
"H  c #4D3A45",
"J  c #4F3B48",
"K  c #4D3548",
"L  c #533644",
"P  c #533D45",
"I  c #5A3B43",
"U  c #503649",
"Y  c #513C4C",
"T  c #5B3F49",
"R  c #583741",
"E  c #533E51",
"W  c #613C40",
"Q  c #4D4047",
"!  c #52444A",
"~  c #5B414B",
"^  c #554B4D",
"/  c #594547",
"(  c #56504F",
")  c #564353",
"_  c #5A4656",
"`  c #574A53",
"'  c #5A4C56",
"]  c #5D4C5C",
"[  c #594759",
"{  c #575150",
"}  c #595652",
"|  c #5B5955",
" . c #5C5259",
".. c #5E5C5A",
"X. c #694846",
"o. c #704D43",
"O. c #76524F",
"+. c #614957",
"@. c #605D5D",
"#. c #69525B",
"$. c #775C57",
"%. c #6E6443",
"&. c #757143",
"*. c #625363",
"=. c #625D61",
"-. c #645969",
";. c #6C5E6B",
":. c #685765",
">. c #695E70",
",. c #666566",
"<. c #676968",
"1. c #696A6A",
"2. c #6B6366",
"3. c #6C6673",
"4. c #6F6678",
"5. c #736B78",
"6. c #6F7273",
"7. c #717576",
"8. c #72717C",
"9. c #74797B",
"0. c #852E36",
"q. c #8A3335",
"w. c #804B37",
"e. c #834E39",
"r. c #86503A",
"t. c #8E553B",
"y. c #90573C",
"u. c #92593D",
"i. c #846A30",
"p. c #8A6F30",
"a. c #816532",
"s. c #897737",
"d. c #8C5742",
"f. c #895643",
"g. c #955C42",
"h. c #985F42",
"j. c #945F49",
"k. c #9C6245",
"l. c #9C644A",
"z. c #956049",
"x. c #A06647",
"c. c #A16749",
"v. c #A56B4C",
"b. c #A86D4D",
"n. c #AA6F51",
"m. c #A36B51",
"M. c #AD7251",
"N. c #B17554",
"B. c #B57956",
"V. c #B67A59",
"C. c #BA7D5A",
"Z. c #A07848",
"A. c #83797F",
"S. c #7F8340",
"D. c #8D853E",
"F. c #8E8B42",
"G. c #848747",
"H. c #8F9247",
"J. c #8F9649",
"K. c #BD855A",
"L. c #C1835F",
"P. c #C48661",
"I. c #C78963",
"U. c #D59E77",
"Y. c #767482",
"T. c #777C80",
"R. c #787E83",
"E. c #7C7D8B",
"W. c #7C7188",
"Q. c #7B8386",
"!. c #7E828C",
"~. c #818A8E",
"^. c #848B95",
"/. c #878E99",
"(. c #838792",
"). c #879199",
"_. c #89939C",
"`. c #859096",
"'. c #8D97A3",
"]. c #8F9BA5",
"[. c #929DAA",
"{. c #9196A8",
"}. c #94A3AC",
"|. c #9BADB7",
" X c #9AACB6",
".X c #97A7B1",
"XX c #A1A7BD",
"oX c #A3B5C3",
"OX c #AABACC",
"+X c #ADB9D1",
"@X c #BDCCE8",
"#X c #C0D0EC",
"$X c #CADAFB",
/* pixels */
"                                                                                                                                                      ",
"                                                                                                                                                      ",
"                                                                                                                                                      ",
"                                                                                                                                                      ",
"                                                                                                                                                      ",
"                                                                                                                                                      ",
"                                                                        J.J.H.J.J.                                                                    ",
"                                                            J.J.F.F.D.s.s.i.i.s.G.~.oX].7.                                                            ",
"                                                      J.H.D.F.F.S C V 2 * < < 2 2.@X@XOX.X9.                                                          ",
"                                                    J.s.p.c 1 1 2 6 6 n w.w.b r U W.$X$X+X}.7.1.    3.                                                ",
"                                                  F.D.p.c k b b r.u.c.c.u.y.r.t ; ) W.+X$XOX(.1.9.!.G                                                 ",
"                                                s.p.C * l r.u.B.K.L.L.B.y.t.t.v 7 K ] ;.*.4.'./.Y.F -                                                 ",
"                                              s.p.V 6 w.u.c.I.L.I.B.M.B.u.t.l r 7 - ; U :.+.+.+.Y ;                              .                    ",
"                                              a.1 7 r.u.C.L.L.c.M.M.t.h.u.u.w.r r ; U _ K U U U L u z 2.[.}.(.9.1.              )                     ",
"                                            p.k < r.M.K.I.I.N.y.k.M.t.t.t.t.e.t r 7 F *.5.;.;.E 9 v.r.x (.|. X}._.Q.1.1.      T.Y                     ",
"                                          i.a v y.L.I.I.I.I.I.h.n t.r.t.t.r.b r v r > - _ 5.;.; e.k.P.b.u 5.R./.|.|.|._.Q.E.R.E                       ",
"                                        r.c B c.C.I.I.I.I.I.k.v.w.b n r.r.t t n y.t t 7 > R R y g.k.K.I.l.W F K [ 5.'.'.'.^.E                         ",
"                                        B n y.v.M.b.L.L.I.C.t.t.t.n t.n t b t.y.y.y v t r.e.n w.n.N.n.N.P.V.u - - F - - - -                           ",
"                                      e.c.c.h.w.n v t.x.B.k.y.t.t.t n n t e.y.y.Z 8 r r t i : i N v.P.h.d.l.d.t                                       ",
"                                    e.v.I.I.C.g.y.w.t t w.y.y.t.v t r e.t e t u k y r r v 8 ; , > y g.g.M.m.v.j.                                      ",
"                                  v k.I.I.I.I.B.y.y.n r r t e.t r r ; t v ; ; : B t v v v i 6 6 e y v n j.d.M.V.                                      ",
"                                t n C.I.U.I.I.C.u.t.t.b r r t r 7 ; ; 6 e.y ; 6 r e.t.t.e.b y 9 b t e.r.f.j.C.P.V.                                    ",
"                                t u.C.I.I.I.P.b.y.t.t.t 7 , e 7 e t r : 6 t 6 7 r e.t.y.y.r.n n w.t.n m j.m.l.h.K.m.                                  ",
"                              r t u.C.I.I.P.b.y.t.t.t : ; 7 r t t t t 7 ; e e ; r v r.t.y.y.r.r.e.n e.h.e.g.m.y j.V.M                                 ",
"                            r t t u.C.I.V.x.y.y.y.t : > r b w.t.y.y.e.r 7 ; r : 6 r t t b v b y.r.e.y.r.d.n.N u e.f.l                                 ",
"                            t e.v r.y.u.y.t.t.e.t r > t t.y.t.t.y.y.t.e.t 7 : e 6 6 e 7 7 e 7 7 e i e.t r.N t.e.t.w.t                                 ",
"                          v t.v.u.v r.y.t.t.b t r - ; b t.t.t.t.y.t.y.t.r.r r : : e : - - e e > - 6 i 9 y.y.N t.t.b                                   ",
"                          w.x.I.b.t.n e.n t e 6 ; - ; b y.t.t.y.t.y.t.y.y.n r r : 6 e : - e : - ; - - n o.e.r.e.e.i                                   ",
"                        t h.P.I.c.b t t r t e ; - - > b y.y.t.t.y.y.t.t.y.r.t r r ; e 7 ; 6 ; ; ; > ; u #.#.8 > 8                                     ",
"                        t k.I.C.t.r r b n t.b ; - - e b y.y.t.t.y.t.y.y.t.t.t t r 7 ; e ; e 6 7 6 6 ; ; O.A.;.F                                       ",
"                      t N x.C.t.n r n t.y.y.b ; - - r t e.y.y.t.y.y.y.t.t.y.r.t r r 7 ; 6 t 6 6 ; - -   ; W m ;                                       ",
"                      t t.k.c.w.t b t.t.y.t.r.7 - ; r r e.y.t.y.y.y.t.y.t.t.t.r.n r r 7 - ; ; ; - ; -     - -                                         ",
"                      t y.y.w.t v y.t.y.t.t.t.y - - e t l r.t.t.t.t.y.t.t.t.t.t.r.~ 7 r 7 ; 7 l 7 7 -                                                 ",
"                      t t.y.v b y.t.y.t.t.t.t.r - - ; 6 r t e.N X.b e.t t v o.$.2.J 7 r r e v v 6 7 6                                                 ",
"                      t y.t.b y.y.t.t.y.y.t.w.e - - 6 6 6 r t y ,.` 7 r r 7 | 1.=.9 r e : r t r 6 r 6                                                 ",
"                      r e.y.v t.t.t.y.t.y.t.v ; - ; e t 6 - 6 ; Y ,. .: 6 ^ | <. .; - - - 7 r 7 : t 6                                                 ",
"                      t t.e.t t.t.y.y.t.t.v 6 ; - - r e.m - ; ; ; @.1.! ^ } } | I r r y > - ; ; : r ; - F F G ; -                                     ",
"                      w.y.r.t t r t b w.v r ; ; - ; ; r e 7 r r 9 ' ..^ @.| ( F r.t.t.y.u - : ; ; : G Q } } } ^ Y  .G -                               ",
"                      r.t.y.t.n e.w.t r e 4 - - - r ; ; 6 t r b x P | ! 3.| ! H X.b e.t.t.7 6 ; - G ..{ } } } ' 8...` Q -                             ",
"                    r t.y.t.t.b e.t.b r ; - - - - 6 e 6 r t e.e.M ^ } ^ ^ ( ^ { ( ^ I y 9 e = o - ; 9.[ H G ^ | ..| | 9.!.)                           ",
"                    r w.t.y.d.w.r.t.M : ; - % % % $ - e r v t x !  .7.} { ^ } } } } } } } Q H H H ^ (.) - - - - ! { Q. X}.=.G                         ",
"                    v t M r.e.T ~ I L G o . X X % % % 3 r n x ^ { P Y ! ( } } } } } } } } } } } } Q.E.F - - - - - G /.}...} | H                       ",
"                    m y I *.-.Y.Y.;.' ' F 4 - O . + % % $ 4 ! | ,.} ^ ^ { } } } } } } } } } } } | /.8.- - - - - - - E =.} | =.` G                     ",
"                    9 ..! Y E - - - - - ) -.: 7 7 < O $ $ 5 } | ../ q 8 G { } } } } } } } } } } 1..XY - - - - - - - - F ! { { } !                     ",
"                    G Y F *._ - - - - - ) G : r r r 7 4 0 0 ! } ^ q r.e.; Q } } } } } } } } } | ^.|.G ; ' ' K - - - - - - ^ } } } ;                   ",
"                    - - E {.{.- F -._ ! ! ! G 9 r t 7 0 A p.0 H $ 4 e N y H } } } } } | } } } <.}.-.- F X.r r 7 - - - - - G } } } F                   ",
"                    - - - Y K >.{.Y.~ ~ ~ L L ; 7 7 0 A p.i.4 $ % % & & 5 F ^ } } } } } } } | Q.!.L - - r e ; e ; - - - - - ! } } J                   ",
"                    - - - - *.XX_ u r.y.r.t r e ; 0 i.p.A 0 4 & % # % p p $ ^ } } } } } } | Q.}.[ 7 ; - e 7 - > e ; - - - -  .T.R.,.                  ",
"                      - - *.(.$.e.t.t.t.r.t r 7 7 A p.A q M t < % p p f p $ ( } } } } } | Q.[.;.W e.7 ; - - - : r e - - - - U '.|.Y.                  ",
"                      - J [ o.y.y.t.t.y.r.w.r 7 C p.a.0 b t.w.r 4 % s f @ ; ^ } } } } } 9.|.3.: v t.b ; - - - - e r ; - - - F /.|.Y.                  ",
"                      - ; x t.t.t.y.t.x.y.y.w.r ; V 6 x t.y.t.t 8 % p p 1 G ( } } } | Q..XE.- e v t.N e - - - : - - - - - - ; ' ..J                   ",
"                        9 r.t.t.y.t.t.N.v.t.t.t : - 7 b t.y.t.v 8 $ % p - ! } } | ..9. X.XY 7 r v t.t.t : - - : 7 - - - - - H { } ;                   ",
"                        9 r.y.y.t.x.u.t.e.t.r.t 7 ; e b t.t.r.t 7 ; - $ J } | | 1.}.[.Y.Y : r r l r.t.n 7 - - - - - - - - - ^ } ^ -                   ",
"                        > e.y.y.t.c.v.y.b w.t.t r 7 e b t.t.w.r 7 6 ; J { | 1.^._.] ) 4 > : r r r e.t.t.e ; - - - - - - - K } { G                     ",
"                        ; M y.t.v.y.r.r.v t w.t.t 7 r t t.t.w.r 6 ; / ( .._..X|.[ ; 9 r r - e r r e.t.r.e ; - - - - - - G ..7.^ -                     ",
"                          r v.y.t.e.t r r.t r n v : e r r b t.t 0 ^ <.~.(.!.!.+.6 r r r e > e r r b e.t r 7 ; - - - - G } J ] _                       ",
"                          ; m r.v v t r t r r e : ; r b n e r T ^./.-.) F - - ; r r r r r r r r r r t r e 7 ; - - - H ( } } H                         ",
"                          - > r r r v r r r : - - 7 b y.e.8 i e.x ; -       - - 7 r r r r r r : : e t.v 8 8 F ; H ! } } ^ !                           ",
"                            , > r r r r e 7 - - - r r.y.e.: : t 6 ;           - - 7 r r r r e - > r n v - H ^ ^ } } ^ ^                               ",
"                          - , - > r 6 > ; ; - - ; v y.y.e.: > : -             - - - : r r r > > e r t r H { } } J H -                                 ",
"                        6 q.0.0.> - - - - - - - 6 r t.t.e.: : ;                 - - - - 7 6 ; t r r r 7 - - - - -                                     ",
"                      I Z.Z 0.- 4 < - - - - - - 6 r t w.t ; ; ;               - - - - - - - ; e r r 6 ;                                               ",
"                      T K.p.z k s ; = - = - ; - - : r e > - -                 - - ; - - - - - - : 6 -                                                 ",
"                        o.V %.&.k V < * * - * 2 - - ; ; - -                 - - < * < - - - - - - -                                                   ",
"                          %.S.G.G.j a f d = * a - - - - -                   - < f f a ; - - - - - -                                                   ",
"                          %.S.G.S.f f f f * * - < = - -                   - = 2 f f f a 4 4 - - - -                                                   ",
"                          S j D D f f f f f * * a - - -                   - = * f f f f f f * < = -                                                   ",
"                          k f f s f f f f f f d d < -                     - * f f f f f f f * * < -                                                   ",
"                        = h d * 4 * d d f f f f a f =                     = * d f f f f f f 3 2 * - -                                                 ",
"                      = a a a G 3 2 < 3 f f f f < f =                     = ; a a f f f f d a a * 4 - -                                               ",
"                      = 2 5 3 ! 4 a H ; a f f f   - -                       - - < f f f f - * < G H H G G                                             ",
"                    - - J ^ ; ^ ; J ( H 2 = * d                                 - < f f * - Q F Q ( } } ( H                                           ",
"                    G P } } } ^ ( } ^ - G - - <                                   - s d < H } } } ( } ^ ( ( H                                         ",
"                  G { } ! ( } } ^ } ^ ! !                                         - 4 2 ; H } | ^ ^ } ^ ! ( ( H                                       ",
"                - G H G G H H J 3 H H H G                                         - = - - ; H H G G H H G H H G -                                     "
};
