/* XPM */
static char *c0236b7d93384cc9f8269eb9e8596129UrKQLqWC39hr3AvJ[] = {
/* columns rows colors chars-per-pixel */
"75 75 157 2 ",
"   c None",
".  c #3F5C63",
"X  c #405E65",
"o  c #426067",
"O  c #44636B",
"+  c #476770",
"@  c #486770",
"#  c #476870",
"$  c #4B6C76",
"%  c #4C6E78",
"&  c #4E717B",
"*  c #50737E",
"=  c #527681",
"-  c #557A85",
";  c #587B87",
":  c #577D88",
">  c #597E8A",
",  c #607F8B",
"<  c #5C838F",
"1  c #5E8592",
"2  c #5F8895",
"3  c #63828E",
"4  c #648591",
"5  c #688791",
"6  c #628A96",
"7  c #6C8A94",
"8  c #638D9A",
"9  c #6B8D9A",
"0  c #738E96",
"q  c #738E98",
"w  c #66919E",
"e  c #6C909D",
"r  c #74929B",
"t  c #7B949C",
"y  c #6792A0",
"u  c #6994A3",
"i  c #6D9AA6",
"p  c #6E9BAA",
"a  c #7396A3",
"s  c #7398A7",
"d  c #7C9AA5",
"f  c #729DAC",
"g  c #7B9EAE",
"h  c #719FB0",
"j  c #72A0AF",
"k  c #7FA0AF",
"l  c #73A2B3",
"z  c #7CA3B3",
"x  c #76A7B9",
"c  c #7EA7B8",
"v  c #77A9BC",
"b  c #7BAABC",
"n  c #7BAEC1",
"m  c #7DB2C6",
"M  c #81969D",
"N  c #85999F",
"B  c #839BA2",
"V  c #8A9EA4",
"C  c #8AA0A7",
"Z  c #83A2AC",
"A  c #8DA3AA",
"S  c #91A1A7",
"D  c #83A6B5",
"F  c #88A6B1",
"G  c #8AA9B4",
"H  c #84A7B8",
"J  c #84ACBD",
"K  c #8CADBA",
"L  c #92ACB7",
"P  c #98AFB8",
"I  c #8DB0BE",
"U  c #9FB0B6",
"Y  c #9BB2BA",
"T  c #83AFC1",
"R  c #84B2C4",
"E  c #8AB3C5",
"W  c #82B5C9",
"Q  c #8BB6C9",
"!  c #86B9CD",
"~  c #8ABACE",
"^  c #93B5C5",
"/  c #98B7C4",
"(  c #93B6C9",
")  c #92BACB",
"_  c #99BBCE",
"`  c #8EBED3",
"'  c #92BED3",
"]  c #98BCD1",
"[  c #92C1D6",
"{  c #9DC1D6",
"}  c #96C3D9",
"|  c #9AC5DB",
" . c #9DC8DE",
".. c #A3C5D6",
"X. c #A2C5DB",
"o. c #A4C9DE",
"O. c #AACDDD",
"+. c #9FCAE0",
"@. c #A4CDE3",
"#. c #AACEE4",
"$. c #A6D0E7",
"%. c #ABD0E6",
"&. c #ACD4EB",
"*. c #B0D1E0",
"=. c #BCD9E7",
"-. c #B1D6EE",
";. c #B9DAED",
":. c #B1D7F0",
">. c #B3D9F1",
",. c #B4D9F2",
"<. c #B4DAF3",
"1. c #B6DBF3",
"2. c #B7DBF3",
"3. c #B5DBF4",
"4. c #B6DBF4",
"5. c #B7DCF4",
"6. c #B7DCF5",
"7. c #B6DBF4",
"8. c #B8DBF0",
"9. c #BADCF1",
"0. c #BCDCF1",
"q. c #BEDDF0",
"w. c #BBDEF5",
"e. c #BADEF5",
"r. c #C1DBE8",
"t. c #C1DEEF",
"y. c #D4E6EF",
"u. c #C4E2F6",
"i. c #C3E1F5",
"p. c #CDE4F1",
"a. c #CBE5F6",
"s. c #C7E4F8",
"d. c #C9E5F8",
"f. c #CEE8F8",
"g. c #D3E8F5",
"h. c #DDEDF7",
"j. c #D8EBF6",
"k. c #D5EAF9",
"l. c #DAEDFA",
"z. c #DCEFFB",
"x. c #E6F3FC",
"c. c #E4F1FA",
"v. c #EAF5FB",
"b. c #ECF4F8",
"n. c #EDF5FA",
"m. c #E8F3FC",
"M. c #EAF5FD",
"N. c #EFF7FC",
"B. c #EAF4FB",
"V. c #F2F8FB",
"C. c #F3F9FD",
"Z. c #F4F9FD",
"A. c #F2F9FD",
"S. c #FBFCFD",
"D. c #FBFCFE",
"F. c #FEFFFF",
"G. c #FCFDFE",
/* pixels */
"                                                                                                                                                      ",
"                                                                                                                                                      ",
"                                                                                                                                                      ",
"                                                                                                                                                      ",
"                                                                                                                                                      ",
"                                                                  Y L K R K K Z A U                                                                   ",
"                                                        Y I Q ) ' ` [ ` ` [ ' ` m m m J D F                                                           ",
"                                                  Y ^ ` [ ` ` ` ` ` ` ` ` ` ` ` ~ m m m m m m x G                                                     ",
"                                              / Q ` ` ` ` [ } +.%.%.@.@.o. . .[ [ W m m m m m m m b K C                                               ",
"                                          K ) ` ' ` `  .&.t.j.N.v.u.5.5.6.6.,.,.,.&.@.} W m m m m m m m z                                             ",
"                                        ^ [ ` ` ' +.8.j.C.F.C.p.%.@. .| } } } [ [ } [ } @.@.[ W m m m m b j d                                         ",
"                                    F Q ` ` `  .w.x.D.F.b.=.' ' [ ~ Q R T T R Q ~ ` ! m m m ` } [ m m m n l l f                                       ",
"                                  G W ` ` } -.x.D.n.y.O.' E c a 8 3 3 , 3 , 3 , 3 4 1 1 i v m m m ! m m m l l l j d                                   ",
"                                D T ` ` +.2.q.r.*.} ~ z u 4 , 4 7 e s f g g h f a 9 = . . @ > h m m m m m x l l l l Z                                 ",
"                            Y J T ` ` @.2.@.' ` ` g 7 3 3 9 z R ~ ` } +.@.@.@.@.+.| E u > O . X & j m m m x l l l l l d                               ",
"                          P J J Q [ &.,.+.` ' b 4 4 5 f Q [ } @.8.2.5.5.4.5.5.4.2.&.&. .` n u % X . * l b x l l l l l l k                             ",
"                          D T T ' &.:.} ` ` i , 3 f Q '  .;.l.C.M.e.6.6.4.&.@. .[ ` ` m m m m m p & . X 1 u u p l l l l l a                           ",
"                        a z J ~ &.&.[ ` R 7 4 9 E '  .u.M.F.D.z.,.,.:.@.[ ` ` ` ` ` W m m m m m m m 2 O X & 6 8 u h l l l p r                         ",
"                      d i j T #.$.[ ` J 4 , g ~ ' ;.m.D.D.c.i.2.&.+.[ ` ` ` ` ` ` ` m m m m m m m m m h $ . $ 6 8 w p h l l 8                         ",
"                    d i i i ' &.[ ` J 4 4 D ` | g.D.C.j.w.6.-. .[ ` ` ` ` ` ` ` ` ` m m m m m m m m m m v * . $ 2 w 8 i l l u 9                       ",
"                    i i i j @.` ' T 4 4 J ` =.m.j.i.:.$.#.@.' ` ` ` ` ` ` ` ` ` ` W m m W n v n m m m m m l & X # w 8 8 u l p 8 t                     ",
"                  a i i i R ` ` Q 7 , c ` | ,.4.o.g g K J s y W ` ` ` ` ` ` ` ` ` m n p 8 g J B w u m m m x f $ X & 8 2 8 i h 8 8                     ",
"                V i i i s W m m 9 , h ' +.6.:.H D 2.s.a.a.a.w.H a ~ ` ` ` ` ` ` W l w X.f.e.:.:.5.o.w h m l l u O X - w 2 w p w w 9                   ",
"                d i i i l m m : & a ` | ,.:.Z ] a.M.F.F.D.N.c.w.{ u W [ ` ` ` ! u F p.u.+.! m W `  .-.D y l l l 2 X O < w 2 w 8 8 8 V                 ",
"                u i i y c m u o X R ' ,.,.s #.k.D.D.Z.g.u.e.6.3.5.@.9 ~ ` ` ! u T u.&.` n m m m m m ! @.x 8 l l p & X # 2 8 2 w 6 w e                 ",
"              t w i 8 i W l # . w W &.e.g X.z.D.m.i.:.@.+.&.<.3.4.e.-.7 ` W f H ,.+.m m m m m m m m n m h 2 u l h 8 O X & 2 8 8 w 6 2                 ",
"              6 8 u 1 i m > X # n +.6.( ( k.Z.a.,.[ W n m m W [ &.4.4.| y v s ,.+.m m m m m m m m m n n 8 u : h l i - X O = 8 8 8 8 < t               ",
"            V 8 8 1 6 p p # . y ` 6.$.g g.B.w.&.! m m m m m m m m  .:.e.T 4 $.+.m m m m m m m m m n n h w w 2 < l h w # X $ < 8 8 6 < 4               ",
"            r 8 8 - 8 h < o o m $.4.H %.c.e.:.~ m m m m m m m m m m ! :.:.] $.W m m m m m m m m n p i 6 2 8 y : i l i - X # * 2 8 1 < <               ",
"            9 8 6 = 2 u % . > ` ,.$.H g.w.6.| m m m m m m m m m m m m W %.:.! T m m m m m m m n f i i 1 < 1 8 8 < l j 2 X o & < 8 < < < r             ",
"            8 8 1 % 2 1 O . p +.6.( ] 6.6.,.R m m m m m m m m m m m m m m ` m m m m m m m m n h i i u 1 < < 2 8 = l h u # X & = < < < < 7             ",
"          C 8 8 1 & 8 = o # v :.e.H :.6.6.$.m m m m m m m m m m m m m m m m m m m m m m m m l i i i u > < < < 1 : i l i - . # & : 1 < < 7             ",
"          7 8 8 : & 6 % X * ~ e.e.z 6.6.5. .m m m m m m m m m m m m m m m m m m m m m m m l i i i i w < < < < < : w l j < X O & = < < < 3             ",
"          r 8 8 = & 2 $ . - ' ;.4.f e.6.5.} m m m m m m m m m m m m m m m m m m m m m m b i i i i i 6 2 < < * < : 2 l l 2 o o $ % < < < < A           ",
"          r 8 8 = & < + X < Q %.@.a 6.6.5.} m m m m m m m m m m m m m m m m m m m m m l i i i i i i 2 < < < O < : 2 l l y O o % % > < < < M           ",
"          e w 6 & & : # . > Q } T 9 5.5.5.+.m m m m m m m m m m m m m m m m m m m b j i i i i i i i < < 1 * X < - w l l 2 O . $ $ - < < < 7           ",
"          e 8 6 & % - O . < R } x 8 &.e.5.$.m m m m m m m l j v m m m m m m n l j i i i i i i i i w < < < O # < = p l i 2 # X $ $ * < < < 5           ",
"          e w 2 = & = # . < z _ l 9 ] 6.5.-.m m m m m m j i i i i p p p p p u p i i i i i i i i e 2 < < * X & < & l u u 2 # X $ $ & 1 < < 5           ",
"          e w 2 & & & # o : s Q l p z 4.5.5.! m m m m x i i i i i i i i i i p i i i i i i i i i 8 < 1 < o X : < > u u u 1 + X $ $ & < < 1 5           ",
"          e 2 2 = & & # o : w b l l 7 &.5.5. .m m m m p i i i i i i i i i i i i i i i i i i i w 1 < < $ X # < * 8 u y y < O X $ % % < < < 7           ",
"          r w 8 = & & # X = w i l l 8 E 4.4.:.W m m l i i i i i i i i i i i i i i i i i i i w < 1 > - X . = > = u u u w > + X % % % < < < B           ",
"          0 1 w = & & $ X & w y p l h 1 :.6.4.' m m l i i i i i i i i i i i i i i i i i i 8 < < 1 > O X X > = 1 u u u 2 > X X % % % < < >             ",
"          0 < 1 : & & & X # 2 8 8 l l u D 4.6.&.W m j i i i i i i i i i i i i i i i i i 6 < < < > + . X = > = u u u w 1 : . + $ $ & < < 4             ",
"          C < 1 = & % & O o 2 8 2 p l l 1 @.4.4.[ m j i i i i i i i i i i i i i i i w 2 < < < < = . . . > = 6 u u u 8 > % . + $ $ & < 1 0             ",
"            1 < > $ % & # . > 8 8 8 p l p 4 6.6.:.m x i i i i i i i i i i i i i i 8 < < < < < & . . . = - > y u u w 1 > + . $ $ $ = < < 7             ",
"            5 < < & $ $ $ . $ y 8 8 w p l u z 6.5.+.m i i i i i i i i i i i i w 2 < < < < < * o . . + > = y y u u 2 1 : . O $ % $ > < < t             ",
"            t < < = $ % $ . . 2 2 8 8 8 h l 6 ( 5.,.~ j i i i i i i i i i u 6 < < < < < < * o . . . ; % y u u u 2 1 1 $ . + $ % $ < < 4               ",
"              < < > $ $ % + . = 2 2 8 8 8 h h 6 { 5.-.b i i i i i i i i w < < < < < < < - o o . . = = 6 u u y 8 > 1 > + . $ $ $ * < < 5               ",
"              5 < < & $ $ # O o > 1 1 4 2 w p p 2 @.4. .j i i i i i w 2 < < < < < < 1 - o X . . = = > u u y 2 1 1 > = . + $ $ % - < < q               ",
"              t < 1 - $ $ $ # X $ < < < < 1 1 w i 1 &.4.~ p i i i w < < < < < < < 1 - O . . . $ = > u u y 2 1 > 1 > X X $ $ % % < 1 <                 ",
"                < < < & % $ $ o X - < < < 1 < < 1 6 > -.,.T i i 8 < < < < < < < < > o X o . % = > u y 2 > 1 1 1 > $ . + $ $ $ = < < 7                 ",
"                7 < < - $ $ $ O X O > 1 < < < < < < < , #.&.l i < < < < < < < < > o X X X & & < y 2 1 1 1 1 > > = . X % $ $ = > < <                   ",
"                  3 < < % $ % % O X @ > < 1 1 < 1 < < > ; { #.f 8 < < < < < < < o X X O = & : 1 1 > 1 1 > 1 > > . . $ $ % % = > < 7                   ",
"                  q < < - $ % $ $ O X $ > 1 > < < < 1 < < ; _ X.u 1 < < < < : O X X $ - & = 1 < 1 1 > 1 > 1 ; O . + $ $ $ % > 1 3                     ",
"                    5 1 < & $ $ $ $ X X % < 1 1 < < < < 1 > - J ' w < < < < O X O - > % - 1 < 1 > > 1 1 1 > O . + % $ $ % > 1 1 B                     ",
"                      < < > % % $ $ $ X X $ > 1 < 1 < < < < 1 = d Q 8 < < $ # - < - $ < < < < < 1 1 1 > - X . + % % $ $ = > 1 q                       ",
"                      0 < < - $ % $ % $ X X + ; > 1 1 > < 1 1 1 ; 4 c 4 < > 1 < & = < 1 < < < < < < < = X . O $ $ $ $ = : 1 1                         ",
"                        q < < * $ % $ $ $ O X X % > 1 1 < 1 > > < < = 8 1 1 > % = 1 < < < < < 1 1 : + . X + $ $ $ $ $ : > > V                         ",
"                          5 < < & % $ % % % O X X + = 1 < < 1 1 < < < = = = & > < < 1 < < 1 < > $ X . O $ % $ % % $ = 1 1 r                           ",
"                            3 < < % $ $ $ $ $ $ O X X O & > 1 1 < < 1 < < = < 1 < < < 1 1 = $ . . X + $ % % % % $ = > 1 5                             ",
"                              4 < < * % $ % $ % $ $ X X . . + & = < > 1 < 1 < < < : = % O . . . + $ % $ $ $ $ % = > 1 7                               ",
"                                7 1 < = $ $ $ $ $ % $ $ + . . . . . o o O O O . o . . . . o $ $ % $ $ % $ $ % = 1 1 t                                 ",
"                                  4 < < > % $ % % $ $ % $ % $ + + O o o . . o o o O O $ % % $ $ $ % $ % $ & > 1 3 S                                   ",
"                                    t < 1 1 = % $ % $ $ $ $ $ $ % % $ % % $ $ % $ $ $ $ $ $ $ $ $ $ $ % = < < 5                                       ",
"                                        7 1 < < = $ $ $ % $ % $ $ % $ $ $ % $ $ $ % $ $ $ $ $ $ $ $ - < < 4 t                                         ",
"                                            7 < < < - * % $ % $ $ % $ % $ $ $ $ $ $ $ & $ $ % * : < < 4 t                                             ",
"                                              V 0 < < 1 < > = & % $ $ $ $ # $ $ $ $ % & - : < < < 4 t                                                 ",
"                                                    7 5 4 < < 1 < < > > > < > < < < < 1 < < 4 7 N                                                     ",
"                                                          M 5 r 5 < < < < < < < < < 7 0 9                                                             ",
"                                                                                                                                                      ",
"                                                                                                                                                      ",
"                                                                                                                                                      ",
"                                                                                                                                                      ",
"                                                                                                                                                      ",
"                                                                                                                                                      "
};
