/* XPM */
static char *_e6d35bf4fb04d67d6778c3332da482apu1c46KhAt6Wdm9y[] = {
/* columns rows colors chars-per-pixel */
"75 75 167 2 ",
"   c None",
".  c #0A0B0F",
"X  c #14161F",
"o  c #1A151B",
"O  c #291F27",
"+  c #201C26",
"@  c #252229",
"#  c #2D232C",
"$  c #2B262B",
"%  c #32222E",
"&  c #34282F",
"*  c #372E34",
"=  c #3A2A33",
"-  c #3C3237",
";  c #3F3238",
":  c #79390A",
">  c #4F3125",
",  c #523426",
"<  c #43343A",
"1  c #453C3E",
"2  c #483A3E",
"3  c #4A2A22",
"4  c #6E4E1C",
"5  c #7C551B",
"6  c #474B3E",
"7  c #434437",
"8  c #4E5E3C",
"9  c #6A5128",
"0  c #51673D",
"q  c #67672E",
"w  c #7E6324",
"e  c #7D752F",
"r  c #6B6E32",
"t  c #787A34",
"y  c #4C3E41",
"u  c #4F4243",
"i  c #534546",
"p  c #564948",
"a  c #594C4B",
"s  c #495640",
"d  c #5D514D",
"f  c #575A47",
"g  c #625451",
"h  c #675954",
"j  c #6B5E58",
"k  c #685856",
"l  c #586648",
"z  c #587940",
"x  c #5C744D",
"c  c #547448",
"v  c #69794D",
"b  c #72635D",
"n  c #617151",
"m  c #637B52",
"M  c #696F57",
"N  c #776861",
"B  c #7A6B62",
"V  c #7A7763",
"C  c #81430E",
"Z  c #894E12",
"A  c #895D1C",
"S  c #915816",
"D  c #905211",
"F  c #976C1B",
"G  c #A06719",
"H  c #A56C1A",
"J  c #AC741B",
"K  c #B2781D",
"L  c #886B27",
"P  c #966F22",
"I  c #987A25",
"U  c #837F33",
"Y  c #84752C",
"T  c #837369",
"R  c #88776D",
"E  c #7B8A3C",
"W  c #6D8C3C",
"Q  c #72A02B",
"!  c #5C8546",
"~  c #5A834C",
"^  c #5E8B48",
"/  c #5F8950",
"(  c #62844F",
")  c #62914C",
"_  c #62984E",
"`  c #769444",
"'  c #70815B",
"]  c #659154",
"[  c #649E51",
"{  c #6C9C53",
"}  c #6F9B5C",
"|  c #66A453",
" . c #68A856",
".. c #77A059",
"X. c #70AF5A",
"o. c #6AB059",
"O. c #73B35E",
"+. c #769A61",
"@. c #7E8A66",
"#. c #74BB60",
"$. c #79A763",
"%. c #78C163",
"&. c #BB8818",
"*. c #9B842C",
"=. c #838B34",
"-. c #8F8E37",
";. c #90983A",
":. c #A28022",
">. c #BE8420",
",. c #AF9D28",
"<. c #B69828",
"1. c #A29333",
"2. c #B59934",
"3. c #B5AF30",
"4. c #B0A33D",
"5. c #C5921C",
"6. c #C79F1E",
"7. c #CA971E",
"8. c #C9A619",
"9. c #D1A11D",
"0. c #DAAF1C",
"q. c #D7AA1C",
"w. c #C19C25",
"e. c #B8D809",
"r. c #A7ED00",
"t. c #C3C03B",
"y. c #8F9C40",
"u. c #90805A",
"i. c #86A146",
"p. c #97AD4C",
"a. c #8FB045",
"s. c #86B153",
"d. c #A9A943",
"f. c #B0BA4A",
"g. c #818469",
"h. c #B58F63",
"j. c #A9986D",
"k. c #B29065",
"l. c #BF9D78",
"z. c #9CA56B",
"x. c #82B26A",
"c. c #81BF65",
"v. c #ACA171",
"b. c #A6A36F",
"n. c #CD9A7D",
"m. c #A3C35B",
"M. c #83CD6B",
"N. c #88C267",
"B. c #87D16E",
"V. c #8BD671",
"C. c #90DC75",
"Z. c #99C861",
"A. c #ADD07D",
"S. c #95E278",
"D. c #C3F254",
"F. c #FF8F8F",
"G. c #DCAB87",
"H. c #A7C69C",
"J. c #ACE895",
"K. c #A7E292",
"L. c #B4DDA8",
"P. c #C5D0BD",
"I. c #C3EEB3",
"U. c #C8DAC2",
"Y. c #CBE3C6",
"T. c #DAF3D0",
"R. c gray99",
/* pixels */
"                                                                                                                                                      ",
"                                                                                                                                                      ",
"                                                                                                                                                      ",
"                                                                                                                                                      ",
"                                                                                                                                                      ",
"                                                                                                                                                      ",
"                                                                                                                                                      ",
"                                                                                                                                                      ",
"                                                                                          0.                          >.                              ",
"                                                                                          0.                >.      5.                                ",
"                                                                                          0.                >.    K J                                 ",
"                                                                                            0.q.      S.    >.  5.J S                                 ",
"                                                                            0.                5.9.t.S.S.S.S.S.>.m.S.S.                  >.            ",
"                                                                              0.0.0.        S.S.S.B.o.S.S.S.S.S.%.%.S.S.o.            >.              ",
"                                                                                    0.    S.S.I.J.C.B.%.C.S.S.S.%.o.%.S.o.n.G. .    K G               ",
"                                                                                    9.9.f.m.V.L.K.S.S.o.%.B.B.B.#.o.o.B.o.j.k.`   K H S               ",
"                                                                              >.>.>.>.9.9.&.o.o.B.S.S.o.o.o.o.o.o.o.o.o.o.^ t >.>.G S S S             ",
"                                                                                      S.S.S.S.S.%.o.o.o.3.0.0.0.0.9.>.z z [ o.o.                      ",
"                                                                                    S.S.S.S.S.S.%.o.o.3.w.&.J q.0.q.9.*.z ! _ o.F.                    ",
"                                                                                    S.J.J.S.S.V.s.i.i.0.8.2.h.9.7.5.&.K Q W ^ o.n.b.                  ",
"                                                                          5.      S.S.T.T.S.S.%.1.>.>.0.e.D.R.5.G S S S r.Q ! o.o.o.o.                ",
"                                                                            >.>.>.>.o.o.o.o.&.>.>.5.0.5.9.0.0.0.0.:.% % >.G w z z       S             ",
"                                                                                d.m.B.B.B.B.i.i.E *.0.9.7.5.5.0.0.9.J L G J Y 0 | e S S               ",
"                                                                                S.S.S.S.C.B.%.%.[ ` ,.5.5.5.5.I 6.9.K 5.Z F =.! o.E L S               ",
"                                                                          R.  S.S.S.S.S.B.o.S.S.%.[ 0 S &.0.0.% *.&.: &.: q z z o.o.o.                ",
"                                                                              S.S.S.R.R.T.S.C.K.%.| ! S S J 0.% % 3 : : : Z w z o.o.o.o.              ",
"                                                                            S.S.S.S.R.R.T.S.S.%.o.W w S S J 0.% % 3 Z : : Z A A o.v.v.o.o.            ",
"                                                                            S.S.C.B.Y.Y.L.B.m.a.i.;.F S A :.0.% % , S 4 : 5 w w | v.v.o.o.            ",
"                                                                            S.S.B.o.o.o.o.o.>.>.5.5.K S t E 0.% % , S z : q z z ! | o.o.              ",
"                                                                              o.%.S.S.%.o.o.o.o.1.&.5.z 0 =.0.& % , S z S S w z 0 | | 0               ",
"                                                                            S.V.V.S.S.%.o.o.o.y.y.y.y.] ! E q.# L P C I ` L A w 0 |  .|               ",
"                                                                            S.S.S.S.S.%.o.o.o.1...o.o.%.[ ;.q.9 >.5.D &. .E e w ^ | o.o.              ",
"                                                                          o.S.S.S.S.S.%.o.o.o.1.i.o.o.S.%.a.0.0.0.9.>.>.o.o.| z o.o.o.o.o.            ",
"                                                                    S.S.S.o.S.S.m.&.S.S.S.S.o.o.o.%.S.S.S.B.o.o.o.o.o.o.S.S.B.o.o.o.o.o.o.            ",
"                                                                      B.%.o.%.p.4.i.S.S.S.S.B.#.%.C.S.T.J.C.B.B.B.%.o.B.C.C.C.B.o.v.b.o.^             ",
"                                                                      M.%.i.i.1.i.o.S.S.S.S.S.%.C.S.S.T.J.S.S.S.S.V.%.S.C.A.K.S.o.v.v.o.0 t S         ",
"                                                                    S.S.S.>.>.i.o.o.S.S.S.S.S.S.S.S.S.S.S.S.S.S.S.S.S.S.S.G.G.S.O.o.o.o.z w           ",
"                                                                  S.S.S.S.o.S.S.B.o.o.o.%.S.S.S.S.S.S.S.S.S.S.S.S.S.S.S.S.S.B.X.0 w F S S             ",
"                                                                S.S.S.B.o.c S.S.S.S.o.B.B.o.S.S.%.%.S.S.T.T.S.S.S.S.S.o.S.%.o.o.0 ! ^ o.o.Y           ",
"                                                                  %.#.X.) l S.S.S.S.B.C.C.B.%.%.O.%.S.S.J.J.S.S.S.S.S.o.%.O.[ ) ! 0 ! ^ o.E           ",
"                                                  o.o.            %.O...u.d x.V.S.S.S.J.J.S.%.o.O.N.m.S.V.V.S.S.S.C.V.| o.| ) 0 ! ( ! ! o.            ",
"                                                  o.o.o.    S.S.S.S.%.z.F.d d x.S.S.S.T.T.S.S.%.V.m.&.S.%.%.S.S.S.B.o.0 o.^ ! ! 0 [ [ r               ",
"                d j R R R R                   o.o.^ ! 0 z S.S.S.S.o.o.o.o.d d d ' S.o.B.S.S.S.S.4.&.&.S.S.B.o.S.%.[ 0 ! 0 | _ 0 S ` o.o.              ",
"            d 2 a j R R R R R               o.o.^ _ | ^ z { O.%.%.^ | [ n B B B M V o.B.S.S.S.S.4.2.m.S.S.C.M.%.[ ! ! r | | | ! r e E o.              ",
"          d d 2 p j R R R R R                .[ ( | o.[ z ^ | o.o.l ( m d B B B b b ] $.N.S.B.Z.d.f.S.S.S.S.S.%._ r ! ^ o.o.X.u.z t t `               ",
"          d d 2                               0 o.o.o.[ z o.o.o.o.d d d d d d d j R d d ' S.o.1.m.S.S.S.S.S.S.S.[ ! 0 o.o.o.z.F.z [ ` S S             ",
"      d d p 2                             o.O.o.z [ ] n o.o. .] d d d j R R R R B d R j d d o.o.B.S.S.S.S.S.S.S.[ u.F.o.o.^ 0 ! o.o.~ =               ",
"      d a u                             o.o.| ) f n M V @.o.+.@.B d d j R R R R T B j g d d l ] #.M.S.S.S.S.S.%.) v u.^ o.^ 0 7 o.c 6 <               ",
"      d a                               o.| ] v a h N R R +.g.R R d d k B B B T R R j g p d 2 x  .#.x.C.S.S.S.| ! z ! ^ o.^ 8 = ~ 6 < 2               ",
"    d d d                         d n o.o.^ v R d B R R R R R R R d d a d d d B R R R a i d 2 p ] ] d S.S.S.S.z z z 0 o.o.^ 8 = = < 2 2 2             ",
"    d d d                     d d d p 2 2 b R R a B R R R R R R R d B R R R R R B d R R b 2 2 p d d d d x.N.z o.^ ^ o.o.o.8 = = = < 2 2 2             ",
"    d d d                   d d d p y 2 b T R R d B R R R R R R R d B R R R R R T B j B N p 2 p d d d d } o.[ o.H.U.Y.o.o.6 = = = < 2 2 2             ",
"    p d a                 d d p p u 2 2 R R R R d b B R R R R T B a N R R R R R R R j j j d 2 p d d d d ] o.o.[ U.R.R.o.~ 6 * = = < 2 2 2             ",
"    2 p p 2             d d d 2 2       R R R R d d j R R R R B d 2 b R R R R R R R R d u d 2 p d d d d ] o.o.c P.R.R.o.= ; < = = < 2 2 2             ",
"      2 2 2 2         d d p 2           R R R R R j p u d d d p 2 R R R R R R R R R R j p 2 d d d d d d ] o.o.y / / 2 2 2 2 < = = < 2 2 2             ",
"        2 2 2 2 2 2 2 u u u             R R R R j g p 2 i u u u 2 R R R R R R R R R R j p 2 d i a d d d ] ] f p f s 2 2 2 < * = = = < 2 2             ",
"          2 2 2 2 2 2 2 2               R R T B d d p 2 < 2 2 2 2 R R R R R R R R R R j a 2 p i a d d d x x u d y y 2 2 < = = = = = = < <             ",
"            2 2 2 2 2 2                 R R B d d a p < = 2 2 2 2 R R R R R R R R R R j p 2 2 p d d d d u u d d y y 2 y = = = = = % = = =             ",
"                                        d d d d d d p 2 2 = = i R R R R R R R R R R d y < = 2 p d d d d u u d d y y <   = = = = = = = 2 2             ",
"                                      2 d d d d d p 2 2 2 < < k R R R R R R R R B k 2 < < < p a d d d d u u d i y y     = = = = = < 2 2 2 2           ",
"                                    i 2 d d d d d y 2 2 2 2     R R R R R B B B j p = ; < 2 d d d d d d u y p 2 2       = = = = = < < < < <           ",
"                                  d p 2 d d d d d i 2 2 2       R R R R R d d a p 2 y 2 2 2 d d d d d d u 2 2             = = = = = = = = =           ",
"                                d d p 2 2 p a d 2 2 2 2         R R R R R R d 2 = = = = = 2 d d d d d 2 2 2                   = = = < 2 2 2 = *       ",
"                                d d d d 2 ; = = = = =           R R j d d d d < = = = = =   2 p d p 2                         = = = = 2 2 2 2 2       ",
"                                d d d d 2 < ; =                 j R B b d d 2 = = = = = =                                     = = = < 2 2 2 2 2       ",
"                                d d d d 2 2 < =               h j R R B d d = = = = = = =                                     = = = = 2 2 2 2 2       ",
"                              d d d d d 2 2 y               d j R R R B d d = = = = = = =                                     = = = * 2 2 2 2 2       ",
"                              d d u < = = = =               R R R R R N d d = o o % . O O .                                   = = = = = 2 2 2 2       ",
"                              d d a p i < < <               R R R j g a u u = o o = . O O .                                   = = = # o = # & % .     ",
"                              1 p u 7 p = ; -               R R R j g a u u = o o = . O O .                                   = = = O . = o O O .     ",
"                              X 2 @ @ 2 X # # X             R R R R R B d d                                                   = = = O . = o O O .     ",
"                              X = + + = X # # X             X $ d X 1 1 X 2 X                                                                         ",
"                                                            X $ u X - - X y X                                                                         ",
"                                                              @ y X * * X 1 X                                                                         ",
"                                                                                                                                                      "
};
