/* XPM */
static char *result[] = {
/* columns rows colors chars-per-pixel */
"75 75 74 1 ",
"  c #383042",
". c #3C3143",
"X c #3E3244",
"o c #453245",
"O c #413445",
"+ c #443445",
"@ c #493246",
"# c #4A3647",
"$ c #4F3747",
"% c #413648",
"& c #4A3848",
"* c #493C4F",
"= c #513848",
"- c #533A49",
"; c #563C4B",
": c #5D3C4B",
"> c #6A374D",
", c #633E4D",
"< c #7B3950",
"1 c #7F3C51",
"2 c #5B404D",
"3 c #5C4450",
"4 c #5D4752",
"5 c #5E4A54",
"6 c #5F4D57",
"7 c #5B495B",
"8 c #66404E",
"9 c #69404E",
"0 c #6E4451",
"q c #754451",
"w c #744853",
"e c #754C56",
"r c #7B4854",
"t c #794C56",
"y c #7E5159",
"u c #813D52",
"i c #833F53",
"p c #874254",
"a c #894354",
"s c #8B4555",
"d c #8E4756",
"f c #824854",
"g c #884A56",
"h c #8E4C57",
"j c #924A58",
"k c #944C58",
"l c #964D59",
"z c #80575D",
"x c #905059",
"c c #9A505A",
"v c #9D525B",
"b c #9F545D",
"n c #A2565E",
"m c #A5585F",
"M c #825E62",
"N c #AA5C62",
"B c #AC5E63",
"V c #846467",
"C c #866B6C",
"Z c #AF6165",
"A c #B26366",
"S c #B46567",
"D c #BA696A",
"F c #BC6B6B",
"G c #BF6D6C",
"H c #C16F6E",
"J c #C4716F",
"K c #C77B76",
"L c #C87E79",
"P c #CA857D",
"I c #CC8B82",
"U c #CC8E84",
"Y c #CF988C",
"T c #D3A595",
/* pixels */
"                   +0yyyyyyyyyyyyyyyyyzCyCCCCVyyyyyyy9+  +9yyyyyyyCCMyzCy& ",
"                  +8BJJJJJJJJJJJJJJJJJKYJYYYYUJJJJJJJm8X+8mJJJJJJJYYPJKYJe&",
"                  9mJJJJJJJJJJJJJJJJJJJJJJJJJJJJJJJJJJm=9mJJJJJJJJJJJJJJJJy",
"                  9mJJJJJJJJJJJJJJJJJJJJJJJJJJJJJJJJJJm=9mJJJJJJJJJJJJJJJJy",
"                  9mJJJJJJJJJJJJJJJJJJJJJJJJJJJJJJJJJJm=9mJJJJJJJJJJJJJJJJy",
"                  9mJJJJJJJJJJJJJJJJJJJJJJJJJJJJJJJJJJm=9mJJJJJJJJJJJJJJJJy",
"                  9mJJJJJJJJJJJJJJJJJJJJJJJJJJJJJJJJJJm=9mJJJJJJJJJJJJJJJJy",
"                  9nDDJFGJJJJJJJJJJJJJJJJJJJJJJJJJJHDDn=9nDDDHGFJJJJJJJJJJy",
"                  9cccJmZJJJJJJJJJJJJJJJJJJJJJJJJJJDccc=9ccccDZmJJJJJJJJJJy",
"                  9cmJJJJJJJJJJJJJJJJJJJJJJJJJJJJJJJJcc=9cccJJJJJJJJJJJJJm9",
"                   =cccccccccccccccccccccccccccccccccc=  =ccccccccccccccc= ",
"                   X==================================X  X===============X ",
"     :wyyyyyyyyyyyMVzCCCMyyyyyyyyy9      9tyyzCCzMMyyyyVMyyyyyyyyyyyyyyyy& ",
"    #xSJJJJJJJJJJJPUKYYYPJJJJJJJJJm=X   =mFJJKYYKPPJJJJUPJJJJJJJJJJJJJJJJe&",
"    fDJJJJJJJJJJJJJJJJJJJJJJJJJJJJJc=   cJJJJJJJJJJJJJJJJJJJJJJJJJJJJJJJJJy",
"    fDJJJJJJJJJJJJJJJJJJJJJJJJJJJJJc=   cJJJJJJJJJJJJJJJJJJJJJJJJJJJJJJJJJy",
"    fDJJJJJJJJJJJJJJJJJJJJJJJJJJJJJc=   cJJJJJJJJJJJJJJJJJJJJJJJJJJJJJJJJJy",
"    fDJJJJJJJJJJJJJJJJJJJJJJJJJJJJJc=   cJJJJJJJJJJJJJJJJJJJJJJJJJJJJJJJJJy",
"    fDJJJJJJJJJJJJJJJJJJJJJJJJJJJJJc=   cZGJJJJJJJJJJJJJJJJJJJJJJJJJJJJJJJy",
"    fDJJJJJJJJJJJJJJJJJJJJJJJJJJJJJc=   cmFJJJJJJJJJJJJJJJJJJJJJJJJJJJJJJJy",
"    fADFJJJJJJJJJJJJJJJJJJJJJJFGHDDc=   cDDDDFJJJJJJJJJJJJJJJJJJJJJJJJJJJJy",
"    fccmJJJJJJJJJJJJJJJJJJJJJJmZDccc=   cccccmJJJJJJJJJJJJJJJJJJJJJJJJJJJJy",
"    fcZJJJJJJJJJJJJJJJJJJJJJJJJJJJcc=   ccDZmJJJJJJJJJJJJJJJJJJJJJJJJJJJJm9",
"    #gbmmmmmmmmmmmmmmmmmmmmmmmmmmmc=X   =cnbvmmmmmmmmmmmmmmmmmmmmmmmmmmmm8+",
"     :99999999999999999999999999999      99999999999999999999999999999999+ ",
"=0yyyVCVyCyyyyy9   +0yyyyyyyyyVCCCyCzyyyyyyyyyyyyyyyyy0+                  *",
"rBJJJUYUJYJJJJJm=X+8BJJJJJJJJJUYYYJYKJJJJJJJJJJJJJJJJJB8+  @@@@@@@@@@@@@@.7",
"ZJJJJJJJJJJJJJJJc=9mJJJJJJJJJJJJJJJJJJJJJJJJJJJJJJJJJJJm9  <<<<<<<<<<<<<<@7",
"ZJJJJJJJJJJJJJJJc=9mJJJJJJJJJJJJJJJJJJJJJJJJJJJJJJJJJJJm9  <<<<<<<<<<<<<<@7",
"ZJJJJJJJJJJJJJJJc=9mJJJJJJJJJJJJJJJJJJJJJJJJJJJJJJJJJJJm9  <<<pjjjjjjjjjj$7",
"ZJJJJJJJJJJJJJJJc=9mJJJJJJJJJJJJJJJJJJJJJJJJJJJJJJJJJJJm9  <<<1aciccccccc=7",
"mSJJJJJJJJJJJJJJc=9mJJJJJJJJJJJJJJJJJJJJJJJJJJJJJJJJJJJm9  <<psdcsccccccc=7",
"bBJJJJJJJJJJJJJJc=9mJJJJJJJJJJJJJJJJJJJJJJJJJJJJJJJJJJJm9  <<jccccccccccc=7",
"ZJJJJJJJJJJJJJJJc=9mJJJJJJJJJJJJJJJJJJJJJJJJJJJJJJJJJJJm9  <<jccccccccccc=7",
"ccccDmZJJJJJJDccc=9cccJmZJJJJJJJJJJJJJJJJJJJJJJJJJJJJJmc9  <<jccccccccccc=7",
"cccJJJJJJJJJJJJcc=9cmJJJJJJJJJJJJJJJJJJJJJJJJJJJJJJJJJJm9  <<jcccccccccc  7",
"qccmmmmmmmmmmmmc=X+,vmmmmmmmmmmmmmmmmmmmmmmmmmmmmmmmmmm8+  @@$==========  %",
"=999999999999999   +99999999999999999999999999999999999+                   ",
"     #;222222222256652632222222222=   X=222222222223625665262222222222222O ",
"     fZJJJJJJJJJJYTTYJTLJJJJJJJJJJc   =cJJJJJJJJJJJLTJYTTYJTJJJJJJJJJJJJJ2 ",
"    fDJJJJJJJJJJJJJJJJJJJJJJJJJJJJJc=9mJJJJJJJJJJJJJJJJJJJJJJJJJJJJJJJJJJJy",
"    fDJJJJJJJJJJJJJJJJJJJJJJJJJJJJJc=9mJJJJJJJJJJJJJJJJJJJJJJJJJJJJJJJJJJJy",
"    fDJJJJJJJJJJJJJJJJJJJJJJJJJJJJJc=9mJJJJJJJJJJJJJJJJJJJJJJJJJJJJJJJJJJJy",
"    fDJJJJJJJJJJJJJJJJJJJJJJJJJJJJJc=9mJJJJJJJJJJJJJJJJJJJJJJJJJJJJJJJJJJJy",
"    fDJJJJJJJJJJJJJJJJJJJJJJJJJJJJJc=9nDJJJJJJJJJJJJJJJJJJJJJJJJJJJJJJJJJJy",
"    fDJJJJJJJJJJJJJJJJJJJJJJJJJJJJJc=9vmJJJJJJJJJJJJJJJJJJJJJJJJJJJJJJJJJJy",
"    fDJJJJJJJJJJJJJJJJJJJJJJJJJJJJJc=9mJJJJJJJJJJJJJJJJJJJJJJJJJJJJJJJJJJJy",
"    fccccJcDJJJJJJJJJJJJJJJJJJJJDccc=9ccccDZmJJJJJJJJJJJJJJJJJJJJJJJJJJJJJy",
"    fccnDJDHJJJJJJJJJJJJJJJJJJJJHDcc=9cccDHGFJJJJJJJJJJJJJJJJJJJJJJJJJJJJB0",
"    :hcbZZZZZZZZZZZZZZZZZZZZZZZZZZc9+=qccZZZZZZZZZZZZZZZZZZZZZZZZZZZZZZZZr=",
"     :99999999999999999999999999999   +9999999999999999999999999999999999+ ",
"+-2225436622222=                                         X=22245266322222O ",
"9mJJJYILTTJJJJJc                                         =cJJJIYJTTLJJJJJ2 ",
"ZJJJJJJJJJJJJJJJc= @<<<<<<<<<<<<<<<<<<<<<<<<<<<<<<<<<<<@9mJJJJJJJJJJJJJJJJy",
"ZJJJJJJJJJJJJJJJc= @<<<<<<<<<<<<<<<<<<<<<<<<<<<<<<<<<<<@9mJJJJJJJJJJJJJJJJy",
"ZJJJJJJJJJJJJJJJc= @<<jupjjjjjjjjjjjjjjjjjjjjjjjjjjjjjj$9mJJJJJJJJJJJJJJJJy",
"ZJJJJJJJJJJJJJJJc= @<<s1ijlsccccccccccccccccccccccccccc=9mJJJJJJJJJJJJJJJJy",
"ZJJJJJJJJJJJJJJJc= @<<iiidkiccccccccccccccccccccccccccc=9mJJJJJJJJJJJJJJJJy",
"ZJJJJJJJJJJJJJJJc= @<<ccccccccccccccccccccccccccccccccc=9mJJJJJJJJJJJJJJJJy",
"ZJJJJJJJJJJJJJJJc= @<<<jccccccccccccccccccccccccccccccc=9mJJJJJJJJJJJJJJJJy",
"cccJmDJJJJJJZcccc= @<<ccccccccccccccccccccccccccccccccc=9cccJmZJJJJJJJJJJJy",
"cnDJFHJJJJJJGAccc= @<<ccccccccccccccccccccccccccccccccc=9ccDJFGJJJJJJJJJJB0",
"fbZZZZZZZZZZZNcc9+ @<<ccccccccccccccccccccccccccccccccq+=qcZZZZZZZZZZZZZZr=",
":fffffffffffffff   o>>ffffffffffffffffffffffffffffffff#  #fffffffffffffff# ",
"                                                                           ",
"     fZJJJJJJJJJJYIJLTJYTTYJJJJJJJc   =cJJJJJJJJYTTYJTLJJLTJJJJJJJJJJJJJJ2 ",
"    fDJJJJJJJJJJJJJJJJJJJJJJJJJJJJJc=9mJJJJJJJJJJJJJJJJJJJJJJJJJJJJJJJJJJJy",
"    fDJJJJJJJJJJJJJJJJJJJJJJJJJJJJJc=9mJJJJJJJJJJJJJJJJJJJJJJJJJJJJJJJJJJJy",
"    fDJJJJJJJJJJJJJJJJJJJJJJJJJJJJJc=9mJJJJJJJJJJJJJJJJJJJJJJJJJJJJJJJJJJJy",
"    fDJJJJJJJJJJJJJJJJJJJJJJJJJJJJJc=9nDDJJJJJJJJJJJJJJJJJJJJJJJJJJJJJJJJJy",
"    fDJJJJJJJJJJJJJJJJJJJJJJJJJJJJJc=9ccmJJJJJJJJJJJJJJJJJJJJJJJJJJJJJJJJJy",
"    fDJJJJJJJJJJJJJJJJJJJJJJJJJJJJJc=9ccJJJJJJJJJJJJJJJJJJJJJJJJJJJJJJJJJJy",
"    fccmJJJJJJJJJJJJJJJJJJJJJJmZDccc=9cccccZJJJJJJJJJJJJJJJJJJJJJJJJJJJJJJy",
"    fcNFJJJJJJJJJJJJJJJJJJJJJJFGHDcc=9ccDcAGJJJJJJJJJJJJJJJJJJJJJJJJJJJJJB0",
"    :hmZZZZZZZZZZZZZZZZZZZZZZZZZZZc9+=qcZcNZZZZZZZZZZZZZZZZZZZZZZZZZZZZZZr="
};
