/* XPM */
static char *_a7c4a3a59a046dafb2691937cc0de34pqjPImMQkE4SodyQ[] = {
/* columns rows colors chars-per-pixel */
"75 75 189 2 ",
"   c None",
".  c #A27200",
"X  c #A77800",
"o  c #AB7C00",
"O  c #AF8000",
"+  c #B38300",
"@  c #B78800",
"#  c #BB8C00",
"$  c #BC9303",
"%  c #BF9904",
"&  c #BF9A2A",
"*  c #C49400",
"=  c #C89700",
"-  c #C59A02",
";  c #CB9C00",
":  c #C79B0D",
">  c #C99D0B",
",  c #D09F00",
"<  c #C79D10",
"1  c #C99E13",
"2  c #C79E1C",
"3  c #C99F19",
"4  c #C6A205",
"5  c #CCA303",
"6  c #CFAD06",
"7  c #CAA60D",
"8  c #CEAF09",
"9  c #D5A400",
"0  c #D8A700",
"q  c #D4AB03",
"w  c #DDAC00",
"e  c #D8AF0A",
"r  c #D2A50E",
"t  c #D7B105",
"y  c #DAB405",
"u  c #DEBA05",
"i  c #D3B209",
"p  c #D7BE0A",
"a  c #DAB109",
"s  c #CDA214",
"d  c #CBA21D",
"f  c #D9AC13",
"g  c #D1A313",
"h  c #DDB010",
"j  c #DEB816",
"k  c #DBB21D",
"l  c #E0AF00",
"z  c #E4B300",
"x  c #E8B700",
"c  c #E5BB02",
"v  c #EDBD00",
"b  c #E3B60D",
"n  c #E2BF17",
"m  c #E3BD1D",
"M  c #C59D24",
"N  c #C59E2D",
"B  c #C49F34",
"V  c #C7A027",
"C  c #C8A123",
"Z  c #CDA821",
"A  c #C6A12C",
"S  c #C8A029",
"D  c #CFAD2E",
"F  c #D8AF25",
"G  c #D4AD2D",
"H  c #DAB526",
"J  c #C6A234",
"K  c #CAA432",
"L  c #C6A43E",
"P  c #CAA639",
"I  c #D0AB39",
"U  c #D4AC30",
"Y  c #D5B037",
"T  c #D7BD3E",
"R  c #DBBD3C",
"E  c #E0BC38",
"W  c #DCC309",
"Q  c #E5C205",
"!  c #ECC404",
"~  c #EECA06",
"^  c #EACA0A",
"/  c #E9C80B",
"(  c #F4C400",
")  c #F3CC04",
"_  c #FECF00",
"`  c #F2CE08",
"'  c #E6D30D",
"]  c #EEDB0E",
"[  c #F5D206",
"{  c #FDD404",
"}  c #FCD906",
"|  c #F3D40B",
" . c #FCD609",
".. c #F2DA0C",
"X. c #FBDB09",
"o. c #E1C017",
"O. c #E0CA11",
"+. c #E2C21A",
"@. c #ECCB1E",
"#. c #F3C710",
"$. c #F4D213",
"%. c #FEDB1C",
"&. c #EFE10F",
"*. c #F6E50E",
"=. c #F9E30C",
"-. c #F7E80F",
";. c #F8E90F",
":. c #EFE110",
">. c #F6E614",
",. c #F8E516",
"<. c #F7EC11",
"1. c #F8ED11",
"2. c #F7ED1E",
"3. c #F9ED19",
"4. c #FAE51D",
"5. c #DFC037",
"6. c #E8C021",
"7. c #EDCD20",
"8. c #E1C32B",
"9. c #E9C828",
"0. c #E8C22A",
"q. c #FDDC22",
"w. c #E2C43D",
"e. c #FCEC24",
"r. c #FDE42D",
"t. c #FAEB2B",
"y. c #F0E42B",
"u. c #F9F02D",
"i. c #FAEE33",
"p. c #FCE73B",
"a. c #F8EF3B",
"s. c #F8F13C",
"d. c #C5A343",
"f. c #C8A745",
"g. c #C5A44C",
"h. c #C8A74C",
"j. c #CAAA4D",
"k. c #CAA845",
"l. c #D5B542",
"z. c #D9BF4C",
"x. c #DAB842",
"c. c #C6A653",
"v. c #C7A952",
"b. c #CAAB54",
"n. c #CAAD5B",
"m. c #CEB15B",
"M. c #D8BA5C",
"N. c #C7AD6A",
"B. c #CBAF69",
"V. c #C9AB61",
"C. c #CFB363",
"Z. c #D5BD67",
"A. c #D5B96A",
"S. c #CFB97E",
"D. c #DAC051",
"F. c #FBDE53",
"G. c #FDE54A",
"H. c #FDED42",
"J. c #F8F249",
"K. c #F2E657",
"L. c #FEE256",
"P. c #FFED78",
"I. c #FDEA76",
"U. c #FBF577",
"Y. c #FDF47D",
"T. c #CCB684",
"R. c #D8C688",
"E. c #F1E387",
"W. c #FDF484",
"Q. c #FCF689",
"!. c #FDEE97",
"~. c #FDF99C",
"^. c #FDF7A3",
"/. c #FFF3A9",
"(. c #FEFAAA",
"). c #FDF9A5",
"_. c #F1E7B3",
"`. c #FEF8B5",
"'. c #EFE6CD",
"]. c #F5EECC",
"[. c #FEFCC9",
"{. c #FDFAC1",
"}. c #F4EFDB",
"|. c #FDFBD2",
" X c #FFFADD",
".X c #FFFCE3",
"XX c #FEFEED",
"oX c #FEFEF3",
"OX c #FFFFFB",
/* pixels */
"                                                                                                                                                      ",
"                                                                                                                                                      ",
"                                                                                                                                                      ",
"                                                                                                                                                      ",
"                                                                                                                                                      ",
"                                                                R.Z.R 8.o.+.+.H l.A.                                                                  ",
"                                                        D.8.7.$. .} { } {  .} } { _ ) #.6.x.                                                          ",
"                                                  D.w.| } } {  .{ { } { {  .{ } { _ _ _ _ { _ / E M.                                                  ",
"                                              5.@.X.{ { { X.} X.r.r.=.=.=.X.X.X.} _ _ _ _ _ _ _ _ ) m x.                                              ",
"                                          x.$.{ { {  .} -.i.Q.{.[.J.1.<.1.1.1.1.1.-.=.X.{ _ _ _ _ _ { ) m C.                                          ",
"                                        9.}  . . .=.e.U.|.OX.XW.,.-.X.X.X.} } } } { } X.=.=.{ { _ _ _ { _ x F                                         ",
"                                    l./ } } { X.t.^.XXOX XI.%.X.{ [ [ ) ! / ~ ~ [ } { { _ _ } }  ._ _ _ _ v v b m.                                    ",
"                                  5.~ { } X.4.~.oX.X/.G. .) Q q 4 $ $ $ $ $ $ $ $ $ - ; y ( _ { _ { _ _ _ v v v v Y                                   ",
"                                j ~  .X.X.-.i.I.L.%.{ Q 6 % $ $ 4 4 6 t i i y t 8 4 # . . o = z _ _ _ _ _ ( v v v v H                                 ",
"                              n / [ { =.1.-.} { { u - $ $ 4 y ~ [ [ X.X.-.=.=.-.=...[ z = X . . @ l { _ _ ( v v v v v k                               ",
"                            o.! ~ { -.<.=.{ } Q 4 $ % i ~ } X.-.t.3.1.1.1.1.1.1.>.;.-.=.{ _ z @ . . @ x _ ( v v v v v v k                             ",
"                          n ! ^ { -.<.X.} { i $ $ q ` } =.e.U.|.[.u.<.<.1.1.=.}  .{ { _ _ _ _ { x @ . . = w w x v v v v v G                           ",
"                        G x Q [ -.-.}  .~ 4 $ 4 !  ...H.(.oXoX^.2.<.<.=. .{ ~ ! ! ! ) _ _ _ _ _ _ { w X . + 9 9 w x v v v v C                         ",
"                      G z x ! =.-.}  .! % $ q | { p.).OXoX(.J.<.>.=.X.{ { ! 4 7 5 4 ; { _ _ _ _ _ _ _ v + . o , 0 0 z v v v w j.                      ",
"                    n.e z z ~ >.{ { ) - % y } q.W.XX.XY.s.1.1.X.} { {  .~ 8 ' e % 6 ; { _ _ _ _ { _ _ _ _ # . o , 0 9 l v v z g                       ",
"                    f z z x .. .} ~ % $ u } G.`.Q.a.1.1.;.-. .{ {  .{ ) 5 -.! 0 X ; ; { _ _ _ _ _ _ _ _ _ ( # . X 9 9 9 w v x 0 D                     ",
"                  I x z z ! } { [ 4 $ u } } <.<.1.1.1.>.} {  .} } { [ 7 >.{ v w o ; ; { _ { _ _ _ _ { _ _ ( v @ . + 0 0 0 l v 0 9 c.                  ",
"                  h z z z ) { _ 4 % t } X.1.<.<.1.1.=. .{ }  .{ X.~ 7 ,.{ _ v 0 o ; , _ _ _ _ _ _ _ _ _ _ v v x o . # 9 0 9 z w 9 s                   ",
"                U z w z z _ _ ; O 4 [ X.1.1.1.1.1.}  .}  .{ {  .[ D _.q._ _ v w o ; ; _ _ _ _ _ _ _ _ _ _ v v v 9 X . = 9 9 0 0 0 9 v.                ",
"                f z z w v { x . . !  .;.1.1.1.>.} } { }  .{ { } Z '.!.) _ _ v 0 o ; ; _ _ _ _ _ _ _ _ _ ( v v v x # . X ; 9 9 9 9 0 d                 ",
"              j.w z 9 w ( ( + . - { =.1.1.1.-.{ { {  .{ } { } 5 E.F._ _ _ _ v w o ; , { _ _ _ _ { _ _ _ v v v v v w o . + 9 9 0 0 9 9 c.              ",
"              s 9 w ; z ( 9 . X ( X.1.1.1.-.{ {  .} {  .{ } 5 ' | x _ _ _ _ v 0 o ; ; _ _ _ _ _ _ _ _ ( v v ( v v z = . X * 9 9 0 9 ; A               ",
"              9 9 9 ; x v o . , { <.1.1.-.{ { { { { } { } t O...9 5 _ _ _ _ v 0 o ; ; { _ _ _ { _ _ _ ( v v v v v v w o . o = 9 9 9 ; 1               ",
"            k.w 0 * , x , X . ( =.1.1.;.{ _ _ { { { { { u W | w @ - _ _ _ _ v w o ; ; _ _ _ _ _ _ { ( v v v v v v v z * . X # , 9 5 ; ; g.            ",
"            d 9 0 # , l @ . # { ;.1.1.} _ _ _ _ _ _ { z p | w # @ ; ( { _ _ v 0 o ; , { _ _ _ _ _ ( v v v v v v v v v 0 . . + = 9 ; ; ; A             ",
"            r 9 , @ , ; o . 0 } 1.1.=._ _ _ _ _ _ _ x i ] w $ + * * &._ _ _ v 0 o ; ; { _ _ _ _ ( v v v v v v v v v v l + . o * ; ; ; ; K             ",
"          T.q 0 ; @ 9 * X X v ,.1.1.} { { _ _ _ _ ( 8 ] w 9 # * z q ..{ _ _ v 0 o = , { _ _ _ _ v v v v v v v v v v v x * . o + = ; ; ; <             ",
"          k.9 9 * @ 9 @ . + [ 1.1.=._ _ _ _ _ _ _ # 8 = = = = z { t K._ _ _ v 0 o ; ; _ _ _ ( v v v v v ! v v v v v v x 9 . X + @ ; ; ; ; B.          ",
"          M 0 9 * @ ; + . # ) <.>.{ _ _ _ _ _ _ _ _ _ _ _ _ _ _ { k }. ._ _ v 0 o ; ; { _ v v v v v v v v v v v v v v v q X . + + ; ; ; ; d.          ",
"          > 0 9 * + ; + . # ^ ] ;.{ { _ _ _ _ _ _ _ _ _ _ _ _ _ _ H ]._ _ _ v 0 o ; ; ( v v v x v v v v v v v v v v v ( w o . o + = ; ; ; M           ",
"          9 0 9 # + = o . $ ^ ' ~ ( _ _ _ _ _ _ _ _ _ _ _ _ _ _ _ e y.{ _ _ v 0 o - = v v v v v v v v v v v v v v v v v w + . o o * ; ; ; j.          ",
"          9 9 9 # + * o . # Q ' ! v ( _ _ _ _ _ _ _ _ _ _ _ _ _ { t &.{ _ _ v 0 o ; = v v v v ! v v v v v v v v v v v x 9 + . o + @ ; ; ; n.          ",
"          9 9 9 * + @ o . * y ' v v v v ( ( _ _ _ _ _ _ _ _ _ _ _ q &.{ _ _ x w X ; = v v v v x v v v v v v v v v v z l ; + . o + + ; ; ; n.          ",
"          9 9 9 * + @ o . * q ^ v v x v v v v v v ( ( ( ( ( ! ( v 9 ] { _ _ x w o ; = v v v v v ( v v v v v v v v z w w 9 + . o o @ ; ; ; n.          ",
"          , 9 9 # @ @ + . # q c v v v v v v v v v v v v v v v v v 9 >.{ _ _ x 0 o ; = v v v v v v v v v v ! v v w w w w ; o . + + @ ; ; ; A           ",
"          : 9 9 * o @ + . @ 9 e v v v v v v v v v v v v v v v v v 5 :.{ _ _ x 0 o ; = v v v v v ! v v v v v x l w w l w ; X . + + + = ; ; N           ",
"          N ; 9 = @ @ + X o 9 w z v v v v v v v v v v v v v v v v 9 &.{ _ _ x 0 o ; = v v v v x v v v v x z w l w l w 9 ; . . + + + ; ; ; h.          ",
"          B.; ; = + @ + X X , 9 9 v v v v v v v v v v v v v ! v v 9 &.{ _ _ x 0 o = = v v v v v v v x x w w l w l w w 5 * . X + + @ ; ; ;             ",
"            ; ; = + @ @ X . = 0 9 l v v v v v v v ! v v v x v v v 5 >.{ _ _ z w o ; = v v v v v v x z w l w w l w l 9 ; @ . o + + @ ; ; 2             ",
"            < ; = + + @ o . * 9 0 9 z v v v v v v ! v v v v v v v 9 &.{ { _ z 0 o ; = v v v v x y l w l w l w w w w ; ; o . o + + # ; ; P             ",
"            M ; ; @ + + o . o 9 9 9 0 x v v v v v v v v v v ! v v 5 &.{ _ _ l w o ; = ! v x z w w w w w w l l w l 9 ; ; . X + + o * ; ; J             ",
"            n.; ; * + + o o . , 9 0 0 0 x v v v v v v v v v v v v 9 :.{ _ _ w 0 o ; * x w w w l w l l w l w w w 9 ; ; @ . o + + + - ; >               ",
"              ; ; , + + o o X o , , 9 9 9 x v v v v v v v v v v v 9 &.{ _ _ w 0 o ; # w w l l w l w w l w l w 9 ; ; = X . o + + @ ; ; 3               ",
"              A ; ; @ + + + . . * ; ; 9 9 9 z v v v v v v v v v v 9 &.{ _ _ l w o ; * l w l l w w w l w w w 9 ; ; ; # . X + + + * ; ; N               ",
"              d.; ; * + + + X . o ; ; ; ; ; ; q z x x v x v v x x 5 &._ _ _ 0 0 o ; # l l w w w l w w l w 5 ; ; ; - X . o + + + - ; ; T.              ",
"                d ; ; @ + + + X . @ ; ; ; ; ; ; ; 9 w l w w y w w - ] { _ ( w 0 o ; * w w w z w w w w 9 ; ; ; ; ; + . X + + + * ; ; A                 ",
"                L ; ; = + + + o . X = ; ; ; ; ; ; ; ; 9 w l w w w ; >._ _ v 0 0 o ; $ z w l w w w 9 ; ; ; ; ; ; $ . . o + o + * ; ; n.                ",
"                  3 ; ; @ o + + o . o = ; ; ; ; ; ; 5 ; ; ; 9 w w - &.{ _ v w w o ; # z w w 9 ; ; ; ; ; ; ; ; * X . o + + + * = ; S                   ",
"                  g.; ; * + + + + X . o ; ; ; ; ; ; ; ; ; ; ; ; 5 * .._ { x 0 0 o ; # ; ; ; - ; ; ; ; ; ; ; - X . o @ + + + = ; ;                     ",
"                    A ; ; @ + + + o . . + ; ; ; ; ; ; ; ; ; ; ; ; $ ..{ _ z 0 w o ; @ ; ; ; ; ; ; 5 ; ; ; = X . X o + o o * ; ; J                     ",
"                      > ; = + + + + + . . o = ; ; ; ; ; ; ; ; ; ; * | _ ( 0 w 9 o ; @ ; ; ; ; ; ; ; ; ; = X . X + + + + # ; ; M                       ",
"                      b.; ; * + + + + + X . X * ; ; ; ; ; ; ; ; ; $ ) _ w 0 w # o = # ; ; ; ; ; ; ; ; # . . o o o + + + = ; < B.                      ",
"                        J ; ; # o + + + + X . . + ; ; ; ; ; ; ; ; * v w 9 q = + o ; @ ; ; ; ; ; ; = o . . o + + + + o * ; ; d.                        ",
"                          A ; ; @ + + + o + o . . X @ ; ; ; ; ; ; * # # * $ @ # # # * ; ; ; ; = @ X . . o + + + + o * ; ; d.                          ",
"                            N ; ; # + + + + + + X . . X @ ; ; ; ; ; ; ; ; ; ; ; ; ; = ; , * + X . . o + + + + + + * = = f.                            ",
"                              A ; ; * o + + + o + + X . . . X + * = ; ; ; ; ; ; = = * o X . . X X o + + + o + o @ ; ; h.                              ",
"                                d.; ; * + + + + o + + o o . . . . . . X X X X X . . . . . . o + + + + + + + + * ; > f.                                ",
"                                  J > ; = # o + + + + + + + + o . . X . . . . . X X o o o + + + + + + + + @ = ; 1 v.                                  ",
"                                      3 ; ; * @ + + + + + + + + + + + + + + o + + + + + + + + o + + + + # - ; K                                       ",
"                                        L ; ; ; * + + + + + + + + + + o + + + + + + + + + + + + + + # ; ; < v.                                        ",
"                                            J > ; ; = @ + + + + + + + + + + + + o + + + + + + @ * ; ; > B                                             ",
"                                                B ; ; ; ; = # @ + + + + + + o + o + @ @ # = ; ; ; < J                                                 ",
"                                                    d.2 1 ; ; ; ; ; - = = * = = ; ; ; ; ; ; 3 M g.                                                    ",
"                                                          c.M K d : - ; ; ; ; ; ; : C J A b.                                                          ",
"                                                                                                                                                      ",
"                                                                                                                                                      ",
"                                                                                                                                                      ",
"                                                                                                                                                      ",
"                                                                                                                                                      ",
"                                                                                                                                                      "
};
