/* XPM */
static char *_64e7e360cc9460392c462fe8f0b775e7GP1n2ycmOZIg85Y[] = {
/* columns rows colors chars-per-pixel */
"75 75 184 2 ",
"   c None",
".  c #9F2C18",
"X  c #A22E19",
"o  c #A6301A",
"O  c #AD341C",
"+  c #AE391C",
"@  c #B3361C",
"#  c #B6381D",
"$  c #BB3B1D",
"%  c #C33E1E",
"&  c #BC441D",
"*  c #B64A1C",
"=  c #BB4C1C",
"-  c #B3411B",
";  c #BF5132",
":  c #BF5939",
">  c #BD5539",
",  c #C6401E",
"<  c #CC431E",
"1  c #C34B1D",
"2  c #CC4B1E",
"3  c #D3461E",
"4  c #D64A1F",
"5  c #DA4A1F",
"6  c #C5521D",
"7  c #CB521E",
"8  c #CD5B1E",
"9  c #D2561E",
"0  c #DB561F",
"q  c #D6591E",
"w  c #DC5A1F",
"e  c #E34E1F",
"r  c #E2561F",
"t  c #E65D1F",
"y  c #E9581F",
"u  c #D4631F",
"i  c #D86B1F",
"p  c #DD731F",
"a  c #EF6F1E",
"s  c #F2621F",
"d  c #E3711E",
"f  c #ED7A1F",
"g  c #F5731E",
"h  c #C34423",
"j  c #CA4421",
"k  c #C14820",
"l  c #CB4A23",
"z  c #C34729",
"x  c #C44B2C",
"c  c #CA4C2B",
"v  c #D44720",
"b  c #D64922",
"n  c #DB4920",
"m  c #D54F29",
"M  c #CD5B22",
"N  c #D25520",
"B  c #DD5222",
"V  c #D05D20",
"C  c #DB5D20",
"Z  c #DE5F2A",
"A  c #D6532E",
"S  c #C34E32",
"D  c #C35235",
"F  c #CA5232",
"G  c #C3563A",
"H  c #C45A3E",
"J  c #C85839",
"K  c #D15634",
"L  c #D85E39",
"P  c #E24D20",
"I  c #E65220",
"U  c #ED5320",
"Y  c #E45D21",
"T  c #EB5C21",
"R  c #E85829",
"E  c #E5572A",
"W  c #F15520",
"Q  c #F15B22",
"!  c #E55D32",
"~  c #D66721",
"^  c #DA6720",
"/  c #DD6921",
"(  c #DA622E",
")  c #DF7022",
"_  c #CA603F",
"`  c #D9613C",
"'  c #EC6121",
"]  c #E26B20",
"[  c #ED672A",
"{  c #EC692C",
"}  c #E76821",
"|  c #F46522",
" . c #F46B22",
".. c #F36A2A",
"X. c #E37321",
"o. c #E77921",
"O. c #EA7C21",
"+. c #EB7722",
"@. c #F57323",
"#. c #F57B22",
"$. c #F5772C",
"%. c #E36633",
"&. c #E36F3C",
"*. c #E86B33",
"=. c #F57F30",
"-. c #BF6247",
";. c #BD775E",
":. c #C45D42",
">. c #C16246",
",. c #CA6246",
"<. c #C5654C",
"1. c #C36A4D",
"2. c #C8654D",
"3. c #DA6B43",
"4. c #D56D4A",
"5. c #DD734D",
"6. c #C46B55",
"7. c #CD6D55",
"8. c #C36751",
"9. c #CC7057",
"0. c #C5745E",
"q. c #CF7C5E",
"w. c #CE735B",
"e. c #DC7955",
"r. c #D87D5B",
"t. c #F47D47",
"y. c #C47560",
"u. c #CA7760",
"i. c #C57863",
"p. c #CA7A64",
"a. c #C67F69",
"s. c #CC7E6A",
"d. c #D17C62",
"f. c #EE821F",
"g. c #F78C1F",
"h. c #EF8322",
"j. c #F58423",
"k. c #F78B23",
"l. c #F6812B",
"z. c #F88C21",
"x. c #F58035",
"c. c #F69736",
"v. c #F79439",
"b. c #F6993A",
"n. c #F5894F",
"m. c #F7984F",
"M. c #F58A54",
"N. c #F6915E",
"B. c #F9A050",
"V. c #F8A159",
"C. c #C8836B",
"Z. c #D48162",
"A. c #D38569",
"S. c #D4896A",
"D. c #C88878",
"F. c #CB8371",
"G. c #D1907F",
"H. c #F7A863",
"J. c #F8A76E",
"K. c #F7A765",
"L. c #F9B06F",
"P. c #F7A57A",
"I. c #FAB972",
"U. c #FAB671",
"Y. c #CA8F81",
"T. c #D5A285",
"R. c #F6B58F",
"E. c #F7B796",
"W. c #F9C79D",
"Q. c #FAC590",
"!. c #FACEA5",
"~. c #F9CFAA",
"^. c #FBD7BE",
"/. c #FAD5B3",
"(. c #FAD9C9",
"). c #FBE3CA",
"_. c #FBE0C5",
"`. c #FDE4D3",
"'. c #FDE9D3",
"]. c #FCEEE3",
"[. c #FEF3E4",
"{. c #FEFAF4",
"}. c #FFFBF9",
"|. c #FFFEFC",
/* pixels */
"                                                                                                                                                      ",
"                                                                                                                                                      ",
"                                                                                                                                                      ",
"                                                                                                                                                      ",
"                                                                                                                                                      ",
"                                                                  T.S.5.3.*.*.3.3.d.Y.                                                                ",
"                                                          S.&.*.[ | | | | | | | | W W R ! ` A.                                                        ",
"                                                    r.&.| | | | | | s | | | s | | Q W W W W W U ! r.                                                  ",
"                                                e.{ | | | |  . .$.M.=.#.#.@.@.@. .| W W W W W W W W E 5.F.                                            ",
"                                            5.[ | | |  .g l.H.~.'.~.v.k.k.k.k.k.k.j.j.@. .W W W W W W W R 4.                                          ",
"                                        Z.[ | | |  .#.m.!.[.}.`.K.#.@.@. . . . . . . . .@.#.@.| W W W W Q I n w.                                      ",
"                                      3.'  .s  .$.H.).}.}.(.N.| s | ' ' ' t Y Y T T | Q W W Q Q ..Q W W W U P P L                                     ",
"                                    ( ' | |  .m.).{.`.E.t.s t q 7 = * * * * * * = * = & , P W W W Q W W W U P P P A 9.                                ",
"                                A.Z ' | | #.j.K.P.M...y q 6 = * = 1 6 7 8 N 7 N 9 7 6 + . X # % P W W W W W P P P P B 7.                              ",
"                              Z.E t | | j.k.@. .s ' 9 = * = 7 w s '  . .@.C 1 #.#.#.@.r < # X X o $ U W W W P P P P P P w.                            ",
"                            q.Y Y |  .k.k. .| | q * * 6 q ' | @.l.v.k.k.j.6 2 o.j.j.j.#.@.Q y % O X X , P U I P P P P P P p.                          ",
"                          S.Z r s  .j.#.s | T 6 * = q | | @.V.!.[.W.k.k.X.q P 7  .| | Q W W W W U v X X o % n 5 e P e e P P p.                        ",
"                          A Y w  .j.#. . .t = * 7 | | l.L.'.|.].U.k.k.j.6 a W $ | | | Q W W U W W W U $ X o % % % 5 e e P P m y.                      ",
"                        K n B s j.@.| | q = = w |  .J.`.|.].Q.b.g.#. .Y V | U 3 v | Q W W W W W W W W W % O X @ % 5 5 5 P P n F                       ",
"                      ,.n n b #.O.| s q * = t | M.^.}.).I.c.g.j. .| | 1 h.W W n $ ' Q W W W W W W W W W W n O X % % % 5 n P P v ,.                    ",
"                    p.b n n r #.| | q * = ' ..R./.I.b.z.k.k.@.| |  .| M #.y W P < q W U W W W W W W W W W W P o X @ 3 3 < 5 P 5 < p.                  ",
"                    F n n 3  .Q | w = * ' | @.k.z.z.k.k.#.| |  .| s 2 f @.W W P 5 $ W W U W W W W W W W W W P v X X $ 3 < j n 5 3 c                   ",
"                  -.n 5 n 5 T W I = = '  .#.k.k.z.z.j. .| | | | | ' 7 k.| W W P P % P W W W W W W W W W W U P P % X X % % 3 3 5 3 , 6.                ",
"                  A n b 5 r W U + - q s @.k.k.k.z.#. .| | | | | | 9 ) j.Q W W I n P % W W W W W W W W W W U P P e % X @ % 3 3 % < 3 c                 ",
"                2.b n 3 b y W $ X @ | @.k.k.k.k.#.| | | | | | | | l k.j.W U W P n U % P W W W W W W W W W P P P e % O X @ % 3 3 < 3 < 7.              ",
"                _ 3 n , B U 5 X . P | j.k.k.k.g  .| | | | | | | C u k.@.W W W U n P P , W W W W W W W W W P P P e e % X X @ 5 % < < < S               ",
"                j < 3 , P U # X $ W #.k.k.k.@.| | | | | | | | | 2 h.k. .W W W P v P W % P W W W W W W W P P P P P P 5 @ X O % % < 3 < j i.            ",
"              u.3 < % 3 P j X X n @.k.k.k.@.Q Q | | | ' T T y 0 M k.k.T W W U U n n U n < P P U U W W U P P P U P P 5 % X o $ % < 3 % < >.            ",
"              F < 3 @ v n @ X @ y +.o.) u 3 3 3 2 2 7 9 9 M q ~ j.k.k.W W W W I v n P W 3 % % % % % , % % % % % % 3 5 % O X o $ v % , % D             ",
"              < 3 , @ 3 v O . v 2 & ^ / ] X.O.O.h.j.j.g.k.j.j.#. . .| W W W W P n n n W W W U P P P P v v 3 3 % % # @ @ $ X o @ , j % j ,             ",
"            D.< < % # 3 # X X U j.~ u j.j.#.@. . .Q Q Q W W W W W W U W W W W P n n v P P P P P P P n n n n e % % $ % P % X X @ $ , , , , :.          ",
"            1.3 < $ $ , @ . @ Q j.k.^ 6 k. .U U W W W W W W W W W W W W W W W n n n n v n n n n v n n n 5 3 % % # % P P n O X O O , , , , 6.          ",
"            J < < $ $ , o . % @.z.z.| e 1 O.@.P P U W W W W W W W W W W U W U n n n n n n n n n n n n % % % % % % P P P 5 % . X O $ , , , D           ",
"            F < < @ # % o . < #.k.#.W W I 1 X.@.I n n P e U W W W W W W W W P n n n n n n 3 n n n n 3 % % % O % P P P P 5 % . o O @ , , % h           ",
"            c j , @ # $ o o 3 ] j. .W W W U 2 i #.I n n n n n P P P I U P P n n n 3 n n n n n P 3 % % % % @ % P P P P P P % . X O @ , , , %           ",
"            l 3 , @ # # o X < a o.I W W W W W 3 V j.U 5 n n n n n n n n n v n n n n n n n n n % % o % @ % P U P P P P P P % X X O O % % , %           ",
"            j < % @ @ # o o % d X.P P I W W W W 5 7 #.T 5 n n n n n n v n n n n n n n n P % % # O % % % P P P P P P P P 5 % O o O O $ % % %           ",
"            l v , @ @ @ o o % d } e P P P P U U W e 1 f T 5 n n n n n n n n n n n 5 n 3 % % @ X % @ % P P P P P P 5 P 5 % % o o @ O @ j % j           ",
"            j j h @ @ # o o % ^ Y P P P P n P P P U P , p T n n n n n n n v n n 5 5 5 5 % % X % @ n P P P P P n P 5 5 3 % % X o O O @ % , %           ",
"            c v , @ @ @ o X % N I P n P P P P P P n P n , X.U n n v n n n n n n 5 5 5 5 % O @ @ % e P P P P P P 5 3 % 5 5 % . o O O @ j , %           ",
"            c v , @ @ @ O . % 2 4 P P n P P P P P P P P < O.Q e n n n n n n n v n n n n % % O @ P P P P e e e 5 3 3 3 3 % % X o O O @ j % %           ",
"            D , j # @ @ o . $ < 2 n P P P P P P P n P 5 7 #.W W P v n n n n n n n n 5 n 5 % o % % P 5 e e e % 3 3 3 3 3 % % X o O O @ , % z           ",
"            G j , @ @ @ O X @ 3 3 3 P P P P P n P P e j )  .y W U 5 n n n n 5 5 n P n n % % O # % e e P 3 3 3 3 5 5 3 5 % @ X o O O # , % G           ",
"            0.% , $ O @ O X X 3 < 3 5 P P P P P P P n 1 k.' W W U n v n e % % % % v % v % % % O % 5 5 3 3 3 P % 3 % 3 % % o X O O O $ , , u.          ",
"            a., , % @ O @ X o % < < < n P P P n P P n V #.W W W P v n n v % % % % % % % % % % o @ % % 5 3 3 3 5 5 % 5 % % . X O @ O $ , , 2.          ",
"              % % % O O O o X $ < 3 < 3 P P P P P P $ j.@.W W y n n n v % $ @ % % % % % % % % o % o 3 3 3 3 3 3 3 5 % % % . o O O O , , h             ",
"              : , < # O O O X o 3 < < 3 3 P P P P n 1 z. .W W P n n 3 % @ X o o @ % % % % % % @ @ O % 5 3 3 3 3 3 % % % o X O O O @ % j H             ",
"              0.% % # O O O X X # < < < < 3 P P P , o.k.Q W P n n 3 % @ O $ % @ o o # % % % % % o % % 3 3 3 3 P % % % % X X O O O $ , , :.            ",
"                z , % O O O O X o % , , < < 3 P P & j.j.W W n n 3 % # $ 3 5 5 3 $ @ o o # % % % @ % o % % e % 5 % % % o . o O O O % , z               ",
"                H , , @ O O O o X # , , , , , , , i k.@.U P n v # # % 3 3 3 3 3 3 3 $ @ @ o # % @ % % % 5 3 % % % % % X X O O O @ , % D               ",
"                i.j % % O O O O X X $ , , , j % # h.z.| e 5 j @ % 3 3 3 3 3 3 3 3 3 3 3 @ @ O o @ o % O % % % % % % o X o O O @ % , % 6.              ",
"                  G , % @ O O O o . O , , , % % 8 k.k.U < # % 3 3 3 3 3 3 3 3 3 3 3 3 3 3 % @ # @ . % % % % % % % % X o @ O O @ % , S                 ",
"                  C.j , h @ O O @ X X @ , , % $ X.j.} @ @ , < 3 3 3 3 3 3 3 3 3 3 3 3 3 3 3 3 % @ @ % % o % % % # . X O O @ O % , j 6.                ",
"                    > % % @ O O O O X . @ , % = X.& # , , , , , < % < 3 3 < < 3 3 % % 3 , < % % % % O % @ % % % X X O O O O @ % , G                   ",
"                      z , % @ O O O O X o # $ + $ % , % , , , , % < % % < % % < < % % < % , , , % % % % o % @ . . o O O O @ % % %                     ",
"                      0., , $ O O O O o X X O % , , , , % , , % , % % < % < % % % % < % , , , , % % % % % @ . . O O O O O % % % <.                    ",
"                        >., , # O O O O O . . O , , , % , % , , , % , , , % % < , , < , , , , , , , , , O X . O O O O O @ % % c                       ",
"                          S , , @ O O O O O o X o # , , , , , , % < , % , < % % , % , % % , % % , % $ o . X O O O O O O % % F                         ",
"                            z , , O O O O O O o X X o $ , , , , , , % , % % , % < % % % , , , , $ O X . o O O O O O @ % , z                           ",
"                              z , % O O O O O O o X X o o # , , , , , % < < , , < % % % , % $ O X . X O O O @ O O O % % z                             ",
"                                z , % @ O O O O O O o o . . X o @ $ % , % % , % h h $ @ O X X X X O O O @ O O O @ $ % z                               ",
"                                  S , , # O O O O O @ O O o X . X . X X o o o o o X X X X X X O O O O O O O O O % j x                                 ",
"                                    >., , % @ O @ O O O O @ O O o o o X X X X X X X o o O O O O O O O O O O # , , S                                   ",
"                                      0.h , % # O O O O O O O O O O O @ o O @ o O O O O O O O O O O O O @ $ , z -.                                    ",
"                                          H % , % # O O O O @ O @ O O O O @ O @ O O O @ O O O O O O @ $ , , :.                                        ",
"                                            0.; j , % $ @ O O O O O O O O O O O O O O O O O O @ @ , , , S y.                                          ",
"                                                ;.H , , , % $ # @ @ O O O O O O O @ O @ @ $ % % , , G C.                                              ",
"                                                      1.D z , , , , % % % $ h $ % % , % , , j G >.Y.                                                  ",
"                                                            6.:.:.x z % , % % , % h x :.>.8.                                                          ",
"                                                                                                                                                      ",
"                                                                                                                                                      ",
"                                                                                                                                                      ",
"                                                                                                                                                      ",
"                                                                                                                                                      ",
"                                                                                                                                                      "
};
