/* XPM */
static char *fa4f7094b3ca4b73ba04fd798c9c16edMIGZ3ZHXMUdo0y5b_0[] = {
/* columns rows colors chars-per-pixel */
"75 75 256 2 ",
"   c None",
".  c #993333",
"X  c #FF9999",
"o  c #99CCFF",
"O  c #CC3300",
"+  c black",
"@  c #996633",
"#  c gray60",
"$  c #CC9933",
"%  c #CC9900",
"&  c white",
"*  c #9A2700",
"=  c #CC9966",
"-  c #336666",
";  c #BB2F00",
":  c #933131",
">  c #882E2D",
",  c #714543",
"<  c #120A08",
"1  c #804D4D",
"2  c #7C2A2A",
"3  c #642222",
"4  c #641900",
"5  c #0E0701",
"6  c #B12C00",
"7  c #E78B8B",
"8  c #DF8686",
"9  c #4E1A1A",
"0  c #070504",
"q  c #EF9090",
"w  c #C63100",
"e  c #761E01",
"r  c #F5FAFE",
"t  c #712626",
"y  c #FFCC66",
"u  c #2F2300",
"i  c #1C1514",
"p  c #274D4D",
"a  c #C59360",
"s  c #362612",
"d  c #CF7C7C",
"f  c #170A02",
"g  c #3C3B3C",
"h  c #87B3DF",
"j  c #0F1013",
"k  c #A62A01",
"l  c #251815",
"z  c #A3D1FF",
"x  c #875251",
"c  c #1B120A",
"v  c #BF7373",
"b  c #A06060",
"n  c #885C2E",
"m  c #623A39",
"M  c #59231E",
"N  c #838383",
"B  c #929292",
"V  c #1A3232",
"C  c #892200",
"Z  c #452F16",
"A  c #571600",
"S  c #4A2B2A",
"D  c #260D0C",
"F  c #7F552B",
"G  c #F59393",
"H  c #563B1D",
"J  c #AED6FE",
"K  c #2F2011",
"L  c #CDE6FE",
"P  c #394B5E",
"I  c #754F27",
"U  c #916232",
"Y  c #361210",
"T  c #2D1C1A",
"R  c #421817",
"E  c #A76564",
"W  c #503030",
"Q  c #431101",
"!  c #C17474",
"~  c #3D2D19",
"^  c #D68181",
"/  c #573633",
"(  c #684E00",
")  c #749AC0",
"_  c #905656",
"`  c #504E4E",
"'  c #13191D",
"]  c #2C100E",
"[  c #402626",
"{  c #826201",
"}  c #B76E6E",
"|  c #802000",
" . c #B68800",
".. c gray45",
"X. c #B7DAFE",
"o. c #320D00",
"O. c #200D0C",
"+. c #272727",
"@. c #693F3E",
"#. c #684A21",
"$. c #8E6A47",
"%. c #922500",
"&. c #B38659",
"*. c #BFC0C0",
"=. c #5F411F",
"-. c #E9F4FF",
";. c #997300",
":. c #B16B6A",
">. c #625E5E",
",. c #794848",
"<. c #6F5437",
"1. c #6C1C02",
"2. c #92C1F1",
"3. c #C87978",
"4. c #261A0D",
"5. c #280A00",
"6. c #A47B01",
"7. c #8A8B8B",
"8. c #3A1414",
"9. c #4A1B0F",
"0. c #8CBAE8",
"q. c #444547",
"w. c #A57B52",
"e. c #4A211F",
"r. c #202223",
"t. c #DEEFFF",
"y. c #392B00",
"u. c #9D734A",
"i. c #323334",
"p. c #597694",
"a. c #306060",
"s. c #455C74",
"d. c #5A4329",
"f. c #4A3525",
"g. c #975B5A",
"h. c #C49300",
"j. c #3A0F00",
"k. c #D1A20D",
"l. c #263341",
"z. c #200801",
"x. c #4A341A",
"c. c #575756",
"v. c #5C4500",
"b. c #422F03",
"n. c #66696B",
"m. c #BF9031",
"M. c #D6AE1F",
"N. c #896442",
"B. c #162226",
"V. c gray48",
"C. c #B78451",
"Z. c #503916",
"A. c #4E6882",
"S. c #6F94B8",
"D. c #423028",
"F. c #6080A0",
"G. c #97C8F9",
"H. c #1C2839",
"J. c #6789AB",
"K. c #3A221F",
"L. c #526C87",
"P. c #73511E",
"I. c #AC7A46",
"U. c #1B1400",
"Y. c #323F4D",
"T. c #4D3A00",
"R. c #6C3F39",
"E. c #79573E",
"W. c #9E9E9F",
"Q. c #342625",
"!. c #7EA8D1",
"~. c #322F30",
"^. c #331D1B",
"/. c #A4723C",
"(. c #C1E0FF",
"). c #42619C",
"_. c #251C00",
"`. c #996E41",
"'. c #F8F185",
"]. c #775901",
"[. c #B4B4B4",
"{. c #A27A29",
"}. c #7E6041",
"|. c #5C2F2E",
" X c #E6CC4E",
".X c #5D1E0B",
"XX c #EFDF6A",
"oX c #8B6824",
"OX c #28211F",
"+X c #B98B2E",
"@X c #6B4B2C",
"#X c #746B6A",
"$X c #BF9155",
"%X c #B2852D",
"&X c #CCCDCD",
"*X c #E1C340",
"=X c #44271B",
"-X c #54443D",
";X c #5F4631",
":X c #FFFE98",
">X c #244044",
",X c #E9E9E9",
"<X c #2B5555",
"1X c #4D1400",
"2X c #F3E673",
"3X c #521B0B",
"4X c #906C01",
"5X c #0B1E26",
"6X c #817473",
"7X c #646565",
"8X c #D3A954",
"9X c #692510",
"0X c #967126",
"qX c #9A7427",
"wX c #B9910E",
"eX c #44515F",
"rX c #565D62",
"tX c #45586D",
"yX c #4E75C2",
"uX c #73270B",
"iX c #E5B75C",
"pX c #98B9D8",
"aX c #EBD65C",
"sX c #DBB62C",
"dX c #ADB0B2",
"fX c #3B5482",
"gX c #805E23",
"hX c #344A73",
"jX c #D7D8D8",
"kX c #5E2F25",
"lX c #ABA6A5",
"zX c #523C2A",
"xX c #7D2B17",
"cX c #293958",
"vX c #4669AD",
"bX c #DDDDDD",
"nX c #672E0F",
"mX c #8A4C1E",
"MX c #2E4163",
"NX c #C4A326",
"BX c #4C6FB2",
"VX c #789FC7",
"CX c #2D436F",
"ZX c #5D6D76",
"AX c #6C788A",
"SX c #E2C84A",
"DX c #F7C663",
"FX c #004D66",
"GX c #8FA7BF",
"HX c #005470",
"JX c #007096",
"KX c #B6C3CF",
"LX c #0086B3",
"PX c #B18B0E",
"IX c #5D8BE7",
"UX c #89949F",
/* pixels */
"                                                                                                                                                      ",
"                                                                                                    >.,XW.c.g                                         ",
"                                                                                                    g -.& & & c.                                      ",
"                                                                                                    0 z J X.-.7.# N                                   ",
"                                                                                                    + o o o J X.r & [.                                ",
"                                                                                                      S.o o o o z -.& N                               ",
"                                                                                                      F.o o o o o X.& & i                             ",
"                                                                                              <.H     L.o o o o o z r & V.                            ",
"                                                              5 5                         < n $XI.Z   L.o o o o o o L & [.+                           ",
"                                                              U.v.f                       s @ I.= Z q.0.o o o o o o J & & r.                          ",
"                                          T.v.                  y.6.{ u + +               c @ I g KXr z o o o o o o o r & 7.                          ",
"                                          u 6.U.                  + y.6.h.]._.0             4.g 2.J & -.o o o o o o o -.& *.                          ",
"                                          u  .b.                      U.v.6.h.4XU.          j S.o o t.r GX) ) h 2.o o -.& *.                          ",
"                                          ( % {                           u h. X].+         P G.o o z W.fXyXyXBXfXF.o -.& *.                          ",
"                                        y.M.k.{                           5 6.2XsX_.        l.0.o 2.MXvX).).hXj H.CXcX*.& &Xj                         ",
"                                      + ;.XX% u           + + + +         + ;.2X XT.          L.o fXyXQ.`.=.+       + + B bXg                         ",
"                                      5 sXXX% u         P o o G.J.F.Y.0   _. .M.k.T.+         j s.).q.@ C.C.Z           + ~.                          ",
"                                      b. X*X ._.      B.h o o J L L J J.B.y.h.% % b.              H.j #.@ a /.4.                                      ",
"                                    + ( XXXX% u       P G.o o o z r & L h Y.{ % % 5                   < F I.a H                                       ",
"                                    + ;.2X'.k.{ + + + P !.o o o o z -.& L 0.l.{ { +                     Z.@ C.I.K                                     ",
"                                    + 4XaX:X*X%  .;.;.;.v.A.o o o o X.& & J o j A j.+                   c F @ a U c   +                               ",
"                                      v.sX:X'.M.% % % % % i o o o o o r & J S.4 Q                         c U `.N.R.G X S                             ",
"                                      5  .SX2XM.% % % % % y.h VX) !.o L (.h D.; g       + z.                s _ v 1 g.X E                             ",
"                                        u % % % % % % % % v.p.< Q R tXo o ) C C W.n.    5.o.                K.X X G m [ @.T                           ",
"                                        + u ;.% % % % % % U.tX| O O C 9.-XW k 9XFXi.  f k 4                 b 8 X X 7 1 X G W                         ",
"                                            + _.( ( ( y.' p.tXl.i..X* O O w Q 1 1 W o.; O 5.              + v b d X X 1 X X W                         ",
"                                                    + A.2.o o 0.J.B.c.l 3X3Xm X X X _ C k +               + v v l E g., g., i                         ",
"                                                      L.o 2.AXg x c.& rXJX>.8 X X X 8 9.e.[ S l             b v , } @.,.8 8 } i                       ",
"                                                      Y.h D.6 [ ^ #X& B 5XOXv X X X X x b X X 3.S +         T q S x ,.G X X 7 ,                       ",
"                                                1X1X+ < uX; O [ X , >./ e uX, 1 1 d X 7 O.v X X X _ +       B.v 7 @.X X X X @.K.                      ",
"                                            f C O O ; * * * | O.m 9 4 ; O w C 5 W...-X[ 4 * M , 1 v _     + h >.X E E X q x H c                       ",
"                                          + 3X9X.X* * o.j.1.| | k O O O w 1.c.,XV.W.9.; O O O O %._ X i   A.J dX/ 3.@.c 4.$.C.H                       ",
"                                        i E ^ 8 d W z.e C A e * 6 6 6 e =XV.>.*.kX* w O O O O * R q X b j S.t.X.J.P ~.s @ /.a /.~                     ",
"                                      i ^ X X X X q T R A w k * e 4 4 =XbXr >..Xw O O O O O 6 D v X X d , ` r o o G.h 0 n @ C.u.Z                     ",
"                                    l d X X X X X X } M 2 9.k O O O O 6 ` *.uXO O O O O o.4 ] 9 @.X v K.3.b eXo o o F.  x.U H ;X<.                    ",
"                                    3.X X X X X X X G S > . 9 A ; O O O 6 kX; O O O O O .X. . . Y d , q q X b +.p.) H.  < #.E.= d.                    ",
"                                0 S G X X X X X X X X @.t . . 3 5.* w O O ; O O O O ; 4 < . . . 3 1 X X X X X 7 m i 0     l w.f.+                     ",
"                  <.E.f.f.    W g.d X X X X X X X X X 1 t . . . 2 9 Q e * * * * * A Y 9 > . . . 2 1 X X X X X X X ! T     < K                         ",
"                $.= = = a w.<.E X X X X X X X X X X X 1 t . . . . . > R 8.O.S m m ! , t . . . . . 1 X X X X X X X d                                   ",
"              K I I #.d.<.<.d.$.zXE X X X X X X X X X ,.2 . . . . . . . . > / q X X @.2 . . . . > 1 X X X X X X X b                                   ",
"            0 F @ @ @ n Z Z.u.= = }.x X X X X X X X 8 e.: . . . . . . . . . t W X q S : . . . . 3 _ X X X X X X 7                                     ",
"            4.@ @ @ @ Z.{.$ s u.= = E.x X X X X X X ,.3 . . . . . . . . . . . R d 3.3 . . . . . D v X X X X X X }                                     ",
"            Z @ @ @ F P.$ $ m.=.$.a &.T d 8 G X X } R : . . . . . . . . . . . 2 ,.m 2 . . . . > O.q X X X X X q l                                     ",
"            s @ @ @ #.$ $ $ $ +X4.zXf.w.D., W g.X R : . . . . . . . . . . . . . < O.: . . . . 3 < } X X X X X _                                       ",
"            4.U @ U 0X$ $ $ $ $ qX~ a = w., 7 , l 2 . . . . . . . . . . . . . . D 3 . . . . : Y   + , 7 X X q T                                       ",
"            < F @ =.$ $ $ $ $ $ oXZ $.= = E.} 7 e.. . . . . . . . . . . . . . . > . . . . . 3         0 1 G @.                                        ",
"            + #.n oX%X+X$ $ $ $ Z.I s a = &.@.E , 3 . . . . . . . . . . . . . . . . . . . > +             +                                           ",
"              Z H #.ZXZXgX$ $ m.4.@ =.E.= = <.8 X |.: . . . . . . . . . . . . . . . . . : D                                                           ",
"              0 oXs.t.G.eX%X$ qXH @ @ K = = $.^ X , Y : . . . . . . . . . . . . . . . . 9                                                             ",
"                #.VXr J F.qX$ gXn @ @ Z w.= w.3.q +.<X+.M : . . . . . . . . . . . . : 9 +                                                             ",
"                l.J z o ) Z.$ I @ @ @ n f.= &.,.b V - a.>X' 8.2 : . . . . . . . . : R                                                                 ",
"                P h h h J.Z.$ F @ @ @ @ c = &.c ^ 5Xa.- - - <XB.i K.8.8.8.8.8.8.8.] +                                                                 ",
"                  B.;X}.<.{.m.I @ @ @ @ 4.a &.S 1 9 OXp - - - - a.<Xp p p p p p p 0                                                                   ",
"                    s $ $ $ qXU @ @ @ @ 4.N.&./ R . > M B.a.- - - - - - - - - a.V +                                                                   ",
"                      s +X$ #.@ @ @ @ @ 4.= }.] : . . . 2 8.5XV V V V V ' ' O.D 3 R +                                                                 ",
"                      5 b.{.oX@ @ @ @ @ s N.t : . . . . . . . . . . . . . . . . . : 9 0 +                                                             ",
"                    f 6 6 o.s U @ @ n Z j c.K.t . . . . . . . . . . . . . . . : > 3 O.+                                                               ",
"                  z.* O O 6 C uX9.D.D.` N # V.g [ 3 2 > > > > > > > > 2 t 3 9 Q.g c.7X+.              j.C | K                                         ",
"                  e O O O ; %.O 9.N # # # # # # N 7X~.< < < < < < < < i q.n...7.# # # 7.~.          f w O 1X8X4.                                      ",
"                f ; O O w C A k j N # # # # # # # # # V.#X......B # # V.` N # # # # # # B r.  +     * O %.n y x.                                      ",
"                A O O O O ; f 5.e.g B # # # # # # B g g ` ` ` ` g +.0 ` # # # # # # # # # N f e   1XO w nXDXy ~                                       ",
"                5.* * %.o.+ + + |.T 7X# # # # # n.'                   + j 7XN # # # # # # ~.6 ; 5.| O 6 /.y y x.                                      ",
"                  + +           < < 0 V.# # ..i.                            i i.n.B # # 7X4 O O 1.* O k iXy $X                                        ",
"                                        +.r.j                                   + +.>.B r.; O O | ; O I y y ~                                         ",
"                                                                                      j 1XO O O ; O | 8Xy N.                                          ",
"                                                                                        | 6 O O O O F y I.                                            ",
"                                                                                          + 5 1XO k 8X8Xs                                             ",
"                                                                                              o.; nX8X~                                               ",
"                                                                                                o.c                                                   ",
"                                                                                                                                                      ",
"                                                                                                                                                      ",
"                                                                                                                                                      ",
"                                                                                                                                                      ",
"                                                                                                                                                      ",
"                                                                                                                                                      "
};
