/* XPM */
static char *fa4f7094b3ca4b73ba04fd798c9c16edMIGZ3ZHXMUdo0y5b_3[] = {
/* columns rows colors chars-per-pixel */
"59 75 256 2 ",
"   c None",
".  c #993333",
"X  c #FF9999",
"o  c #99CCFF",
"O  c #CC3300",
"+  c black",
"@  c #996633",
"#  c gray60",
"$  c #CC9933",
"%  c #CC9900",
"&  c white",
"*  c #9A2700",
"=  c #CC9966",
"-  c #336666",
";  c #BB2F00",
":  c #933131",
">  c #882E2D",
",  c #714543",
"<  c #120A08",
"1  c #804D4D",
"2  c #7C2A2A",
"3  c #642222",
"4  c #641900",
"5  c #0E0701",
"6  c #B12C00",
"7  c #E78B8B",
"8  c #DF8686",
"9  c #4E1A1A",
"0  c #070504",
"q  c #EF9090",
"w  c #C63100",
"e  c #761E01",
"r  c #F5FAFE",
"t  c #712626",
"y  c #FFCC66",
"u  c #2F2300",
"i  c #1C1514",
"p  c #274D4D",
"a  c #C59360",
"s  c #362612",
"d  c #CF7C7C",
"f  c #170A02",
"g  c #3C3B3C",
"h  c #87B3DF",
"j  c #0F1013",
"k  c #A62A01",
"l  c #251815",
"z  c #A3D1FF",
"x  c #875251",
"c  c #1B120A",
"v  c #BF7373",
"b  c #A06060",
"n  c #885C2E",
"m  c #623A39",
"M  c #59231E",
"N  c #838383",
"B  c #929292",
"V  c #1A3232",
"C  c #892200",
"Z  c #452F16",
"A  c #571600",
"S  c #4A2B2A",
"D  c #260D0C",
"F  c #7F552B",
"G  c #F59393",
"H  c #563B1D",
"J  c #AED6FE",
"K  c #2F2011",
"L  c #CDE6FE",
"P  c #394B5E",
"I  c #754F27",
"U  c #916232",
"Y  c #361210",
"T  c #2D1C1A",
"R  c #421817",
"E  c #A76564",
"W  c #503030",
"Q  c #431101",
"!  c #C17474",
"~  c #3D2D19",
"^  c #D68181",
"/  c #573633",
"(  c #684E00",
")  c #749AC0",
"_  c #905656",
"`  c #504E4E",
"'  c #13191D",
"]  c #2C100E",
"[  c #402626",
"{  c #826201",
"}  c #B76E6E",
"|  c #802000",
" . c #B68800",
".. c gray45",
"X. c #B7DAFE",
"o. c #320D00",
"O. c #200D0C",
"+. c #272727",
"@. c #693F3E",
"#. c #684A21",
"$. c #8E6A47",
"%. c #922500",
"&. c #B38659",
"*. c #BFC0C0",
"=. c #5F411F",
"-. c #E9F4FF",
";. c #997300",
":. c #B16B6A",
">. c #625E5E",
",. c #794848",
"<. c #6F5437",
"1. c #6C1C02",
"2. c #92C1F1",
"3. c #C87978",
"4. c #261A0D",
"5. c #280A00",
"6. c #A47B01",
"7. c #8A8B8B",
"8. c #3A1414",
"9. c #4A1B0F",
"0. c #8CBAE8",
"q. c #444547",
"w. c #A57B52",
"e. c #4A211F",
"r. c #202223",
"t. c #DEEFFF",
"y. c #392B00",
"u. c #9D734A",
"i. c #323334",
"p. c #597694",
"a. c #306060",
"s. c #455C74",
"d. c #5A4329",
"f. c #4A3525",
"g. c #975B5A",
"h. c #C49300",
"j. c #3A0F00",
"k. c #D1A20D",
"l. c #263341",
"z. c #200801",
"x. c #4A341A",
"c. c #575756",
"v. c #5C4500",
"b. c #422F03",
"n. c #66696B",
"m. c #BF9031",
"M. c #D6AE1F",
"N. c #896442",
"B. c #162226",
"V. c gray48",
"C. c #B78451",
"Z. c #503916",
"A. c #4E6882",
"S. c #6F94B8",
"D. c #423028",
"F. c #6080A0",
"G. c #97C8F9",
"H. c #1C2839",
"J. c #6789AB",
"K. c #3A221F",
"L. c #526C87",
"P. c #73511E",
"I. c #AC7A46",
"U. c #1B1400",
"Y. c #323F4D",
"T. c #4D3A00",
"R. c #6C3F39",
"E. c #79573E",
"W. c #9E9E9F",
"Q. c #342625",
"!. c #7EA8D1",
"~. c #322F30",
"^. c #331D1B",
"/. c #A4723C",
"(. c #C1E0FF",
"). c #42619C",
"_. c #251C00",
"`. c #996E41",
"'. c #F8F185",
"]. c #775901",
"[. c #B4B4B4",
"{. c #A27A29",
"}. c #7E6041",
"|. c #5C2F2E",
" X c #E6CC4E",
".X c #5D1E0B",
"XX c #EFDF6A",
"oX c #8B6824",
"OX c #28211F",
"+X c #B98B2E",
"@X c #6B4B2C",
"#X c #746B6A",
"$X c #BF9155",
"%X c #B2852D",
"&X c #CCCDCD",
"*X c #E1C340",
"=X c #44271B",
"-X c #54443D",
";X c #5F4631",
":X c #FFFE98",
">X c #244044",
",X c #E9E9E9",
"<X c #2B5555",
"1X c #4D1400",
"2X c #F3E673",
"3X c #521B0B",
"4X c #906C01",
"5X c #0B1E26",
"6X c #817473",
"7X c #646565",
"8X c #D3A954",
"9X c #692510",
"0X c #967126",
"qX c #9A7427",
"wX c #B9910E",
"eX c #44515F",
"rX c #565D62",
"tX c #45586D",
"yX c #4E75C2",
"uX c #73270B",
"iX c #E5B75C",
"pX c #98B9D8",
"aX c #EBD65C",
"sX c #DBB62C",
"dX c #ADB0B2",
"fX c #3B5482",
"gX c #805E23",
"hX c #344A73",
"jX c #D7D8D8",
"kX c #5E2F25",
"lX c #ABA6A5",
"zX c #523C2A",
"xX c #7D2B17",
"cX c #293958",
"vX c #4669AD",
"bX c #DDDDDD",
"nX c #672E0F",
"mX c #8A4C1E",
"MX c #2E4163",
"NX c #C4A326",
"BX c #4C6FB2",
"VX c #789FC7",
"CX c #2D436F",
"ZX c #5D6D76",
"AX c #6C788A",
"SX c #E2C84A",
"DX c #F7C663",
"FX c #004D66",
"GX c #8FA7BF",
"HX c #005470",
"JX c #007096",
"KX c #B6C3CF",
"LX c #0086B3",
"PX c #B18B0E",
"IX c #5D8BE7",
"UX c #89949F",
/* pixels */
"                                                                                  c.lXlXN q.                          ",
"                                                                                  g r & & & q.                        ",
"                                                                                  ' pXL L -.# # dXg                   ",
"                                                                                    ) o o J (.t.& ,Xr.                ",
"                                                                                    L.o o z o o t.& &X+               ",
"                                                                                    Y.o o o o o o -.& dX              ",
"                                                                              4.    l.0.o o o o o X.& ,Xi.            ",
"                                                                          4.}.u.H   >X0.o o o o o o -.& #X            ",
"                                              +                           =./.a /.c P o o o o o o o L & [.            ",
"                                              ( 5                         I @ /.Q.dXL o o o o o o o (.& &Xr.          ",
"                                              u  .T._.+ +                 s n g h t.& L o o o o o o X.& ,X~.          ",
"                        + y.                    u ;. . .( _.0 +             0 S.o z r & pXh h G.o o X.& & `           ",
"                          { 4X                      u T.;. .6.v.5           p.o o o X.N ).).).MXP F.pX& & B           ",
"                          ( % y.                        5 ( k.k.( +         VXo o o L.vX).IXcXj B.cXH.[.& ,X          ",
"                          ( % v.                          +  .'.NX_.        P 2.o F.fXl.@Xs         + 0 n.jX          ",
"                        u NX% (                           + ;.'. Xu +         eXJ.).P n C.I.Z.            +           ",
"                        { 2X% u           ' ' ' ' ' '     + 6.M.k.( +           j CXr.F @ = /.Z                       ",
"                      U.wXXX% y.        tXh h h pXpXh F.l.5 h.% % ].                  c F I.a U c                     ",
"                      U.NXaX% y.        !.o o z (.r -.J 0.P ( % % y.                    s @ C.$X#.+                   ",
"                      u SXaX% b.      H.o o o o o (.& & L o P ( 6.f                       I @ $XI.~ c / i             ",
"                      u  X:Xk.6.U.+ + ' tX0.o o o o X.& & (.o P 5.e 5                     5 F U <.x.8 X 7 [           ",
"                      u sX:XXX% h.4X{  . .g G.o o o o -.& L 0.z.k z.      +                 c f.8 7 / ^ d ^.          ",
"                      U.wX'.:X*X% % % % % ].S.o o o o (.r X.s.| xX~.      A                 < } X X 7 [ _ v /         ",
"                      + { sX:XXX% % % % % ;.A.h l.P J.G.J o l.O R.jX+   f | 5               ^.^ 7 X X x 3.X v         ",
"                        _. .M.M.% % % % %  .q.l.| * 4 / tXA.K.w +.V + + 1.6 5.              [ q m q X v v X q +       ",
"                          f 4X% % % % % % ( l.B.e * O O O O ; m x 1 W A O k f               l 8 x ^.1 [ , 1 b m       ",
"                            + _.T.{ ;.;.b.l.) A.F.p.0 9.%.* e E X X X / ; A                   v b } 7 g.8 X X X c     ",
"                                  + + + VX2.o 0.J.q.n.*.i.HX/ 8 X X X ^ ] x v } / <           / 8 ,.@.8 X X X E /     ",
"                                        !.o S.Q.K.} W.r 7XHX^.b X X X X ,.g.X X G :.i         eX^ q x X X X 7 l +     ",
"                                        P p.M w [ d r.dX>.A 1XE _ 1 d X 8 9.=Xb 8 X ^ m     B.VX6Xq v _ v v , n ~     ",
"                                  + + Q o.e w O M X x O.* O 6 e c # B ~.z.| O * | A g.X m   tXJ r q.1 @.K U I.= @ K   ",
"                              0 Q ; O w * * * * Q 5.4 k O O e i.lXB lX1.O O O O O A E X :.  p.L r o L.l.i F @ $X$XH   ",
"                              j.4 1.%.* 4 5.4 %.6 ; O O ; uXc.7.&X6X%.O O O O O C ^.7 X 8 ^.~.*.X.o o 2.l.Z @ @ d.;X< ",
"                            K.E v :.S 5 1.; %.Q o.o.o.o.z.# r *.kXw O O O ; O ; z.[ G X , 1 :.q.2.o o !.B.+ @XH a w.  ",
"                          W q X X X X , R 3XC O * * * * w :.& #X6 O O O O 1XO.] 2 8.:.X :.d X E +.tXA.P     c }.a ;X  ",
"                        1 G X X X X X X W . 3 Q C O O O O ; 1 | O O O O O e t . . 2 / X q X X X X v 1 m       f.c     ",
"                        7 X X X X X X X E 3 . . ] 4 w O O O ; O O O O w %.Y > . . . S 7 X X X X X X X }               ",
"                      ,.X X X X X X X X q Y . . : 3 3X| * 6 6 6 6 k | 9.f 2 . . . . e.8 X X X X X X X @.              ",
"                    c 7 X X X X X X X X X D . . . . : 3 D f f f f |.,.8 O.: . . . . t 8 X X X X X X X <               ",
"      D.f.f.l   + 1 v X X X X X X X X X X < > . . . . . . . . M g.X X d D . . . . . |.q X X X X X X b                 ",
"    $.= = = = a ;Xm d X X X X X X X X X q < > . . . . . . . . . 3 g.X v 9 . . . . : |.X X X X X X X m                 ",
"  x.=.=.4.~ d.f.$.= zX:.G X X X X X X X :.Y . . . . . . . . . . : D d 1 t . . . . > ,.X X X X X X q                   ",
"4.@ @ @ @ =.Z d.$.a a u.,.8 X X X X X X [ 2 . . . . . . . . . . . 3 m / . . . . . t S d X X X X X _                   ",
"Z @ @ @ @ Z m.+XZ ~ = = $.W X X X X X d ] . . . . . . . . . . . . . < 9 . . . . . ]   i , X X X 8 <                   ",
"x.@ @ @ n #.$ $ $ gXf.= $.d., 1 E d X K.> . . . . . . . . . . . . . 9 3 . . . . > +       l , ^ S                     ",
"K @ @ @ =.m.$ $ $ $ #.i &.= w._ G x l 3 . . . . . . . . . . . . . . : . . . . . 8.            +                       ",
"4.@ @ @ P.$ $ $ $ $ qXc u.= = d.7 G ^.2 . . . . . . . . . . . . . . . . . . . > +                                     ",
"0 n @ =.{.$ $ $ $ $ oXF d.a = &.m 3.,.e.: . . . . . . . . . . . . . . . . . : Y                                       ",
"  x.F Z.$ $ $ $ $ $ gX@ #.}.= = <.3.X } t . . . . . . . . . . . . . . . . . 9 +                                       ",
"  c =.gX<.c.Z +X$ $ P.@ U c w.= &., X 8 O.2 . . . . . . . . . . . . . . . t 0                                         ",
"    K < X.X.S.d.$ $ I @ @ F s = = <.q _ p p OXM > . . . . . . . . . . . > O.                                          ",
"    K rXt.L o c.$ m.H @ @ @ K &.= <.1 W - - a.>Xj T 8.M t t t t t t t 3 <                                             ",
"      p.(.o o AX+X{.I @ @ @ #.<.= $.v 1 >X- - - a.<Xp V V V V V V V >XB.+                                             ",
"      ) o o o L.{.P.U @ @ @ U ~ = u.v R.M B.a.- - - - - - - - - - - <X0 +                                             ",
"      Y.l.~ Z gXm.#.@ @ @ @ @ zX= u._ 9 . 2 R B.>Xp p p p p p >XV T ] 2 8.+                                           ",
"          Z.$ $ $ #.@ @ @ @ @ d.= E.9 . . . . . t 9 9 9 9 9 3 2 . . . . . 9 0 +                                       ",
"            Z +X$ H @ @ @ @ U K $.M . . . . . . . . . . . . . . . . : 2 ] +                                           ",
"              s qX=.@ @ @ @ H 0 5 R 2 . . . . . . . . . . . : > t 9 [ l +                                             ",
"                < c F @ F s 5   + q.l D 9 > . . . . . t 3 R O.c j q.B `                                               ",
"                    + + +         i ....` i.+.+.+.+.+.r.q.g +.` N # # q.                                              ",
"                                    + >.# # # # # # # 7.i...# # # # # ~.                                              ",
"                                    1.Q ..# # # # # # # # #X# # # # B +                                               ",
"                                    * w .Xc.7.# # # # # # q.N N N N i.                                                ",
"                                    * %.M j c.B # # # # N 0 j j j j                                                   ",
"                                    5.9.S 7.# # # # # 7.i.                                                            ",
"                                    + o.+.# # # # # 7.i.                                                              ",
"                                    + * A D.N # # ..OX                                                                ",
"                                z.C * 6 O ; 9XD.W l l                                                                 ",
"                                5.; O O O O O ; e 5                                                                   ",
"                                f k O O O O O %.4 A o.z.+                                                             ",
"                                  A w O O O O O O O O O O e                                                           ",
"                                    4 ; O O O O O O O O O w                                                           ",
"                                      Q * ; O O O O O O O e                                                           ",
"                                        f z.A ; O O O * j.                                                            ",
"                                              + + + +                                                                 "
};
