/* XPM */
static char *result[] = {
/* columns rows colors chars-per-pixel */
"75 75 81 1 ",
"  c #5B686D",
". c #5F6C71",
"X c #616F74",
"o c #67757A",
"O c #69767B",
"+ c #6A787E",
"@ c #6E7C82",
"# c #717F84",
"$ c #6F8187",
"% c #728187",
"& c #73858A",
"* c #7A878C",
"= c #76898F",
"- c #79898E",
"; c #768A91",
": c #7B8D93",
"> c #7D9197",
", c #7F9399",
"< c #808E93",
"1 c #819297",
"2 c #82959B",
"3 c #84999E",
"4 c #8A999E",
"5 c #869BA1",
"6 c #8A9EA4",
"7 c #909EA4",
"8 c #8BA1A6",
"9 c #8DA4AA",
"0 c #91A6AD",
"q c #91A8AF",
"w c #99AAAF",
"e c #95ADB3",
"r c #99ADB4",
"t c #93AFB8",
"y c #97B0B7",
"u c #99B0B7",
"i c #96B1B9",
"p c #9BB4BB",
"a c #9EB8BF",
"s c #A3B7BD",
"d c #9EB9C1",
"f c #A2BDC4",
"g c #A5C2CA",
"h c #AAC5CD",
"j c #A4C6D0",
"k c #ACCBD3",
"l c #AFCFD8",
"z c #B2CED5",
"x c #AFD0D9",
"c c #B4D0D7",
"v c #B4D3DC",
"b c #BAD6DD",
"n c #BFD8DE",
"m c #B6D7E0",
"M c #B6D8E1",
"N c #BBDBE4",
"B c #BEDFE8",
"V c #BFE1E9",
"C c #C1DDE5",
"Z c #C4E0E6",
"A c #C4E4EC",
"S c #C9E6EC",
"D c #C7E8EF",
"F c #CAE8EF",
"G c #D6E7EA",
"H c #D1E9ED",
"J c #C5E7F0",
"K c #C7E9F1",
"L c #CCECF3",
"P c #D2EEF4",
"I c #D8EFF2",
"U c #D4F1F6",
"Y c #D8F2F6",
"T c #D5F3F9",
"R c #DBF6FA",
"E c #DDF9FD",
"W c #E7F6F8",
"Q c #E3FBFD",
"! c #EBFEFE",
"~ c #F2FFFF",
"^ c None",
/* pixels */
"^^^^^^^^^^^^^^^^^^^^^^^^^^^^^^^^^^^^^^^^^^^^^^^^^^^^^^^^^^^^^^^^^^^^^^^^^^^",
"^^^^^^^^^^^^^^^^^^^^^^^^^^^^^^^^^^^^^^^^^^^^^^^^^^^^^^^^^^^^^^^^^^^^^^^^^^^",
"^^^^^^^^^^^^^^^^^^^^^^^^^^^^^^^^^^^^^^^^^^^^^^^^^^^^^^^^^^^^^^^^^^^^^^^^^^^",
"^^^^^^^^^^^^^^^^^^^^^^^^^^^^^^^^^^^^^^^^^^^^^^^^^^^^^^^^^^^^^^^^^^^^^^^^^^^",
"^^^^^^^^^^^^^^^^^^^^^^^^^^^^^^^^^^^^^^^^^^^^^^^^^^^^^^^^^^^^^^^^^^^^^^^^^^^",
"^^^^^^^^^^^^^^^^^^^^^^^^^^^^^^^^^^^^^^^^^^^^^^^^^^^^^^^^^^^^^^^^^^^^^^^^^^^",
"^^^^^^^^^^^^^^^^^^^^^^^^^^^^^^^^^^^^^^^^^^^^^^^^^^^^^^^^^^^^^^^^^^^^^^^^^^^",
"^^^^^^^^^^^^^^^^^^^^^^^^^^^^^^^^^^^^^^^^^^^^^^^^^^^^^^^^^^^^^^^^^^^^^^^^^^^",
"^^^^^^^^^^^^^^^^^^^^^^^^^^^^^^^^^^^^^^^^^^^^^^^^^^^^^^^^^^^^^^^^^^^^^^^^^^^",
"^^^^^^^^^^^^^^^^^^^^^^^^^^^^^^^^^^^^^^^^^^^^^^^^^^^^^^^^^^^^^^^^^^^^^^^^^^^",
"^^^^^^^^^^^^^^^^^^^^^^^^^^^^^^^^^^^^^^^^^^^^^^^^^^^^^^^^^^^^^^^^^^^^^^^^^^^",
"^^^^^^^^^^^^^^^^^^^^^^^^^^^^^^^^^^^^^^^^^^^^^^^^^^^^^^^^^^^^^^^^^^^^^^^^^^^",
"^^^^^^^^^^^^^^^^^^^^^^^^^^^^^^^^^^^^^^^^^^^^^^^^^^^^^^^^^^^^^^^^^^^^^^^^^^^",
"^^^^^^^^^^^^^^^^^^^^^^^^^^^^^^^^^^^^^^^^^^^^^^^^^^^^^^^^^^^^^^^^^^^^^^^^^^^",
"^^^^^^^^^^^^^^^^^^^^^^^^^^^^^^^^^^^^^^^^^^^^^^^^^^^^^^^^^^^^^^^^^^^^^^^^^^^",
"^^^^^^^^^^^^^^^^^^^^^^^^^^^^^^^^^^^^^^^^^^^^^^^^^^^^^^^^^^^^^^^^^^^^^^^^^^^",
"^^^^^^^^^^^^^^^^^^^^^^^^^^^^^^^^^^^^^^^^^^^^^^^^^^^^^^^^^^^^^^^^^^^^^^^^^^^",
"^^^^^^^^^^^^^^^^^^^^^^^^^^^^^^^^^^^^^^^^^^^^^^^^^^^^^^^^^^^^^^^^^^^^^^^^^^^",
"^^^^^^^%:::;;:>;21:@4eflBTCC^^^^^^^^^^^^^^^^^^^^pr<<<*-52%o>$::>&@+@ ^^^^^^",
"^^^^^^^^>>>>13>5863*6fkNUQRR^^^^^^^^^^^^^^^^^^^^kr74756986:53,::+.o.^^^^^^^",
"^^^^^^^^^=::,,,6005*qs0fzIII^^^^^^^^^^^^^^^^^^^^Nhurrufu9ee9,,::=&$^^^^^^^^",
"^^^^^^^^^^o>>,,,9041wfr7wsfzN^^^^^^^5^^^^^^^^^^^Shffsfhaeye833,,:&^^^^^^^^^",
"^^^^^^^^^^^&>555695pfkruwsfbc^^^^^^^o^^:^^^^^^^^BbvgfMlaaie983:,>^^^^^^^^^^",
"^^^^^^^^^^^^>,56601gvNCCvMbbf^^^^^^^@^^2^^^^^^^fcFffkBNkgiye9>,,^^^^^^^^^^^",
"^^^^^^^^^^^^^185164gNzSPTYSz0<^^^^^^2djLi^^^^^^egszcKVJMkp9i851&^^^^^^^^^^^",
"^^^^^^^^^^^^^^890eu8ffbQQQSbt0^^^^^3kBgQH^^^^^dkbzBTUKTVxgiy89,^^^^^^^^^^^^",
"^^^^^^^^^^^^^^3qpru4fzSQQEPJkft:^^^pMxBQW^^^tfkkMTRQRLELbxdye9^^^^^^^^^^^^^",
"^^^^^^^^^^^^^^^1647qfcP~QEKVhdq61>&kMMTIQTJgegkzMPEQQREUVvgay9^^^^^^^^^^^^^",
"^^^^^^^^^^^^^^^#<2qhSvzIPPABd60e;#5MKJEVRRSidgghMKEEQQ!TLMkp9^^^^^^^^^^^^^^",
"^^^^^^^^^^^^^^^^20fMARPQYLkke2>=>5gMKPEMNLMvddghkJTT!!!EPMva%^^^^^^^^^^^^^^",
"^^^^^^^^^^^^^^^^7fCLS!~!FVxgue06qkMgTETPVLvNkgffkxAFRYSEDVMx^^^^^^^^^^^^^^^",
"^^^^^^^^^^^^^^^^0hSLP!!RAVkga90fxMJgEEKESKAVkpttddNAAQUYFMVN^^^^^^^^^^^^^^^",
"^^^^^^^^^^^^^^^^iMLLQQQEDvpgaeigMKTNRRPTLVKAgp90phMFPEQ!TAKV^^^^^^^^^^^^^^^",
"^^^^^^^^^^^^^^^^^ATTQTTUMaisieikBKTRQYTLLkip69qrigxAPQQRQFLC^^^^^^^^^^^^^^^",
"^^^^^^^^^^^^^^^^^KEEQDMVchiuyeikJNQQQETmTv;$>ditqdkMKTEYFUZk^^^^^^^^^^^^^^^",
"^^^^^^^^^^^^^^^^^CQQEKMbfgpii9ikmNYLNKkNJKg98ietqpgxVFFCPLC^^^^^^^^^^^^^^^^",
"^^^^^^^^^^^^^^^^^SQELKMjgae0,8qdALNQPPAgVTNg83eeyiajvVbgSCZv^^^^^^^^^^^^^^^",
"^^^^^^^^^^^^^^^^^RQRDNkgieq055ixKRQWQQKkALNg3:iq0yifkbccFnCF^^^^^^^^^^^^^^^",
"^^^^^^^^^^^^^^^^ZQQTVxgy33-159ikFE!~QFUvvTKu->ee08eigkxfhznH^^^^^^^^^^^^^^^",
"^^^^^^^^^^^^^^^^YEELbgfr+@-8699kLH~~RLgMkbAp@8q908qqagcgfshz^^^^^^^^^^^^^^^",
"^^^^^^^^^^^^^^^^^^^^^^^^^-:260ejDR!!FzZbkNAy5009555^^^^^^^^^^^^^^^^^^^^^^^^",
"^^^^^^^^^^^^^^^^^^^^^^^^^^^^^8ekFRQQceAgfAB32e65^^^^^^^^^^^^^^^^^^^^^^^^^^^",
"^^^^^^^^^^^^^^^^^^^^^^^^^^^^^^^hBU!QbfZtuAh326^^^^^^^^^^^^^^^^^^^^^^^^^^^^^",
"^^^^^^^^^^^^^^^^^^^^^^^^^^^^^^^^bSQQZpr95hs0^^^^^^^^^^^^^^^^^^^^^^^^^^^^^^^",
"^^^^^^^^^^^^^^^^^^^^^^^^^^^^^^^^^NUYRCh1-ep6^^^^^^^^^^^^^^^^^^^^^^^^^^^^^^^",
"^^^^^^^^^^^^^^^^^^^^^^^^^^^^^^^^^^LCFQN0O5^^^^^^^^^^^^^^^^^^^^^^^^^^^^^^^^^",
"^^^^^^^^^^^^^^^^^^^^^^^^^^^^^^^^^^^AYRS5O^^^^^^^^^^^^^^^^^^^^^^^^^^^^^^^^^^",
"^^^^^^^^^^^^^^^^^^^^^^^^^^^^^^^^^^^^QWW> ^^^^^^^^^^^^^^^^^^^^^^^^^^^^^^^^^^",
"^^^^^^^^^^^^^^^^^^^^^^^^^^^^^^^^^^^^nWC:^^^^^^^^^^^^^^^^^^^^^^^^^^^^^^^^^^^",
"^^^^^^^^^^^^^^^^^^^^^^^^^^^^^^^^^^^^yGp5^^^^^^^^^^^^^^^^^^^^^^^^^^^^^^^^^^^",
"^^^^^^^^^^^^^^^^^^^^^^^^^^^^^^^^^^^^^br&^^^^^^^^^^^^^^^^^^^^^^^^^^^^^^^^^^^",
"^^^^^^^^^^^^^^^^^^^^^^^^^^^^^^^^^^^^^15^^^^^^^^^^^^^^^^^^^^^^^^^^^^^^^^^^^^",
"^^^^^^^^^^^^^^^^^^^^^^^^^^^^^^^^^^^^^a0^^^^^^^^^^^^^^^^^^^^^^^^^^^^^^^^^^^^",
"^^^^^^^^^^^^^^^^^^^^^^^^^^^^^^^^^^^^^^5^^^^^^^^^^^^^^^^^^^^^^^^^^^^^^^^^^^^",
"^^^^^^^^^^^^^^^^^^^^^^^^^^^^^^^^^^^^^^X^^^^^^^^^^^^^^^^^^^^^^^^^^^^^^^^^^^^",
"^^^^^^^^^^^^^^^^^^^^^^^^^^^^^^^^^^^^^^^^^^^^^^^^^^^^^^^^^^^^^^^^^^^^^^^^^^^",
"^^^^^^^^^^^^^^^^^^^^^^^^^^^^^^^^^^^^^^^^^^^^^^^^^^^^^^^^^^^^^^^^^^^^^^^^^^^",
"^^^^^^^^^^^^^^^^^^^^^^^^^^^^^^^^^^^^^^^^^^^^^^^^^^^^^^^^^^^^^^^^^^^^^^^^^^^",
"^^^^^^^^^^^^^^^^^^^^^^^^^^^^^^^^^^^^^^^^^^^^^^^^^^^^^^^^^^^^^^^^^^^^^^^^^^^",
"^^^^^^^^^^^^^^^^^^^^^^^^^^^^^^^^^^^^^^^^^^^^^^^^^^^^^^^^^^^^^^^^^^^^^^^^^^^",
"^^^^^^^^^^^^^^^^^^^^^^^^^^^^^^^^^^^^^^^^^^^^^^^^^^^^^^^^^^^^^^^^^^^^^^^^^^^",
"^^^^^^^^^^^^^^^^^^^^^^^^^^^^^^^^^^^^^^^^^^^^^^^^^^^^^^^^^^^^^^^^^^^^^^^^^^^",
"^^^^^^^^^^^^^^^^^^^^^^^^^^^^^^^^^^^^^^^^^^^^^^^^^^^^^^^^^^^^^^^^^^^^^^^^^^^",
"^^^^^^^^^^^^^^^^^^^^^^^^^^^^^^^^^^^^^^^^^^^^^^^^^^^^^^^^^^^^^^^^^^^^^^^^^^^",
"^^^^^^^^^^^^^^^^^^^^^^^^^^^^^^^^^^^^^^^^^^^^^^^^^^^^^^^^^^^^^^^^^^^^^^^^^^^",
"^^^^^^^^^^^^^^^^^^^^^^^^^^^^^^^^^^^^^^^^^^^^^^^^^^^^^^^^^^^^^^^^^^^^^^^^^^^",
"^^^^^^^^^^^^^^^^^^^^^^^^^^^^^^^^^^^^^^^^^^^^^^^^^^^^^^^^^^^^^^^^^^^^^^^^^^^",
"^^^^^^^^^^^^^^^^^^^^^^^^^^^^^^^^^^^^^^^^^^^^^^^^^^^^^^^^^^^^^^^^^^^^^^^^^^^",
"^^^^^^^^^^^^^^^^^^^^^^^^^^^^^^^^^^^^^^^^^^^^^^^^^^^^^^^^^^^^^^^^^^^^^^^^^^^",
"^^^^^^^^^^^^^^^^^^^^^^^^^^^^^^^^^^^^^^^^^^^^^^^^^^^^^^^^^^^^^^^^^^^^^^^^^^^",
"^^^^^^^^^^^^^^^^^^^^^^^^^^^^^^^^^^^^^^^^^^^^^^^^^^^^^^^^^^^^^^^^^^^^^^^^^^^",
"^^^^^^^^^^^^^^^^^^^^^^^^^^^^^^^^^^^^^^^^^^^^^^^^^^^^^^^^^^^^^^^^^^^^^^^^^^^",
"^^^^^^^^^^^^^^^^^^^^^^^^^^^^^^^^^^^^^^^^^^^^^^^^^^^^^^^^^^^^^^^^^^^^^^^^^^^",
"^^^^^^^^^^^^^^^^^^^^^^^^^^^^^^^^^^^^^^^^^^^^^^^^^^^^^^^^^^^^^^^^^^^^^^^^^^^",
"^^^^^^^^^^^^^^^^^^^^^^^^^^^^^^^^^^^^^^^^^^^^^^^^^^^^^^^^^^^^^^^^^^^^^^^^^^^"
};
