/* XPM */
static char *result[] = {
/* columns rows colors chars-per-pixel */
"75 60 222 2 ",
"   c #1A120E",
".  c #1D1511",
"X  c #1E1814",
"o  c #27160D",
"O  c #341A0E",
"+  c #231712",
"@  c #241A15",
"#  c #2A1D15",
"$  c #251D19",
"%  c #291E1A",
"&  c #321E12",
"*  c #2C221C",
"=  c #27201D",
"-  c #352115",
";  c #3C2215",
":  c #33251C",
">  c #3A261B",
",  c #36281E",
"<  c #3C291E",
"1  c #2D2421",
"2  c #322721",
"3  c #352A22",
"4  c #3B2C23",
"5  c #3B2F28",
"6  c #372B29",
"7  c #3E3026",
"8  c #3E312A",
"9  c #422515",
"0  c #422C1E",
"q  c #4B2E1D",
"w  c #442919",
"e  c #52331F",
"r  c #422E23",
"t  c #443225",
"y  c #4A3525",
"u  c #44342A",
"i  c #4A3629",
"p  c #46382D",
"a  c #4D3A2C",
"s  c #4F3827",
"d  c #513624",
"f  c #523926",
"g  c #533D2D",
"h  c #5B3E2C",
"j  c #593C26",
"k  c #463931",
"l  c #4C3C32",
"z  c #403530",
"x  c #523E31",
"c  c #683E24",
"v  c #56402E",
"b  c #5B422E",
"n  c #554233",
"m  c #5B4533",
"M  c #5E4836",
"N  c #55453A",
"B  c #594639",
"V  c #5D4A3B",
"C  c #4E4035",
"Z  c #62442C",
"A  c #6C432B",
"S  c #6B482E",
"D  c #624732",
"F  c #634A35",
"G  c #6A4C34",
"H  c #634D3B",
"J  c #694E39",
"K  c #684730",
"L  c #744D34",
"P  c #66513D",
"I  c #6C523D",
"U  c #725137",
"Y  c #72553C",
"T  c #7A593E",
"R  c #7A563B",
"E  c #75492A",
"W  c #5E4C41",
"Q  c #5F5046",
"!  c #624F41",
"~  c #655243",
"^  c #6B5542",
"/  c #6E5945",
"(  c #6A5649",
")  c #6D5A4B",
"_  c #665549",
"`  c #715741",
"'  c #735A44",
"]  c #7A5D44",
"[  c #735D4A",
"{  c #795E4A",
"}  c #725F51",
"|  c #635B55",
" . c #7C6046",
".. c #76614D",
"X. c #7C634C",
"o. c #776047",
"O. c #756252",
"+. c #7B6553",
"@. c #7E6954",
"#. c #796759",
"$. c #7E6A5B",
"%. c #776558",
"&. c #864D2C",
"*. c #86593A",
"=. c #8C613D",
"-. c #855F44",
";. c #885E45",
":. c #836246",
">. c #83654B",
",. c #8A654A",
"<. c #85694E",
"1. c #8B6A4D",
"2. c #8A6245",
"3. c #926B4C",
"4. c #926345",
"5. c #816751",
"6. c #846B54",
"7. c #8A6D53",
"8. c #836D5A",
"9. c #896F59",
"0. c #936D53",
"q. c #9A6F52",
"w. c #8B7156",
"e. c #86715D",
"r. c #8B735C",
"t. c #937255",
"y. c #9A7253",
"u. c #93765C",
"i. c #9B7559",
"p. c #94795D",
"a. c #9C7B5D",
"s. c #A27C5C",
"d. c #A57957",
"f. c #816F61",
"g. c #857261",
"h. c #8B7662",
"j. c #8E7964",
"k. c #8E7B6B",
"l. c #877A6C",
"z. c #947C64",
"x. c #9A7D63",
"c. c #947E6A",
"v. c #9A7F6A",
"b. c #8F7F70",
"n. c #917F70",
"m. c #A47F64",
"M. c #B3835E",
"N. c #9C8166",
"B. c #95826D",
"V. c #9B836B",
"C. c #9F886F",
"Z. c #958473",
"A. c #9A8672",
"S. c #9D8975",
"D. c #9D8B7B",
"F. c #978878",
"G. c #A38465",
"H. c #A98464",
"J. c #A2856A",
"K. c #AA866A",
"L. c #A4896D",
"P. c #AB8B6D",
"I. c #AF8B67",
"U. c #B38D6C",
"Y. c #B68A67",
"T. c #B4916D",
"R. c #A18670",
"E. c #A48C74",
"W. c #A98D74",
"Q. c #A38E7A",
"!. c #A98F79",
"~. c #A69077",
"^. c #AC9175",
"/. c #A5917C",
"(. c #AB947C",
"). c #B29475",
"_. c #B3957B",
"`. c #B4997C",
"'. c #BC9B7C",
"]. c #B99576",
"[. c #9E9082",
"{. c #9C8E81",
"}. c #A39383",
"|. c #AA9682",
" X c #AD9A84",
".X c #AC9B8B",
"XX c #A69889",
"oX c #B29C84",
"OX c #BB9E83",
"+X c #B29E8A",
"@X c #B59B84",
"#X c #AC9E92",
"$X c #B29F90",
"%X c #BDA185",
"&X c #B4A18C",
"*X c #BBA48C",
"=X c #B6A083",
"-X c #AEA192",
";X c #B4A392",
":X c #BAA592",
">X c #BDAA96",
",X c #B6A799",
"<X c #B7A99B",
"1X c #BBAC9B",
"2X c #B6A897",
"3X c #BEB09F",
"4X c #BCAEA0",
"5X c #BEB1A2",
"6X c #C4A485",
"7X c #C2A68A",
"8X c #C9AA8B",
"9X c #C3AB92",
"0X c #CBAF94",
"qX c #C1AE9C",
"wX c #C4B29D",
"eX c #CAB49C",
"rX c #C8B096",
"tX c #D2AE8C",
"yX c #C4B4A2",
"uX c #CAB8A5",
"iX c #C9B9A7",
"pX c #D1C2B1",
/* pixels */
"$ 1 X 1 2 3 8 l B B J b v y 7 , : * * = = = @ o   = = = , 7 p v M n M M / P P b v < - * # = = @ =   X @ @ @ # * # o 7 , t s s v C s < < : * . o + + . ",
"@ @ 1 % * 4 l n H J J J F g i 7 , , = * @ * = X @ @ @ * * , 7 C M M Z U I o.F e f ; , , = X X X   X X @ X = * * o & , v b P P M v g y 4 > - * + + + + ",
"$ $ 6 6 8 a B ^ Y ] 7.I I V a u & 7 , * = @ = = = = * , , 7 u v M o. . .1.N.1.Z s t 7 3 , * X X @ X X * = * * , - - y s F o.o.o.I n y u < > 7 C 8 = + ",
"1 2 6 5 i l J >.X.1.y.] Y / V a , 5 : , * * = = = * * : , 7 t v o.@.w.N.N.<.N.1.M M p 7 * # # X @ # @ @ # # , , 7 y v o.o.o./  .' / n t < : p | | 1   ",
"1 6 8 t l H J ' t.i.H.N.1.X.I M 3 , 7 : * * * = * = * 3 5 u y Z  .I ' P N.H.G.=.<.P C C 7 * * # # X @ @ # , , , 7 v M I / G  . .T I J n 5 * @ # @ = $ ",
"1 6 5 l B ! ^ 8.s.d.I.H.X.X.P V v 7 : : * = * = # * * , 3 u M ' o.o.N.G.I.I.G.G.w.M p p 7 , * * # # # # # # , 7 7 f P Y @.N.N.=.R S I V i 2 % % = @ = ",
"1 8 u x [ u.J.x.a.Y.T.T.V.8.w.V C , 7 , * * = * - , 3 7 7 v P / X.=.<.w.G.P.G.N.N.o.P p p 3 , , # , * * * , , t M P I N.N.N.N.=.*.A B N m 3 3 : $ $ = ",
"8 6 C ~ { ..z.x.^.a.N.L.N.N.6.I C u 7 7 , * * , - , 3 3 u y v @.@.N.I.^.^.).'.L.N.<.P p , * # # * , , * * # , t v Z o.=.N.N.).G.u.t.6.H n g < 3 2 * = ",
"6 z B ( +.+.^ +.N.`.).[ >.6.w.^ P y 7 , 5 3 1 = , : , C N H M V / N.I.^.C.`.N.<.3. .U v p , # # # * , * , 3 3 v M Y N.G.I.'.P.I.0.8.9.P n y < : 1 % = ",
"3 k B ( { h.C.W.^.).8X8XU.H.0.7.Z e u , 3 , 1 1 * : 7 v v m o.@.w.N.^.^.`.'.C.I.I.N.<.G v 7 , : : * * 1 # : t 7 M Y o.N.G.G.N.N.G.u.` ' F q 9 O & = = ",
"z N ! { j.z.h.Q.^.).P.I.d.3.x.6.Y v v 4 5 5 : , , 3 v v M P +.N.N.N.~.^.~.`.C.N.N.N.<.Y M p , * # # , , , , , v M o.N.T.6X~.L.T.z.z.>.( B q 9 ; : % = ",
"k W ) ;.x.z.R.!.OX9X'.L.^.P.N.u.' M M v < 4 3 , 3 3 C v M ' o.6.~.^.~.).'.C.j.N.N.N.w.o.P v , 7 4 , * , 7 < v M / <.G.'.'.`.N.N.L.z.9.{ ` h i t > 6 1 ",
"B ) [ ;.0._.K.].`.%XJ.=XE.S.V.r.@...P b e 7 , , 3 C v C P <.N.L.~.T.T.'.I.~.C.~.N.t.<.o.P v 7 7 t 7 7 3 5 v C P o.r.L.L.).).I.V.E.v.z.h.! f x x 6 % % ",
"x _ { q.4.W.@X|.*X*X^./.|.S.S.h.@...H b v t 3 7 C v n M P N.C.~.`.'.T.`.'.'.`.`.T.N.@.6./ M p 7 , 3 7 3 C n b ` w.N.N.L.`.`.T.E.A.(.k.g.[ _ ! k z : 2 ",
"B ( 8.8.a.E.(.|.&XwX=XoX/.S.B.B.w...I b s < 7 3 C n v P o.@.C.~.C.~.~.7X'.`.'.I.T.N.o./ P P M p p , 3 p 7 v F X.N.H.%XL.C.C.&X=XW.R.Q.v.8.) _ l l k 6 ",
"! { h.5.r./.+X>X1X>X.X*X X2XZ.C.B.@./ P n C , 8 C n v I <.N.e.C./.`.rX(.(.rXtXI.T.`.~.j.o.P P p C 7 7 C C v P <.=.H.E./. X.X/./.+X|.n.A.8.J l l N k z ",
"_ [ v.!.!.|.Q..X4X1X>XqX&X|. XE.N.8.o.Q V C C i k C v o. .P.L.P.`.(.=X3X`.%X6X8X=XS.S.r.r.I B n t 4 p u n M / 6.p.B.S.B.F.oX XB.h.n.v.g.i.;.{ h i u z ",
"( 5.c.A.S..XQ.4X<XyX1XwX:X&X/.j.p.e.[ ~ V v v C N V b /  .w.N.L.S.(.&X/. X=X=X9XrX`.N.w.r...P n C v y v V / e.6.N.V.V.~.9X0XeX|.v.n.XX|.d.c c c q r r ",
"_ } 8.c.v.}.XXqX1X;X;X<XiX}.F./.B.k.@.} M C a C C C P ..@.t.N.T.>XuX>X`.D./.&XwXrXrXN.p.B./ P n 7 v < e b I @.w.L.E.z.E.H.T.%X XqX,Xn.v.{.,.[ W k 6 6 ",
"Q f.9.A..X{.n..XD..XQ.{.-XZ.F.|.$.@.P V P N C C p N P +.r.1.=.H.*X*XwXwX[.;X>X&X/.(.B.r.@.e.^ M M C y e b ^ @.p.B.N.C.`.P.].>XyX:XqX$X|.|.9.^ ) _ N k ",
"! f.g.c.R.!.#X<X+X#X;XyX-X[.:X*X~.~.@.o./ B N B n M O.e.N.7.t.N.*XuXpXpXpX&X3XeX*X(.(.N.N.e.O.o./ v f w M ' w.B.~.R.V.A.(.yXyXyXqXqXqXOX@Xk.f.) _ N k ",
"} #.c.|.@X*X}.:X5X4X<XqX-X:XuXeX=X Xr...[ V V B v _ O.e.B./.~.=XuX>X'.'.7XeX3X>X*XD.F.S.~.h.8.P v M s s I  .e.r.oX}.D.D./.F..X<X,X$X$X|.m.R.} 8._ k z ",
") { v.R.@X.X:XqX,X<X1X-X#XD. X(./.F.@.o.) N B H N P P r.B.B. X X1XrX8X`.'.=X.X;X(.`.~.~.S.S...P M P P P ' @.B.C.Z. XwX9X&XyXyX#X$X#X@XOXi.v.n.) x x x ",
") #.h.!.v.Q.Q.n.|.:X2XyXiXyXqX:X~.B.@.' / V V H ~ ) $.@.r.Z.Q.XXF.pXpXyX3XyX5Xl.Z.e.$.B.B.p./ M M M P I o.8.N.C.Q.Q.Z./. X&XpX1X$XyX*XOX|.{.g.f.f._ k ",
"} 5.v.Q.OXXX[.#X$X}.4X1X:X>XqXoXp.6.6.I / V N N _ _ +.p.G.).~.&XyX2X2X3X2X.X<X=X|.K.^.z.v.V.z.<./ P ^ ~ ) ) h.c.A.}.XX1XD.n.Q.+XXXqX$XXXQ.v.8.} _ ! x ",
"} h.f.h.+X:XQ.}.$X$X$X$X<XqX>X(.1.<.>.^ / V ~ V P V ..3.a.K.E.&XD.-X5X`.`.=XT.rXC.A.OXB.p.u.w.<.I G { P ) +.e.A.R.E.:XiXuXE.A.1X#X#X.XXX[.v.c.8.) h i ",
"( { 0.z.v.Q.$X|.+X.XF..Xn.Q.!.n.X.X.6.[ M v H P P / 8.3.4.y.*XwX2X&XiX5X:X>XD.5XwX~.J.V.w.w.X.{ S I ' I @.@.$.h.~.i.3.0.y.^.J.|.|.|.|.n.S.u.,.} ) ! x ",
"{ -.0.m._.E.R.XX+X.X#X$X:XA.Q.A.N.8.[ ' / I J I P ..+.@.w.E.&X2X2X2X.X2X=XwX.X X9X/.R.2.T 9...' ' J I { X.X.z.B.x.*.&.&.*.R.A.R.S.+XXXE.R.k.} } ( x k ",
"+.,.1.a.J.@Xc.Z.@X:X+X.X:X+Xc.j.h.e.....o./ I / ..+.X.B.C./.XX.X2X<XwXwXyX5X1X X X X`.N.t.w.o.T I { ' ] X.w.r.e.1.R *.R 4.OXXX[.|..X}.0.;.i.8.( ~ x u ",
"[ ^ ' { 9.Q.n.#X,X$X$X$X@X!.Q.v.6.I b M ' J D I o.' / g.S.Q./.>X.X`. X=X3X2X4X.X:X(.=XE.N.x.<.I F m J ' ' 6.j.w.a.W.^. XZ.;X$X1X+Xh.c.S.c.f.v.#.[ } _ ",
"! ( { 9.n.}.+X[.XX,X#X_.d.K.{.D.h.@.+.) P I I J ' ..$.r.B.(.B./.1XL.G.T.&X1XD..X.X(.~.(.N.Y E 1. .o.J P X.6.@.x.u.w.9.R.A.!.c.XXQ.q.v..XE.v.8.} ( V u ",
"H { { +.h.#.k.n.[.Q.c./.c.v.A.h.j.@./ P P H M H J ' X.X.p.Z.(..X/.~.&X3X/./.&X~.J.J.w.w.>.U c R 1.Y X.Y >.9.9.9.w.V.z.j.c.].Q.h.7.m.v.R.j.g.9.5.! h x ",
"~ [ f.n.n.Q.R.{.R.E.W.@XF.A.c.j.e.@.' I M M P M F ' ` o.p.j.}./.&XpX>XwXrX>X XS. X~.N.p.p.T c R 2.U  .<.6.>.7.1.0.a.J.^.S.&X|.9.;.0.v.z.0.7.9.g.` c x ",
"F ( [ } z.v.h.v.W.d.d.m.h.B.c.[ o.U c G P P ` / ' X.'  .@.p./.Q.S. X>X>XrX*X&XD. X(.C.B.r.r.X. .1.@.T :.,.:.,.z.v.V.E.W.oX|.!.R.}.!.|.c.h.h.} ! F a u ",
"x _ ( } f.,.u.v.W.m.i.J.A.h.9.8.o.I F J n v P F P o.' @...r./.~.(.2X=X(. XV./.B.B.F.h.B.@.o.X.o.I Y :.U :.9.X.e.z.S.E.Q.D.|.D.Z.n.n.h.}.v.g.8.{ [ ! x ",
"h ! ! W ( 5.u.u.v.F.n.7.9.k.8.[ ~ [ I P M F F J / I o.6.@.$.S.(.(.wXXX(.N.N.N.r.V.S.9.<.e.9.6.X.o.I T  ./ 6.w.+.8.c.8.@.Z.Q.Z.Q.n.R.n.n.k.f.) ( F h l ",
"W ! ~ } f.g.f.k.f.D.Z.;.6.g...( P Y P M Y b b I ' I o.<.w.V.~.z.r./.XXV.t.1.*.<.L.^.N.6.p.9.X.X.X.o.X. .<.U R 7.;.L ;.,.8.k.A.F.,.q.v.k.f.5.} ( N N k ",
"h ! ~ } } } f.f.g.g.k.f.#.%.H H P P M v F v b F I I Y o.p.e.j.C.~..X*XC.L.V.N.N.E.r.p.w.e.6.<.' <.Y Y T >. .{ ] L L A ;.r.O.g.R.;.0.0.h.f.( ~ h N h a ",
"a ~ ( } %.} ) } 8.n.{.S.$.} ) { ~ / F D G F M F F o.' I / ' X.B.C./. XV.C.C.r.C.j.B.6.X.X.o.' ' T A L U ]  .X.] L :.>.:.Z.c.Z.Z.[.v.n.v.} ^ ^ ! x a u ",
"W h _ } $.} } $.f.f.g.8.%.[ ) ~ P ' K b b P M M F P ' ..+.r.j.z.V.~.~.C.L.B.B.B.N.r.p.w.<.' Y o.K A Z J I Y X.X.>.r.h.9.6.r.h.c.h.h.h.h.{ ( ! h x x t ",
"x ! ! _ ) } } } $.{ 8.O.$.( ( H P ~ m b b I P I U m I P ' e.e.e.r.C.C.B.w.w.N.N.p.1.o.<.t.<.o. .Y S G X.] ' I ' { { } 5.[ 8.8.f.f.g.8.} [ ~ ! x a x r ",
"x h W ! W _ } } ) +.} %.%.+.^ ^ M n v P J H P F Z G / ' o...w.8.r.B.V.N.B.8.B.B.6.T T :.7. .I Y ' T ' T T ' {  .` ^ { ^ -.h.r.%.h.f.} 8.( h x x a g z ",
"k i i x i ! ~ ( } } } ( ^ ) ( ~ M n H m H H M I D G L Y ..+.8.6.w.w.N.N.N.B.j.v.r.1.R T T J J U J J F G G J J J ` J ~ { { +.%.@.5.} } } ( J h h x a i ",
"l l i l l B a N ) ( [ H H V m H P M H F M P H / S S L U [ ....e.8.@.N.B.a.r.r.r.@. .Y U  .Y U U ] I T ] U Y I D J J ^ ^ [ +...%.` ' { ) ~ ~ x g i t r ",
"l x x x W _ W ! W _ ( ^ ~ V V V M B M M H M P P G S G R / / ..+.6.p.r.C.t.N.r.8.@.X.' { ' ' G S ] Y G U Y I I / J ! ( [ ^ ^ ^ [ ^ ` ( _ ! x x l a i u ",
"l a x a x x h W ~ ! W B B n V n n g m m m J P P Z S G G J H I o...[ @.o.o.X.@.+.X.o.I I ' I G Z S K K Z F g g m F h g F m ! ^ ! ~ ~ F ( ~ ! x i i i r ",
"6 > 6 a i i x B B B V M H V M n B b b m v M D D F H I ' P P ^ H P o.@.#.@.X.X.<.] T U Y Y ` I U Y ' Y J Y J H J J F x M M m m H ! V h V x x i i i i t ",
"i l i i x N x x n a l a a n n a n s f v g M J S Z M F I H P P H / ../ ..+.<.' ' ..o.I / Y I Y I Y Y I Y J J J H ! J F m B B V ! F ! ! h ! x x i a x u ",
"6 k l u i a x r r r u i x x W g a g g x g g g F m m M Z P M v m B H / / ' 6.' I / ` I I I M F G F M Y Y Y H v M m M H b M M M H F x F W x i g t r r r ",
"r r r r 6 r i 6 u k t r i i i i g f f m m m m B M F H H m F J P J Z F D I ! ^ { ` { ' ^ J F F J F F P Z M J v F F m F B m F F D h x a a a g i y r r & ",
"r r 6 r u r i 6 r i t y w l y y s g d g f g g g m v v b v m J F J Z j j D H ( ' ' I ` Y I I I Y Y Y J b b b b v v m g g B h x h h y d a y u i t d r r ",
"6 0 6 r r i r 2 6 t i t u r i g r y g g B Z D J v m H H H v b b H D M c G H H J ` I Y ` ] M D I P P P F J b J I J M D g x s h r q r a y r d g r O & > ",
"> 6 r r r r i i t r r t i g l g g g i g m f Z B s M b M H v b M F F F F I H H I J J h g J M B Y Y Y Y I D K b F F h m m x x h w w 9 9 e r r t y & & > ",
"6 0 r 6 r k t r z u t r r t i u u g x g x x g g m v m n v v H n n B m H F B B H H J / I ` ' J F P I J I H J v s a x h x h h g 9 9 9 9 r r r r < t > 6 ",
"6 > > r r > 6 6 > > t r t y y i x x n n B m m x v b b m M H M P H J M m J H H J J J F F D J J F F P J M F D b y x h m h h a h s d d r t r r u r r < > ",
"> 6 > 2 2 > 6 q r r r r t y t a s a x n g s x x n m g n C b v m B B B g x H M F H b J D Y J F D F F F b b b b s g m h x x a i a f d r w 9 r r r r > > ",
": : : : > > : 4 > ; 9 ; t a i u i t t g g n m f n v m n n M M B v F g b v B b F G J H J G g g M J J H F F h m m h B x B x x h g a g r 9 & y > r < < r ",
"1 : : 6 6 4 > r < > r r r a i t a a s n n g x g v n g a s m b n g a a m H I J M h m m B F g s g F m F F H m x x m m h g g i r u i y r r r i y > r r 6 ",
"* > : > 4 & & r r r r r r y r t i s i u g g g s a v g n g a b v t t i v b F F H D B F F D F M j h F D m D m J h x x g x i a i r 6 r > 0 r r r r 6 > : ",
"- 2 : 2 > > r & > r r r r r r r ; 0 i v m i i d s g a y s s g B M g v n m v F b g m h m f g M b D f d j f r y h g g f f s y d y > > > < w & ; ; r r r "
};
