/* XPM */
static char *result[] = {
/* columns rows colors chars-per-pixel */
"75 75 187 2 ",
"   c #AEB6AE",
".  c #BCC0BC",
"X  c #BDC4BD",
"o  c #C0C7C0",
"O  c #CBCDCB",
"+  c #CBD1CB",
"@  c #CED2CE",
"#  c #CFD2CF",
"$  c #CED7CE",
"%  c #D0D3D0",
"&  c #D1D3D1",
"*  c #D0D5D0",
"=  c #D1D5D1",
"-  c #D2D4D2",
";  c #D4D5D4",
":  c #D4D6D4",
">  c #D4D7D4",
",  c #D5D6D5",
"<  c #D6D7D6",
"1  c #D7D7D7",
"2  c #D2D8D2",
"3  c #D2DED2",
"4  c #D4D8D4",
"5  c #D6D8D6",
"6  c #D7D9D7",
"7  c #D6DBD6",
"8  c #D7DAD7",
"9  c #D8DBD8",
"0  c #D9DBD9",
"q  c #DADADA",
"w  c gray86",
"e  c #D8DDD8",
"r  c #DADCDA",
"t  c #DBDCDB",
"y  c #DADEDA",
"u  c #DBDEDB",
"i  c gainsboro",
"p  c #DCDEDC",
"a  c #DDDEDD",
"s  c #DDDFDD",
"d  c gray87",
"f  c #DEDFDE",
"g  c #DFDFDF",
"h  c #DBE1DB",
"j  c #DCE0DC",
"k  c #DDE0DD",
"l  c #DDE1DD",
"z  c #DEE0DE",
"x  c #DEE1DE",
"c  c #DFE0DF",
"v  c #DFE1DF",
"b  c #DFE2DF",
"n  c #DDE5DD",
"m  c gray88",
"M  c #E0E1E0",
"N  c #E0E2E0",
"B  c #E0E3E0",
"V  c #E1E2E1",
"C  c #E1E3E1",
"Z  c #E2E2E2",
"A  c #E2E3E2",
"S  c gray89",
"D  c #E1E4E1",
"F  c #E1E6E1",
"G  c #E2E4E2",
"H  c #E3E4E3",
"J  c #E3E5E3",
"K  c #E2E6E2",
"L  c #E3E6E3",
"P  c #E3E7E3",
"I  c #E4E4E4",
"U  c #E4E5E4",
"Y  c gray90",
"T  c #E4E6E4",
"R  c #E4E7E4",
"E  c #E5E6E5",
"W  c #E5E7E5",
"Q  c #E6E6E6",
"!  c #E6E7E6",
"~  c #E7E7E7",
"^  c #E3E8E3",
"/  c #E4E8E4",
"(  c #E4E9E4",
")  c #E5E8E5",
"_  c #E5E9E5",
"`  c #E4EAE4",
"'  c #E4EBE4",
"]  c #E5EBE5",
"[  c #E6E8E6",
"{  c #E7E8E7",
"}  c #E7E9E7",
"|  c #E6EAE6",
" . c #E7EAE7",
".. c #E7EBE7",
"X. c #E7ECE7",
"o. c #E7EDE7",
"O. c gray91",
"+. c #E8E9E8",
"@. c #E9E9E9",
"#. c #E8EAE8",
"$. c #E8EBE8",
"%. c #E9EAE9",
"&. c #E9EBE9",
"*. c #EAEAEA",
"=. c #EAEBEA",
"-. c gray92",
";. c #E8ECE8",
":. c #E8EDE8",
">. c #E9ECE9",
",. c #E9EDE9",
"<. c #E9EEE9",
"1. c #EAECEA",
"2. c #EAEDEA",
"3. c #EBECEB",
"4. c #EBEDEB",
"5. c #EAEEEA",
"6. c #EBEEEB",
"7. c #EBEFEB",
"8. c #ECECEC",
"9. c #ECEDEC",
"0. c gray93",
"q. c #ECEEEC",
"w. c #ECEFEC",
"e. c #EDEEED",
"r. c #EDEFED",
"t. c #EEEEEE",
"y. c #EEEFEE",
"u. c #EFEFEF",
"i. c #EDF1ED",
"p. c #EEF0EE",
"a. c #EEF1EE",
"s. c #EFF0EF",
"d. c #EFF1EF",
"f. c #EEF2EE",
"g. c #EFF2EF",
"h. c gray94",
"j. c #F0F1F0",
"k. c #F1F1F1",
"l. c #F0F2F0",
"z. c #F0F3F0",
"x. c #F1F2F1",
"c. c #F1F3F1",
"v. c gray95",
"b. c #F2F3F2",
"n. c #F3F3F3",
"m. c #F0F4F0",
"M. c #F0F5F0",
"N. c #F1F4F1",
"B. c #F1F5F1",
"V. c #F2F4F2",
"C. c #F2F5F2",
"Z. c #F3F4F3",
"A. c #F3F5F3",
"S. c #F2F6F2",
"D. c #F3F6F3",
"F. c #F4F4F4",
"G. c #F4F5F4",
"H. c gray96",
"J. c #F4F6F4",
"K. c #F4F7F4",
"L. c #F5F6F5",
"P. c #F5F7F5",
"I. c #F6F6F6",
"U. c #F6F7F6",
"Y. c gray97",
"T. c #F6F8F6",
"R. c #F7F8F7",
"E. c #F8F8F8",
"W. c #F8F9F8",
"Q. c #F9F9F9",
"!. c #F9FAF9",
"~. c gray98",
"^. c #FAFBFA",
"/. c #FBFBFB",
"(. c #F8FDF8",
"). c #FAFCFA",
"_. c #FBFCFB",
"`. c #FBFDFB",
"'. c gray99",
"]. c #FCFDFC",
"[. c #FDFDFD",
"{. c #FCFEFC",
"}. c #FDFEFD",
"|. c #FEFEFE",
" X c #FEFFFE",
".X c white",
"XX c None",
/* pixels */
"XXXXXXXXXXXXXXXXXXXXXXXXXXXXXXXXXXXXXXXXXXXXXXXXXXXXXXXXXXXXXXXXXXXXXXXXXXXXXXXXXXXXXXXXXXXXXXXXXXXXXXXXXXXXXXXXXXXXXXXXXXXXXXXXXXXXXXXXXXXXXXXXXXXXXX",
"XXXXXXXXXXXXXXXXXXXXXXXXXXXXXXXXXXXXXXXXXXXXXXXXXXXXXXXXXXXXXXXXXXXXXXXXXXXXXXXXXXXXXXXXXXXXXXXXXXXXXXXXXXXXXXXXXXXXXXXXXXXXXXXXXXXXXXXXXXXXXXXXXXXXXX",
"XXXXXXXXXXXXXXXXXXXXXXXXXXXXXXXXXXXXXXXXXXXXXXXXXXXXXXXXXXXXXXXXXXXXXXXXXXXXXXXXXXXXXXXXXXXXXXXXXXXXXXXXXXXXXXXXXXXXXXXXXXXXXXXXXXXXXXXXXXXXXXXXXXXXXX",
"XXXXXXXXXXXXXXXXXXXXXXXXXXXXXXXXXXXXXXXXXXXXXXXXXXXXXXXXXXXXXXXXXXXXXXXXXXXXXXXXXXXXXXXXXXXXXXXXXXXXXXXXXXXXXXXXXXXXXXXXXXXXXXXXXXXXXXXXXXXXXXXXXXXXXX",
"XXXXXXXXXXXXXXXXXXXXXXXXXXXXXXXXXXXXXXXXXXXXXXXXXXXXXXXXXXXXXXXXXXXXXXq.XXXX3.XXXXXXXX4.Y XXXXXXXXXXXXXXXXXXXXXXXXXXXXXXXXXXXXXXXXXXXXXXXXXXXXXXXXXXXX",
"XXXXXXXXXXXXXXXXXXXXXXXXXXXXXXXXXXXXXXXXXXXXXXXXXXXXXXXXXXXX! XX..XXXX0.XX0.h XXXXt.E XXXXXXXXXXXXXXXXXXXXXXXXXXXXXXXXXXXXXXXXXXXXXXXXXXXXXXXXXXXXXXXX",
"XXXXXXXXXXXXXXXXXXXXXXXXXXXXXXXXXXXXXXXXXXXXXXXXXXXXXXXXXXXXXXXXx.XX&.XXXX4.XXXXL.XXXXXXXXXXXXXXXX: + XXXXXXXXXXXXXXXXXXXXXXXXXXXXXXXXXXXXXXXXXXXXXXXX",
"XXXXXXXXXXXXXXXXXXXXXXXXXXXXXXXXXXXXXXXXXXXXXXXXXXXXXXXXXX[ XX7.XXXXe.XXx.XXXXj.XXXXXX-.y.m 3 ( XXXXXXXXXXXXXXXXXXXXXXXXXXXXXXXXXXXXXXXXXXXXXXXXXXXXXX",
"XXXXXXXXXXXXXXXXXXXXXXXXXXXXXXXXXXXXXXXXXXXXXXXXXXXXXX:.XXy.XXr.XXr.XXXXn.XXXXX.XXXXW.[ XXXXXXXXXXXXXXXXXXXXXXXXXXXXXXXXXXXXXXXXXXXXXXXXXXXXXXXXXXXXXX",
"XXXXXXXXXXXXXXXXXXXXXXXXXXXXXXXXXXXXXXXXXXXXXXx XXXXXXW XXH.XX-.XXZ.XXXX-.XXXXXXXX%.%.XXXXXXXXXXXXXXXXXXXXXXXXXXXXXXXXXXXXXXXXXXXXXXXXXXXXXXXXXXXXXXXX",
"XXXXXXXXXXXXXXXXXXXXXXXXXXXXXXXXXXXXXXXXXXXXXXQ.XXXXXXXXXXXXXXZ.XXH.XXXXv.XX{ XXXXI.XXXXz R.9.F.e.V 1.XXXXXXXXXXXXXXXXXXXXXXXXXXXXXXXXXXXXXXXXXXXXXXXX",
"XXXXXXXXXXXXXXXXXXXXXXXXXXXXXXXXXXXXXXXXXXXXXXG.XXXXXXXXc.XXXXE.XXh.XXXXXXXX=.XXXXn.XXXX/.XXXXXXXXXXXXXXXXXXXXXXXXXXXXXXXXXXXXXXXXXXXXXXXXXXXXXXXXXXXX",
"XXXXXXXXXXXXXXXXXXXXXXXXXXXXXXXXXXXXXXXXXXXXXXXXXXXX{ XXR.XXXXc.XXP.XXXXh.XXI.XXd.&.XXv.XXXXXXXXXXXXXXXXXXXXXXXXXXXXXXXXXXXXXXXXXXXXXXXXXXXXXXXXXXXXXX",
"XXXXXXXXXXXXXXXXXXXXXXXXXXXXXXXXXXXXXXXXXXXXXXXXt.XX*.XXE.XXXXu.XXn.XXXXt.XXb.XXz.XXXXh.XXXXJ Y.P.Y.9 XXXXXXXXXXXXXXXXXXXXXXXXXXXXXXXXXXXXXXXXXXXXXXXX",
"XXXXXXXXXXXXXXXXXXXXXXXXXXXXXXXXXXXXXXXXXXXXXXXXH.XX' XXu.XXXX9.XXS j.XXS.XXh.XXH.XXXXd.XXXXP.U XXXX3./ XXXXXXXXXXXXXXXXXXXXXXXXXXXXXXXXXXXXXXXXXXXXXX",
"XXXXXXXXXXXXXXXXXXXXXXXXXXXXXXXXXXXXXXXXXXXXXXXX8.XX+.XXXXd.XXI.XXXXP.XXJ.XXt.XXJ.XXI.XXXXQ.XXXXXXXXXXXXu Z XXXXXXXXXXXXXXXXXXXXXXXXXXXXXXXXXXXXXXXXXX",
"XXXXXXXXXXXXXXXXXXXXXXXXXXXXXXXXXXXXXXXXXXXXXXXXm XX8.XXXXY.XXXXY.XXx.F.%.Z.XX*.n.XXT.XXXX,.XXXXXXQ XXXXXXXXg   XXXXXXXXXXXXXXXXXXXXXXXXXXXXXXXXXXXXXX",
"XXXXXXXXXXXXXXXXXXXXXXXXXXXXXXXXXXXXXXXXXXXXS XXl XXt.XXXXt.XXXXb.0.XXE.XXF.# Y.&.N.F.XX@.XXXXXXl.L.L.q.XXXXXXXXXXXXXXXXXXXXXXXXXXXXXXXXXXXXXXXXXXXXXX",
"XXXXXXXXXXXXXXXXXXXXXXXXXXXXXXXXXXXXXXXXXXXX@.XXH.XXXXW XXXX~.XXXX_.r.q /.%.L.G.3.F.Y.XX@.XXXX~.XXXXXXa 6.XXXXXXXXXXXXXXXXXXXXXXXXXXXXXXXXXXXXXXXXXXXX",
"XXXXXXXXXXXXXXXXXXXXXXXXXXXXXXXXXXXXXXXXXXXXE.XXH.XXXX!.XXXX+.~.$.8 I.A..X!..XF.2./.p.XXN.XXr.F.XXXXXXXXXX4.XXXXXXXXXXXXXXXXXXXXXXXXXXXXXXXXXXXXXXXXXX",
"XXXXXXXXXXXXXXXXXXXXXXXXXXXXXXXXXXXXXXXXXXXX9.XXk.XXXXS L.XXXXs Q..X'..X.X.X.X.X'.'.3.A Y.XXg.XXXXXXXXXXXXXX/ XXXXXXXXXXXXXXXXXXXXXXXXXXXXXXXXXXXXXXXX",
"XXXXXXXXXXXXXXXXXXXXXXXXXXXXXXXXXXXXXXXXXXXXV.XXXXC.XXXXq..Xy.V H .X.X.X.X.X.X.X.X.X<.c.b.XXb.XXXXL.~.).@.XXXXr XXXXXXXXXXXXXXXXXXXXXXXXXXXXXXXXXXXXXX",
"XXXXXXXXXXXXXXXXXXXXXXXXXXXXXXXXXXXXXXXXXXXXXXXXXXN.XXXXXXm Z.~..X.X.X.X.X.X.X.X.X.X).9.'.E x.XXG.=.XXXX-.8.XXXXXXXXXXXXXXXXXXXXXXXXXXXXXXXXXXXXXXXXXX",
"XXXXXXXXXXXXXXXXXXXXXXXXXXXXXXXXXXXXXXXXXXXXXXj.XXXX[.U XXXX*.~..X.X.X.X.X.X.X.X.X.X.Xn..X-.XXXX3.XXXXXXXXS XXXXXXXXXXXXXXXXXXXXXXXXXXXXXXXXXXXXXXXXXX",
"XXXXXXXXXXXXXXXXXXXXXXXXXXXXXXXXXXXXXXXXXXk.XXE.XXXXd '..X.X.X.X.X.X.X.X.X.X.X.X.X.X.X.X.Xq.XXg.XXXXXXXXXXXX,.XXXXXXXXXXXXXXXXXXXXXXXXXXXXXXXXXXXXXXXX",
"XXXXXXXXXXXXXXXXXXXXXXXXXXXXXXXXXXXXXXXXXXN XX{ F XXXXXXXX4 [..X.X.X.X.X.X.X.X.X.X.X.X.X.Xh.I T.XXXX4.-.4.XXXXZ XXXXXXXXXXXXXXXXXXXXXXXXXXXXXXXXXXXXXX",
"XXXXXXXXXXXXXXXXXXXXXXXXXXXXXXXXXXXXXXXXXX,.XXXX].y XXXX$..X.X.X.X.X.X.X.X.X.X.X.X.X.X.X.X.XQ I.XXH.v.I.p.A.XXXXXXXXXXXXXXXXXXXXXXXXXXXXXXXXXXXXXXXXXX",
"XXXXXXXXXXXXXXXXXXXXXXXXXXXXXXXXXXXXXXXXXXH.XXXX/ R.F._.A..X.X.X.X.X.X.X.X.X.X.X.X.X.X.X.X.Xe.5.w.v.XXXXXXL V XXe XXXXXXXXXXXXXXXXXXXXXXXXXXXXXXXXXXXX",
"XXXXXXXXXXXXXXXXXXXXXXXXXXXXXXXXXXXXXXXXXX .6.XXXXXXm , D .X.X.X.X.X.X.X.X.X.X.X.X.X.X.X.X.XY.XX[.XXXXXXXXXX9.XXXXS XXXXXXXXXXXXXXXXXXXXXXXXXXXXXXXXXX",
"XXXXXXXXXXXXXXXXXXXXXXXXXXXXXXXXXXXX2 XXF.XXc.XXXXXXXX~ [..X.X.X.X.X.X.X.X.X.X.X.X.X.X.X.X.X}.6 @.XXXXXXXXXXXXT XXXXXXXXXXXXXXXXXXXXXXXXXXXXXXXXXXXXXX",
"XXXXXXXXXXXXXXXXXXXXXXXXXXXXXXXXXXXXJ XXs.XXXX/.v M u.'.R..X.X.X.X.X.X.X.X.X.X.X.X.X.X.X.X.XI.0.XXXXQ..X[.-.XXu XXXXXXXXXXXXXXXXXXXXXXXXXXXXXXXXXXXXXX",
"XXXXXXXXXXXXXXXXXXXXXXXXXXXXXXXXXXXX{ XX} XXXXU ~.].R.; ~..X.X.X.X.X.X.X.X.X.X.X.X.X.X.X.X.Xb.[.XXU.W XXXXn.XXXX9.XXXXXXXXXXXXXXXXXXXXXXXXXXXXXXXXXXXX",
"XXXXXXXXXXXXXXXXXXXXXXXXXXXXXXXXXXXXXXXXXXXXXXXXXXXXXXL..X.X.X.X.X.X.X.X.X.X.X.X.X.X.X.X.X.X.XJ.H.l.XXXXXXXXm.XXM XXXXXXXXXXXXXXXXXXXXXXXXXXXXXXXXXXXX",
"XXXXXXXXXXXXXXXXXXXXXXXXXXXXXXXXXXXXXXN XXY.XXXXXXXX@..X.X.X.X.X.X.X.X.X.X.X.X.X.X.X.X.X.X.X.X0.}.XXXXXXXXXX*.XXXXXXXXXXXXXXXXXXXXXXXXXXXXXXXXXXXXXXXX",
"XXXXXXXXXXXXXXXXXXXXXXXXXXXXXXXXXX5 XXM XXt.v.XXXXp.'.E .X.X.X.X.X.X.X.X.X.X.X.X.X.X.X.X.X.X.X7.@.XX} o.@.XXXX^ XX> XXXXXXXXXXXXXXXXXXXXXXXXXXXXXXXXXX",
"XXXXXXXXXXXXXXXXXXXXXXXXXXXXXXXXXXXXXXx.XXXX%..X.XH.XX[..X.X.X.X.X.X.X.X.X.X.X.X.X.X.X.X.X.X.X.XXXU.Y.v.Z.H.XX! XXXX* XXXXXXXXXXXXXXXXXXXXXXXXXXXXXXXX",
"XXXXXXXXXXXXXXXXXXXXXXXXXXXXXXXXXXXXXXXXk.XXXXXXXXXXC [..X.X.X.X.X.X.X.X.X.X.X.X.X.X.X.X.X.X.XI.j.A.XXXXXX-.XXXXZ XXXX. XXXXXXXXXXXXXXXXXXXXXXXXXXXXXX",
"XXXXXXXXXXXXXXXXXXXXXXXXXXXXXXXXXXXXT XXr.XXXXXXXXXXT.v..X.X.X.X.X.X.X.X.X.X.X.X.X.X.X.X.X.X.Xs.E.XXXXXXXXXXq.XXT XXXXXXXXXXXXXXXXXXXXXXXXXXXXXXXXXXXX",
"XXXXXXXXXXXXXXXXXXXXXXXXXXXXXXX XXXX{ XXXXo.XXXXXXb.g.T..X.X.X.X.X.X.X.X.X.X.X.X.X.X.X.X.X.X.X[.G XXXXXXXXXXg.XXXXXXXXXXXXXXXXXXXXXXXXXXXXXXXXXXXXXXXX",
"XXXXXXXXXXXXXXXXXXXXXXXXXXXXXXXX% XXXX..XXj.v.u.Y.I.XX.X.X.X.X.X.X.X.X.X.X.X.X.X.X.X.X.X.X.X.X`.XXH..X.X#.XXXX@.XXXXXXXXXXXXXXXXXXXXXXXXXXXXXXXXXXXXXX",
"XXXXXXXXXXXXXXXXXXXXXXXXXXXXXXXXXXf XXH XXXXI N.L XXO.s..X.X.X.X.X.X.X.X.X.X.X.X.X.X.X.X.X.X.XP '.0.XXXXn.*.XX_ XX0 XXXXXXXXXXXXXXXXXXXXXXXXXXXXXXXXXX",
"XXXXXXXXXXXXXXXXXXXXXXXXXXXXXXXXXXXXXXXX0.XXXXXXXXXX}.1..X.X.X.X.X.X.X.X.X.X.X.X.X.X.X.X.X.X.X!.~ XXXXXXXXB.XX@.XXXXXXXXXXXXXXXXXXXXXXXXXXXXXXXXXXXXXX",
"XXXXXXXXXXXXXXXXXXXXXXXXXXXXXXXXXXXXc XXL.XXXXXXXXi.G.L..X.X.X.X.X.X.X.X.X.X.X.X.X.X.X.X.X.X.XI.XXXXXXXXXXXXXXXXXXXXXXXXXXXXXXXXXXXXXXXXXXXXXXXXXXXXXX",
"XXXXXXXXXXXXXXXXXXXXXXXXXXXXXXXXXXXX=.XXXXV.XXXXP Y.XX[.H..X.X.X.X.X.X.X.X.X.X.X.X.X.X.X.X.X~.= U.].!./ XXXXP XX} XXXXXXXXXXXXXXXXXXXXXXXXXXXXXXXXXXXX",
"XXXXXXXXXXXXXXXXXXXXXXXXXXXXXXXXXXXXXXm XX` '..XQ.XXXXh.U..X.X.X.X.X.X.X.X.X.X.X.X.X.X.X.X.XQ.'.j.T Z !.XXXXu.XXI XXXXXXXXXXXXXXXXXXXXXXXXXXXXXXXXXXXX",
"XXXXXXXXXXXXXXXXXXXXXXXXXXXXXXXX@ XXXX[ & XXXXXXXXXX+.5  X.X.X.X.X.X.X.X.X.X.X.X.X.X.X.X.X.X[.{ XXXXXXXXc.XXn.XXXXXXXXXXXXXXXXXXXXXXXXXXXXXXXXXXXXXXXX",
"XXXXXXXXXXXXXXXXXXXXXXXXXXXXXXXXXXw XXXXZ.XXXXXXXXXX}.XXA..X.X.X.X.X.X.X.X.X.X.X.X.X.X.X.X.Xb 1 m XXXXXX0.A XXXXXXXXXXXXXXXXXXXXXXXXXXXXXXXXXXXXXXXXXX",
"XXXXXXXXXXXXXXXXXXXXXXXXXXXXXXXXXXXXc XXP _ XXXXXXn.t.X.t..X.X.X.X.X.X.X.X.X.X.X.X.X.X.X.X.XL.'.Z.R.I XXXXA.XXXXXXXXXXXXXXXXXXXXXXXXXXXXXXXXXXXXXXXXXX",
"XXXXXXXXXXXXXXXXXXXXXXXXXXXXXXXXXXXXXXXXXXM.h.O.c.H.XXC.Q .X.X.X.X.X.X.X.X.X.X.X.X.X.X.X.X.XX.XXXXp [.XXXX@.XXXXXXXXXXXXXXXXXXXXXXXXXXXXXXXXXXXXXXXXXX",
"XXXXXXXXXXXXXXXXXXXXXXXXXXXXXXXXXXXXXXB XXXX9.v.6.XXXXU.L j..X.X.X.X.X.X.X.X.X.X.X.X.X.X|.0 XXXXXXXXXX@.XXv XXXXXXXXXXXXXXXXXXXXXXXXXXXXXXXXXXXXXXXXXX",
"XXXXXXXXXXXXXXXXXXXXXXXXXXXXXXXXXXXXXXXX5.XXXXXXXXXXXXj.XXy..X.X.X.X.X.X.X.X.X.X.X.X.X.X.X.X.X_.g XXXXY.XXl.XXXXXXXXXXXXXXXXXXXXXXXXXXXXXXXXXXXXXXXXXX",
"XXXXXXXXXXXXXXXXXXXXXXXXXXXXXXXXXXXXXXXXXXU XXXXXXXX0.XXXX%..Xn..X.X.X.X.X.X.X.X.X.X.X/.R XXXXN [.XXXXq.XXXXXXXXXXXXXXXXXXXXXXXXXXXXXXXXXXXXXXXXXXXXXX",
"XXXXXXXXXXXXXXXXXXXXXXXXXXXXXXXXXXXXXXXXXXw.1.XXXX4.L.XXv.Y '.3.'..X.X.X.X.X.X.X.X.X.X/.b.M XXXXXXc.XXXXh.XXXXXXXXXXXXXXXXXXXXXXXXXXXXXXXXXXXXXXXXXXXX",
"XXXXXXXXXXXXXXXXXXXXXXXXXXXXXXXXXXXXXXy XXXX*.'.~.Y.XXXXv.XXn.b.;..X.X.X.X.X.X.X.X.X~ N h..Xw.XXXXd.XXXXV.XXXXXXXXXXXXXXXXXXXXXXXXXXXXXXXXXXXXXXXXXXXX",
"XXXXXXXXXXXXXXXXXXXXXXXXXXXXXXXXXXXXXXXX .XXXXXXXXXXXXXXf.XXL.N e.'.'..X.X.X.X.X^..XQ.M XXXXU.T XXXXG.XX} XXXXXXXXXXXXXXXXXXXXXXXXXXXXXXXXXXXXXXXXXXXX",
"XXXXXXXXXXXXXXXXXXXXXXXXXXXXXXXXXXXXXXXXXX] XXXXXXXXXXx.u.XXm.XXd./.&.P..XW.{.n.E.- 2.~.#.XXXX~.XXXXY.XXj.XXXXXX7 XXXXXXXXXXXXXXXXXXXXXXXXXXXXXXXXXXXX",
"XXXXXXXXXXXXXXXXXXXXXXXXXXXXXXXXXXXXXXXXXXXXy.XXXXXXXX^.XXXX*.XXI.F.=.F.G.$./.t e.^.XXXX~.XXXXO.XXXXc.XXS XXXXXXXXXXXXXXXXXXXXXXXXXXXXXXXXXXXXXXXXXXXX",
"XXXXXXXXXXXXXXXXXXXXXXXXXXXXXXXXXXXXXXXXXXXXXX3.I.T.F.XXXXXX-.XXn.j.3.E.% Z.z E.XX9.x.XXXXu.XXXX#.XX} XXj XXXXXXXXXXXXXXXXXXXXXXXXXXXXXXXXXXXXXXXXXXXX",
"XXXXXXXXXXXXXXXXXXXXXXXXXXXXXXXXXXXXXXo i XXXXXXXXXXXXXXXXh.XXXXK.XXF.t.XXc.1.k.l.XXY.XXXXU.XXXX5.XXV XXXXXXXXXXXXXXXXXXXXXXXXXXXXXXXXXXXXXXXXXXXXXXXX",
"XXXXXXXXXXXXXXXXXXXXXXXXXXXXXXXXXXXXXXXXXXz z XXXXXXXXXXXXW.XXXXA.XXJ.XXt.XXL.XXR.XXXXG.XXx.XXXX0.XXr.XXXXXXXXXXXXXXXXXXXXXXXXXXXXXXXXXXXXXXXXXXXXXXXX",
"XXXXXXXXXXXXXXXXXXXXXXXXXXXXXXXXXXXXXXXXXXXXXX+.O.XXXXC Y.XXXXv.XXXXH.XXp.XXD.XXj.G XXt.XXXXk.XX` XXF.XXXXXXXXXXXXXXXXXXXXXXXXXXXXXXXXXXXXXXXXXXXXXXXX",
"XXXXXXXXXXXXXXXXXXXXXXXXXXXXXXXXXXXXXXXXXXXXXXXXk E.Z.Y.XXXXXXa.XXXXc.XXb.XX@.XXXXv.XXy.XXXXn.XX! XXy.XXXXXXXXXXXXXXXXXXXXXXXXXXXXXXXXXXXXXXXXXXXXXXXX",
"XXXXXXXXXXXXXXXXXXXXXXXXXXXXXXXXXXXXXXXXXXXXXXXXXXXXXXXXXXXX9.w.XX*.j.XXI.XXt.XXXXY.XXn.XXXXv.XX| XXXXXXXXXXXXXXXXXXXXXXXXXXXXXXXXXXXXXXXXXXXXXXXXXXXX",
"XXXXXXXXXXXXXXXXXXXXXXXXXXXXXXXXXXXXXXXXXXXXXXXXXXXXXXXXXXXX'.XXXXk.XXXXt.XXQ.XXXXk.XX|.XXXXF.XXXXXXXXn XXXXXXXXXXXXXXXXXXXXXXXXXXXXXXXXXXXXXXXXXXXXXX",
"XXXXXXXXXXXXXXXXXXXXXXXXXXXXXXXXXXXXXXXXXXXXXXXX .D y.'.h.E.a XXXXA.XXXX#.XXh.XXXXn.XXV.XXXXXXXXXXXXXX(.XXXXXXXXXXXXXXXXXXXXXXXXXXXXXXXXXXXXXXXXXXXXXX",
"XXXXXXXXXXXXXXXXXXXXXXXXXXXXXXXXXXXXXXXXXXXXXXXXXXXXXXXXXXXXXXXX+.Y XXXXXXXX$.XXXXA.XX>.XXn.XXc XXXXXX< XXXXXXXXXXXXXXXXXXXXXXXXXXXXXXXXXXXXXXXXXXXXXX",
"XXXXXXXXXXXXXXXXXXXXXXXXXXXXXXXXXXXXXXXXXXXXXXXXXXXXXXXXXXXXXX) H.XXXX3.XXXXt.XXXXu.XX .XX=.XXe.XX9 XXXXXXXXXXXXXXXXXXXXXXXXXXXXXXXXXXXXXXXXXXXXXXXXXX",
"XXXXXXXXXXXXXXXXXXXXXXXXXXXXXXXXXXXXXXXXXXXXXXXXXXXXXX%.! K t.t.XXXXXXn.XXXXb.XXu.XXXX6.XXU XXXXXXXXXXXXXXXXXXXXXXXXXXXXXXXXXXXXXXXXXXXXXXXXXXXXXXXXXX",
"XXXXXXXXXXXXXXXXXXXXXXXXXXXXXXXXXXXXXXXXXXXXXXXX$ O XXXXXXXXXXXXXXXXV.XXXXa.XXXX1.XXi.XXXXXXXXXXXXXXXXXXXXXXXXXXXXXXXXXXXXXXXXXXXXXXXXXXXXXXXXXXXXXXXX",
"XXXXXXXXXXXXXXXXXXXXXXXXXXXXXXXXXXXXXXXXXXXXXXXXXXXXXXXXXXXXXXXX_ z.XXXXm t.XX9.XXXXZ XX{ XXXXXXXXXXXXXXXXXXXXXXXXXXXXXXXXXXXXXXXXXXXXXXXXXXXXXXXXXXXX",
"XXXXXXXXXXXXXXXXXXXXXXXXXXXXXXXXXXXXXXXXXXXXXXXXXXXXXXXXXXXXT e.XXXXXXXXZ.XXXX#.XXXXXXXXXXXXXXXXXXXXXXXXXXXXXXXXXXXXXXXXXXXXXXXXXXXXXXXXXXXXXXXXXXXXXX",
"XXXXXXXXXXXXXXXXXXXXXXXXXXXXXXXXXXXXXXXXXXXXXXXXXXXXXXXXXXXXXXXXXXXXXXXXXXXXXXXXXXXXXXXXXXXXXXXXXXXXXXXXXXXXXXXXXXXXXXXXXXXXXXXXXXXXXXXXXXXXXXXXXXXXXX",
"XXXXXXXXXXXXXXXXXXXXXXXXXXXXXXXXXXXXXXXXXXXXXXXXXXXXXXXXXXXXXXXXXXXXXXXXXXXXXXXXXXXXXXXXXXXXXXXXXXXXXXXXXXXXXXXXXXXXXXXXXXXXXXXXXXXXXXXXXXXXXXXXXXXXXX",
"XXXXXXXXXXXXXXXXXXXXXXXXXXXXXXXXXXXXXXXXXXXXXXXXXXXXXXXXXXXXXXXXXXXXXXXXXXXXXXXXXXXXXXXXXXXXXXXXXXXXXXXXXXXXXXXXXXXXXXXXXXXXXXXXXXXXXXXXXXXXXXXXXXXXXX",
"XXXXXXXXXXXXXXXXXXXXXXXXXXXXXXXXXXXXXXXXXXXXXXXXXXXXXXXXXXXXXXXXXXXXXXXXXXXXXXXXXXXXXXXXXXXXXXXXXXXXXXXXXXXXXXXXXXXXXXXXXXXXXXXXXXXXXXXXXXXXXXXXXXXXXX"
};
