/* XPM */
static char *c5e2f846531a48f9b50b241d7f868a4cDwsCXF0rZDynXYqn[] = {
/* columns rows colors chars-per-pixel */
"75 33 223 2 ",
"   c #040504",
".  c #020109",
"X  c #0C0C0C",
"o  c #0B0508",
"O  c #160909",
"+  c #0D1304",
"@  c #14130D",
"#  c #151A06",
"$  c #0E0D14",
"%  c #0B0715",
"&  c #150A16",
"*  c #141415",
"=  c #151913",
"-  c #1C1A16",
";  c #161619",
":  c #151B1A",
">  c #1D1D1D",
",  c #1C1714",
"<  c #0D1019",
"1  c #261A0A",
"2  c #221D1D",
"3  c #221916",
"4  c #301E06",
"5  c #18220A",
"6  c #1D231C",
"7  c #192218",
"8  c #2C2A00",
"9  c #22221D",
"0  c #232716",
"q  c #342311",
"w  c #1B1C23",
"e  c #1A1A24",
"r  c #231C26",
"t  c #1C2124",
"y  c #1B2627",
"u  c #222222",
"i  c #2C2B2B",
"p  c #272928",
"a  c #33322D",
"s  c #343A2C",
"d  c #2C2A33",
"f  c #283134",
"g  c #333434",
"h  c #3B3C3C",
"j  c #373637",
"k  c #2E302C",
"l  c #482F1C",
"z  c #4C3211",
"x  c #3F443E",
"c  c #5F4F04",
"v  c #776F07",
"b  c #44473A",
"n  c #704E11",
"m  c #383C42",
"M  c #3C4349",
"N  c #384748",
"B  c #444342",
"V  c #4B4A4C",
"C  c #484D47",
"Z  c #485557",
"A  c #525252",
"S  c #5B5B5B",
"D  c #4B5051",
"F  c #635A5F",
"G  c #535967",
"H  c #615B65",
"J  c #54686A",
"K  c #586D6E",
"L  c #586B71",
"P  c #636363",
"I  c #6C6C6C",
"U  c #676C66",
"Y  c #71706E",
"T  c #627579",
"R  c #737373",
"E  c #7C7B7C",
"W  c #747677",
"Q  c #815413",
"!  c #93700D",
"~  c #AA7108",
"^  c #9A6F3A",
"/  c #CB7E08",
"(  c #827972",
")  c #7B817F",
"_  c #969A07",
"`  c #A09500",
"'  c #A8A115",
"]  c #DB9406",
"[  c #FF8F00",
"{  c #F49709",
"}  c #E18604",
"|  c #C3B70F",
" . c #DE9626",
".. c #DACE07",
"X. c #C9C100",
"o. c #E6D305",
"O. c #E2CB00",
"+. c #EDE801",
"@. c #FDEB02",
"#. c #FFEF0A",
"$. c #F5EA03",
"%. c #FDF300",
"&. c #F5F400",
"*. c #E9EA1E",
"=. c #FBEA17",
"-. c #FAF317",
";. c #E7DF36",
":. c #F7E626",
">. c #F2E434",
",. c #E3E232",
"<. c #88897E",
"1. c #E29E49",
"2. c #F1B966",
"3. c #DFD65F",
"4. c #E8DD59",
"5. c #E9DF51",
"6. c #EEE353",
"7. c #DDD57B",
"8. c #DADE65",
"9. c #E6D965",
"0. c #E9E069",
"q. c #7C7B85",
"w. c #697E81",
"e. c #6D8488",
"r. c #76888A",
"t. c #7B9397",
"y. c #838382",
"u. c #8B8B8A",
"i. c #888787",
"p. c #929293",
"a. c #9B9B9B",
"s. c #969799",
"d. c #908999",
"f. c #9DA29B",
"g. c #B3AC9B",
"h. c #9C97A4",
"j. c #9CA4A2",
"k. c #85ABB1",
"l. c #92B7B9",
"z. c #8FB2B8",
"x. c #A3A4A3",
"c. c #ADACAB",
"v. c #A8A9A6",
"b. c #ACB3A8",
"n. c #B3ACB5",
"m. c #ADB6B8",
"M. c #B4B5B4",
"N. c #BCBBB6",
"B. c #BCBCBB",
"V. c #B4B9B7",
"C. c #AEB0B5",
"Z. c #BEC7B6",
"A. c #DBD284",
"S. c #D4C794",
"D. c #D7D199",
"F. c #D6C8A4",
"G. c #C4C4BC",
"H. c #C9C8BA",
"J. c #D5CBB6",
"K. c #CEC5A6",
"L. c #F0D8B5",
"P. c #95BDC5",
"I. c #9ABEC6",
"U. c #BFBFC1",
"Y. c #94C2C6",
"T. c #9CC6CD",
"R. c #98C7CB",
"E. c #9CCDD2",
"W. c #9ED0D1",
"Q. c #A2C9CD",
"!. c #B6C4C7",
"~. c #A5CBD2",
"^. c #A4D1D6",
"/. c #BDD6DC",
"(. c #C4C4C2",
"). c #C4CAC4",
"_. c #C4C3CB",
"`. c #CCCBCC",
"'. c #CBC5C9",
"]. c #CCC9D3",
"[. c #D3D3D3",
"{. c #DCDDDC",
"}. c #DBDAD6",
"|. c #D4CFD3",
" X c #EAD7C7",
".X c #F7E7D8",
"XX c #E0DBE2",
"oX c #DFE8E5",
"OX c #E4E4E4",
"+X c #EBEBE3",
"@X c #EDEDED",
"#X c #E8E9E8",
"$X c #F1EBE5",
"%X c #F2EEED",
"&X c #EDF1E4",
"*X c #ECF2EB",
"=X c #E8F5EC",
"-X c #F2F3ED",
";X c #FAF7E8",
":X c #EEEDF2",
">X c #EAEDF6",
",X c #F3EEF4",
"<X c #F4EBF6",
"1X c #EDF2F3",
"2X c #EBF5F9",
"3X c #F4F4F4",
"4X c gray96",
"5X c #F6F6F6",
"6X c gray97",
"7X c #F6F6F6",
"8X c #F2F2F2",
"9X c #FBF4F5",
"0X c #F4F9F4",
"qX c #FAFAF5",
"wX c #F4F5FA",
"eX c #FBF4FC",
"rX c #F5FAFB",
"tX c #F8F8F8",
"yX c #F9F9F9",
"uX c gray98",
"iX c #FBFBFB",
"pX c #FDFDFD",
"aX c #FAFAFA",
/* pixels */
"uX#XtX5X@XuX#X5X3X@X5X@X6X,X-X6X@XpX@X,X5X#XuX@X5X5X#XpX@X8X5X#XuX#XpX@X*XpX#XtX-X:X8X@X5X8X5X8X@XuX@X5X0X@X5X:X3X5X8X8X8X8X%X8X5X@X5X8X8X5X@X5X@X8X3X",
"8X5X5X@X5X@X5X8X8X,X3XaX#XtX5X8X@X@XuX3X8XuX@X5X8X@X5X@X5X8X8X5X8X6X@X3X5X%X6X8X8X8X8X8X8X8X8X5X8X@X5X8X,X6X@X8X8X8X3X8X3X8X8X1X8X8X8X5X8X8X8X8X5X5X8X",
"#X5X8X@X3X3X8X5X3X5X@X3X6X5X#X8X5XtX8X@X8X,X@X5X3X5X8X8X3X@XpX#X3X3X8X8X8X8X3X8X8X8X8X8X8X8X8X8X8X5X@X5X0X@X3X,X8X8X8X8X8X8X8X8X5X@X8X8X8X8X8X3X@X8X8X",
"uX8X5X5X@XuX@X3X8X3X3X*X@X:XpX8X@X8X@XtX6X*XuX@X6X@X,XuX@X8X8X3X3X8X3X,X8X8X8X5X8X8X8X8X8X8X8X8X8XuX#X5X5X@XqX8X8X8X@X5X-X3X8X8X5X@X5X8X8X3X@X5X8X8X8X",
"@X,X8X5XuX#X5X#X,X3X3XpX8X@X8X@X6X8XtX*X%XuX#X6X*X3X6X#X6X3X:X6X@XpX#X5X5X#XpX@X8X5X@XuX#XuX@X8X5X#XaX@X%XpX#XuX3X,XuX#X6X@X5X8X8XuX@X5X3X@XqX1X5X8X8X",
"uX#XOXM.y.R S S P E a.U.@X5X5XuX#XuX#X5X5X@XpX#X5XtX#XpX%X6X8X@X5X@XuX@X@XuX@X6X8X@X5X@XuX@X5X8X8XuX@X3X0X@X5X8X-X6X#XuX@X6X:X3X5X@XuX@X,XuX@X5X@X8X8X",
"#X{.I u ; > ; > - ; u p A u.|.@XpX:X5X6X#X5X8X`.s.P x.#X5X@X5X6X8X5X,X8X3X*X3X8X8X3X:X6X@X6X-X8X8X@X5X1X:X5X@X8X8X@X5X@XqX@X5X8X@XuX#X5X5X#XuX%X5X8X8X",
"6X@XOXR > > 9 > u u > p > 6 g E [.5X8X@XuX`.P g > * I uX8XuX8X8X8X5X8X3X3X,X5X8X8X8X5X@XqX:X3X,X8X,X3X-X8X3X8X8X8X5X8X5X:X3X8X8X8X5X8X8X8X5X8X8X8X8X8X",
"5X@XaXM.p u ; > u ; > u 9 u w ; h v.@X3XM.g ; u > 2 i u.a.M.`.[.@X,X6X8X5XtX,X9X,X8X6X#X0X=X0X3X8X5X@X3X8X:X3X8X8X8X8X5X*X3X8X3X8X-X5X8X8X8X@X5X:X8X8X",
"#XuX,Xa.> > 2 > 6 u u ; ; 9 p u ; p R V.h ; u = > - , 6 : e d m C U y.x.N.G.{.+X5X8X%XpX@X5X:X:X5X@XaX3X8XtX@X3X8X:XuX@XtX@X5X@X1XuX#X3X3X@XuX8XuX6X8X",
"uX@X#XP > > > u 2 u u p u > > > r = u i 2 w > > u u t f J e.w.w.L M M M M M D r.{.#XaX$X3X%XtXeX@X6X#X6X5X#XuX@X8X6X@XuX@XuX8X3XtX@XuX%X@XaX@X8X:X8X8X",
"@XpX#X[.a.p > > w 9 ; 2 u 2 > u u 9 w > > 2 > 2 ; > t e.Q.^.Q.Q.E.T.R.T.I.z.k.k.!.2X8X9X8XpX#X*XuX%X6X1X%X6X@X5X3X@X5X@XtX#X8X3X@X5X@X5X3X@XtX:X3X8X8X",
"8X8X5X5X[.k > > > 9 u ; 9 u u u 2 u > u > > ; 2 2 > t r.W.W.W.R.Y.R.Y.R.Q.~.T.R.R./.2X1X5X@X6X6X@X8X@X5X5X-X3X8X3X6X@X3X5XuX,X-X8X@X3X3X8X3X8X6X3X3X3X",
"8X8X8X5XG.A p w u u u 9 u u ; ; ; * 9 u > - u > 2 > t N e.l.W.W.E.Y.T.~.~.Q.P.R.R.^./.!.M.p.<.R I I P P U E u.p.c.'.OX@X8X3X,X0X6X0X8X:X8X8X,X3X@X8X3X",
"8X@X8X%X@XXXs.u ; > u u ; o   X $ X   @ t u > ; > > t ; y N J r.k.Y.Y.T.E.E.^.R.l.t.Z p > > = > ; = ; ; ; ; ; - 6 i h S p.V.XXuX@XuX8X%X5X8X-X8X3X0X-X",
"uX1X8XtX#XpXx.u > u r @   p U a.x.a.I 9   > p > = 2 2 > > w ; u f N Z K T e.L G N y * > , - > t > 2 > > > > > u > > > > ; p A u.[.:XqX1X8X3X1XtX,X8X8X",
"#X0X8X%XeX+Xq.- 9 r > . b v.'._._._.'.c.b % 3 d > > > > > 6 > > ; > > > > ; > > > > > > > 6 > > 9 > ; > 6 u ; u e = @   @ # ; r h E |.eXwX>X5X@XtX,X@X",
"eX$XpX1X>X0XC.a t u . i b.`.J.A.8.D.H._.m.p % # u u 2 > > > > 9 > > > > > > > > > 2 > > > > > > > - > u > ; r ; o * k h d % @ ; = 6 g a.:X1X8XqX%X3XqX",
"eX;X>X>XrX-X3X<.r *   r.`.F.;.%.@.=.9.J.(.i.. 5 u u u u 2 w > > 9 w > 2 2 > w 6 > > w > > > > > > > 9 > > 2 *   B a.N.N.N.p.9 $ r ; 6 u Y XXqX=X-X@X-X",
"@X&XtX<X6X%X9Xj.6 $ = j._.9.%.$...o.$.A.].n.> % ; > u u u u > > > > > > > > > > > > > > 2 > > > > u > ; > u . B M.D.6.>.3.J.c.9 @ , 6 6 ; F XX<X0X3X6X",
"rX+X3X8X=XuX XM - o d Z.H.:...v 8 v +.5._.V.i O > > w 9 > u u u > > 2 > > > > > > > > > > > w > > 2 ; 9 > * * a.D.#.@.#.&.*.F.( + * e w 2 , A XX>X1X3X",
"#XpX1X8XqXL.1.n 0 & 2 b.J.>.O._ v ..=.9.G.V.p * > > > > > > u u u u u u 2 > > > > > > > > > 2 > > u > > >   j U.6.&.' ! ` &.9.U.: e e w > 6 : T -XuX>X",
"uX<XwXeX;XL.{ ~ 0 & O f.(.7.-.&.@.@.=.S.|.f.  < > > > > > w > > r u 6 r 6 u 6 u r > > > > > > > > > > > 2 X B Z.*.X.c 8 ' $.9.m.p > 3 r > e 3 l g.$XqX",
"+XeX-X%X<X.X .n r =   G G.(.9.=.-.:.A.).!.H o - > u > 9 > > > > > > > 6 r u u u 9 6 r 6 > > > > w > > w > X g B.6.@.o.| $.@.9.c.; # 6 e w 8 ! } F.;X-X",
"<X=X2X;XwXL.{ / 9 3 @ @ y.'.(.G.H.H.G.).i.* $ > > w > > > 9 > > > 6 2 > > > 2 w > u u u u u u u > 6 6 > > = * a.D.*.%.#.@.>.J.W + 2 > - w l ] [ L.;XwX",
"eX*X0X9X>X.X2.^ 9 9 ; * * I v.`.G.G.V.Y @ X t 9 9 > 9 > u ; 2 > > u ; u 9 ; u > > r ; p > u 9 u p r p i p r X j N.F.4.,.9.J.h.6 < > r > w q ~  .L.9X>X",
":X0X+X3XwX#X;X[.v.c.v.B.I * u B S V > ; P u.y.y.y.E E E W R I I P P P S S S A A C V C B B h h h g h i j i i g p g p.M.(.C.i.j + y = 9 * w , 4 z R #X2X",
"pX$XqX3X*X0X=XrX5X:XpX6X0X(.R B g V E N.3X3XpX0X5X5X,X0X:X8X-X@X5X#X5X#X#X*XOX@X#XOX#X{.#X}.XX{.|.{.`.[.`.'.[.[.q.a g m j b a.C.s.p.a.s.a.f.p.s.x.3X8X",
":X3X+X8XqX-X0X@X-XuX@X8X8X1XpX#X>X#X-XuX-X5X:X,X8X*X5X@X6X8X5X5X8X8X8X8X8X8X3X3X8X3X8X3X8X6X3X3X5X8XaX8X8X6X#XtX;X{.N.c.`.%XtX9X<XpX3XwX-X*XpX1XeX6X#X",
"$X6X-X2X,X9X,X9X3X:X8X6X8X8XtX1X5X5X@XuX:X8XeXtX8X3X3X8X8X8X8X@X8X3X8X8X8X8X,X8X3X3X3X3X8X8X8X8X8X@X8X8X-X5X6X8X2X1XaXwX5X+X0X<X-X%X-XwX0X-XeX<X5X-X6X",
"pX#XeXuX>XeX3X<X3X@XpX@X:X5X@XtX@X5X@X,X6X1XtX%X,X8X@X5X@X5X,X5X8X:X5X8X8XuX-X8X1X,X3X8X6X,X0X8X:X5X8X5X*X,X5X@XwX1X@X3X*X6XwX&X3X:X6X,X@X&X*X;X1X-X3X",
"#XrX<X-X0X+X0X*X*XtX@X6X-X-XtX#X6X1X6XwX#XaX#XqX8X8X5X8X3X*X8X8X-X5X@X5X8X@X5X@X8X5X-X6X:X5X-X8X6X@XqX:X,XpX#XuX$XwX3X@XpX#X8X0X=XpX$X3XtX1XrX@XwX;X$X",
"aX@X8X0X@XuX@X5X8X@XuX@X6X8X%XuX#XuX@X8X5X@XuX@X3X6X@XuX#X5X8X:XuX#XuX8X,X6X@X6X*X8X5X@XuX@X3X3X@XuX@X3X5X@XtX@X5X8X:XuX#XuX8X-X6X@X6X:X5X5X@XtX@X8X5X"
};
