/* XPM */
static char *_a6d03d8b9be40a9f2eefd9597ebac4bLSJNkWbLsYphFLpc[] = {
/* columns rows colors chars-per-pixel */
"75 75 200 2 ",
"   c None",
".  c #A27200",
"X  c #A77800",
"o  c #AC7D00",
"O  c #AF8100",
"+  c #B38300",
"@  c #B88700",
"#  c #B58901",
"$  c #BB8C00",
"%  c #BB9404",
"&  c #BE9905",
"*  c #BC9C3D",
"=  c #C08F00",
"-  c #C49500",
";  c #C89700",
":  c #C59A02",
">  c #CB9D00",
",  c #C69A0A",
"<  c #C99D09",
"1  c #D09F01",
"2  c #C69C14",
"3  c #C69D1B",
"4  c #C89E15",
"5  c #C6A204",
"6  c #CDA203",
"7  c #CEAB05",
"8  c #CBA60C",
"9  c #CDAA0B",
"0  c #D5A500",
"q  c #D8A600",
"w  c #D6AB01",
"e  c #DDAC00",
"r  c #D1A30E",
"t  c #DCAE0C",
"y  c #D5A90E",
"u  c #CEB109",
"i  c #D6B204",
"p  c #DCB303",
"a  c #D6BB07",
"s  c #DEB906",
"d  c #D4B708",
"f  c #DFB209",
"g  c #D6BB09",
"h  c #D8BC09",
"j  c #CDA41E",
"k  c #D8AD1A",
"l  c #DBBB18",
"z  c #E0AF00",
"x  c #E4B300",
"c  c #E8B700",
"v  c #E4BB04",
"b  c #EDBD00",
"n  c #E3B50C",
"m  c #F0BF00",
"M  c #E8BF1F",
"N  c #E3B611",
"B  c #C79E24",
"V  c #C69E2C",
"C  c #C39E37",
"Z  c #C29F3A",
"A  c #CDA523",
"S  c #C6A02E",
"D  c #CAA32A",
"F  c #C7A023",
"G  c #D2A92E",
"H  c #D7B62F",
"J  c #DCBB29",
"K  c #C6A134",
"L  c #CAA433",
"P  c #C6A33B",
"I  c #C9A53B",
"U  c #D2AF34",
"Y  c #D2AE3C",
"T  c #DAB532",
"R  c #D4B53C",
"E  c #DAB73A",
"W  c #E4BC25",
"Q  c #E5BD2A",
"!  c #E0BC3E",
"~  c #DFC309",
"^  c #E6C206",
"/  c #EBC404",
"(  c #EDCA06",
")  c #E6C30B",
"_  c #EBC708",
"`  c #E4CF0C",
"'  c #F4C400",
"]  c #F8C700",
"[  c #F3CD04",
"{  c #FECF00",
"}  c #E6D40E",
"|  c #E8D70E",
" . c #EADA0E",
".. c #F5D206",
"X. c #FDD404",
"o. c #FCD906",
"O. c #F5D20A",
"+. c #FDD608",
"@. c #F5DA0A",
"#. c #FBDC09",
"$. c #ECCE15",
"%. c #EBCC1A",
"&. c #E8C218",
"*. c #F1CE13",
"=. c #EBDA11",
"-. c #FDDA16",
";. c #EDE00F",
":. c #F7E20D",
">. c #FAE30C",
",. c #F7EA0F",
"<. c #F9E90E",
"1. c #F7E506",
"2. c #F1E511",
"3. c #F9E512",
"4. c #F7EB11",
"5. c #F8ED11",
"6. c #F6EB19",
"7. c #F8ED1D",
"8. c #FCE519",
"9. c #EBC921",
"0. c #E8CA2D",
"q. c #FDDA27",
"w. c #E2C53A",
"e. c #EFDE35",
"r. c #FCDB33",
"t. c #FEE425",
"y. c #F7EF2F",
"u. c #FAEB28",
"i. c #FCE328",
"p. c #F9F028",
"a. c #F9F026",
"s. c #F9ED32",
"d. c #F9F033",
"f. c #BF9F46",
"g. c #BD9D4B",
"h. c #C6A444",
"j. c #CAA642",
"k. c #CCAA44",
"l. c #C7A74B",
"z. c #D3B645",
"x. c #D5B749",
"c. c #C5A653",
"v. c #C9AB54",
"b. c #CBAD5B",
"n. c #C5A95E",
"m. c #D1B153",
"M. c #D3B75B",
"N. c #C8AD64",
"B. c #C8AB6A",
"V. c #CFB66D",
"C. c #CEB260",
"Z. c #D6BD62",
"A. c #CBB47C",
"S. c #CCB371",
"D. c #D9C04D",
"F. c #E2C740",
"G. c #FCEA44",
"H. c #FAF145",
"J. c #FCF14A",
"K. c #FEE55D",
"L. c #FBF252",
"P. c #DDC56F",
"I. c #DDC572",
"U. c #FFED6C",
"Y. c #FBF464",
"T. c #FFEB7B",
"R. c #FBF475",
"E. c #FCF67D",
"W. c #CCB68B",
"Q. c #CBB580",
"!. c #CFBF97",
"~. c #CEBB9D",
"^. c #D0BD9C",
"/. c #CFBBA0",
"(. c #DCC888",
"). c #D0C09E",
"_. c #E2D09C",
"`. c #FEED82",
"'. c #FDF28E",
"]. c #FDF88A",
"[. c #FDF694",
"{. c #D8C8A7",
"}. c #FEEFA5",
"|. c #FEF7AE",
" X c #FFF5A9",
".X c #FDFAB3",
"XX c #FEFBBC",
"oX c #FEF2B2",
"OX c #FFF9C7",
"+X c #FEF7C9",
"@X c #FFFDCD",
"#X c #FDF5C0",
"$X c #FEFBD3",
"%X c #FFFBDA",
"&X c #FFFDEC",
"*X c #FEFDE7",
"=X c #FFFDF5",
"-X c #FFFEF3",
";X c #FDFEFA",
":X c #FFFFFE",
/* pixels */
"                                                          /.x.x.F.0.9.%.*.$.*.$.&.Q ! x.v.{.                                                          ",
"                                                    z.w.%...o.#.o.#.o.X.X.X.o.o.o.{ { { { ' W E v.                                                    ",
"                                              V.E O.o.o.X.X.X.o.+.+.X.o.X.X...+.+.{ { { { { { X.{ &.T A.                                              ",
"                                          x.9.#.#.o.X.X.o.X.o.o.#.#.#.o.#.#.#.X.X.X.{ { { { { { { { X.{ W C.                                          ",
"                                      x.%.o.o...o.X.o.@.1.p.E.XX.Xu.5.,.5.5.4.5.<.<.#.X.X.{ { { { { { { { { W b.                                      ",
"                                  Z.0.+.+.X.X.o.#.3.J.'.$X;X$XE.7.,.,.,.>.>.>.>.<.>.>.,.>.>.#.o.X.{ { { { { { m E                                     ",
"                                J ..o...o.+.#.u.Y..X=X:X%X'.i.#.o.o.o.X.o...X.o...o.o.X.X.X.o.#.o.X.X.{ { { { ' b n Y                                 ",
"                              J [ o.X.o.o.t.E.$X:X=X+XT.t.+...[ ( / v n s p p n v / ( { ] { X.{ X.X.X.X.{ X.{ ] b b b T                               ",
"                          M.&...o.+.o.>.L.@X-X%X}.K.-..._ s 7 : & % % % % % % % % % & % % q b { X.{ { X.{ { { { b b b / N M.                          ",
"                        R ) [ ..o.#.#.5.R.`.K.q.o.[ s 5 & % % & & 5 8 9 i w 7 9 9 5 & # . . . $ 0 ' { { { { { { b b b b b N m.                        ",
"                      H / / ..o.#.,.,.>.X.X...( 7 & & % & 7 v [ ....o.o.#.#.>.#.#.#.@./ q $ X . . . ; b { { { { / b b b b m v U                       ",
"                    R ) ) [ o.>.5.,.#.o.X...w & % & 5 ^ ..o.o.>.<.,.5.4.5.5.5.5.4.5.5.,.>...' q + . . X > ' { { ' b b b b b m c k.                    ",
"                  U / ) [ o.#.5.,...o...v & % & 7 / o.o.>.3.L.[.Y.<.5.5.5.5.5.4.5.#.#.o.X.X.{ { { z + . . o 0 c c c b m b b b / v m.                  ",
"                k.v _ / ..>.5.:.+.o...w & % 5 / ..o.>.s.].%X;XXXp.5.5.4.,.>.#.o.o.o.X.X.{ { { { { X.{ w o . . % e q e c b b b m m n S.                ",
"              V.f v / ( >.4.#.o.o.O.6 % % d ..o.#.s.|.&X:X&XR.6.5.5.<.#.o.X./ v n v v ' { { { { { X.{ { ' $ . . + 0 q q z b b b b v r                 ",
"              k x x / @.4.#.+.o._ & % : / o.#.G.|.-X:X@XE.y.5.5.>.#.o.X.o.v 8 9 7 7 5 7 X.{ { { { { { { { { q X . o > 0 q e x m b b x D               ",
"            Y x x z ' ,.@.o.#.) & % 5 [ o.i.'.*X&X.XY.p.5.4.#.o.o.o...+.( 6 ;.p 7 : 6 0 X.{ X.{ { { { { { { { c o . X 1 q q q x b ' x 0 j.            ",
"          m.f x x x @.-.o.o.( & % 5 ....`.OX|.R.H.7.4.4.,.#.o.o.+.o.o.[ 5 2.@.q : o > q { { { { { { { { { X.{ { x X . X 1 0 0 q x b b q r             ",
"          k x x x v >...o.[ 6 % 5 ..o.#.H.d.7.,.4.5.3.#.o.X.X...X.+.@.: =.#.] w - o ; 0 { { { { { { { { { { { { / z X . + 0 q 0 q x b e q D           ",
"        k.z x x x ' X.X...6 % 5 [ o.o.4.5.5.5.5.4.:.#.X.X.o.X.+.+...: =.#.X.] w - O ; 0 X.{ { { { { { X.{ { { { b b 0 . . $ q 0 q q c z 0 0 I         ",
"        t x x x x ..{ { 6 % & [ o.>.5.5.5.5.5.4.#.o.X.o.o.+.o.o.o.< e.>.{ { ] w ; O ; 0 X.{ { { { { { { { { X.] b b b ; . . - 0 0 0 q z 0 q j         ",
"      G c x x z v { { q X + s o.#.5.5.5.5.5.<.#.X.+.+.+.X.X.X.o.8 _.XX{ { { ] q - O : 0 { { { { { { { { X.{ { ] b m b x + . . ; q 0 q q q 0 q P       ",
"      y x x e z ' { ' o . # ..X.4.4.5.5.5.:...o.X.X.+.+.X.+.o.9 {.&Xr.{ { { [ w ; O > 0 X.{ { X.{ { { { { { { b b b b b 0 X . o > q 0 0 0 q 0 A       ",
"    c.q x z 0 x ..] ; . . v X.,.5.5.5.5.#.X.o.o.X.o...+.X.o.w P.oXq.{ { { X.] q - O : 0 { { { { { X.{ { { { ] b b b b b z - . . $ 0 0 q 0 0 0 0 B.    ",
"    A q z e 1 c { e X . ; { #.5.5.5.5.>.X.o.X.X.+.o.+...#.v d u.b ' { { { { ] q - O ; 0 X.{ { { { X.{ { { X.b b b b b m c 0 o . o % q 0 q 0 q > h.    ",
"  W.0 0 q > q c ' # . X b o.,.5.5.5.#.o.X.X.X.+.+.X.o.+.v 9 ,.v 0 m { { { { ] w ; o > 0 X.{ { { { { { { { ] b b b b b b b x ; . . + ; 0 q 0 0 > ,     ",
"  h.q 0 0 = z b w X . ; X.>.5.5.4.3.X.{ X.o.X.o.o.o.o.v 5 4.v 0 + c X.{ { X.] w ; O : 0 { { { { { { { { { m b b b b b b b c 0 O . o @ 0 0 0 1 > > g.  ",
"  j q q > $ z c $ . . c #.4.4.5.4.{ { { { { { { { X./ 5 5.^ q + + m { { { X.] w ; O > 0 X.{ { { { { { { ' b b v b b b b b b e - . . + ; 0 0 > > > j.  ",
"  r 0 q - = q q + . X ] <.5.5.4.X.{ { { { { { { { ' : 4.) q $ + ; p X.{ { { ' e ; o > 0 X.{ { { { { { ' b b ' b m b b b b b x 0 . . + $ 0 6 > > > 2   ",
"n.0 q 0 $ - 0 ; X . ; o.5.5.4.>.{ { { { { { { X.] 5 2.) q - o - + a #.{ { { ' q ; o ; 0 X.{ { { { { ] b b b b b b b b b / m b q o . X $ ; 5 > > > ; ~.",
"k.0 0 1 @ - 0 $ . . x #.5.5.,.{ { { { X.{ X.{ ' 6 } ) e 6 + - > v h >.{ { { ' w ; o ; 0 { { { { { ' / m b b b b b b / b b b b z % . . # $ ; > > > > P ",
"L q q > + - 1 + . X ] 3.5.5.>.{ { { { { { { ] ; d d ; > > ; > { v &.8.{ { X.' e ; + ; 0 X.{ { { ' m b b b b b b b b b b b b b x > . . O + ; > > > > P ",
"j q 0 ; + - ; O . o [ 3.5.4.X.{ { { { { X.{ ' e e e z z e z ] { b I.T.{ { { ' q ; o > 0 X.{ ] m b b b b b b b b b b c b m b / c 0 . . + + $ > > > > K ",
"< 0 q - + ; ; o . @ ' 2.5.#.{ X.{ { X.{ { { { { X.{ { X.X.{ X.{ v (.}.{ X.{ ' q ; o > 0 { ' b b b b b b b b b b b b b b b b b b q X . O + # ; > > > F ",
"0 q q % # ; - o . $ / | 2.o.{ { { { { { { { { { { { { { { { { { c (.U.{ { { [ q ; o > 1 ' b b b b b b b b b b b b / b b b b b b q o . o + + ; > > > 2 ",
"0 0 q - + $ $ o . = / | ` / ] { { { { { { { { { { { { { { { { { b l 4.{ { X.' q ; o ; > b b b m b b b b b b m b b b b b m b b b 0 + . o + + - > > > , ",
"0 0 q = + $ $ X . - s } _ b / ' { { { { { { { X.{ { { { X.{ { { b h >.{ { { ' q ; o 1 ; m m b m b b m b b b m b b m m b b m b x 6 + . X + + $ > > 5 < ",
"0 0 0 = # $ $ X . - p } / b b b b ' ] { { { { { { { { X.{ { { { b h <.{ X.{ ' q ; o > > b b b b b b b b b b / b b b b b b b x e 0 + . X + + $ > > > ; ",
"0 0 q = @ + # X . ; q ` / b b b ' b c ' m ' ] ] ] { { { ] ] ' ' p g <.{ { { ' q ; o > ; m b b b b c b b b b b b b b m b c x e e 0 + . X + + @ > > > < ",
"0 0 q $ @ + # . . % q ~ b b b b b b b c b b / b b b b c b b b b e g <.{ X.{ / q ; o > ; m b b b m b b b b b b b b b b c x e e e > + . o o + # ; > > , ",
"0 0 q = + + @ o . $ q a b b b b b b b b b b b b b c b b b b b b e h <.{ { { m q ; O ; > b b b b b b b b b b m b b b x x e e z e > O . X + + # ; > > 2 ",
"< 0 q - @ @ + o . + q w x b / b b b b b b b b b b b b b b b b b e h <.{ X.{ b q ; o ; > b b m b b b b b b b b m c x z e e e e 0 > o . o + + # ; > > 3 ",
"3 1 q ; $ + $ O . o 0 q e c b b c b b b b b b b b b b b b / b b e h <.{ { { m w ; + > > m m b b b b b b b m b x x e e e z e e 0 ; . . O + + + ; > > K ",
"V 1 < > + + # + . . 0 0 0 x b b b b b b b b b / b b b b b b b m e h <.{ { { b q ; o > > b b b b b b b / b c x z e e e z e e q > - . . + + + $ ; > > h.",
"k.> 5 ; # + @ + . . 1 q q q c b b b b b b m b b b b m b b b b m e h 3.{ { { c q - o ; > m b b b b b m b x z z z e e z e e e 0 > $ . . + + + $ > > > h.",
"f.> > ; $ + @ # . . $ q 0 0 e b b b b b b b b b / b b b b b b b e g 5.{ { { c e ; o > > m m b b b c x e z e e e z z e e z q > > o . X + + + $ > 6 ; Q.",
"~.; > > $ + + + o . o q 0 q 0 z m b b b b b b b m b b b b b b b e g <.{ { { x w ; o > > b b b b c z p z z e e e e e e e e 0 > ; . . o + + + - > > ,   ",
"  2 > > - + + + o . . > 0 0 0 0 x b b b b b b b b b m c b b / b e s <.{ { { x w ; o ; > b b x x e e z e e e z z e z e e 0 > > % . . + + + + ; > > K   ",
"  h.> > ; + + + + . . $ 0 0 0 0 0 x m b b b b b b b b b b b b b e h 3.{ { { x e ; O ; ; x z z e e e z e z e e e z e z q > > > + . . + + + @ > > > P   ",
"  B.> > ; $ + + + O . X ; 0 0 q 0 q x b b b b m / b b b b b b b e h ,.{ { { p w ; O > - z z e e e z z e e z z e e z q > > > - . . + + + + $ > > ; /.  ",
"    3 > > ; + + + + . . # > > 0 0 0 q w b b b b b m c b b b m / e h >.{ X.{ e q ; o > - z e e z e z e e e e e e e 0 ; 6 > > + . . + + + + ; > 6 V     ",
"    * 5 > ; + + + + o . . - > > > > > 0 0 c b b b b b / b m b b e h <.{ { { p q ; o ; - z z e z z e e z z p e e 0 ; > > > % . . o + + + $ ; > > c.    ",
"    ^., > > % + o @ + X . + > > > 6 > > > > q z z x x x x z x e 1 a >.{ { { q e - O > - z z e e e e e z e e q > > > > 6 ; o . . + + + + - > > 4       ",
"      I > > ; + + + o o . . % > > > > > > > > > q e e e e e e e 1 h >.{ X.] q q ; o > % z e z e e z e e q 0 > > > > > > $ . . O + O + + > > > K       ",
"      b.> > > - + + o + X . X ; > > > > > > > > ; 6 0 e e e e z 1 a >.{ { ' w w ; O > - z e z e e z q 0 > > > > > > > ; . . X + + + + - > > ,         ",
"        P > > ; @ + + + + . . o > > > > > > > > > > > > 0 0 0 q 0 g >.{ X.' q q - o ; - z e q q 1 > ; > > > > > > > ; X . . + + + + # ; > < I         ",
"          2 > > = + + + + o . . o > > > > > > > > > > > > > > > - d #.{ { c q q ; o > = 0 > > > > > > > > > 5 > > ; o . . O + + + + - > > 4           ",
"          h.> > ; + + + + + X . . + > > > > > > > > > > > > > > - d #.{ { x w e ; o > $ > > > 6 > > 6 > > > > > ; o . . O + + + + # > > < h.          ",
"            B > > ; + + + + + o . . + ; > > > > > 6 5 > > > > 6 % a X.{ { q q e ; o ; $ > > > > > > > > > > ; ; O . . o o + + + + ; > > P             ",
"              2 > > $ + + + + + X . . + ; > > 5 > > > > > > > > - d { { c e q w + o > $ > > > > > > > > > > ; o . . o O + + O + - > > 3               ",
"              l.> > > + + + + o + o . . . $ > > > > > > > > > > - i { b q e e = X o > $ 5 > > > > > > > > $ . . . o + + + + + $ > > < N.              ",
"                P > > ; + + + + o + + . . . + ; > > > > > > > > - 0 x q q w > + # $ > $ > > > > > > > ; o . . . + + + O + + + ; > < K                 ",
"                  V > > ; + + + + + + + o . . . # ; > 6 > > > > ; + + @ # + + + + $ + = > > > > 6 ; + . . . X o + + + + + + - > > K                   ",
"                    D > ; - + + + + + + + o . . . X + ; > 6 > > > : > 6 > > > > > > > 6 > > > ; + . . . . + + + + + + + + - > ; P                     ",
"                      B > > - + + + + + + o @ o . . . . o @ - ; > > > > > > > > > > > ; - + o . . . . o + + + + + + + + $ > > K                       ",
"                        K < > ; # + + + + + + + + o X . . . . X o o @ @ $ $ $ $ + + o X . . . . X o @ o + + + o + + + - > < h.                        ",
"                          K < > ; $ + o + + + + o o + + o X . . . . . . . . . . . . . . X X o + o + + @ + + + + + # ; > < K                           ",
"                            k., 6 > ; + + + o + @ + + + + + + o o o . X X . X . X X o o o + + + + + + o + + o @ $ > > 4 N.                            ",
"                                B > > ; % + + + + + + o + o + + + + o @ + o + + + + o + + + + o + o + + + + @ ; > > P                                 ",
"                                  P , > 6 ; % + + + + + + + + + @ o @ o + + + + + + + + + + + + + + + + $ - > > 4 l.                                  ",
"                                      V ; > > > - @ + + + o + + + + + o + + + + + + + + + + o + + + - ; > > , C                                       ",
"                                        W.P < > > > ; - $ @ + + + + + + + + o + + o + + + + $ = ; > > > < Z                                           ",
"                                              P 2 ; > > > > ; ; % $ $ @ + @ @ @ $ $ $ - ; > > > > ; 3 l.                                              ",
"                                                  N.K 3 > > > > > > > > > > > > ; > > > > 6 ; 3 h.A.                                                  ",
"                                                        W.C P D 2 : ; > > > > > ; < 2 S h.h.!.                                                        "
};
