/* XPM */
static char *result[] = {
/* columns rows colors chars-per-pixel */
"75 75 51 1 ",
"  c #2D2937",
". c #3F2F3D",
"X c #3A374A",
"o c #453540",
"O c #4A3E46",
"+ c #503644",
"@ c #623C4A",
"# c #5D4149",
"$ c #4F4B57",
"% c #47455E",
"& c #734351",
"* c #754D52",
"= c #545669",
"- c #555371",
"; c #854957",
": c #8B4F5A",
"> c #8D595B",
", c #92545C",
"< c #985A5F",
"1 c #9F5F61",
"2 c #956570",
"3 c #A56564",
"4 c #AA6E6A",
"5 c #AF7770",
"6 c #AF7B7B",
"7 c #B57F75",
"8 c #BA887B",
"9 c #626185",
"0 c #6F6F98",
"q c #75789D",
"w c #7B839A",
"e c #7C80A3",
"r c #929096",
"t c #A58189",
"y c #B78480",
"u c #BF9181",
"i c #B89291",
"p c #8289A8",
"a c #8F9AB3",
"s c #ABA9A5",
"d c #C39F92",
"f c #C8ACA3",
"g c #C2A8A8",
"h c #CCBAB3",
"j c #C5B9BC",
"k c #D1C7C4",
"l c #D5D5D5",
"z c #DDDDDA",
"x c #EEEEE5",
"c c #FFFEEF",
"v c None",
/* pixels */
"v  ooOOOOOOOOOOOO$$$$O$OOOOOOOOOOOOOOOOOOOOOOOOOOOOOOOO$O$$O$OOOOOOOOOoo  v",
"  #3*fuuuuuuuuuuuhhhhuhuuuuuuuuuuuuuuuuuuuuuuuuuuuuuuuuhuhhuhuuuuuuuuf*3#  ",
"  33*i555555555555555555555555555555555555555555555555555555555555555i*33  ",
"  ooooooooooooooooooooooooooooooooooooooooooooooooooooooooooooooooooooooo  ",
"        .  ..  ..   ... ..  ..                ......  ..                   ",
"   ## ++; +;;+ ;;+ +;;;+;; +;;+              +;;;;;; +;;+  ++++++  +  ##   ",
"  *33 ;;; <<<; <<< ;;<<<<<*<<<<  @@  @@ @@@  ;;<<<<; <<<< @;;;;;; @;@ 33*  ",
"  883 ;;1>333; 333 ;;:333:o3333 &;;& ;; ;;;& ;;:3331>3333 ;;1111; 11; 388  ",
"  u43 ;;:o333; 333 ;33333333333 ;33; 3333333 ;33333:o3333 ;::333:o33; 3uu  ",
"  uu3 ;;33333,#333 ;33333333333 ;33; 3333333 ;33333333333 ;<3333<*33; 37u  ",
"  uu3 ;;33333,#333 ;33333333333 ;33; 3333333 ;33333333333 ;<3333<*33; 37u  ",
"  uu3 ;;33333; 333 ;33333333333 ;331>3333333 ;33333333333 ;333333333; 3uu  ",
"  uu3 ;;333331>333 ;33333333333 ;33:o3333333 ;33333333333 ;333333383; 3uu  ",
"  uu3 ;;33333,#333 ;33333335533 ;33333333333 ;33333333333 ;333333353; 3uu  ",
"  uu3 ;;3333333333 ;3333373uu33 ;33333#33333 ;33333333333 ;3333373u3; 3uu  ",
"  uu3 ;;3333333333 ;33333u8uu33 ;3333owo3333 ;33333333333 ;33333u343; 3uu  ",
"  uu3 &&3333333333 ;33333u38833 ;333>.w.>333 ;33333333333 ;333334333; 3uu  ",
"  uu3 %=*333333333 ;33333735533 ;33*+,#,+*33 ;33333333333 ;333337333; 3uu  ",
"  uu3 0a 333333333 ;33333735533 ;3#@<333<@#3 ;33333333333 ;333333333; 3uu  ",
"  uu3 0a 333333333 ;33333433333 ;o&1333331&o ;33333333333 ;333333333; 3uu  ",
"  du3 99.333333333 ;33333333333 .:333333333:.&33333333333 ;333333333; 3uu  ",
"  lu3 ++,333333333 ;333333<**** @***********@ ***33333333 ;333333333; 3uu  ",
"  lu3 ;;3333333333 ;33333,+ ssrsrrrrrrrrrrrrsrsss#3333333 ;333333333; 3uu  ",
"  lu3 ;;3333333333 ;33333;  zy6yl66l66l6666ly6yyc 3333333 ;333333333; 3uu  ",
"  lu3 ;;3333333333 ;33333;  l336l33l33l6336l6336z 3383883 ;333333333; 3uu  ",
"  lu3 ;;3333333333 ;33333;  l33ll33l33ll33lll33lx 3353553 ;333333333; 3uu  ",
"  fu3 ;;3333333333 ;33333;  l,,tlg,t,gll,,lll,,ll 33u3uu3 ;333333333; 3uu  ",
"  ku3 ;;3333333333 ;33333;  l;;jl2;j;2ll;;lll;;ll 33u8uu3 ;333333333; 3uu  ",
"  uu3 ;;3333333333 ;33333;  l222l22l22l2222ll22ll 3383883 ;333333333; 3uu  ",
"  uu3 ;;3333333333 ;33333;  rrrrrrrrrrrrrrrrrrrrr 3353333 ;333333333; 3uu  ",
"  uu3 ;;3333333333 ;33333<@                      @3353333 ;333333333; 3uu  ",
"  uu3 ;;3333333333 ;3333331&&&& &&&&&&&&&&&& &&&&13333333 ;333333333; 3uu  ",
"  uu3 ;;3333333333 ;33333333333 ;33333333333 ;33333333333 ;333333333; 3uu  ",
"  uu3 ;;3333333333 ;33333333333 ;33333333333 ;33333333333 ;333333333; 3uu  ",
"  uu3 ;;3333333333 ;33333333333 ;33333333333 ;33333333333 ;333333333; 3uu  ",
"  uu3 ;;3333333333 ;33333333333 ;33333333333 ;33333333333 ;333333333; 3uu  ",
"  uu3 ;;3333333833 ;33333333333 ;33333333333 ;33333333333 ;333333333; 3uu  ",
"  uu3 ;;3333333733 ;33333333333 ;33333333333 ;33333333333 ;3333###33; 3uu  ",
"  uu3 ;;3333333u33 ;33333333333 ;33333333333 ;33333333333 ;333o9wwo3; 3uu  ",
"  uu3 ;;3333333833 ;33333333333 ;33333333333 ;33333333333 ;333.. a 3; 3uk  ",
"  uu3 ;;3333333533 ;33333333333 ;33333333333 ;33333333333 ;333,; p 3; 3uf  ",
"  uu3 ;;3333333533 ;33333333333 ;33333333333 ;33333333333 ;3333; p 3; 3ul  ",
"  uu3 ;;3333333333 ;33333333333 ;33333333333 ;33333333333 ;3333; q 3; 3ul  ",
"  uu3 ;;3333333333 ;33333333333 ;33333333333 ;33333333333 ;3333; q 3; 3ul  ",
"  uu3 ;;3333333333 ;33333333333 ;33333333333 ;33333333333 ;333*@ p 3; 3uh  ",
"  uu3 ;;3333333333 ;33333333333 ;33333333333 ;33333333333 ;333 --0 3; 3uu  ",
"  uu3 ;;3333333333 ;33333333333 ;33333333333 ;33333333333 ;333&XXX&3; 3uu  ",
"  uu3 ;;3333333333 ;33333333333 ;33333334433 ;33333333333 ;3333:::33; 3uu  ",
"  uu3 ;;3333333333 ;33333333333 ;33333337733 ;33333333333 ;3333***33; 3uu  ",
"  uu3 ;;3333333333 ;33333333333 ;33333337733 ;33333333333 ;3333 - 33; 3uu  ",
"  uu3 ;;3333333333 ;33333333333 ;3333383uu33 ;33333333333 ;3333&X&33; 3uu  ",
"  uu3 ;;3333333333 ;33333333333 ;33333u8uu33 ;33333333333 ;333333333; 3uu  ",
"  uu3 ;;3333333333 ;33333333333 ;33333u37733 ;33333333333 ;333333333; 3uu  ",
"  uu3 ;;3333333333 ;33333333333 ;33333u33333 ;33333333333 ;333333333; 3uu  ",
"  uu3 ..3333333333 ;33333333333 ;33333433333 ;33333333333 ;333333333; 3uu  ",
"  uu3 0a 333333333 ;33333333333 ;33333833333 ;33333333333 ;333333333; 3uu  ",
"  uu3 0a 333333333 ;33333333333 ;33333333333 ;33333333333 ;333333333; 3uu  ",
"  uu3 0e 333333333 ;33333333333 ;33333333333 ;33333333333 ;333333333; 3uu  ",
"  uu3 XX&333333333 ;33333333333 ;33333333333 ;33333333333 ;333333333; 3uu  ",
"  uu3 ;;3333333333 ;33333333333 ;33333333333 ;33333333333 ;333333333; 3uu  ",
"  uu3 ;;3333333333 ;33333333333 ;33333333333 ;33333333333 ;333333333; 3uu  ",
"  uu3 ;;3333333333 ;33333333333 ;33333333333 ;33333333333 ;333333333; 3uu  ",
"  uu3 ;;3333333333 ;33333333333 ;33333333333 ;33333333333 ;333333333; 3uu  ",
"  uu3 ;;3333333333 ;33333333333 ;33333333333 ;33333333333 ;333333333; 3uu  ",
"  uu3 ;;3333333333 ;33333333333 ;33333333333 ;33333333333 ;3<*333333; 37u  ",
"  uu3 ;;3333333333 ;33333333333 ;33333333333 ;33333333333 ;3<*333333; 37u  ",
"  u43 ;;3:o3333333 ;33333333333 ;33333333333 ;33333333333 ;3:o333333; 3uu  ",
"  883 ;;31>3333333 ;33333333333 ;33333:o3333 ;33333333333 ;3:o333333; 388  ",
"  333 ;;3; 3333333 ;33333333333 ;<3333<*3333 ;33333333333 ;3<*333333; 333  ",
"  333 ;;3<*3333333 ;33,#3333333 ;<3333; 3333 ;,,3333#,333 ;3; 333,#3; 333  ",
"  333 ;;3:o3333333 ;::; ::o:::: ;::333; 3333 ;;13333>1333 ;3; 3331>3; 333  ",
"  >33 ;;1; 1111111  &&  && &&&  ;;1111; 1111 &;;;&;; &;;& ;1; 111; 1; 33>  ",
"   ** @;;@ ;;;;;;@              @;;;;;; @;;@  @@@ @@  @@  @;; @;;@ ;@ **   ",
"       ++  ++++++                ++++++  ++                ++  ++  +       ",
"                                                                           "
};
