/* XPM */
static char *result[] = {
/* columns rows colors chars-per-pixel */
"75 75 5 1 ",
"  c #9D6866",
". c #B9988B",
"X c #CCB8A3",
"o c #B48E83",
"O c #B0887E",
/* pixels */
"                                     .XXXXXXXXXXXXXXXXXXXXXXXXXXXXXXXXXXXXX",
"                                     .XXXXXXXXXXXXXXXXXXXXXXXXXXXXXXXXXXXXX",
"                                     .XXXXXXXXXXXXXXXXXXXXXXXXXXXXXXXXXXXXX",
"                                     .XXXXXXXXXXXXXXXXXXXXXXXXXXXXXXXXXXXXX",
"                                     .XXXXXXXXXXXXXXXXXXXXXXXXXXXXXXXXXXXXX",
"                                     .XXXXXXXXXXXXXXXXXXXXXXXXXXXXXXXXXXXXX",
"                                     .XXXXXXXXXXXXXXXXXXXXXXXXXXXXXXXXXXXXX",
"                                     .XXXXXXXXXXXXXXXXXXXXXXXXXXXXXXXXXXXXX",
"                                     .XXXXXXXXXXXXXXXXXXXXXXXXXXXXXXXXXXXXX",
"                                     .XXXXXXXXXXXXXXXXXXXXXXXXXXXXXXXXXXXXX",
"                                     .XXXXXXXXXXXXXXXXXXXXXXXXXXXXXXXXXXXXX",
"                                     .XXXXXXXXXXXXXXXXXXXXXXXXXXXXXXXXXXXXX",
"                                     .XXXXXXXXXXXXXXXXXXXXXXXXXXXXXXXXXXXXX",
"                                     .XXXXXXXXXXXXXXXXXXXXXXXXXXXXXXXXXXXXX",
"                                     .XXXXXXXXXXXXXXXXXXXXXXXXXXXXXXXXXXXXX",
"                                     .XXXXXXXXXXXXXXXXXXXXXXXXXXXXXXXXXXXXX",
"                                     .XXXXXXXXXXXXXXXXXXXXXXXXXXXXXXXXXXXXX",
"                                     .XXXXXXXXXXXXXXXXXXXXXXXXXXXXXXXXXXXXX",
"                                     .XXXXXXXXXXXXXXXXXXXXXXXXXXXXXXXXXXXXX",
"                                     .XXXXXXXXXXXXXXXXXXXXXXXXXXXXXXXXXXXXX",
"                                     .XXXXXXXXXXXXXXXXXXXXXXXXXXXXXXXXXXXXX",
"                                     .XXXXXXXXXXXXXXXXXXXXXXXXXXXXXXXXXXXXX",
"                                     .XXXXXXXXXXXXXXXXXXXXXXXXXXXXXXXXXXXXX",
"                                     .XXXXXXXXXXXXXXXXXXXXXXXXXXXXXXXXXXXXX",
"                                     .XXXXXXXXXXXXXXXXXXXXXXXXXXXXXXXXXXXXX",
"                                     .XXXXXXXXXXXXXXXXXXXXXXXXXXXXXXXXXXXXX",
"                                     .XXXXXXXXXXXXXXXXXXXXXXXXXXXXXXXXXXXXX",
"                                     .XXXXXXXXXXXXXXXXXXXXXXXXXXXXXXXXXXXXX",
"                                     .XXXXXXXXXXXXXXXXXXXXXXXXXXXXXXXXXXXXX",
"                                     .XXXXXXXXXXXXXXXXXXXXXXXXXXXXXXXXXXXXX",
"                                     .XXXXXXXXXXXXXXXXXXXXXXXXXXXXXXXXXXXXX",
"                                     .XXXXXXXXXXXXXXXXXXXXXXXXXXXXXXXXXXXXX",
"                                     .XXXXXXXXXXXXXXXXXXXXXXXXXXXXXXXXXXXXX",
"                                     .XXXXXXXXXXXXXXXXXXXXXXXXXXXXXXXXXXXXX",
"                                     .XXXXXXXXXXXXXXXXXXXXXXXXXXXXXXXXXXXXX",
"                                     .XXXXXXXXXXXXXXXXXXXXXXXXXXXXXXXXXXXXX",
"                                     .XXXXXXXXXXXXXXXXXXXXXXXXXXXXXXXXXXXXX",
".....................................oOOOOOOOOOOOOOOOOOOOOOOOOOOOOOOOOOOOOO",
"XXXXXXXXXXXXXXXXXXXXXXXXXXXXXXXXXXXXXO                                     ",
"XXXXXXXXXXXXXXXXXXXXXXXXXXXXXXXXXXXXXO                                     ",
"XXXXXXXXXXXXXXXXXXXXXXXXXXXXXXXXXXXXXO                                     ",
"XXXXXXXXXXXXXXXXXXXXXXXXXXXXXXXXXXXXXO                                     ",
"XXXXXXXXXXXXXXXXXXXXXXXXXXXXXXXXXXXXXO                                     ",
"XXXXXXXXXXXXXXXXXXXXXXXXXXXXXXXXXXXXXO                                     ",
"XXXXXXXXXXXXXXXXXXXXXXXXXXXXXXXXXXXXXO                                     ",
"XXXXXXXXXXXXXXXXXXXXXXXXXXXXXXXXXXXXXO                                     ",
"XXXXXXXXXXXXXXXXXXXXXXXXXXXXXXXXXXXXXO                                     ",
"XXXXXXXXXXXXXXXXXXXXXXXXXXXXXXXXXXXXXO                                     ",
"XXXXXXXXXXXXXXXXXXXXXXXXXXXXXXXXXXXXXO                                     ",
"XXXXXXXXXXXXXXXXXXXXXXXXXXXXXXXXXXXXXO                                     ",
"XXXXXXXXXXXXXXXXXXXXXXXXXXXXXXXXXXXXXO                                     ",
"XXXXXXXXXXXXXXXXXXXXXXXXXXXXXXXXXXXXXO                                     ",
"XXXXXXXXXXXXXXXXXXXXXXXXXXXXXXXXXXXXXO                                     ",
"XXXXXXXXXXXXXXXXXXXXXXXXXXXXXXXXXXXXXO                                     ",
"XXXXXXXXXXXXXXXXXXXXXXXXXXXXXXXXXXXXXO                                     ",
"XXXXXXXXXXXXXXXXXXXXXXXXXXXXXXXXXXXXXO                                     ",
"XXXXXXXXXXXXXXXXXXXXXXXXXXXXXXXXXXXXXO                                     ",
"XXXXXXXXXXXXXXXXXXXXXXXXXXXXXXXXXXXXXO                                     ",
"XXXXXXXXXXXXXXXXXXXXXXXXXXXXXXXXXXXXXO                                     ",
"XXXXXXXXXXXXXXXXXXXXXXXXXXXXXXXXXXXXXO                                     ",
"XXXXXXXXXXXXXXXXXXXXXXXXXXXXXXXXXXXXXO                                     ",
"XXXXXXXXXXXXXXXXXXXXXXXXXXXXXXXXXXXXXO                                     ",
"XXXXXXXXXXXXXXXXXXXXXXXXXXXXXXXXXXXXXO                                     ",
"XXXXXXXXXXXXXXXXXXXXXXXXXXXXXXXXXXXXXO                                     ",
"XXXXXXXXXXXXXXXXXXXXXXXXXXXXXXXXXXXXXO                                     ",
"XXXXXXXXXXXXXXXXXXXXXXXXXXXXXXXXXXXXXO                                     ",
"XXXXXXXXXXXXXXXXXXXXXXXXXXXXXXXXXXXXXO                                     ",
"XXXXXXXXXXXXXXXXXXXXXXXXXXXXXXXXXXXXXO                                     ",
"XXXXXXXXXXXXXXXXXXXXXXXXXXXXXXXXXXXXXO                                     ",
"XXXXXXXXXXXXXXXXXXXXXXXXXXXXXXXXXXXXXO                                     ",
"XXXXXXXXXXXXXXXXXXXXXXXXXXXXXXXXXXXXXO                                     ",
"XXXXXXXXXXXXXXXXXXXXXXXXXXXXXXXXXXXXXO                                     ",
"XXXXXXXXXXXXXXXXXXXXXXXXXXXXXXXXXXXXXO                                     ",
"XXXXXXXXXXXXXXXXXXXXXXXXXXXXXXXXXXXXXO                                     ",
"XXXXXXXXXXXXXXXXXXXXXXXXXXXXXXXXXXXXXO                                     "
};
