/* XPM */
static char *_bdef42ed8944237cb398d51d19f7ba0y2OrJHZY8zzdrDzI[] = {
/* columns rows colors chars-per-pixel */
"75 75 171 2 ",
"   c None",
".  c #3F5C63",
"X  c #405D65",
"o  c #426067",
"O  c #44636B",
"+  c #476770",
"@  c #486771",
"#  c #476871",
"$  c #4B6C76",
"%  c #4C6E78",
"&  c #4E717B",
"*  c #51747E",
"=  c #537681",
"-  c #557A85",
";  c #597B86",
":  c #577D88",
">  c #597E8A",
",  c #607F8B",
"<  c #5C838F",
"1  c #5D8592",
"2  c #5F8894",
"3  c #63828E",
"4  c #658691",
"5  c #698791",
"6  c #618A96",
"7  c #6C8A94",
"8  c #638D9A",
"9  c #6A8D9A",
"0  c #738E96",
"q  c #788F97",
"w  c #748F98",
"e  c #66909E",
"r  c #6D909D",
"t  c #74919A",
"y  c #7A939B",
"u  c #6793A1",
"i  c #6A94A3",
"p  c #6D9AA6",
"a  c #6E9CAA",
"s  c #7196A4",
"d  c #7997A0",
"f  c #7399A7",
"g  c #7B99A3",
"h  c #739DAC",
"j  c #7B9EAD",
"k  c #709FB0",
"l  c #71A0AF",
"z  c #7FA0AE",
"x  c #73A2B3",
"c  c #7BA3B3",
"v  c #7FA8B7",
"b  c #76A6B8",
"n  c #7DA7B8",
"m  c #77A9BA",
"M  c #7BABBD",
"N  c #7CAFC1",
"B  c #7DB2C6",
"V  c #7FB3C8",
"C  c #81969E",
"Z  c #88979C",
"A  c #83989F",
"S  c #89999E",
"D  c #859BA3",
"F  c #8B9EA4",
"G  c #829EA8",
"H  c #8FA0A5",
"J  c #84A2AC",
"K  c #8AA2AA",
"L  c #95A2A7",
"P  c #95A5AA",
"I  c #9BA6AA",
"U  c #94A9AF",
"Y  c #9FA9AC",
"T  c #82A5B4",
"R  c #8BA7B2",
"E  c #84A9B6",
"W  c #8AAAB5",
"Q  c #84A7B9",
"!  c #82ABBD",
"~  c #8AABBC",
"^  c #9BACB2",
"/  c #94AEB9",
"(  c #91B1BE",
")  c #99B2BB",
"_  c #A2ABAE",
"`  c #B1B6B7",
"'  c #83AEC1",
"]  c #8AAFC0",
"[  c #84B3C5",
"{  c #8BB2C4",
"}  c #83B6CA",
"|  c #8BB6C9",
" . c #87B9CD",
".. c #8CBACD",
"X. c #92B5C4",
"o. c #93B6C9",
"O. c #91BACE",
"+. c #99BCCF",
"@. c #8EBED3",
"#. c #90BFD4",
"$. c #99BED2",
"%. c #93C1D6",
"&. c #9CC2D6",
"*. c #96C4D9",
"=. c #9AC6DB",
"-. c #9EC9DF",
";. c #A3C6DB",
":. c #A3C9DE",
">. c #A8CADF",
",. c #B2CFDD",
"<. c #9ECAE0",
"1. c #A3CDE3",
"2. c #AACEE5",
"3. c #A6D0E6",
"4. c #ACD1E7",
"5. c #A7D0E8",
"6. c #ACD3EB",
"7. c #B1D2E2",
"8. c #B1D6EE",
"9. c #B8DAEE",
"0. c #BFDCEB",
"q. c #B3D9F2",
"w. c #B4D9F1",
"e. c #B5DAF3",
"r. c #B6DBF3",
"t. c #B6DBF5",
"y. c #B7DCF5",
"u. c #B6DBF4",
"i. c #BFDEF1",
"p. c #BBDDF4",
"a. c #B9DDF5",
"s. c #BADFF8",
"d. c #BFE0F6",
"f. c #C8DFEB",
"g. c #C0DFF3",
"h. c #C9E1EC",
"j. c #D0E5EF",
"k. c #D2E5EE",
"l. c #D1E3EC",
"z. c #C5E2F5",
"x. c #C8E4F7",
"c. c #CEE6F5",
"v. c #CAE5F7",
"b. c #C5E4F8",
"n. c #CDE7F9",
"m. c #CFE8FA",
"M. c #D6EAF7",
"N. c #D3E9F7",
"B. c #DBEBF6",
"V. c #D2EAFA",
"C. c #DBEDF9",
"Z. c #D9ECF9",
"A. c #DCEEF9",
"S. c #E4EFF4",
"D. c #ECF4F7",
"F. c #E3F1F9",
"G. c #E0F0FA",
"H. c #E4F2FB",
"J. c #EAF3F8",
"K. c #EBF6FD",
"L. c #EFF7FC",
"P. c #EBF5FC",
"I. c #EFF8FD",
"U. c #F5F9FB",
"Y. c #F5FAFD",
"T. c #F4FAFE",
"R. c #F5FAFE",
"E. c #F9FBFD",
"W. c #FDFEFE",
"Q. c #FEFEFF",
"!. c #FDFEFF",
/* pixels */
"                                                          ` J ( ( X.| { ..| o.| v E W z S                                                             ",
"                                                    R X.| ..%.%.%.%.@.@.%.....%.@.V V } V M v J L                                                     ",
"                                              ^ X...%.@.%.@...%.@.@.@.%. .%.%.%.@.V B B B B B V B v J                                                 ",
"                                          / ..#.#.@.@.@...%.%.%.*.=.=.*.%.%.%...%. .B B B B B B V V V M W H                                           ",
"                                      ) | #.@.@.#.@.%.<.6.d.A.L.H.a.y.y.r.r.r.8.6.5.=...B V B B B B B B B M v P                                       ",
"                                  / X.@.#.@.@.#.-.8.x.G.U.Q.L.c.w.8.6.5.3.3.3.3.1.2.5.6.5.<.*. .V B B B B B B k g                                     ",
"                                W | #.@.@.#.1.9.N.P.Q.E.D.h.3.=.*.%.%.@.@.@.@.@.@.#.@.} } @.*.<.*. .V B B B B m x h J                                 ",
"                            / E @.@.@.#.=.8.Z.Y.Q.E.S.f.&..... .{ ! n x z z x x ! ! [ N B B B V } %.%.B B B B M x x x f                               ",
"                          K !  .@.@.#.1.n.T.E.J.j.7.#...' c i 5 3 3 3 3 3 3 3 , 4 4 4 > - u x N V B }  .} B B M x x x x s                             ",
"                        R ! [ @.@.*.6.t.j.f.7.*.@.[ j w 3 , 4 4 5 e t s f f f s 9 7 4 = . . O = e m V V B B B B x x x x x h U                         ",
"                      W ! { @.@.<.q.w.<.@.@.@.' r 4 , , 5 f ! } @.@.*.*.*.=.=.=.=.*.#.! 2 % X . X O < x B B B B x x k x x x l K                       ",
"                    W ! ! ..#.1.t.8.$.@.@.[ s , , 4 i ' @.#.*.1.5.8.q.q.y.y.y.a.e.t.q.6.<.| b 8 $ X X O 2 N B B x x x x x x x h P                     ",
"                  E ! ' | @.1.t.5.#.@.@.b 5 , 4 f | @.#.1.8.x.G.x.y.y.y.y.y.e.6.5.<.*.@. .} B B M e $ . . $ 8 x a a x x k x x x h ^                   ",
"                t v ' ! @.1.t.<.#.@...s , , s ' #.#.5.g.H.R.Q.G.a.t.a.e.6.1.%.%.@.@.@.} B B B B V V M 8 O X X > e e i h x x x x x p                   ",
"              K p c ' | 1.q.-.@.@.{ 9 , 5 j @.@.-.g.J.Q.Q.R.N.a.e.e.1.*.#.@.@.@.@.@.@.} B B B B B B V V x & X . * 8 8 8 p x x k x l 9                 ",
"              s p h ! 1.6.=.@.@.' 4 , r [ #.*.0.J.Q.Q.P.N.a.t.6.-.%.@.@.@.@.@.@.@.@.@.B B B B B B B B V V N 8 o . $ 6 8 8 i h x x x u t               ",
"            d p p p } 6.=.@.#.Q 4 , i O.@.;.B.E.E.H.c.a.t.8.<.%.@.@.@.@.@.%.@.@.@.@. .B B B B B B B B B B B B a o X @ 8 8 8 8 a x x p 8 z             ",
"          g p p p p 1.<.@.#.! 4 , s ..#.l.J.H.N.z.p.a.t.1.*.@.@.@.@.@.@.@.@.@.@.%.@.} B B B V } B V V B B B B B 8 O X @ 6 8 8 8 a x k e r             ",
"          s p p p n <.@.#.[ 7 4 s ..@.1.g.g.t.;.Q T J h f ' #.@.@.@.@.@.@.@.@.@.@. .B B M a 8 r e e u m } B B B x 8 X X % 8 8 8 8 a x e 6 t           ",
"        g p p p p | } } | i , 9 @.@.<.q.p.2.f E $.1.1.>.$.c i [ %.@.@.@.@.@.@.@.@.} B p e ~ ;.3.4.>.X.f e N B N x x 2 X X - 8 8 8 e k u e 6 K         ",
"      U i p p p h V V N 6 4 5 ..@.1.t.s.] 9 w.g.V.H.H.H.B.m.4.9 a @.@.%.@.@.@.@.} M 4 ! b.C.d.3.1.5.8.a.&.: m N k x x = . o 1 8 8 8 e u 2 e g         ",
"      G a p p p v B B 1 X ; v @.=.t.s.j T s.Z.E.Q.Q.Q.T.P.A.z.r.l r @.@.@.@.@. .M 6 ,.C.d.%.V B B B B @.6.8.< f x x x p $ . O 1 8 8 8 8 e 8 2 F       ",
"      e p p u i ' B x O X > ..*.q.s.{ ] a.H.Q.Q.T.G.z.y.q.y.q.y.a.Q i %...%. .M - 9.b.5. .B B B B B B B V %.9.; k x x k 2 o . # 2 8 8 e 2 e 8 g       ",
"    7 e p i 8 x [ N * X @ x } q.s.$.t s.K.Q.L.n.y.q.6.6.q.y.t.t.a.a.j h %. .B ; 2.y.=.} B B B B B B B B B B N j = x x x u = X X & 8 8 2 e 2 8 1       ",
"    9 8 i u 2 x B 2 O . 8 V <.t.6.4 t.P.E.B.e.5.@.B B B V %.5.q.a.t.a.9 M B 1 $.y.*.V B B B B B B B B B B B k e 8 > b x a 2 + . + : 8 8 8 8 8 1 y     ",
"  C 8 8 2 < i x x $ . % m *.t.t.5 8.J.K.p.t.%.} B B B B B B B  .1.t.t.e.< u ~ s.*.B B B B V B B B B B B B V u u u - 8 k x u : . X % 1 8 8 6 2 < 5     ",
"  y 8 8 1 - p x 1 O . 8  .6.s.] ] Z.J.t.a.@.N B B B B B B B B B B #.t.a.;.< s.<.B B B B B B B B B B B m x k 2 u e u % k x a 2 + X $ & 8 8 8 2 < < I   ",
"  8 8 e < - p a & X o x =.t.q.7 b.H.t.t.*.B V B B B B B B B B B B B  .8.t.6.5.V B B B B B B B B B B b p p 8 < 2 e e 1 1 x x u = X O % 1 8 2 < < < t   ",
"I 8 2 e - - u 8 # . % } 6.t.o.X.C.a.a.8.B N B B B B B B B B B B B B V } 6.8.} N B B B B B B B B B b a p a 2 < < 1 e u % x x a < X X % = 8 1 1 < < 7   ",
"0 8 8 2 & < 8 - O X 8 @.q.a.j t.e.a.a.*.B B B B B B B B B B B B B B B B } @.B V B B B B B B B B N p p p a 1 < < < 1 e > u x x 2 O X # & < < < < < <   ",
"y e 8 < % < 2 & X o x 1.t.6.c s.a.e.e.} B B B B B B B B B B B B B B B B B B B B B B B B B B B N k p p p a < < < < < 1 2 1 x x i % X O % * < < < < < L ",
"r 8 8 < % < < # X # B 6.y.;.~ a.t.a.e.B B B B V B B B B B B B B B B B B B B B B B B B B B B B x p p p p i < < < < < < 1 > x x p > X o % % > < < < < q ",
"6 8 8 : $ < > # . = [ q.s.$.] t.d.q.8.B B B B B B B B B B B B B B B B B B B B B B B B B B B b p p p p p e < < < < < < < * x x a 2 . X $ $ - 1 1 < 1 w ",
"8 2 e - & < - O . ; [ 8.a.] { a.q.d.5.B B B B B B B B B B B B B B B B B B B B B B B B B B x p p p p p p e < < < < # < < - l x l 8 O X $ $ & > 1 < < w ",
"8 6 8 = & : - O . > ' ;.6.c ] a.t.t.6.B B B B B B B B B B B B B B B B B B B B B V V B B l p p p p p p p 6 < < < < X < < - x x x 8 O X @ $ % > 1 < < 7 ",
"e e e & & - & O X < ' &.#.i n a.q.d.8.B B B B B B B B B B B B B B B B B B B B B V M x a p p p p p p p p 1 < < < # o < < : x x k 2 + X + % $ - 1 < 1 5 ",
"6 8 8 & % - & O X > ! =.{ a i s.t.t.t.V B B B B B B B M x b M B B B B B B B N M x p p p p p p p p p p e < 1 < < . # 1 : < x k i 2 + . + $ $ = 1 1 < 4 ",
"e 8 e & & * & O X 1 j *.v x 4 s.t.t.t.%.B B B B B B M a p p p a x x x x k a a p p p p p p p p p p p p 6 < < < & . & < = e k p u 2 $ . + $ $ = 1 < < 4 ",
"e 8 8 & & & % O X < i $.n x 2 :.t.t.t.*.B B B B B B k p p p p p p p p p p p p p p p p p p p p p p p e < < < < X X : 1 $ p p u u 1 # . + % $ = > < < 3 ",
"8 8 e * % & % O X > e { x x i h y.t.d.6.B B B B B m p p p p p p p p p p p p p p p p p p p p p p p i 1 1 < < O X O 1 1 & i i i u 1 @ . + $ $ & 1 < 1 5 ",
"8 8 8 * & & & O . : e x x x x - 8.t.y.r...B V B B a p p p p p p p p p p p p p p p p p p p p p p p 2 > 1 1 = . X = 1 & 2 i i i 8 1 O . $ $ $ % > < < 5 ",
"2 2 e - & & & O . = 8 p p x x 8 m d.y.y.<.V B B m p p p p p p p p p p p p p p p p p p p p p p p 1 > 1 1 : X X X < > % u i i i 8 > O X # $ $ = > < 1 0 ",
"< 2 e * % & & # X % e u u x x x < 6.y.y.e.} B B b p p p p p p p p p p p p p p p p p p p p p u 1 > 1 1 > + . . @ < & 1 i i i u 2 > X X # % $ & 1 < < y ",
"6 < 1 < % & & $ X # 2 8 8 p x x 8 p a.y.r.=.B B x p p p p p p p p p p p p p p p p p p p p e < < 1 > , $ X . . : : % i i i u 8 1 - X X $ $ $ = > 1 < 7 ",
"0 < < - & & & $ X o 2 8 2 u x x x > -.t.y.8. .B x p p p p p p p p p p p p p p p p p p p 8 < < < 1 > = . X X $ 1 % 2 i i u u 2 1 & . o % $ $ = < < < S ",
"7 < < < $ % & & o X : 8 e 2 u x x a ; y.r.y.-.B m p p p p p p p p p p p p p p p p p u < < < < < 1 = . . . . : : - i i i i e 1 > + . + % $ $ - < < <   ",
"A 1 1 < & $ $ & + . $ 8 8 2 8 i x x 8 T d.y.8...N p p p p p p p p p p p p p p p p 2 < < < < < < > X X X . % > $ i i i i e 1 1 : o . # $ $ % - < 1 5   ",
"  < < 1 * $ $ $ # X o 2 8 e 8 8 p x x - %.y.y.5.B l p p p p p p p p p p p p p e < < < < < < < : + . X X + > $ 8 i i u i 8 1 > = . o % % $ % < < < q   ",
"  w < < - $ $ $ $ . . : 8 8 8 2 8 p x x = 6.t.t.*.M p p p p p p p p p p p i 6 < < 1 < < < < > O . X X X = = - i i i i 8 1 1 > @ X O % $ % * < 1 > S   ",
"  7 < < < & $ $ % # . $ 2 8 8 8 8 8 a x p > 8.t.q.} p p p p p p p p p p e < < < < < < < < < O X . . X % - = i i i i e > > 1 - X X $ $ $ $ - 1 > 1     ",
"    < < < = $ & % # o . & < 1 1 2 8 8 i x p 9 q.a.5.v p p p p p p p e < < < < < < < < < < O X X . . % - = i i i i 8 1 1 > 1 @ . O $ $ % $ > < 1 7     ",
"    y < < < $ $ $ $ + . O < 1 < < 1 2 1 e k 8 s y.y.*.x p p p p p 6 < < < < < < < < < < # . X . X $ - = 8 i i u 1 > > 1 1 = X X $ $ $ $ = 1 1 > _     ",
"    I < < < * $ $ % % X . & 1 1 < < 1 < < 1 8 1 s y.t.| p p p i 6 < < < < < < < < < < $ . X X X O - % u i i 8 1 1 > > 1 > O . + $ $ $ $ > < < 7       ",
"      7 < < ; % $ $ $ O . o - < < < < < < < 1 1 : f s.8.v p p 8 < < < < < < < < < < $ X X X X # > % 8 i 8 2 1 1 1 1 1 1 % . X @ $ % % * < < < t       ",
"      y < < < * % $ % $ o X O 1 < < < 1 < < 1 < 1 = f t.6.x p 6 < < < < < < < < < $ X X X . # - % 8 8 1 1 1 > > > 1 1 - X . @ % $ $ $ > < < 5         ",
"        5 < < > $ % $ % $ X . $ < < < < < < < < 1 < = 9 6.5.k 8 < < < < < < < < $ X X X O * = & 1 1 1 1 > 1 1 1 > 1 - O . O % $ $ $ * < < < 7         ",
"        C < 1 > = # $ % $ @ . . % < < 1 < < < < < < < - 5 >.&.s 2 < < < < < < & X . X # - = & < 1 < < < < < < 1 1 - O X O $ $ $ $ $ : < < 7           ",
"          7 < 1 < % $ $ $ $ # . X % < < < < < < 1 < < < : > &...i < < < < < * X o O = > = & < < < < < < < < < 1 - + X . $ $ $ $ $ = < < 1 F           ",
"            5 1 1 = % % % $ % + X X % < < < < 1 < < < < < < ; X.| e < < < * X O & > > % * < < 1 < < < 1 1 < 1 - O X X $ $ $ $ $ & < < < t             ",
"            y 4 < > & % $ $ $ $ O X X % > 1 < < < < < < < < < - c ! 6 < < $ * < 1 - % - 1 < < < < < < < < < - O X X $ $ % % $ % : < 1 5               ",
"              7 > 1 > % $ $ $ % $ + X X o - < < < < < < < < < < - 3 c 6 < < < < = % < < < < < < < < < < 1 % . . X # $ % $ $ $ = < < 3                 ",
"                7 1 1 = % $ $ $ $ % # X X X & < < 1 < < < < < 1 < < * 6 6 < < $ = > < < < 1 < < 1 < < - @ . . O % % $ $ $ $ = > < < F                 ",
"                  4 1 1 - $ $ % $ $ $ $ o X . O = < < 1 < < < < < < < * - : + - < < < < < < 1 < 1 : # X . . + % % % % $ % % - 1 < y                   ",
"                    1 < 1 - % $ $ $ $ % $ # o . . O & : < < < < < < < < - & < < 1 < < < < 1 < - $ o X . O # $ $ $ $ $ % % - 1 > 5                     ",
"                      3 < < - $ $ $ $ % $ $ $ O . . . X # = > > 1 > 1 1 1 1 1 1 < 1 < > : % + X . X O @ $ $ % $ $ $ $ % : 1 < 5                       ",
"                        5 < < : & $ $ $ $ $ $ % % # O . X X . + + $ % % & % * & $ # + o . . . . O $ $ $ $ $ % $ $ % % : < < 7                         ",
"                          t < < < & $ $ % % $ % % $ $ @ + O X X . . . . . . . . X X . X . + @ $ $ $ $ $ $ % $ $ $ & : < 4 D                           ",
"                            0 < < < - & # % $ $ $ $ $ % $ % $ @ + + O + O O O O O O + $ $ $ $ $ $ % % $ $ $ $ % - < 1 5                               ",
"                              D 5 1 < > = % % % $ $ $ $ $ $ $ % % $ % $ $ $ $ $ $ $ $ $ $ $ $ $ % $ $ $ $ $ = : 1 < 5                                 ",
"                                  7 1 < < : & % $ % $ $ $ $ $ $ $ $ $ $ $ % $ $ % $ $ $ % $ $ $ % $ $ $ = : < < 5 C                                   ",
"                                      0 < 1 < < - = $ $ $ % % $ $ % $ $ $ % $ % $ $ $ $ $ $ $ $ $ % = < 1 1 1 y                                       ",
"                                        L 0 < < < > : = = % $ $ $ $ $ $ $ $ $ $ % $ $ $ $ % = = > 1 < < < y                                           ",
"                                              7 1 > 1 1 1 < : - = = & % & % % & & = = - > < < 1 < > 7 q                                               ",
"                                                  D 0 5 : 1 1 1 < 1 1 < 1 1 1 1 1 < 1 1 1 < < 5 q                                                     ",
"                                                        _ 7 w 7 4 > > < < < < > : < 5 0 q y                                                           "
};
