/* XPM */
static char *_fc464d1044f4953c3c8e06011739230rHBYSfz7R7Q2gQPx[] = {
/* columns rows colors chars-per-pixel */
"75 75 228 2 ",
"   c #070709",
".  c #111113",
"X  c #1A1A1B",
"o  c #0E0E10",
"O  c #271439",
"+  c #1F3E2C",
"@  c #212223",
"#  c #2B2C33",
"$  c #3A3838",
"%  c #683C3B",
"&  c #1A4D32",
"*  c #175938",
"=  c #1B4D29",
"-  c #25543B",
";  c #1D6B33",
":  c #1D6332",
">  c #18783B",
",  c #226438",
"<  c #27703B",
"1  c #524C36",
"2  c #556326",
"3  c #746F37",
"4  c #381C53",
"5  c #3B1C46",
"6  c #382748",
"7  c #3F2C58",
"8  c #383955",
"9  c #451C5E",
"0  c #46265A",
"q  c #493A4A",
"w  c #78384D",
"e  c #451D76",
"r  c #472A67",
"t  c #512A65",
"y  c #483262",
"u  c #543867",
"i  c #4F2777",
"p  c #532974",
"a  c #5C2B7B",
"s  c #52297B",
"d  c #583378",
"f  c #4F3370",
"g  c #653070",
"h  c #285B48",
"j  c #395D49",
"k  c #384C53",
"l  c #1E7846",
"z  c #1C6845",
"x  c #296D47",
"c  c #37684B",
"v  c #237D43",
"b  c #2C744C",
"n  c #257B4B",
"m  c #267445",
"M  c #33724E",
"N  c #32794F",
"B  c #2B7850",
"V  c #367155",
"C  c #3A6F53",
"Z  c #2F6D62",
"A  c #575759",
"S  c #504354",
"D  c #6F4257",
"F  c #41714A",
"G  c #576854",
"H  c #467659",
"J  c #57765C",
"K  c #66586E",
"L  c #5C6C67",
"P  c #5C7A63",
"I  c #6C6B6B",
"U  c #666367",
"Y  c #797669",
"T  c #6F6B7C",
"R  c #726B75",
"E  c #727373",
"W  c #777A76",
"Q  c #697672",
"!  c #8A732E",
"~  c #AC602F",
"^  c #D87C19",
"/  c #D07330",
"(  c #1A8847",
")  c #1A954D",
"_  c #1B9954",
"`  c #25864A",
"'  c #228C54",
"]  c #278257",
"[  c #249452",
"{  c #2C9C5B",
"}  c #269A58",
"|  c #2C884E",
" . c #1CA55A",
".. c #1DAB5B",
"X. c #1BA857",
"o. c #1DB45C",
"O. c #1ABB5B",
"+. c #0EB55B",
"@. c #23A45B",
"#. c #23AC5B",
"$. c #2AAD5C",
"%. c #26A757",
"&. c #35A95E",
"*. c #24B45C",
"=. c #2BB35C",
"-. c #23B95F",
";. c #25B157",
":. c #1DB862",
">. c #1DAE61",
",. c #25AD62",
"<. c #2CAC63",
"1. c #28A865",
"2. c #30AF62",
"3. c #24B463",
"4. c #2AB363",
"5. c #25BA63",
"6. c #29B469",
"7. c #27B76A",
"8. c #32B367",
"9. c #26B170",
"0. c #45815F",
"q. c #65826E",
"w. c #6C8A7A",
"e. c #708573",
"r. c #7B8579",
"t. c #B39515",
"y. c #B5A300",
"u. c #97822F",
"i. c #948A19",
"p. c #D6891B",
"a. c #F49614",
"s. c #E98E1A",
"d. c #F18E24",
"f. c #80827F",
"g. c #5C2A84",
"h. c #5A2B88",
"j. c #5B3283",
"k. c #5B338B",
"l. c #5D2994",
"z. c #5E3092",
"x. c #642D8B",
"c. c #6B2D8D",
"v. c #652489",
"b. c #66368D",
"n. c #632B9C",
"m. c #662A95",
"M. c #693396",
"N. c #733296",
"B. c #6F5983",
"V. c #7D7686",
"C. c #6E618C",
"Z. c #877A87",
"A. c #887591",
"S. c #7C8B83",
"D. c #749A84",
"F. c #71908B",
"G. c #868686",
"H. c #8D8C8C",
"J. c #83898A",
"K. c #899688",
"L. c #8B8695",
"P. c #8D9494",
"I. c #949495",
"U. c #99989A",
"Y. c #A39D9D",
"T. c #9EA198",
"R. c #A0A09E",
"E. c #9B9AA3",
"W. c #A498A8",
"Q. c #9AA6A6",
"!. c #A4A4A4",
"~. c #ACADAC",
"^. c #AAA8A8",
"/. c #A8B2A7",
"(. c #B4B4AF",
"). c #ABAAB3",
"_. c #B6ADB9",
"`. c #B4B5B4",
"'. c #BABABB",
"]. c #B7B6B8",
"[. c #AAB8B8",
"{. c #C1BDBE",
"}. c #B8C2BC",
"|. c #B8C4AE",
" X c #C4C6BC",
".X c #BDBBC2",
"XX c #C1BFC2",
"oX c #BDC9C6",
"OX c #C3C3C3",
"+X c #C3C6CB",
"@X c #CBC3CA",
"#X c #CBCBCC",
"$X c #C7C7C5",
"%X c #D4CACB",
"&X c #D2D2CC",
"*X c #D6CCD5",
"=X c #D4D3D4",
"-X c #DBDCDC",
";X c #D8D7D9",
":X c #CDD1CD",
">X c #E2DBDD",
",X c #E4D4D7",
"<X c #D9E2DF",
"1X c #DBD0E0",
"2X c #E8DDE3",
"3X c #DBE4E1",
"4X c #E3E3E4",
"5X c #ECECEC",
"6X c #E8E6E5",
"7X c #F4EBEE",
"8X c #EEF5ED",
"9X c #F4F5ED",
"0X c #F6EDF2",
"qX c #EEF7F3",
"wX c #F4F3F4",
"eX c #F6FCF5",
"rX c #FDFDF5",
"tX c #FDF6FC",
"yX c #F5FDFC",
"uX c #FFFAFE",
"iX c #F9FFFF",
"pX c #FFFDFF",
"aX c white",
"sX c #FEFEFF",
"dX c #FDFEFD",
"fX c #FFFFFF",
"gX c #F8F3F6",
"hX c #EBEBF5",
/* pixels */
"aXaXaXaXaXaXaXaXaXaXaXaXaXaXaXaXaXaXaXaXaXaXaXaXaXaXaXaXaXaXaXaXaXaXaXaXaXaXaXaXaXaXaXaXaXaXaXaXaXaXaXaXaXaXaXaXaXaXaXaXaXaXaXaXaXaXaXaXaXaXaXaXaXaXaX",
"aXaXaXaXaXaXaXaXaXaXaXaXaXaXaXaXaXaXaXaXaXaXaXaXaXaXaXaXaXaXaXaXaXaXaXaXaXaXaXaXaXaXaXaXaXaXaXaXaXaXaXaXaXaXaXaXaXaXaXaXaXaXaXaXaXaXaXaXaXaXaXaXaXaXaX",
"aXaXaXaXaXaXaXaXaXaXaXaXaXaXaXaXaXaXaXaXaXaXaXaXaXaXaXaXaXaXaXaXaXaXaXaXaXaXaXaXaXaXaXaXaXaXaXaXaXaXaXaXaXaXaXaXaXaXaXaXaXaXaXaXaXaXaXaXaXaXaXaXaXaXaX",
"aXaXaXaXaXaXaXaXaXaXaXaXaXaXaXaXaXaXaXaXaXaXaXaXaXaXaXaXaXaXaXaXaXaXaXaXaXaXaXaXaXaXaXaXaXaXaXaXaXaXaXaXaXaXaXaXaXaXaXaXaXaXaXaXaXaXaXaXaXaXaXaXaXaXaX",
"aXaXaXaXaXaXaXaXaXaXaXaXaXaXaXaXaXaXaXaXaXaXaXaXaXaXaXaXaXaXaXaXaXaXaXaXaXaXaXaXaXaXaXaXaXaXaXaXaXaXaXaXaXaXaXaXaXaXaXaXaXaXaXaXaXaXaXaXaXaXaXaXaXaXaX",
"aXaXaXaXaXaXaXaXaXaXaXaXaXaXaXaXaXaXaXaXaXaXaXaXaXaXaXaXaXaXaXaXaXaXaXaXaXaXaXaXaXaXaXaXaXaXaXaXaXaXaXaXaXaXaXaXaXaXaXaXaXaXaXaXaXaXaXaXaXaXaXaXaXaXaX",
"aXaXaXaXaXaXaXaXaXaXaXaXaXaXaXaXaXaXaXaXaXaXaXaXaXaXaXaXaXaXaXaXaXaXaXaXaXaXaXaXaXaXaXaXaXaXaXaXaXaXaXaXaXaXaXaXaXaXaXaXaXaXaXaXaXaXaXaXaXaXaXaXaXaXaX",
"aXaXaXaXaXaXaXaXaXaXaXaXaXaXaXaXaXaXaXaXaXaXaXaXaXaXaXaXaXaXaXaXaXaXaXaXaXaXaXaXaXaXaXaXaXaXaXaXaXaXaXaXaXaXaXaXaXaXaXaXaXaXaXaXaXaXaXaXaXaXaXaXaXaXaX",
"aXaXaXaXaXaXaXaXaXaXaXaXaXaXaXaXaXaXaXaXaXaXaXaXaXaXaXaXaXaXaXaXaXaXaXaXaXaXaXaXaXaXaXaXaXaXaXaXaXaXaXaXaXaXaXaXaXaXaXaXaXaXaXaXaXaXaXaXaXaXaXaXaXaXaX",
"aXaXaXaXaXaXaXaXaXaXaXaXaXaXaXaXaXaXaXaXaXaXaXaXaXaXaXaXaXaXaXaXaXaXaXaXaXaXaXaXaXaXaXaXaXaXaXaXaXaXaXaXaXaXaXaXaXaXaXaXaXaXaXaXaXaXaXaXaXaXaXaXaXaXaX",
"aXaXaXaXaXaXaXaXaXaXaXaXaXaXaXaXaXaXaXaXaXaXaXaXaXaXaXaXaXaXaXaXaXaXaXaXaXaXaXaXaXaXaXaXaXaXaXaXaXaXaXaXaXaXaXaXaXaXaXaXaXaXaXaXaXaXaXaXaXaXaXaXaXaXaX",
"aXaXaXaXaXaXaXaXaXaXaXaXaXaXaXaXaXaXaXaXaXaXaXaXaXaXaXaXaXaXaXaXaXaXaXaXaXaXaXaXaXaXaXaXaXaXaXaXaXaXaXaXaXaXaXaXaXaXaXaXaXaXaXaXaXaXaXaXaXaXaXaXaXaXaX",
"aXaXaXaXaXaXaXaXaXaXaXaXaXaXaXaXaXaXaXaXaXaXaXaXaXaXaXaXaXaXaXaXaXaXaXaXaXaXaXaXaXaXaXaXaXaXaXaXaXaXaXaXaXaXaXaXaXaXaXaXaXaXaXaXaXaXaXaXaXaXaXaXaXaXaX",
"aXaXaXaXaXaXaXaXaXaXaXaXaXaXaXaXaXaXaXaXaXaXaXaXaXaXaXaXaXaXaXaXaXaXaXaXaXaXaXaXaXaXaXaXaXaXaXaXaXaXaXaXaXaXaXaXaXaXaXaXaXaXaXaXaXaXaXaXaXaXaXaXaXaXaX",
"aXaXaXaXaXaXaXaXaXaXaXaXaXaXaXaXaXaXaXaXaXaXaXaXaXaXaXaXaXaXaXaXaXaXaXaXaXaXaXaXaXaXaXaXaXaXaXaXaXaXaXaXaXaXaXaXaXaXaXaXaXaXaXaXaXaXaXaXaXaXaXaXaXaXaX",
"aXaXaXaXaXaXaXaXaXaXaXaXaXaXaXaXaXaXaXaXaXaXaXaXaXaXaXaXaXaXaXaXaXaXaXaXaXaXaXaXaXaXaXaXaXaXaXaXaXaXaXaXaXaXaXaXaXaXaXaXaXaXaXaXaXaXaXaXaXaXaXaXaXaXaX",
"aXaXaXaXaXaXaXaXaXaXaXaXaXaXaXaXaXaXaXaXaXaXaXaXaXdXaXaXaXdXdXyXaXaXdXaXuX0X>X*X@X$X*X5XaXdXaXuXdXaXaXdXrXdXaXaXaXaXaXaXaXaXaXaXaXaXaXaXaXaXaXaXaXaXaX",
"aXaXaXaXaXaXaXaXaXaXaXaXaXaXaXaXaXaXaXaXaXaXaXaXdXuXuXyXdXgXuXuXdXgX%XU.q.H M n n n N H e.$XgXyXdXyXyXuXdXeXdXaXaXaXaXaXaXaXaXaXaXaXaXaXaXaXaXaXaXaXaX",
"aXaXaXaXaXaXaXaXaXaXaXaXaXaXaXaXaXaXaXaXaXaXaXaXeXaXdXdXgX XD.Q e.P M (  .3.5.3.4.4.4.<._ b w.2XtXdXdXyXyXaXrXaXaXaXaXaXaXaXaXaXaXaXaXaXaXaXaXaXaXaXaX",
"aXaXaXaXaXaXaXaXaXaXaXaXaXaXaXaXaXaXaXaXaXaXaXaXdXdXaX7Xq.z ' { }  .,.6.4.#.;.=.4.-.*.*.:.,.` F K.$XuXdXdXuXuXdXaXaXaXaXaXaXaXaXaXaXaXaXaXaXaXaXaXaXaX",
"aXaXaXaXaXaXaXaXaXaXaXaXaXaXaXaXaXaXaXaXaXaXaXaXaXyXwXW l 4.5.:.:.*.3.<.<.*.5.4.#.5.4.;.;.=.*.%._ x e.,XuXuXaXdXaXaXaXaXaXaXaXaXaXaXaXaXaXaXaXaXaXaXaX",
"aXaXaXaXaXaXaXaXaXaXaXaXaXaXaXaXaXaXaXaXaXaXaXaXaXuX(.x *.*.$.O.4.#.:.#.) ` [ #.7.$...5.*.4.5.5.4.3.{ H >XuXyXaXaXaXaXaXaXaXaXaXaXaXaXaXaXaXaXaXaXaXaX",
"aXaXaXaXaXaXaXaXaXaXaXaXaXaXaXaXaXaXaXaXaXaXaXaXdXgXQ } o.4.%.4.[ v v } >.,.` : ) ,._ ) @.8...4.$.:.+.' w.aXuXaXaXaXaXaXaXaXaXaXaXaXaXaXaXaXaXaXaXaXaX",
"aXaXaXaXaXaXaXaXaXaXaXaXaXaXaXaXaXaXaXaXaXaXaXaXdX6Xb 3.=.=.3.6.,.%.` ; > $.<.) : 1.6.v : ,.O.=.4.$.=.<.B ;XdXrXaXaXaXaXaXaXaXaXaXaXaXaXaXaXaXaXaXaXaX",
"aXaXaXaXaXaXaXaXaXaXaXaXaXaXaXaXaXdXaXaXdXdXaXaXeX@Xb 5.4.3...[ ..4.4.4.( < ,.3.( c 3.:.* _ o.4.o.*.=.5.| `.yXuXaXaXaXaXaXaXaXaXaXaXaXaXaXaXaXaXaXaXaX",
"aXaXaXaXaXaXaXaXaXaXaXaXaXaXaXaXaXaXaXaXaXaXaXdXaX].] ;.o.} ; ` ` ( 4.X.7._ ' 3.o.m  .$., { -.4.8.X.;.5.n /.yXdXaXaXaXaXaXaXaXaXaXaXaXaXaXaXaXaXaXaXaX",
"aXaXaXaXaXaXaXaXaXaXaXaXaXaXaXaXdXaXaXdXaXaXaXaXaX+Xb *.5.; ( 9.1.) ( 5.5.$.{ #.*.( #.4.v %.o.3.3.o.5.7.B ].aXdXaXaXaXaXaXaXaXaXaXaXaXaXaXaXaXaXaXaXaX",
"aXaXaXaXaXaXaXaXaXaXaXaXaXaXaXaXaXuXdXdXaXaXaXdXaX@X& %.7.;  .' j H : _ 2.&.o.*.5.{  .} _ 4.3.4.3.<.=...C ,XaXdXaXaXaXaXaXaXaXaXaXaXaXaXaXaXaXaXaXaXaX",
"aXaXaXaXaXaXaXaXaXaXaXaXaXaXaXaXdXaXaXaXaXdXdXdXeX].+ - l = 2.N oX4Xr.l 5.;.:.4.*.&.4.%.#.*...*.=.=.-.@.H wXdXuXaXaXaXaXaXaXaXaXaXaXaXaXaXaXaXaXaXaXaX",
"aXaXaXaXaXaXaXaXaXaXaXaXaXaXaXaXaXdXaXaXdXdXaXaXrXP.L oX@XG.@.' =XuX6XH ..3. ._ %.X.4.3.*.-.4.=.o.O.=.x /.uXyXaXaXaXaXaXaXaXaXaXaXaXaXaXaXaXaXaXaXaXaX",
"aXaXaXaXaXaXaXaXaXaXaXaXaXaXaXaXaXdXuXaXgXaXaXgX$XI  X}.oXD.( H 5XdX;XC } m P G.P C b ( [ %.6.,.9.} ( = #XuXaXdXaXaXaXaXaXaXaXaXaXaXaXaXaXaXaXaXaXaXaX",
"aXaXaXaXaXaXaXaXaXaXaXaXaXaXaXaXaXdXaXaXdXaXgX;XU.P.5X$XL j P #XyXyXL.& J |.qXuXtX5X:XQ.r.J V x M G - - [.uXaXrXaXaXaXaXaXaXaXaXaXaXaXaXaXaXaXaXaXaXaX",
"aXaXaXaXaXaXaXaXaXaXaXaXaXaXaXaXuXuXaXeXaXaXaX=X~.^.8XdXwX4XgXaXaX6XI `.wXuXaXaXaXaXaXdXaXwX4X-X<XwXS.z ^.rXdXdXaXaXaXaXaXaXaXaXaXaXaXaXaXaXaXaXaXaXaX",
"aXaXaXaXaXaXaXaXaXaXaXaXaXaXaXaXdXdXaXaXdXuXaX8XP.R 6XaX6XgXaXaXaX5X5XaXaXaXaXuXaXaXgXaXdXaXaXaXaXuX'.* Y.dXdXaXaXaXaXaXaXaXaXaXaXaXaXaXaXaXaXaXaXaXaX",
"aXaXaXaXaXaXaXaXaXaXaXaXaXaXaXaXaXaXtXaXdXuXaXaXwXW ;XeXU.R.-XaXaXuXaXaXgXdXaXdXaXaXaXaXuXdXaXdXuXaX5Xj U W.dXuXaXaXaXaXaXaXaXaXaXaXaXaXaXaXaXaXaXaXaX",
"aXaXaXaXaXaXaXaXaXaXaXaXaXaXaXaXdXaXaXaXeXdXaXuXuX^.'.dXR.`.I.8XeXaXeXaXaXaXdXaXdX5X;XeXdXaXaXaXuXuXgXoX>XW wXdXaXaXaXaXaXaXaXaXaXaXaXaXaXaXaXaXaXaXaX",
"aXaXaXaXaXaXaXaXaXaXaXaXaXaXaXaXaXtXaXeXaXaXgXaXdX=XH.dX=X^.#XaXaXdXaXaXeXaXuXaX#XI.G.gXaXaXtXdXuXdXaXdX`.H.dXyXaXaXaXaXaXaXaXaXaXaXaXaXaXaXaXaXaXaXaX",
"aXaXaXaXaXaXaXaXaXaXaXaXaXaXaXaXeXaXaXaXdXdXaXeX:X:XJ.=XaXaXgXaXdXdXaXdXaXaXeXwXH.`.^.dXaXwXdXaXaXyX6X'.R 3XdXaXaXaXaXaXaXaXaXaXaXaXaXaXaXaXaXaXaXaXaX",
"aXaXaXaXaXaXaXaXaXaXaXaXaXaXaXaXaXaXgXaXdXaXwX'.].^.XXH.5XaXuXaXdXaXdXdXdXuXaXaX-XOX5XaXdXdXdXaXaX=XE H.-XeXyXuXaXaXaXaXaXaXaXaXaXaXaXaXaXaXaXaXaXaXaX",
"aXaXaXaXaXaXaXaXaXaXaXaXaXaXaXaXdXaXaXaXaX-XI.#X'.].~.H.W =XaXaXaXdXuXaXdXaXaXaXaXaXdXaXdXaXaXdX'.H.-XwXuXaXyXuXaXaXaXaXaXaXaXaXaXaXaXaXaXaXaXaXaXaXaX",
"aXaXaXaXaXaXaXaXaXaXaXaXaXaXaXaXaXdXaXaXaX`.H.W.1 E.I.U R S.K.XX4XyXaXaXuXtXdXeXyXrXuXrXdXuX@XS.G.-XaXdXaXaXdXdXaXaXaXaXaXaXaXaXaXaXaXaXaXaXaXaXaXaXaX",
"aXaXaXaXaXaXaXaXaXaXaXaXaXaXaXaXdXaXaXeXaX5XR.$X8 W ].).L./. XL.F D. X|.:XoXD./.;X*X*X'.H.W W .XwXaXdXaXaXgXaXdXaXaXaXaXaXaXaXaXaXaXaXaXaXaXaXaXaXaXaX",
"aXaXaXaXaXaXaXaXaXaXaXaXaXaXaXaXdXdXdXaXaXaX:X}.=X~.+XJ.Y.A W.E @.{ x _ ] M >.h 0 0 r 4 O R 5XyXaXaXgXaXaXaXaXdXaXaXaXaXaXaXaXaXaXaXaXaXaXaXaXaXaXaXaX",
"aXaXaXaXaXaXaXaXaXaXaXaXaXaXaXaXuXdXaXaXaXgXuX'.=X).U Q.W.d r 8 %.@.> 7.[ ' O.Z x.M.z.m.c.t K 8XdXdXaXaXdXaXaXdXaXaXaXaXaXaXaXaXaXaXaXaXaXaXaXaXaXaXaX",
"aXaXaXaXaXaXaXaXaXaXaXaXaXaXaXaXaXaXaXdXdXaXaX4X).&XI K d c.n.r m ] 2 3 2 l { k h.m.x.a g.c.t ~.dXaXdXaXaXdXdXaXaXaXaXaXaXaXaXaXaXaXaXaXaXaXaXaXaXaXaX",
"aXaXaXaXaXaXaXaXaXaXaXaXaXaXaXaXaXdXaXdXdXaXaXaXuXrX'.0 k.l.x.0 r r ~ a.s.1 7 g.b.x.u T C.h.i L.dXuXdXdXaXaXuXdXaXaXaXaXaXaXaXaXaXaXaXaXaXaXaXaXaXaXaX",
"aXaXaXaXaXaXaXaXaXaXaXaXaXaXaXaXaXdXaXaXaXgXaXdXrXaXuXW.y f 0 5 c.g / a.d.w l.b.x.i V.qX~.B.y E.dXdXaXdXaXaXaXaXaXaXaXaXaXaXaXaXaXaXaXaXaXaXaXaXaXaXaX",
"aXaXaXaXaXaXaXaXaXaXaXaXaXaXaXaXaXaXdXaXdXuXdXaXaXaXdXgX-X`.~.y n.d ^ a.d.w n.l.m.g.V.7X$XZ.S :XuXdXaXaXdXdXaXaXaXaXaXaXaXaXaXaXaXaXaXaXaXaXaXaXaXaXaX",
"aXaXaXaXaXaXaXaXaXaXaXaXaXaXaXaXaXaXaXaXaXaXaXaXdXdXdXdXaXdX_.r k.g p.s.p.w x.n.c.n.6 W S.R  XeXaXaXaXaXaXaXaXaXaXaXaXaXaXaXaXaXaXaXaXaXaXaXaXaXaXaXaX",
"aXaXaXaXaXaXaXaXaXaXaXaXaXaXaXaXaXaXaXaXaXaXaXaXdXuXaXeXrXdXE.d b.% t.p.y.3 D g g.x.u '.3XwXuXuXaXaXaXaXaXaXaXaXaXaXaXaXaXaXaXaXaXaXaXaXaXaXaXaXaXaXaX",
"aXaXaXaXaXaXaXaXaXaXaXaXaXaXaXaXaXaXaXaXaXaXaXaXdXaXaXdXrXdXI.9 q ! i.! ! ! ! q 0 p r _.dX_.9XrXaXaXaXaXaXaXaXaXaXaXaXaXaXaXaXaXaXaXaXaXaXaXaXaXaXaXaX",
"aXaXaXaXaXaXaXaXaXaXaXaXaXaXaXaXaXaXaXaXaXaXaXaXaXaXaXrXuXdXL.9 d d m.c.m.m.a k.a h.4 Y I.7 #XdXaXaXaXaXaXaXaXaXaXaXaXaXaXaXaXaXaXaXaXaXaXaXaXaXaXaXaX",
"aXaXaXaXaXaXaXaXaXaXaXaXaXaXaXaXaXaXaXaXaXaXaXaXdXaXaXrXuXaXV.p n.x.N.a i t a c.x.M.h.O 5 f &XyXaXaXaXaXaXaXaXaXaXaXaXaXaXaXaXaXaXaXaXaXaXaXaXaXaXaXaX",
"aXaXaXaXaXaXaXaXaXaXaXaXaXaXaXaXaXaXaXaXaXaXaXaXaXgXaXdXuXdXL.t g x.l.s U Z.e n.j.a h.6 Z.~.yXyXaXaXaXaXaXaXaXaXaXaXaXaXaXaXaXaXaXaXaXaXaXaXaXaXaXaXaX",
"aXaXaXaXaXaXaXaXaXaXaXaXaXaXaXaXaXaXaXaXaXaXaXaXaXdXdXrXuXyXG.u )..XK i L.=Xy d W.*XA.7 .XrXaXrXaXaXaXaXaXaXaXaXaXaXaXaXaXaXaXaXaXaXaXaXaXaXaXaXaXaXaX",
"aXaXaXaXaXaXaXaXaXaXaXaXaXaXaXaXaXaXaXaXaXaXaXaXdXaXaXdXdXqXG A.5XyXhXA r.hXS A.dXaX`.# T 0XaXyXaXaXaXaXaXaXaXaXaXaXaXaXaXaXaXaXaXaXaXaXaXaXaXaXaXaXaX",
"aXaXaXaXaXaXaXaXaXaXaXaXaXaXaXaXaXaXaXaXaXaXaXaXdXuXaXdX5XU   o A 5X;X@ R dXE # ;X4X$     A OXaXaXaXaXaXaXaXaXaXaXaXaXaXaXaXaXaXaXaXaXaXaXaXaXaXaXaXaX",
"aXaXaXaXaXaXaXaXaXaXaXaXaXaXaXaXaXaXaXaXaXaXaXaXdXaXaXuX!..   o X A U @ G.aX~.@ A E @ . X o U yXaXaXaXaXaXaXaXaXaXaXaXaXaXaXaXaXaXaXaXaXaXaXaXaXaXaXaX",
"aXaXaXaXaXaXaXaXaXaXaXaXaXaXaXaXaXaXaXaXaXaXaXaXdXaXaXaX4X^.{.OX#X#X&X=X8XgXdX=X#XOX#X#X+X#X4XuXaXaXaXaXaXaXaXaXaXaXaXaXaXaXaXaXaXaXaXaXaXaXaXaXaXaXaX",
"aXaXaXaXaXaXaXaXaXaXaXaXaXaXaXaXaXaXaXaXaXaXaXaXaXaXaXeXaXaXaXdXuXaXaXaXaXdXdXdXaXaXaXdXaXdXuXaXaXaXaXaXaXaXaXaXaXaXaXaXaXaXaXaXaXaXaXaXaXaXaXaXaXaXaX",
"aXaXaXaXaXaXaXaXaXaXaXaXaXaXaXaXaXaXaXaXaXaXaXaXaXaXaXaXdXdXdXdXaXdXdXaXdXaXdXuXdXaXdXdXdXaXaXgXaXaXaXaXaXaXaXaXaXaXaXaXaXaXaXaXaXaXaXaXaXaXaXaXaXaXaX",
"aXaXaXaXaXaXaXaXaXaXaXaXaXaXaXaXaXaXaXaXaXaXaXaXaXdXeXaXaXdXdXdXdXaXdXdXaXaXdXdXaXaXdXdXaXaXdXaXaXaXaXaXaXaXaXaXaXaXaXaXaXaXaXaXaXaXaXaXaXaXaXaXaXaXaX",
"aXaXaXaXaXaXaXaXaXaXaXaXaXaXaXaXaXaXaXaXaXaXaXaXaXaXaXuXaXdXrXdXdXaXdXgXaXdXdXdXdXgXaXdXdXaXdXdXaXaXaXaXaXaXaXaXaXaXaXaXaXaXaXaXaXaXaXaXaXaXaXaXaXaXaX",
"aXaXaXaXaXaXaXaXaXaXaXaXaXaXaXaXaXaXaXaXaXaXaXaXdXdXdXuXaXrXdXdXdXgXdXdXdXdXaXgXaXaXdXdXaXdXaXdXaXaXaXaXaXaXaXaXaXaXaXaXaXaXaXaXaXaXaXaXaXaXaXaXaXaXaX",
"aXaXaXaXaXaXaXaXaXaXaXaXaXaXaXaXaXaXaXaXaXaXaXaXaXaXaXaXaXaXaXaXaXaXaXaXaXaXaXaXaXaXaXaXaXaXaXaXaXaXaXaXaXaXaXaXaXaXaXaXaXaXaXaXaXaXaXaXaXaXaXaXaXaXaX",
"aXaXaXaXaXaXaXaXaXaXaXaXaXaXaXaXaXaXaXaXaXaXaXaXaXaXaXaXaXaXaXaXaXaXaXaXaXaXaXaXaXaXaXaXaXaXaXaXaXaXaXaXaXaXaXaXaXaXaXaXaXaXaXaXaXaXaXaXaXaXaXaXaXaXaX",
"aXaXaXaXaXaXaXaXaXaXaXaXaXaXaXaXaXaXaXaXaXaXaXaXaXaXaXaXaXaXaXaXaXaXaXaXaXaXaXaXaXaXaXaXaXaXaXaXaXaXaXaXaXaXaXaXaXaXaXaXaXaXaXaXaXaXaXaXaXaXaXaXaXaXaX",
"aXaXaXaXaXaXaXaXaXaXaXaXaXaXaXaXaXaXaXaXaXaXaXaXaXaXaXaXaXaXaXaXaXaXaXaXaXaXaXaXaXaXaXaXaXaXaXaXaXaXaXaXaXaXaXaXaXaXaXaXaXaXaXaXaXaXaXaXaXaXaXaXaXaXaX",
"aXaXaXaXaXaXaXaXaXaXaXaXaXaXaXaXaXaXaXaXaXaXaXaXaXaXaXaXaXaXaXaXaXaXaXaXaXaXaXaXaXaXaXaXaXaXaXaXaXaXaXaXaXaXaXaXaXaXaXaXaXaXaXaXaXaXaXaXaXaXaXaXaXaXaX",
"aXaXaXaXaXaXaXaXaXaXaXaXaXaXaXaXaXaXaXaXaXaXaXaXaXaXaXaXaXaXaXaXaXaXaXaXaXaXaXaXaXaXaXaXaXaXaXaXaXaXaXaXaXaXaXaXaXaXaXaXaXaXaXaXaXaXaXaXaXaXaXaXaXaXaX",
"aXaXaXaXaXaXaXaXaXaXaXaXaXaXaXaXaXaXaXaXaXaXaXaXaXaXaXaXaXaXaXaXaXaXaXaXaXaXaXaXaXaXaXaXaXaXaXaXaXaXaXaXaXaXaXaXaXaXaXaXaXaXaXaXaXaXaXaXaXaXaXaXaXaXaX",
"aXaXaXaXaXaXaXaXaXaXaXaXaXaXaXaXaXaXaXaXaXaXaXaXaXaXaXaXaXaXaXaXaXaXaXaXaXaXaXaXaXaXaXaXaXaXaXaXaXaXaXaXaXaXaXaXaXaXaXaXaXaXaXaXaXaXaXaXaXaXaXaXaXaXaX",
"aXaXaXaXaXaXaXaXaXaXaXaXaXaXaXaXaXaXaXaXaXaXaXaXaXaXaXaXaXaXaXaXaXaXaXaXaXaXaXaXaXaXaXaXaXaXaXaXaXaXaXaXaXaXaXaXaXaXaXaXaXaXaXaXaXaXaXaXaXaXaXaXaXaXaX",
"aXaXaXaXaXaXaXaXaXaXaXaXaXaXaXaXaXaXaXaXaXaXaXaXaXaXaXaXaXaXaXaXaXaXaXaXaXaXaXaXaXaXaXaXaXaXaXaXaXaXaXaXaXaXaXaXaXaXaXaXaXaXaXaXaXaXaXaXaXaXaXaXaXaXaX",
"aXaXaXaXaXaXaXaXaXaXaXaXaXaXaXaXaXaXaXaXaXaXaXaXaXaXaXaXaXaXaXaXaXaXaXaXaXaXaXaXaXaXaXaXaXaXaXaXaXaXaXaXaXaXaXaXaXaXaXaXaXaXaXaXaXaXaXaXaXaXaXaXaXaXaX"
};
