/* XPM */
static char *f8605bc0706b4155fd615190e479abb7V9tiwMvvlN3Ck2BV[] = {
/* columns rows colors chars-per-pixel */
"75 75 172 2 ",
"   c None",
".  c #020306",
"X  c #06070A",
"o  c #16171A",
"O  c #181122",
"+  c #252829",
"@  c #2C2639",
"#  c #353639",
"$  c #164E2F",
"%  c #1B4B31",
"&  c #195C37",
"*  c #1B5535",
"=  c #294938",
"-  c #2A553D",
";  c #25583C",
":  c #1B653B",
">  c #1B6B3E",
",  c #554239",
"<  c #7E4B39",
"1  c #645431",
"2  c #7A6022",
"3  c #7E6739",
"4  c #371E4B",
"5  c #3F1F59",
"6  c #3D2C4D",
"7  c #3C274F",
"8  c #3A3542",
"9  c #3F3F42",
"0  c #3F3549",
"q  c #3E2354",
"w  c #3C3858",
"e  c #3F3E60",
"r  c #423E49",
"t  c #44245D",
"y  c #4B3A5A",
"u  c #483155",
"i  c #6B3D4D",
"p  c #62355D",
"a  c #492565",
"s  c #492565",
"d  c #4D3661",
"f  c #522773",
"g  c #542B74",
"h  c #552778",
"j  c #57297A",
"k  c #5A2D78",
"l  c #5C367A",
"z  c #5B3567",
"x  c #384C44",
"c  c #3A5949",
"v  c #285346",
"b  c #1D6F40",
"n  c #1F7343",
"m  c #1E7B45",
"M  c #2C6E48",
"N  c #276A46",
"B  c #36694D",
"V  c #207A46",
"C  c #207F48",
"Z  c #29794B",
"A  c #424345",
"S  c #47454C",
"D  c #474C4C",
"F  c #41524A",
"G  c #4E4E50",
"H  c #51485B",
"J  c #495E54",
"K  c #535355",
"L  c #565658",
"P  c #5A5A5C",
"I  c #555A5C",
"U  c #684B4D",
"Y  c #735941",
"T  c #674856",
"R  c #7A4741",
"E  c #4D665A",
"W  c #466755",
"Q  c #55675E",
"!  c #574A64",
"~  c #5A436E",
"^  c #5C5464",
"/  c #5D5963",
"(  c #5F4475",
")  c #635271",
"_  c #5C6461",
"`  c #5D6A64",
"'  c #576B61",
"]  c #547865",
"[  c #6A6B6C",
"{  c #646867",
"}  c #68706D",
"|  c #6B6573",
" . c #6D6B71",
".. c #746E7A",
"X. c #6F7373",
"o. c #727374",
"O. c #7B7B7D",
"+. c #747979",
"@. c #827415",
"#. c #B4711B",
"$. c #966720",
"%. c #9F7624",
"&. c #CE7D1F",
"*. c #CE7D20",
"=. c #1F8349",
"-. c #21844A",
";. c #218A4D",
":. c #21904F",
">. c #2B8552",
",. c #248E51",
"<. c #239452",
"1. c #239B55",
"2. c #279E59",
"3. c #289D58",
"4. c #25A55A",
"5. c #26AC5D",
"6. c #29AB5E",
"7. c #26B05F",
"8. c #26B360",
"9. c #42875F",
"0. c #7A807E",
"q. c #619277",
"w. c #8F831C",
"e. c #D6821D",
"r. c #EB8D1E",
"t. c #F7941E",
"y. c #CABA0B",
"u. c #CEC307",
"i. c #D8CC04",
"p. c #5C2A83",
"a. c #622C8B",
"s. c #662D91",
"d. c #7E7D81",
"f. c #7C6D89",
"g. c #81768C",
"h. c #7E8181",
"j. c #828285",
"k. c #868989",
"l. c #8A8A8C",
"z. c #87868B",
"x. c #8E8F90",
"c. c #8E9693",
"v. c #929394",
"b. c #969598",
"n. c #9B9C9D",
"m. c #959D9A",
"M. c #82A190",
"N. c #9F9FA1",
"B. c #9EA0A0",
"V. c #A2A2A4",
"C. c #A7A7A8",
"Z. c #ABACAD",
"A. c #A1A9A5",
"S. c #AFAFB0",
"D. c #AFB0B1",
"F. c #B2B3B4",
"G. c #B7B7B8",
"H. c #BBBBBC",
"J. c #B7B8B8",
"K. c #BFBFC0",
"L. c #BFC0C0",
"P. c #C3C4C4",
"I. c #C7C7C8",
"U. c #CBCBCB",
"Y. c #D3D3D4",
"T. c #DBDCDC",
"R. c #E3E3E4",
"E. c #EAEAEB",
"W. c #F3F4F4",
"Q. c #F7F8F8",
"!. c #FFFFFF",
"~. c #F7F7F8",
/* pixels */
"                                                                                                                                                      ",
"                                                                                                                                                      ",
"                                                                                                                                                      ",
"                                                                                                                                                      ",
"                                                                                                                                                      ",
"                                                                                                                                                      ",
"                                                                                                                                                      ",
"                                                                                                                                                      ",
"                                                                                                                                                      ",
"                                                                                                                                                      ",
"                                                                                                                                                      ",
"                                                                                                                                                      ",
"                                                                                                                                                      ",
"                                                                                                                                                      ",
"                                                                                                                                                      ",
"                                                                                                                                                      ",
"                                                                        R.U.F.v.j.c.J.T.                                                              ",
"                                                            Q.W.!.U.j.E B V =.<.<.<.=.M E Z.                                                          ",
"                                                        H.} ; : ; > 4.8.7.7.8.8.7.7.8.8.8.-.E L.                                                      ",
"                                                      v.% 1.7.7.8.8.8.8.8.8.8.8.8.8.8.8.7.7.4.; J G.W.                                                ",
"                                                    I.; 7.8.8.8.8.8.8.8.8.8.8.8.8.7.8.8.8.8.8.8.4.V ' R.                                              ",
"                                                    Q 5.8.8.8.5.5.5.6.4.;.V m 4.8.7.5.8.8.8.8.8.8.8.4.E E.                                            ",
"                                                  T.M 8.8.8.8.5.,.* & <.8.8.1.$ 4.7.;.: 5.8.8.8.8.8.8.-.v.                                            ",
"                                                  F.-.8.8.8.8.7.8.7.1.b > 7.7.:.$ 5.7.=.: 8.8.8.8.8.8.5.x                                             ",
"                                                  0.1.7.8.5.m ;.3.7.8.8.1.> 7.7.V =.8.7.$ 8.8.8.8.8.8.8.; Y.                                          ",
"                                                  +.1.8.7.> <.4.;.-.8.8.7.4.<.8.5.V 8.8.: 8.8.8.8.8.8.8.; Y.                                          ",
"                                                  c.=.8.7.& 5.6.4.;.:.7.8.8.4.7.8.-.8.4.-.8.8.8.8.8.8.8.= T.                                          ",
"                                                  +.$ 8.3.: 8.% O.] % 5.8.8.8.8.8.3.8.1.5.8.8.8.8.8.8.3.Q                                             ",
"                                                  E = = x ; 8.W Q.Q.o.;.8.8.8.8.7.5.7.6.8.8.8.7.8.8.8.V D.                                            ",
"                                                W.x J.T.~.9.8.c Q.!.R.Z 8.5.;.;.4.8.8.8.8.8.8.7.8.8.5.J E.                                            ",
"                                              Y.d.P Q.o.n.>.N S.!.!.k.m M ` F.G.b.o.W M C 1.4.6.4.=.$ D                                               ",
"                                              l.R.V.!.Y.[ ` U.!.!.R.+ c U.!.!.!.!.!.Q.R.K.0.J F Q c.N c E.                                            ",
"                                              V.H.v.!.!.!.!.!.!.!.H.C.W.!.!.!.!.!.!.!.!.!.!.!.!.!.!.] B R.                                            ",
"                                                O.{ !.~.D.W.!.!.!.!.!.!.!.!.!.!.!.!.!.!.!.!.!.!.!.!.B.= F.                                            ",
"                                                E.K Q.T.v.j.~.!.!.!.!.!.!.!.!.!.!.!.!.!.!.!.!.!.!.!.Y.X.o.C.                                          ",
"                                                  [ T.E.j.Z.V.!.!.!.!.!.!.!.!.!.!.I.I.!.!.!.!.!.!.!.Q.R.U.v.                                          ",
"                                                  P.N.!.W.Y.!.!.!.!.!.!.!.!.!.R.k.P.N.!.!.!.!.!.!.!.Q.E.P I.                                          ",
"                                              E.l.R.o.Q.!.!.!.!.!.!.!.!.!.!.!.R.O.j.R.!.!.!.!.!.!.!.H.{ F.                                            ",
"                                            L.Z.P.b.I.l.Q.!.!.!.!.!.!.!.!.!.!.!.W.E.!.!.!.!.!.!.~.x.j.I.                                              ",
"                                          v.j.I.b.Y.z.o.[ H.~.!.!.!.!.!.!.!.!.!.!.!.!.!.!.!.!.Y.X.I.                                                  ",
"                                          V.n.v.o I.j.j.l.b.L n.Y.Q.!.!.!.!.W.!.!.!.!.!.Q.T.o.L T.                                                    ",
"                                          Y.n.I.r T.n.H.K P.R.X.>.q.c.M.B.q.9.v.n.n.l.[ L d.G.T.                                                      ",
"                                            I.U.T.P.n.v.Z.u / ; 8.;.4.8.=.4.8.w j j p.h 5 ..T.                                                        ",
"                                              V.G.d.{ D.~ a.a.v 8.;.;.4.n 5.8.e s.s.s.s.s.h P                                                         ",
"                                              T.U.E.G l s.s.a.4 N x $.%.2 b m f s.s.a.d g s.q I.                                                      ",
"                                                    D.a s.s.s 4 s.p r.t.*.h s.s.s.p.| Z.d.p.a H.                                                      ",
"                                                      N.0 6 8 j s.i t.t.*.j s.s.s.5 R.!.Z.( 7 I.                                                      ",
"                                                        T.T.z.p.s.R t.t.*.j s.s.s.f k.~.Z.^ j.                                                        ",
"                                                            | s.s.$.e.e.#.k s.s.s.s.r d.+.G.                                                          ",
"                                                            ^ s.h @.y.i.u.@.1 z a.s.! W.  ~.                                                          ",
"                                                            d s r $.Y U U T T u t f y R.R.g.                                                          ",
"                                                            r p.s.s.s.s.s.s.s.s.a.a.7  .y H                                                           ",
"                                                            y s.s.s.s.g u 4 a.s.s.s.g O s O.                                                          ",
"                                                            y p.p.j s.s H.P p.a.( l a.8 H.T.                                                          ",
"                                                            S v.Q.Y.f.7 U.F.a g.~.W.g.@ I.                                                            ",
"                                                          F.+ n.W.!.R.+ H.T.@ T.!.~.G X O.W.                                                          ",
"                                                        Z.o . . D !.N.. G.~.9 9 ~.C.. . X A Y.                                                        ",
"                                                        P + # # x L L P Y.  V.D P K A A A S G.                                                        ",
"                                                        W.E.W.W.                                                                                      ",
"                                                                                                                                                      ",
"                                                                                                                                                      ",
"                                                                                                                                                      ",
"                                                                                                                                                      ",
"                                                                                                                                                      ",
"                                                                                                                                                      ",
"                                                                                                                                                      ",
"                                                                                                                                                      ",
"                                                                                                                                                      ",
"                                                                                                                                                      ",
"                                                                                                                                                      ",
"                                                                                                                                                      ",
"                                                                                                                                                      ",
"                                                                                                                                                      ",
"                                                                                                                                                      ",
"                                                                                                                                                      "
};
