/* XPM */
static char *_410ff701f304d7f8db241b387bea8c3wYBF63YBx92s0VS0[] = {
/* columns rows colors chars-per-pixel */
"75 75 203 2 ",
"   c None",
".  c #020306",
"X  c #050609",
"o  c #0A0B0E",
"O  c #07080B",
"+  c #07120F",
"@  c #0D0C12",
"#  c #120E1A",
"$  c #0C1312",
"%  c #0D1C16",
"&  c #121316",
"*  c #14131A",
"=  c #18151E",
"-  c #141A1A",
";  c #1A1B1E",
":  c #101A17",
">  c #0F241A",
",  c #0E2A1C",
"<  c #0C2117",
"1  c #102D1F",
"2  c #15231B",
"3  c #1D1D21",
"4  c #1C1326",
"5  c #160F20",
"6  c #21142E",
"7  c #251533",
"8  c #281739",
"9  c #2B1A3B",
"0  c #301F38",
"q  c #1E2223",
"w  c #122D20",
"e  c #1B2A24",
"r  c #0F3823",
"t  c #123222",
"y  c #193527",
"u  c #133A26",
"i  c #143F28",
"p  c #1D372A",
"a  c #212224",
"s  c #252A2A",
"d  c #292B2D",
"f  c #25262A",
"g  c #24362A",
"h  c #2D2E31",
"j  c #252634",
"k  c #2D3232",
"l  c #243534",
"z  c #323335",
"x  c #353638",
"c  c #3B3C3E",
"v  c #363B3B",
"b  c #49381A",
"n  c #4C3936",
"m  c #563835",
"M  c #51322D",
"N  c #16452B",
"B  c #164A2D",
"V  c #194C31",
"C  c #175231",
"Z  c #195333",
"A  c #1B5B36",
"S  c #1C5D39",
"D  c #175D35",
"F  c #225439",
"G  c #2A4F3C",
"H  c #1B643B",
"J  c #1C6A3E",
"K  c #23603E",
"L  c #5F5A19",
"P  c #71541B",
"I  c #7A6C18",
"U  c #7C7512",
"Y  c #554A2B",
"T  c #6B462A",
"R  c #2E1941",
"E  c #311B45",
"W  c #361D4B",
"Q  c #3B1E54",
"!  c #3A234D",
"~  c #362C48",
"^  c #3E3F41",
"/  c #3A3144",
"(  c #3E2354",
")  c #3F2058",
"_  c #4E3945",
"`  c #503B44",
"'  c #42225D",
"]  c #44295A",
"[  c #463754",
"{  c #462362",
"}  c #4D266B",
"|  c #4C266A",
" . c #532973",
".. c #56297A",
"X. c #592A7C",
"o. c #522773",
"O. c #2B5C41",
"+. c #324741",
"@. c #1E6E41",
"#. c #1E7443",
"$. c #1E7B45",
"%. c #226B42",
"&. c #2D6345",
"*. c #227345",
"=. c #207C47",
"-. c #217D48",
";. c #346048",
":. c #424345",
">. c #464749",
",. c #4A4B4D",
"<. c #4E4F50",
"1. c #4F5252",
"2. c #535455",
"3. c #565658",
"4. c #5A5B5D",
"5. c #57585A",
"6. c #4B5355",
"7. c #4D695A",
"8. c #5E5E61",
"9. c #5A5561",
"0. c #61586A",
"q. c #5F6061",
"w. c #636365",
"e. c #666769",
"r. c #6A6A6C",
"t. c #66686A",
"y. c #6D6E70",
"u. c #6E7071",
"i. c #737375",
"p. c #767778",
"a. c #7B7B7D",
"s. c #77787A",
"d. c #81571C",
"f. c #827C0A",
"g. c #867C12",
"h. c #B7711D",
"j. c #8B5721",
"k. c #D27F1C",
"l. c #1F8048",
"z. c #22834B",
"x. c #228B4E",
"c. c #258C50",
"v. c #249352",
"b. c #259B56",
"n. c #269E58",
"m. c #2A9958",
"M. c #25A45A",
"N. c #26AC5D",
"B. c #28AC5F",
"V. c #29A35B",
"C. c #26B05F",
"Z. c #29AE60",
"A. c #26B360",
"S. c #928A0E",
"D. c #D7831E",
"F. c #F7941E",
"G. c #DC8620",
"H. c #CCC20C",
"J. c #F4E805",
"K. c #FFF200",
"L. c #5D2B83",
"P. c #632D8C",
"I. c #602C87",
"U. c #662D91",
"Y. c #623088",
"T. c #7F7F80",
"R. c #828384",
"E. c #868788",
"W. c #8B8B8D",
"Q. c #8E8F90",
"!. c #939495",
"~. c #9A9B9C",
"^. c #979799",
"/. c #908F93",
"(. c #9E9FA0",
"). c #9FA0A1",
"_. c #A3A3A4",
"`. c #ABABAC",
"'. c #A7A7A8",
"]. c #AFB0B1",
"[. c #B2B3B4",
"{. c #BABBBB",
"}. c #AFAFB0",
"|. c #BFBFC0",
" X c #BFC0C0",
".X c #C3C3C4",
"XX c #CBCCCC",
"oX c #C7C8C8",
"OX c #CFCFD0",
"+X c #D3D4D4",
"@X c #DCDCDC",
"#X c #D7D8D8",
"$X c #DFDFE0",
"%X c #E4E4E5",
"&X c #EBECEC",
"*X c #E7E8E8",
"=X c #F4F4F4",
"-X c white",
";X c #FEFEFE",
":X c #FCFCFC",
">X c #FEFEFE",
",X c #F7F7F8",
"<X c #EFEFF0",
/* pixels */
"                                                                                                                                                      ",
"                                                                          :X:X:X*X@X#X#X#X$X&X:X:X                                                    ",
"                                                                  :X:X&X{.T.,.f ; : % % % : ; c T.+X:X:X                                              ",
"                                                    :X:X:X  :X,X[.e.d > B H l.m.B.A.A.A.C.C.V.x.H t k W.=X:X                                          ",
"                                              :X&X XQ.i.T.}.!.v t H v.N.C.C.A.A.A.A.A.A.A.A.A.A.C.N.z.N v `.:X                                        ",
"                                          :X&Xw.; % S =.#.B B v.C.C.C.A.C.C.A.A.A.A.A.A.A.A.A.A.A.C.A.A.x.t w.:X:X                                    ",
"                                        :X}.a u x.A.A.A.A.A.A.A.C.C.A.A.A.A.A.A.A.A.A.A.A.A.A.A.A.A.A.A.C.M.N z s.{.:X:X                              ",
"                                      :X{.% H A.A.A.A.A.A.A.A.A.A.C.A.A.A.A.A.A.A.A.A.A.A.A.A.A.A.A.A.A.C.A.C.v.A , s `.=X                            ",
"                                      OX- $.A.A.A.A.A.A.A.A.A.A.A.A.A.A.C.A.A.A.A.A.A.A.A.A.A.A.A.A.A.A.A.A.A.A.A.A.c.N +..X:X                        ",
"                                    :X3.Z A.A.A.A.A.A.A.A.A.A.A.C.V.m.x.x.M.A.A.A.A.A.A.A.A.A.A.A.A.A.A.A.A.A.A.A.A.A.A.J a +X:X                      ",
"                                    oX% C.A.A.A.A.A.A.A.A.A.C.A.A.A.C.B.b.H u J M.C.A.A.C.A.C.C.A.A.A.A.A.A.A.A.A.A.A.A.C.v.q +X                      ",
"                                  :X4.H A.A.A.A.A.A.A.V.c.-.#.x.M.A.A.C.C.C.N.$.r J C.A.C.m.-.z.M.A.A.A.A.A.A.A.A.A.A.A.A.A.H ,.:X                    ",
"                                  =Xf m.A.A.A.A.A.A.A.A.A.m.#.B 1 B x.C.C.C.A.A.b., D A.A.A.C.J u b.A.A.A.A.A.A.A.A.A.A.A.A.N.t oX                    ",
"                                  XX> A.A.A.A.A.A.A.A.A.A.A.A.A.C.z.u 1 b.A.C.C.C.C.t D A.A.A.A.x.+ v.A.A.A.A.A.A.A.A.A.A.A.A.#.3.:X                  ",
"                                :X_.Z A.A.A.A.A.A.A.A.A.A.A.A.A.C.A.C.l.1 l.C.C.C.A.b.< b.A.A.A.C.u C C.A.A.A.A.A.A.A.A.A.A.A.v.q :X                  ",
"                                :Xa.#.A.A.A.A.A.A.A.Z.Z.A.A.A.A.C.A.C.C.M.N x.C.A.A.C.J C A.A.A.C.x.1 C.A.A.A.A.A.A.A.A.A.A.C.M.+ ,X                  ",
"                                :Xw.z.A.A.A.A.A.n.< B Z S H n.A.A.A.A.A.A.N.V M.A.A.C.N.> B.A.A.C.b.r C.A.A.A.A.A.A.A.A.A.A.A.B.$ *X                  ",
"                                :Xw.$.A.A.A.A.A.B #.C.A.A.V.B x.A.A.A.A.A.A.N.@.N.A.A.A.Z z.A.A.A.b.B C.A.A.A.A.A.A.A.A.A.A.A.M.+ =X                  ",
"                                :XE.J A.A.A.A.M.t N.A.A.A.A.N.B x.A.A.A.A.A.A.m.b.A.A.A.n.H A.A.A.$.$.C.A.A.A.A.A.A.A.A.A.A.A.n.: :X                  ",
"                                :X_.N C.A.A.A.-.B A.A.A.v.n.A.N.N A.A.A.A.A.A.A.m.A.A.A.A.*.A.A.A.C M.C.A.A.A.A.A.A.A.A.A.A.A.x.h :X                  ",
"                                :XR.X n.A.A.A.S H A.A.$.X ; e #.@.$.A.A.A.A.A.A.N.A.A.A.A.z.A.A.N.*.A.A.A.A.A.A.A.A.A.A.A.A.A.J 8.:X                  ",
"                                :X1.N u N.A.M.w #.C.A.D !.&X%X^.G , Z.A.A.A.A.A.A.A.A.A.A.m.A.A.v.N.A.A.A.A.A.A.A.A.A.A.A.A.C.N [.                    ",
"                                :Xl -.@ , C , s H C.C.J oX:X:X:X{.$ v.A.A.A.A.A.A.A.A.A.A.B.A.N.n.A.A.A.A.A.A.A.A.A.A.A.A.A.b.e &X                    ",
"                                ,X2 , .XXX`.#X#XZ A.C.$._.:X:X:X:XR.H A.A.A.A.A.A.A.A.A.A.A.A.C.A.A.A.A.A.A.A.A.A.A.A.A.A.A.B i.:X                    ",
"                                %X% y.:X&X=X:X*XF A.A.H {.:X:X:X:X+XZ A.A.A.A.x.=.z.v.M.C.A.A.A.A.A.A.A.A.A.A.A.A.A.A.A.A.x.s #X                      ",
"                            :X*XoX$ $X:XW.@X:X[.*.A.x.g =X:X:X:X:X8.C C.A.x., f >.^ a $ < C z.V.A.A.A.A.A.A.A.A.A.A.A.A.x.$ v &X                      ",
"                          :Xa.:.x 3.:X:XR.v e.K N.#.; `.:X:X:X:X#X$ n.x.t +.`.:X:X:X:X:XXX(.e.x : N H l.n.B.A.A.A.Z.x.N , H O OX                      ",
"                          *X<.=X.XR.:X:X&Xr.k N p ,..X:X:X:X:X:Xp.u N k ^.&X:X:X:X:X:X:X:X:X:X&XOX~.r.:.k y p u u p v ,.Z A.+ [.                      ",
"                          @X2.:X{.R.:X:X:X:X=X@X*X:X:X:X:X:X:X&X& & Q.=X:X:X:X:X:X:X:X:X:X:X:X:X:X:X:X:X=X*X@X#X@X*X:X*Xp N.w ~.,X                    ",
"                          :X3.+X`.s.:X:X:X:X:X:X:X:X:X:X:X:X:Xi.T.=X:X:X:X:X:X:X:X:X:X:X:X:X:X:X:X:X:X:X:X:X:X:X:X:X:X:X2.=.N ~.:X                    ",
"                          :X{.x ~.e.:X:X:X:X:X:X:X:X:X:X:X:X:X:X:X:X:X:X:X:X:X:X:X:X:X:X:X:X:X:X:X:X:X:X:X:X:X:X:X:X:X:X~.Z r `.:X                    ",
"                            :X`.* 2.:X:X:X&XR.:X:X:X:X:X:X:X:X:X:X:X:X:X:X:X:X:X:X:X:X:X:X:X:X:X:X:X:X:X:X:X:X:X:X:X:X:X@XN , i.*X:X                  ",
"                              :X[.z :X:X:X.Xv >..X:X:X:X:X:X:X:X:X:X:X:X:X:X:X:X:X:X:X:X:X:X:X:X:X:X:X:X:X:X:X:X:X:X:X:X:X1.k :.: |.:X                ",
"                                *X; &X:X:X`.R.<X4.^.:X:X:X:X:X:X:X:X:X:X:X:X:X:X:X:X:X:X:X:X:X:X:X:X:X:X:X:X:X:X:X:X:X:X:Xa.`.:X~.^ <X                ",
"                                :Xh oX:X:XXX3.:X*Xz @X:X:X:X:X:X:X:X:X:X:X:X:X:X:X:X:X:X:X@X[.:X:X:X:X:X:X:X:X:X:X:X:X:X:XXX:X:X.Xz &X                ",
"                                :Xa.E.:X:X:XW.3.3.p.:X:X:X:X:X:X:X:X:X:X:X:X:X:X:X:X:X=X!.<.x :X:X:X:X:X:X:X:X:X:X:X:X:X:X:X:X:Xi.w.:X                ",
"                                :XXX; :X:X:X:X:X:X:X:X:X:X:X:X:X:X:X:X:X:X:X:X:X:X:X.Xv `.:Xz :X:X:X:X:X:X:X:X:X:X:X:X:X:X:X:XXXO XX=X                ",
"                            :X=X$X:Xv _.:X:X:X:X:X:X:X:X:X:X:X:X:X:X:X:X:X:X:X:X:X:X<.{.:X.Xr.:X:X:X:X:X:X:X:X:X:X:X:X:X=X=X.Xz a.:X                  ",
"                          :X+X<.r.:X.Xd =X:X:X:X:X:X:X:X:X:X:X:X:X:X:X:X:X:X:X:X:X:X#Xv :.^ =X:X:X:X:X:X:X:X:X:X:X:X:X:X~.^.* R.:X                    ",
"                        ,XR.E.=X`.~.:Xa.,.:X:X:X:X:X:X:X:X:X:X:X:X:X:X:X:X:X:X:X:X:X:X:X=X:X:X:X:X:X:X:X:X:X:X:X:X:X:X8.: 4.#X,X                      ",
"                    :X#Xp.[.,X`.#Xr.&X=X4.u.&X:X:X:X:X:X:X:X:X:X:X:X:X:X:X:X:X:X:X:X:X:X:X:X:X:X:X:X:X:X:X:X:X:X:X=Xi.T.+X=X                          ",
"                  :X[.4.{.:X*X#XW.+XE.oXXX4.h #X:X:X:X:X:X:X:X:X:X:X:X:X:X:X:X:X:X:X:X:X:X:X:X:X:X:X:X:X:X:X:X:X*X^ r.:X                              ",
"                  @X2.^.w.=Xz r._.:Xp.v >.>.~.d 2.{.:X:X:X:X:X:X:X:X:X:X:X:X:X:X:X:X:X:X:X:X:X:X:X:X:X:X:X:X&XT.- W.:X                                ",
"                  :Xp.|.t.@Xw.. X $X&X>._.e.w.:XW.s s T..X*X:X:X:X:X:X:X:X:X:X:X:X:X:X:X:X:X:X:X:X:X:X:X@X!.* x .X:X                                  ",
"                    =Xu.@X{.; O >.:X^.}.,X*Xz |.:X=X|.p.# O.;.|.:X:X:X:X:X:X^.1.!.:X:X:X:X:X:X:X:XOXR._ @ z [.=X*X                                    ",
"                    :X`.Q.:X*Xa.d :X%Xw.3.%Xu.a OX:X:XXX%.Z.Z.@.q.O.&.;.s.7.z.A.*.>.3.8.q.4.>.h : . k R.OX,X<X                                        ",
"                      :Xs.*X:X:Xw.:X=XT.a.!.^.i.3 ~._.e n.A.A.x.S A.A.A.@.$.C.A.M.j o.} | } ....} R * 1.%X:X                                          ",
"                        *Xs.=X:X*X{.w.'.E.~.@X! o.R 8 j Z.A.A.H z.A.A.A.n.H C.A.A.l U.U.U.U.U.U.U.U.L.Q h `.:X                                        ",
"                        :X!.`.=XR.4.h p.{.+X9.L.U.U.U.~ Z.A.A.$.J C.A.A.$.#.A.A.A.l U.U.U.U.U.U.U.U.U.U.| 7 %X                                        ",
"                          :Xe.2.@X&Xa E.9.! I.U.U.U.U.) x.A.A.M.2 F H A 2 V.A.A.V.j U.U.U.U.U.U.U.U.P.U.U.Q u.:X                                      ",
"                            *X=X  :XR.6 Y.U.U.U.U.U.U.{ 3 F V ~ P G.k.k.h.g %.-.V o.U.U.U.U.U.X.( / X.U.U.L.; :X                                      ",
"                                    :Xd } U.U.U.U.U.U.8 } L.U.{ h.F.F.F.F.M ..{ X.U.U.U.U.U.' h 5.`.[ P.U.L.@ =X                                      ",
"                                    :XoX= o.U.U.U.U.R 7 U.U.U.R G.F.F.F.F.n U.U.U.U.U.U.U.| d *X:X4.`.! U.L.@ :X                                      ",
"                                      :X[.j R ' ) 7 & Q U.U.P.0 F.F.F.F.F.m U.U.U.U.U.U.U.8 {.:X:XoX(.e.L...h :X                                      ",
"                                        :X&X`.a.Q.XX,.{ U.U.U.M F.F.F.F.F.m U.U.U.U.U.U.U.7 XX:X:X:Xa.+X{ E Q.=X                                      ",
"                                            :X:X,X:Xs ..U.U.P.T F.F.F.F.F.m U.U.U.U.U.U.U.' c *X:X:Xa.=X# c =X                                        ",
"                                                  :X= X.U.U.P.P F.F.F.F.F.m P.U.U.U.U.U.U.U.@ a s.^.:.q 2.*X                                          ",
"                                                  &X4 P.U.U.I.j.F.F.F.F.F.m U.U.U.U.U.U.U.U.= ~._.W.~.OX,X                                            ",
"                                                  +X7 U.U.U. .b d.I U f.S.b ] )  .P.U.U.U.U.8 _.:X,X=X=X                                              ",
"                                                  {.9 P.I.] U J.K.K.K.K.J.J.J.H.S.Y ] I.U.U.' p.:X    =X:X                                            ",
"                                                  `.W I.9 L g.I L T Y n n n _ _ _ ` 0 9 ' I...,.:X  :Xr.{.                                            ",
"                                                :X~.W ' { ....Y.U.U.U.U.U.U.U.U.U.U.U.U.o.Q L.h *X:X!.* s.:X                                          ",
"                                                :XW.4 o.U.U.U.U.U.U.U.U.U.U.U.U.U.U.U.U.U.P.W 5 e.x E X.4.:X                                          ",
"                                                :XE.E P.U.U.U.U.U.U.U.P.P.P.P.U.U.U.U.U.U.U.I.7 @ o.P.} i.:X                                          ",
"                                                :XE.' U.U.P.U.U.U.U.L.5 # @ 8 U.U.U.U.U.U.U.U.{ X 7 ( # oX=X                                          ",
"                                                :XW.Q U.U.o.I.U.U.U.X.3 &XOX* U.U.U.U.{ } U.U.L.= {._.OX,X                                            ",
"                                                :X^.W L.! Q.0.{ Y.P.L.3 :X=Xd X.U.U.' !.^.[ X.P.6 +X:X                                                ",
"                                                :X`.7 / #X:X:XOX9.' X.4 :X:Xp.) P.! [.:X:X&Xa.( W Q.:X                                                ",
"                                                :XQ.h OX:X:X:X:X:X[./ O :X:X.X8 ] '.:X:X:X:X:XW.& :.:X                                                ",
"                                              :X`.O x R.OX:X:X:X:XXX& . :X  =X@ ^ %X:X:X:X:Xe.X . O _.:X                                              ",
"                                            :XE.@ X . . O a.:X:X:X,.. . =X  :X:.. ; #X:X:X^.X . . . X v `.=X                                          ",
"                                          :X[.X . . . . X O +X:X:X@ . X *X  :Xs.. . r.:X:X<.. . . . . . X E.:X                                        ",
"                                          <X_ . . . X X . X o - $ . . o =X    .Xo X o k k o . . . . . . . c :X                                        ",
"                                          :X_.4.w.u.a.R.W.^.~._.`.[.{.+X,X    :XoX_.(.~.~.~.^.~.~.~.^.~.~.#X=X                                        ",
"                                            :X:X:X=X,X=X=X=X=X=X=X&X              =X=X=X=X=X,X=X=X=X=X=X=X                                            "
};
