/* XPM */
static char *result[] = {
/* columns rows colors chars-per-pixel */
"75 75 229 2 ",
"   c #393143",
".  c #3B3946",
"X  c #3D3748",
"o  c #3A3C4A",
"O  c #423545",
"+  c #4A3744",
"@  c #413749",
"#  c #453A4B",
"$  c #4A3D4D",
"%  c #473A46",
"&  c #563C48",
"*  c #493F50",
"=  c #623E47",
"-  c #3C414D",
";  c #394452",
":  c #394D59",
">  c #39525D",
",  c #3A5A63",
"<  c #3B636A",
"1  c #3B7377",
"2  c #3A777B",
"3  c #3A6C73",
"4  c #44474E",
"5  c #59454B",
"6  c #4A4553",
"7  c #5B4551",
"8  c #524C5A",
"9  c #574854",
"0  c #465A57",
"q  c #455656",
"w  c #59555B",
"e  c #6B424D",
"r  c #68474B",
"t  c #744447",
"y  c #7B4648",
"u  c #774B4B",
"i  c #6B534D",
"p  c #795D4F",
"a  c #74524E",
"s  c #674A54",
"d  c #7A4853",
"f  c #66535A",
"g  c #76555D",
"h  c #7B5758",
"j  c #48645C",
"k  c #54625E",
"l  c #7A6858",
"z  c #6C625C",
"x  c #5D5664",
"c  c #605A68",
"v  c #655A63",
"b  c #735E63",
"n  c #4B6D61",
"m  c #4C7465",
"M  c #567968",
"N  c #4C6F6C",
"B  c #69636B",
"V  c #7B6569",
"C  c #786466",
"Z  c #7C7468",
"A  c #6D6773",
"S  c #7C767A",
"D  c #6A7072",
"F  c #894B49",
"G  c #844948",
"H  c #9A524B",
"J  c #934E58",
"K  c #875A55",
"L  c #99535A",
"P  c #8D4F4B",
"I  c #AD574C",
"U  c #A7584D",
"Y  c #AD5A54",
"T  c #886854",
"R  c #9E6858",
"E  c #946756",
"W  c #997759",
"Q  c #8F745A",
"!  c #B76955",
"~  c #AA7A5B",
"^  c #AE715B",
"/  c #835C62",
"(  c #975C60",
")  c #AB5D62",
"_  c #826B6D",
"`  c #8B6467",
"'  c #9B6A6B",
"]  c #93676A",
"[  c #827762",
"{  c #8E7473",
"}  c #877D78",
"|  c #977674",
" . c #8A6D71",
".. c #A66367",
"X. c #B66769",
"o. c #A87372",
"O. c #B57977",
"+. c #A3706E",
"@. c #C35F4E",
"#. c #C7614E",
"$. c #CC614E",
"%. c #CE6751",
"&. c #D46D55",
"*. c #D06751",
"=. c #C7775C",
"-. c #D97659",
";. c #DE7D5D",
":. c #D3765A",
">. c #C4716F",
",. c #C77E61",
"<. c #C57A76",
"1. c #C06E6D",
"2. c #52826B",
"3. c #56886E",
"4. c #568D71",
"5. c #579273",
"6. c #5B9E79",
"7. c #589776",
"8. c #45887D",
"9. c #5CA37B",
"0. c #5DA87E",
"q. c #608A73",
"w. c #BC8B5E",
"e. c #978867",
"r. c #9C906C",
"t. c #99877A",
"y. c #A3847E",
"u. c #BB827D",
"i. c #A7966E",
"p. c #B5A777",
"a. c #ADA073",
"s. c #C78D5F",
"d. c #E1825F",
"f. c #D98964",
"g. c #C5827C",
"h. c #CD8E61",
"j. c #E38561",
"k. c #E58B64",
"l. c #E88C65",
"z. c #EA9167",
"x. c #EC9368",
"c. c #E79067",
"v. c #C8B67B",
"b. c #DFBD79",
"n. c #D8B475",
"m. c #D3AC70",
"M. c #E1C27C",
"N. c #DFC07B",
"B. c #3B7F80",
"V. c #7B7881",
"C. c #867B82",
"Z. c #3B8484",
"A. c #3F8985",
"S. c #438C84",
"D. c #459185",
"F. c #4D9A84",
"G. c #549F81",
"H. c #55A584",
"J. c #5CAD83",
"K. c #57A885",
"L. c #5EB184",
"P. c #62AA81",
"I. c #62B584",
"U. c #69BB89",
"Y. c #71C18E",
"T. c #7CC994",
"R. c #89848A",
"E. c #928E97",
"W. c #938E92",
"Q. c #AB8B84",
"!. c #A68881",
"~. c #B58C84",
"^. c #B5938A",
"/. c #BA978C",
"(. c #A99A8C",
"). c #9E9AA3",
"_. c #A29EA6",
"`. c #A8A6AB",
"'. c #B4B0AF",
"]. c #B5A796",
"[. c #CB8D85",
"{. c #C48B83",
"}. c #CC9489",
"|. c #C39E91",
" X c #CF9D90",
".X c #D49C90",
"XX c #CAA495",
"oX c #D9A495",
"OX c #D3AB9B",
"+X c #DAAD9C",
"@X c #D2A293",
"#X c #D5B594",
"$X c #E0B09E",
"%X c #DEB3A1",
"&X c #D8B8A8",
"*X c #C2AEA2",
"=X c #E2B6A3",
"-X c #E7BBA6",
";X c #E7BDA8",
":X c #83CC99",
">X c #8AD29D",
",X c #94D9A3",
"<X c #D2C38A",
"1X c #E6CD83",
"2X c #EDDE8E",
"3X c #E8D287",
"4X c #EDDF92",
"5X c #F0E29B",
"6X c #D8D1AF",
"7X c #F2E6A7",
"8X c #F3E9B0",
"9X c #E5CCA9",
"0X c #BDBAC0",
"qX c #C2BFC5",
"wX c #C5C5C6",
"eX c #CCCCCC",
"rX c #D1D0D1",
"tX c #DCDBD9",
"yX c #D7D5CC",
"uX c #F5DAC4",
"iX c #EAE7DA",
"pX c #F5F0CB",
"aX c #EDECEE",
"sX c gray89",
"dX c #F3F3F3",
"fX c #FEFEFE",
"gX c #FAF5E1",
"hX c #E0DFE1",
"jX c None",
/* pixels */
"jXjXjXjXjXjXjXjXjXjXjXjXjXjXjXjXjXjXjXjXjXjXjXjXjXjXjXjXjXjXjXjXjXjXjXjXjXjXjXjXjXjXjXjXjXjXjXjXjXjXjXjXjXjXjXjXjXjXjXjXjXjXjXjXjXjXjXjXjXjXjXjXjXjXjX",
"jXjXjXjXjXjXjXjXjXjXjXjXjXjXjXjXjXjXjXjXjXjXjXjXjXjXjXjXjXjXjXjXjXjXjXjXjXjXjXjXjXjXjXjXjXjXjXjXjXjXjXjXjXjXjXjXjXjXjXjXjXjXjXjXjXjXjXjXjXjXjXjXjXjXjX",
"jXjXjXjXjXjXjXjXjXjXjXjXjXjXjXjXjXjXjXjXjXjXjXjXjXjXjXjXjXjXjXjXjX# 6 v c f c v f k w f v jXjXjXjXjXjXjXjXjXjXjXjXjXjXjXjXjXjXjXjXjXjXjXjXjXjXjXjXjXjX",
"jXjXjXjXjXjXjXjXjXjXjXjXjXjXjXjXjXjXjXjX@   % 4 6 jXjXjXjXjXjXjX@   p.pXgXaXiXiX6XuX8XpX} jXjXjXjX8 @ jXjXjXjXjXjXjXjXjXjXjXjXjXjXjXjXjXjXjXjXjXjXjXjX",
"jXjXjXjXjXjXjXjXjXjXjXjXjXjXjXjXjXjXjXjX.   w.M.pXA jXjXjXjXjXjXO   p.2Xn.i 4 $ $ p.2X2XZ $ jXjX# '.C.jXjXjXjXjXjXjXjXjXjXjXjXjXjXjXjXjXjXjXjXjXjXjXjX",
"jXjXjXjXjXjXjXjXjXjXjXjXjXjXjXjXjXjXjXjX    ~ 3XgXA O O X X X       p.n.l u ..X.~.l a.pXS   @     a.[ # jXjXjXjXjXjXjXjXjXjXjXjXjXjXjXjXjXjXjXjXjXjXjX",
"jXjXjXjXjXjXjXjXjXjXjXjXjXjXjXjXjXjXjXjX.   ~ M.pXA   P =.=.s.,.r   p.n.a / ) <.[.s i.pXS K s.! e ].R.# jXjXjXjXjXjXjXjXjXjXjXjXjXjXjXjXjXjXjXjXjXjXjX",
"jXjXjXjXjXjXjXjXjXjXjXjXjXjXjXjXjXjXjXjX.   e.1X7Xz   & r a u a +   p.m.i ( ) ..X.s i.7XZ 5 a r + '.R.@ jXjXjXjXjXjXjXjXjXjXjXjXjXjXjXjXjXjXjXjXjXjXjX",
"jXjXjXjXjXjXjXjXjXjXjXjXjXjXjXjXjXjXjXjXX   ~ 1X2Xz [ r.r.r.r.Q 5   p.m.i K X.) <.s i.4XZ l r.Q 5 (.} $ jXjXjXjXjXjXjXjXjXjXjXjXjXjXjXjXjXjXjXjXjXjXjX",
"jXjXjXjXjXjXjXjXjXjXjXjXjXjXjXjXjXjXjXjXX   w.M.2Xi.<X2X2X2X2XM.e.Z v.N.W u K / ] ` p.2Xa.p.2XM.i.v.Z $ jXjXjXjXjXjXjXjXjXjXjXjXjXjXjXjXjXjXjXjXjXjXjX",
"jXjXjXjXjXjXjXjXjXjXjXjXjXjXjXjXjXjXjXjX@   ~ N.M.3X1X1X1X1X1X1X3X3XM.M.m.T 5 5 r ~ b.1X1X1X1X1XM.M.l * jXjXjXjXjXjXjXjXjXjXjXjXjXjXjXjXjXjXjXjXjXjXjX",
"jXjXjXjXjXjXjXjXjXjXjXjXjXjXjXjXjXjXjXjXX   W w.w.w.w.w.w.w.w.w.w.w.w.s.w.w.w.w.w.w.w.w.w.w.w.w.w.s.i * jXjXjXjXjXjXjXjXjXjXjXjXjXjXjXjXjXjXjXjXjXjXjX",
"jXjXjXjXjXjXjXjXjXjXjXjXjXjXjXjXjXjXjX* # @ @ X 4 4 $ $ # % . # 4 4 $ @ @ 4 * $ 4   @ $ $ $ # X 4 4 % # jXjXjXjXjXjXjXjXjXjXjXjXjXjXjXjXjXjXjXjXjXjXjX",
"jXjXjXjXjXjXjXjXjXjXjXjXjXjXjXjXjXjX* wXaXaXwXw '.dXaXaXwXx E.hXaXaXaXA W.tXaXaXaXS `.aXaXaXeXA ).aXaXrXA jXjXjXjXjXjXjXjXjXjXjXjXjXjXjXjXjXjXjXjXjXjX",
"jXjXjXjXjXjXjXjXjXjXjXjXjXjXjXjXjXjX@ `.rXrXwXx `.rXrXrXwXx ).eXyXrXeXc E.eXrXrXeXA E.rXrXrXeXA W.rXrXeXA * jXjXjXjXjXjXjXjXjXjXjXjXjXjXjXjXjXjXjXjXjX",
"jXjXjXjXjXjXjXjXjXjXjXjXjXjXjXjXjXjX@ x x x x @ 8 c c c x @ 8 c c c v # 8 x c c x 4 8 x x x x 6 6 c c c 6 * jXjXjXjXjXjXjXjXjXjXjXjXjXjXjXjXjXjXjXjXjX",
"jXjXjXjXjXjXjXjXjXjXjXjXjXjXjXjXjXjX@                                                                     $ jXjXjXjXjXjXjXjXjXjXjXjXjXjXjXjXjXjXjXjXjX",
"jXjXjXjXjXjXjXjXjXjXjXjXjXjXjXjXjXjXjX    e y t y +   s g g g g g g g g g g g g g g g g g g g g g g $   @ jXjXjXjXjXjXjXjXjXjXjXjXjXjXjXjXjXjXjXjXjXjX",
"jXjXjXjXjXjXjXjXjXjXjXjXjXjXjXjXjXjXjXX   I $.$.$.=   ' {.o.' ' ] ] ' ' ] ] ' ' ] ' ' ' ] ' ' ' ' u.g   jXjXjXjXjXjXjXjXjXjXjXjXjXjXjXjXjXjXjXjXjXjXjX",
"jXjXjXjXjXjXjXjXjXjXjXjXjXjXjXjXjXjXjXX + I *.*.&.&   ' oXV X 6 O       + + & & $ & $ O   * #   $ Q.V   jXjXjXjXjXjXjXjXjXjXjXjXjXjXjXjXjXjXjXjXjXjXjX",
"jXjXjXjXjXjXjXjXjXjXjXjXjXjXjXjXjXjX%   I d.z.x.x.r   ' +X-XV '.A       d X.1.1.1.>.>.g   _.S X t.=X_   jXjXjXjXjXjXjXjXjXjXjXjXjXjXjXjXjXjXjXjXjXjXjX",
"jXjXjXjXjXjXjXjXjXjXjXjXjXjXjXjXjXjX@ O I *.j.x.x.r   ' +X;X%Xb @   O = X.>.1.>.[.<.[.<.s # X y.=X=XV   jXjXjXjXjXjXjXjXjXjXjXjXjXjXjXjXjXjXjXjXjXjXjX",
"jXjXjXjXjXjXjXjXjXjXjXjXjXjXjXjXjXjX.   I d.x.x.x.f.5 O /.-X-X{.O.= O d X.>.>.>.}.oX@Xg.e { @X%X;X .% K h jXjXjXjXjXjXjXjXjXjXjXjXjXjXjXjXjXjXjXjXjXjX",
"jXjXjXjXjXjXjXjXjXjXjXjXjXjXjXjXjXjX%   I j.x.x.x.c.e   9 f f 7 & O O d X.>.>.>.}.[.}.g.s 6 f s f $   E p $ jXjXjXjXjXjXjXjXjXjXjXjXjXjXjXjXjXjXjXjXjX",
"jXjXjXjXjXjXjXjXjXjXjXjXjXjXjXjXjXjX@   I j.x.x.x.x.^ 5         X     d ) X.>.>.<.<.[.g.d         K ^ h.s.a jXjXjXjXjXjXjXjXjXjXjXjXjXjXjXjXjXjXjXjXjX",
"jXjXjXjXjXjXjXjXjXjXjXjXjXjXjXjXjXjX@ O I j.x.x.x.x.x.^ E E K E J + X d ) X.>.>.>.>.g.<.s d E K K ,.l.x.c.K $ jXjXjXjXjXjXjXjXjXjXjXjXjXjXjXjXjXjXjXjX",
"jXjXjXjXjXjXjXjXjXjXjXjXjXjXjXjXjXjX@   I j.x.x.x.x.x.x.x.x.^ ^ H &   G ) X.X.1.>.>.1.X.= h ^ f.x.x.x.x.z.K # jXjXjXjXjXjXjXjXjXjXjXjXjXjXjXjXjXjXjXjX",
"jXjXjXjXjXjXjXjXjXjXjXjXjXjXjXjXjXjX@ O I l.x.x.x.x.x.x.x.f._ x x *   d L L L X.>.>.) L & 8 c +.k.x.x.z.z.K $ jXjXjXjXjXjXjXjXjXjXjXjXjXjXjXjXjXjXjXjX",
"jXjXjXjXjXjXjXjXjXjXjXjXjXjXjXjXjXjX@ O I j.x.x.x.x.x.x.z.r '.aXhXV.  d L L X.1.1.1.1.L & ).aXV.R x.x.x.x.K @ jXjXjXjXjXjXjXjXjXjXjXjXjXjXjXjXjXjXjXjX",
"jXjXjXjXjXjXjXjXjXjXjX# # @ # @ @ @   O =.x.x.x.x.x.x.x.x.r % # +       = ) J L L L L =   X @   R x.x.x.z.K # jXjXjXjXjXjXjXjXjXjXjXjXjXjXjXjXjXjXjXjX",
"jXjXjXjXjXjXjXjXjX@ # XX%X%X%X%X%Xu.5   Y %.j.&.l.x.x.x.z.r               O + O O O O           R x.x.x.z.K   jXjXjXjXjXjXjXjXjXjXjXjXjXjXjXjXjXjXjXjX",
"jXjXjXjXjXjXjX@ @ /.XX-X-X-X-X-X=X[.7   I d.z.l.x.x.x.x.x.! I I I I I I =             G I I I I :.x.x.x.c.K g g X jXjXjXjXjXjXjXjXjXjXjXjXjXjXjXjXjXjX",
"jXjXjXjXjXjX# # o.=X-X-X-X-X-X-X=X[.9   & u g #.j.x.x.x.z.j.j.f.;.;.;.;.X.I U H U H H &.j.j.j.d.l.x.x.d.:.u / ~.v O jXjXjXjXjXjXjXjXjXjXjXjXjXjXjXjXjX",
"jXjXjXjXjXjX@ # XX-X-X-X-X-X-X-X=X] @ R.W.)._./ =.^ K K K f.x.x.x.x.x.x.;.;.;.;.;.;.;.j.x.x.x.x.x.x.x.j.U h O.%X_   jXjXjXjXjXjXjXjXjXjXjXjXjXjXjXjXjX",
"jXjXjXjXjXjX@ b &X;X-X-X-X-X-X-XQ.6 B tXsXdXdXB ! r   q j Q f.x.x.x.x.x.x.x.x.x.x.x.x.x.x.x.x.x.j.;.d.;.a ( .X;XQ.w @ jXjXjXjXjXjXjXjXjXjXjXjXjXjXjXjX",
"jXjXjXjXjXX O |.-X-X-X-X$X$X+XoXs   `.dXfXfXtXb P & 7 3.0.n R f.x.x.x.x.x.x.x.x.x.x.x.x.x.x.x.x.d.*.*.I a +.oX;X-X|   # jXjXjXjXjXjXjXjXjXjXjXjXjXjXjX",
"jXjXjXjXjXX   |.-X-X=X=X~.O.O.O.9 # `.dXfXaXB H & O /.C 3.0.n ~ j.j.l.;.l.l.l.l.j.l.l.j.l.l.l.l.l.&.I y T }.XXOXOX_   $ jXjXjXjX    O 4 7 jXjXjXjXjXjX",
"jXjXjXjXjX  @ |.-X-X[.O.&       X `.wXaXfXA       O /.[.w 5.:Xz U $.$.$.$.$.$.@.@.@.$.$.#.#.#.#.#.t     X @ $ # % O @ % @ % O @     p s.T # jXjXjXjXjX",
"jXjXjXjXjXX   |.-X[.s @         @ `.wXeXeXw         +.g.s 5.I.0 O O O O O O O O O O O O O + O O O       R f.f.k.f.f.f.f.f.&.! G     p T     X X # jXjX",
"jXjXjXjX#     |.;X{.5   3 2 2 o   6 6 8 8   2.6.9.9.w $ . 7.T.k                                     E :.f.x.x.x.x.x.x.x.x.-.-.&.t   p m.6XtXiXW.# jXjX",
"jXjX6 6 M o X |.-Xg 4 2.9.A.> . / ~.^./.*Xx 5.I.j 9.7.5.q 4.:Xk / ' ' ' ' ' ' +.' ' ' ' ' ' ' 7   T =.d.x.x.x.x.x.x.z.x.x.l.z.;.y   p b.5X7X7Xt.# jXjX",
"jX$ X , 6.-   |.=X8 . 6.F., . g O. ._ _ &X].D n - 5.I.I.5.j m t.}.] ~.oXoX] ~.oXoX' Q.oXoXoXoXb   H *.*.-.-.-.-.-.-.-.-.! ^ x.;.y   p b.M.n.n.Q # jXjX",
"jXX > Z.9.- @ |.=X9   6.S.;   +.] b g & |.uXv     5.K.J.L.q g XX-XQ.XX^.XX!.XX^.XXQ.|.-X-X-X;XC   = G F F F G G F F F F = R x.;.y   p b.p.T E p jXjXjX",
"jXo 2 Z.F.o O |.-X9 . 9.S.;   +.7 / ' 5 |.uXB ; o 5.A.K.I.m t.Q.+X|.OXv Q.|.OXV ^.|.OX|.^.^.OXV                           R x.;.y   p b.r.+ r i jXjXjX",
"jXX 3 2 1 .   |.-X9 . 6.A.;   +.g 8 7 9 XXuXB N 0 7.D.K.L.I.0   /.b ~.V ^.C ^.{ ^.b y.b + @ !.V   X o X # $ $ X * x x $   R z.;.y   p N.r.t -.R # jXjX",
"jX          X |.-X9 X 6.S.;   o.XX+X+X+X-XuXB 7.0.L.D.K.D.0.j . ^.V ^.=X%XV ^.%X%XV !.V J g Q.C   < Z., ( {.<.g `.dXdXE.  R z.;.y   p n.e.e :.E # jXjX",
"jXX           |.-X9 . 6.S.o   +.s # $ 4 XX-Xc 1 : 5.D.K.D.J.0.j ^.%X=Xb Q.%X-XV ^.%X=X%XV | ;XC   2.D.> ` <.C.g `._.'.E.  R x.;.y   p T .   + %     $ ",
"jXjXjXjXjX  X |.-XOX9 o 2 ;   o.7 ] o.7 |.uXv o   4.D.K.L.I.j y.=X_ ^.v Q._ ^.V Q._ Q.;XOX%X;XV   2.F., o..X) X * # 4 #   R x.;.y   p n.6X6X6XtXiXW.# ",
"jXjXjX# @   X |.-X-Xw   1 ;   o.o.s 7 % |.;Xv     4.J.L.I.I.j ^.;XC ^.XX+XC Q.XX+XC y.-X-XoX[.g   2.n o C.o.d ( ) o.Q.] = R x.;.y   p b.4X5X5X7X8X).4 ",
"jXjXjX@ n X   |.-X.X' # ; , o s o.' ] ] {.{ M 3.4 5.I.I.I.I.0 ^.-X/.OX| /./.OX!././.@X-X-X=X[.f   2.j B XX_ e X.>.[.}.X.= ..x.;.t   p b.2X2X2X2X7Xt.% ",
"jXjXjX6 n X   ~.=XoXg.$   3 o   d g b g / % 5.I.3.0.I.I.L.L.4.Z { { { 6 C { } 9 C { ~..X.X.Xg.a   0 Z /.;X .= X.>.g.<.) e R x.;.y   p b.2X2X2X2X5Xt.% ",
"jXjXjXjXO     /  XoXu.5   2 , .           q 6.I.I.I.I.I.Y.U.7.;   w l Z l S V Z V.V. .] ] ] ] 5     V XX;X .= X.X.X.>.X.= R x.;.t   p b.2X2X2X2X7XW.# ",
"jXjXjXjX$       ] o.+.%   7.A.;   8 w 8 X 7.I.I.I.I.I.I.:XY.0     a.N.v.v.6X<X6XyXiXR.+ 5 5 5 5 & O   _ +XZ = ..) ) X.) d R x.;.y   p b.2X3X1X3X3Xe.# ",
"jXjXjXjXjXX   .         o 7.S.; @ `.wXwXB 5.L.I.I.I.U.I.I.I.0     W i . + + @ % # p.[ H :.k.z.z.-.t o o y.{ d J J J J J = ..x.;.y   p n.m.w.s.w.s.p # ",
"jXjXjXjXjX    3 -   . . 9.0.S.; X `.wXaXdXA 7.I.I.I.>XY.>XY.0     W i H #.#.! #.t '.R.H t P d.z.-.t m j y.=X{   O O O     R x.;.y   p T .   X X .   $ ",
"jXjXjXjXjXX   1 9.0.0.0.0.L.S.; X `.eXdXfXA 7.L.I.I.>X,X,XY.0     W r O ^ l.y +   p.Z H #.#.%.%.%.t 2.m y.-X%XC ).E._.R.  R x.;.t   p K           # jX",
"jXjXjX- o   5.A.J.I.I.I.I.L.L.B.o 8 `.dXfXhXD 6.0.Y.>XT.>XY.q     W i R j.x.h.! = p.l O + & + & & + 2.m !.-X;XV `.aXaXE.  R c.;.y   p m.Z = ! K # jXjX",
"jXjX@ .     9.L.L.I.I.I.I.Y.0.A.;   `.dXhXdXrXD 0.I.>XY.Y.0.0     R i r i a a t + p.e.              2.n y.;X;XV `.fXfXE.  R x.;.t   p b.e.+ u d jXjXjX",
"jX$   > m m 0.I.I.G.L.I.I.I.Y.0.3 X A qXeXtXtXc 5.I.Y.0.0.Y.j     i.e.T T T T T E v.Z : , < , ;   0 6.n | .X Xo.C.E.E.c   R x.;.y   p b.<X(.(.q.jXjXjX",
"jX. > B.L.L.I.K.L.G.J.L.I.I.L.L.F.j : G.E.R.R.N 9.I.Y.Y.5.2., > . Z W E W T W E R e.M 1 8.B.Z.:   0 2.q s / ` ` =         R x.;.y   p N.7X8X8X(.# jXjX",
"jXo 2 Z.F.K.K.A.L.L.L.L.I.L.I.I.I.9.D.n q : 0 9.I.U.T.Y.n . < 8., - : : - - ; ; ; : 1 D.D.A.A.:   & r r r r r r r r r 5 + R z.;.y   p N.3X3XM.e.@ jXjX",
"jXo 1 2 2 2 Z.Z.K.A.K.L.L.A.L.I.I.U.0.I.0.Y.0.I.0.0.0.0.0.j 4 2.8.A.S.8.8.S.A.S.A.D.9.L.L.L.D.:   ^ z.z.x.x.x.x.x.x.x.;.J ^ z.;.t   p m.m.w.w.K # jXjX",
"jXX   X   o 1 Z.Z.Z.Z.B.B.A.L.L.I.0.0.0.I.I.L.L.D.B.: . 4.L.:Xk 5.0.0.0.0.0.0.0.0.0.L.0.I.H.Z.:   ^ z.x.x.x.x.x.x.x.x.x.z.x.z.;.y   p T . . @   $ jXjX",
"jX            o 2 Z.B.; - 2 L.I.0.> 8.A.S.S.Z.Z.: o   Q i 7.>Xn . - . - - - - - o . - - 4.L.j   y d.-.d.x.x.x.x.x.x.x.x.x.x.x.;.y . p h.p t y # jXjXjX",
"jXjXjXjXjXjX@   o o o     2 J.I.J.4 o o ; o o o     ] O.s 5.U.0                     , 1 G.I.j   F %.$.;.x.x.x.x.x.x.x.x.x.;.;.;.y   p h.Q K T + jXjXjX",
"jXjXjXjXjXjXjXjXX         1 J.I.0.q       .       . ~.[.s 5.T.k * jXjXjXjXjXjX@     < F.L.I.0   + U $.*.&.&.&.&.&.&.&.-.&.*.*.U +   l h.T + r jXjXjXjX",
"jXjXjXjXjXjXjXjXjXjX*     1 K.I.m o     > m M 2.; . /.' M 0.4.w jXjXjXjXjXjXjX#     , H.I.I.0     = t t t t y y t t t t t t t &     a h.T @ jXjXjXjXjX",
"jXjXjXjXjXjXjXjXjXjXjX  > S.L.I.q #     1 J.L.I.:   V M 6.3.0 jXjXjXjXjXjXjXjXjX    < H.I.I.j   @                                   5 T i # jXjXjXjXjX",
"jXjXjXjXjXjXjXjXjXjX@ : S.P.I.5.q jX@ X 1 K.I.I.q     m 4.8 jXjXjXjXjXjXjXjXjXjX.   < H.L.I.j   $ * # # @ # # # # # # # # # # #         X jXjXjXjXjXjX",
"jXjXjXjXjXjXjXjXjXjX$ N P.P.P.q jXjXX   1 K.I.9.4 @ @ # + jXjXjXjXjXjXjXjXjXjXjX    < H.I.J.q X jXjXjXjXjXjXjXjXjXjXjXjXjXjXjXjX* # @ @ $ jXjXjXjXjXjX",
"jXjXjXjXjXjXjXjXjXjXjXjXjXjXjXjXjXjX@   1 H.J.q   jXjXjXjXjXjXjXjXjXjXjXjXjXjXjX.   , H.L.n   jXjXjXjXjXjXjXjXjXjXjXjXjXjXjXjXjXjXjXjXjXjXjXjXjXjXjXjX",
"jXjXjXjXjXjXjXjXjXjXjXjXjXjXjXjXjXjX@ X 1 Z.Z.;   jXjXjXjXjXjXjXjXjXjXjXjXjXjXjXX   < Z.Z.,   jXjXjXjXjXjXjXjXjXjXjXjXjXjXjXjXjXjXjXjXjXjXjXjXjXjXjXjX",
"jXjXjXjXjXjXjXjXjXjXjXjXjXjXjXjXjXjX.   1 Z.: X jXjXjXjXjXjXjXjXjXjXjXjXjXjXjXjX    < Z., . # jXjXjXjXjXjXjXjXjXjXjXjXjXjXjXjXjXjXjXjXjXjXjXjXjXjXjXjX",
"jXjXjXjXjXjXjXjXjXjXjXjXjXjXjXjXjXjXX   ; ; . jXjXjXjXjXjXjXjXjXjXjXjXjXjXjXjXjXX   o ;   # jXjXjXjXjXjXjXjXjXjXjXjXjXjXjXjXjXjXjXjXjXjXjXjXjXjXjXjXjX",
"jXjXjXjXjXjXjXjXjXjXjXjXjXjXjXjXjXjX          jXjXjXjXjXjXjXjXjXjXjXjXjXjXjXjXjX            jXjXjXjXjXjXjXjXjXjXjXjXjXjXjXjXjXjXjXjXjXjXjXjXjXjXjXjXjX"
};
