/* XPM */
static char *_c70913fd91840e1c3dc7bf37aa0e4f2dGR6aWeKMy9c1eHR[] = {
/* columns rows colors chars-per-pixel */
"75 75 186 2 ",
"   c None",
".  c #9F2C19",
"X  c #A12E19",
"o  c #A6301B",
"O  c #AD341C",
"+  c #B2361C",
"@  c #B6381C",
"#  c #BC3B1D",
"$  c #BE3D20",
"%  c #C33E1E",
"&  c #C03D20",
"*  c #BC421D",
"=  c #B64A1B",
"-  c #BC4C1C",
";  c #B4421E",
":  c #BF4E20",
">  c #BF4D2F",
",  c #BF5030",
"<  c #BE5B3E",
"1  c #C6401E",
"2  c #CD431E",
"3  c #C34D1D",
"4  c #CD4B1E",
"5  c #D3461E",
"6  c #D6491F",
"7  c #DA491F",
"8  c #C6511D",
"9  c #CB541E",
"0  c #CE5A1E",
"q  c #D4561F",
"w  c #DB521F",
"e  c #D5591E",
"r  c #DC5A1E",
"t  c #E34E1F",
"y  c #E35D1F",
"u  c #E95E1E",
"i  c #EB511F",
"p  c #F35F1E",
"a  c #D2661D",
"s  c #DA6A1F",
"d  c #D8641F",
"f  c #DF731F",
"g  c #EC611F",
"h  c #F3621E",
"j  c #E2751F",
"k  c #E9791F",
"l  c #F5781C",
"z  c #C34322",
"x  c #C94421",
"c  c #C44C23",
"v  c #C34B2C",
"b  c #C94D2B",
"n  c #CB4A27",
"m  c #D54720",
"M  c #DB4920",
"N  c #D54D28",
"B  c #C75420",
"V  c #CF5521",
"C  c #CB5727",
"Z  c #D35320",
"A  c #DD5320",
"S  c #D45B20",
"D  c #DE5A21",
"F  c #D7502A",
"G  c #DB542C",
"H  c #D8592C",
"J  c #C34E32",
"K  c #C45134",
"L  c #C95030",
"P  c #C2563B",
"I  c #C35A3E",
"U  c #CB5B3D",
"Y  c #D35431",
"T  c #D15E3F",
"R  c #E24D20",
"E  c #E45120",
"W  c #ED5320",
"Q  c #E35C21",
"!  c #EC5C21",
"~  c #E1592E",
"^  c #F15520",
"/  c #F25B22",
"(  c #D56622",
")  c #D96121",
"_  c #DD6C21",
"`  c #D96528",
"'  c #DF7222",
"]  c #DB6336",
"[  c #ED6221",
"{  c #E46D20",
"}  c #ED6820",
"|  c #E46229",
" . c #EB662B",
".. c #F46522",
"X. c #F46C22",
"o. c #E37421",
"O. c #EA7522",
"+. c #E67920",
"@. c #EC7C22",
"#. c #F57322",
"$. c #F67D22",
"%. c #E66532",
"&. c #E66D35",
"*. c #F37239",
"=. c #BF654E",
"-. c #BE6D54",
";. c #BB7155",
":. c #C35C43",
">. c #CD5F40",
",. c #C45F48",
"<. c #C56045",
"1. c #C4634A",
"2. c #CC6C4F",
"3. c #CD654B",
"4. c #D26242",
"5. c #D66846",
"6. c #DB6943",
"7. c #D6704F",
"8. c #D9754C",
"9. c #C26751",
"0. c #C36C55",
"q. c #C96C53",
"w. c #C46F58",
"e. c #D76E51",
"r. c #C17057",
"t. c #C3725A",
"y. c #C87159",
"u. c #DC7E53",
"i. c #D0765B",
"p. c #D27A5E",
"a. c #E17343",
"s. c #E37748",
"d. c #F27B41",
"f. c #C37563",
"g. c #C77B67",
"h. c #C97C68",
"j. c #D07D67",
"k. c #ED811F",
"l. c #EE8322",
"z. c #F68423",
"x. c #F78B23",
"c. c #F88F21",
"v. c #F7852C",
"b. c #F6912D",
"n. c #F68638",
"m. c #F58A32",
"M. c #F6943C",
"N. c #F6993D",
"B. c #F8953E",
"V. c #F58945",
"C. c #F79646",
"Z. c #F7974D",
"A. c #F79C4A",
"S. c #F9A556",
"D. c #CD826E",
"F. c #C6836E",
"G. c #D48363",
"H. c #D78466",
"J. c #CC8B76",
"K. c #CA8676",
"L. c #D38D75",
"P. c #F59D74",
"I. c #F5A564",
"U. c #F7B06E",
"Y. c #FAB777",
"T. c #FABC79",
"R. c #CC9B84",
"E. c #F8B986",
"W. c #F6B493",
"Q. c #FAC28A",
"!. c #FBCB9B",
"~. c #F8C494",
"^. c #FBC1A0",
"/. c #F9CBB1",
"(. c #FCDABB",
"). c #FCD2B0",
"_. c #FBDFC2",
"`. c #F8DCC8",
"'. c #FBE1CB",
"]. c #FDECDC",
"[. c #FBE2D7",
"{. c #FCEDE3",
"}. c #FEF6EE",
"|. c #FEFAF6",
" X c #FFFDFC",
".X c #FDF6F0",
/* pixels */
"                                                              H.u.a.*.%. . . . .%.6.e.j.                                                              ",
"                                                      u.&.[ ..............h ......^ ^ ^ ^ W ] i.                                                      ",
"                                                u. ...............h ..h ........../ ^ ^ ^ ^ ^ ^ ^ ~ e.                                                ",
"                                          D.s...h ........X...h X.#.#.#.X.X.........^ ^ W ^ ^ ^ ^ ^ ^ W 5.J.                                          ",
"                                      L.a.h ..h ....X.X.l N.E.'.'.M.x.x.x.x.x.x.z.$.X./ / W ^ ^ ^ ^ ^ ^ ^ ^ e.R.                                      ",
"                                    s.[ ......X.#.v.A.~.'.|.].Q.b.z.z.$.$.$.$.$.$.$.z.$.$.$.X.../ ^ ^ ^ ^ ^ ^ R 4.                                    ",
"                                H. ...h ....X.n.U.(.}. X{.^.V.X.X................... ./ / / X.#.X...^ ^ ^ ^ ^ R R F j.                                ",
"                              8.[ ......X.m.Y.'. X|.[.W.d.h h ..! Q D S S e A D D Q [ / W ^ ^ ^ / ....^ ^ ^ ^ W R R R 4.                              ",
"                            ] g ......#.Z.'.|.{./.P.*.h y r 9 : = = = = = = = = = = - : @ 2 R W ^ ^ ^ / ^ ^ ^ ^ R R R R 4.                            ",
"                        L.] Q h ..X.$.x.I.W.P.d...u r 8 - = = - - 8 8 9 9 - 9 9 9 8 = @ . . X @ m W ^ ^ ^ ^ ^ p R R R R t G                           ",
"                      G.| Q g ..X.z.z.$...h ..g 9 - = = - 8 Q [ [ ..X.X.} + } #.X...X.Q 2 + X . X X & R ^ ^ i i R M R R R R M D.                      ",
"                    p.Q y g ..#.z.x.#.....h q - = = 8 D g ....#.z.x.z.z.s 1 0 x.x.x.x.z.$...E m O X X o & W W W W R R R R R R G D.                    ",
"                  D.Q Q y / X.x.x.X.....y 3 = = 8 y ....l v.S.!.E.x.x.z.= ! * @.z.#.X.../ / ^ ^ i 5 + X X O % t M M R R R R R R G L.                  ",
"                  H Q Q g l x.$.....[ q = = - y ....#.M.~.]. X`.M.x.x.' q / 5 Z ....../ ^ ^ ^ ^ ^ ^ ^ % o X o % m 5 5 R R R R R R Y                   ",
"                Y A Q y #.x.$.....[ 8 : = 9 g X.X.C.!.}. X.XE.b.c.z.$.0 k ^ R 1 ......! ^ ^ ^ ^ ^ ^ i ^ R @ . X + 2 2 2 m R R R R M I                 ",
"              4.M M Q ..x.#.....[ 3 = - Q ..g V.).}. X].Q.C.c.x.l X.Q 9 X.^ E # A ....W ^ ^ ^ W ^ ^ ^ ^ p W 2 X . O 2 2 2 m M R t t 5 <.              ",
"            q.M M M Q $.$.h ..[ : = B Q ..d.E.{.}._.T.N.c.z.$.......4 f / ^ R 5 z / / ^ ^ ^ ^ ^ ^ ^ ^ ^ ^ ^ ^ m O X o % % 5 5 t R R 7 x h.            ",
"            N M M 5 [ $.....g c = - Q X.P.`.(.E.S.b.x.x.$.l ......Q 8 z./ ^ W M # ~ / ^ ^ ^ ^ ^ ^ ^ ^ ^ ^ ^ ^ ^ m X X O 5 5 5 % 7 R R 2 b             ",
"          2.M M M 7 #.....[ 9 = - g ..#.A.A.b.x.x.x.x.#...........Z _ $.p ^ ^ M x 2 ^ ^ ^ ^ ^ ^ ^ ^ ^ ^ ^ ^ ^ i R % O X @ % % 5 x M M 5 m q.          ",
"          N M M M y ! p [ S = - g h X.z.x.x.x.x.x.$.X.............8 l.#.^ ^ ^ M M # W ^ ^ ^ ^ ^ ^ ^ ^ ^ i ^ ^ i R R % o X # 5 5 2 5 R 5 2 v           ",
"        U M M M M W W / m = = y X.h x.x.x.x.x.x.#...............w ( x.X.^ ^ ^ M E 2 2 p ^ ^ ^ ^ ^ ^ ^ ^ ^ ^ ^ ^ t t t # X X % % x 5 5 5 5 2 q.        ",
"        M M M m A ! ^ M . O Z ..X.x.x.x.x.x.z.X.................# l.z...^ ^ ^ M R W + W ^ ^ ^ ^ ^ ^ ^ ^ ^ ^ ^ R t t t 5 O X O % 2 2 2 5 2 5 x         ",
"      3.M M 5 5 E W W @ . o ! ..z.x.x.x.x.z.X.................Q B x.z.! ^ ^ ^ M M W & m ^ ^ ^ ^ ^ ^ ^ ^ ^ ^ ^ R t % t t % X X + 2 2 2 2 2 2 5 q.      ",
"      x 5 M 1 m D ^ z . . m p $.x.x.x.x.$.....................# @.z.$.^ ^ ^ ^ M M W R + ^ ^ ^ ^ ^ ^ i ^ ^ i W R R R t t 7 @ X X @ 2 2 2 2 5 % v       ",
"    1.2 5 m % M W M O X O ^ ..x.x.x.x.z.....................[ - x.x.X.^ ^ ^ ^ M R R ^ & R ^ ^ ^ ^ ^ ^ ^ ^ i W R R R t M % t O X X $ m 2 2 2 2 % ;.    ",
"    L 2 5 % 2 M W @ X X t / z.x.x.x.$.......h ..h X.....h h 3 O.b.z...W ^ ^ ^ R % R ^ W + ^ ^ ^ ^ ^ ^ ^ ^ i R R R R t t i % # X X O & 5 2 2 x 1 <     ",
"    2 2 2 $ m R M O . + p #.x.x.x.z.^ ^ / [ [ u y w M N 1 3 : x.x.z./ ^ ^ ^ ^ M R M W ^ & & % % % R R R i R R R R t t M i t % o . O $ 5 2 5 % 2 %     ",
"  q.5 2 2 + 5 M # X . 2 w ' a S 9 * # # @ 1 3 c q ) _ o.O.@.z.x.x.$.^ ^ ^ ^ ^ M R % M ^ W % R % % % & & & + @ % # # % % % % % + . X O % 2 x 2 & % g.  ",
"  I 5 2 % + 5 5 @ X o R 3 + s { O.@.z.z.z.x.x.x.c.x.x.$.$.#.#...../ ^ ^ / ^ ^ M R % R i ^ ^ ^ ^ i W R M M M M % R t % % % o + % . X + @ 2 2 2 % x ,.  ",
"  n 2 2 # @ 5 & O . @ W x.( 3 x.x.z.$.$.#.X...../ u ^ ^ ^ ^ ^ W ^ ^ ^ W ^ ^ ^ M R R R R R R R R i R R R R M M M M % % % O % t % O . O O % 1 % 1 % v   ",
"  2 2 2 @ @ m + o . x ..x.x.o.3 @.$./ W ^ ^ W ^ ^ ^ ^ W ^ ^ ^ ^ W ^ ^ ^ ^ ^ W M M % % R R M R R M M % R M M t % % % % + % R t % @ . O + + 1 2 % 1 &   ",
";.5 2 2 + @ 2 + X . M #.x.x.z.t * o.$.! E W W ^ ^ ^ ^ ^ ^ ^ ^ ^ ^ ^ ^ ^ ^ ^ R M R R R R R % % M M M M R R R % % % % @ % W R W t # . X O O % % 1 1 x   ",
"y.2 2 2 + # % O . O t $.x.x...^ i % f z.[ M M R W ^ ^ W ^ ^ ^ ^ ^ ^ ^ ^ ^ ^ M M M M M M M M M M % M M M % % % % % O 5 R R R R 7 % X X O + # 2 % 1 % 0.",
"1.5 2 % + @ % O . O w @.x.z.i ^ ^ i 3 ( z...M M M M R R W ^ W ^ ^ ^ ^ W ^ R M M R % M M M M M M R R M % % + % % % 5 R R R R R R 2 X X O O @ % 2 1 1 r.",
"U 2 2 % + + # O . + A o.z.X.^ W ^ ^ W 2 S l.} E m M M M M M M R R R W R M M M M M M M M M M M M R % % % & % + % 5 R R R R R R R 5 O X O O + % % 1 % <.",
"b 2 2 % + + # o . + A O.+.E W ^ ^ ^ ^ ^ M c l.h R M M M M M M M M M M M 7 M M M M M M M M M M M % % + + % + % R R R R R R R R 7 % o . o O O % % 1 2 :.",
"b 5 2 # + + + O . @ 7 j } M R W W ^ ^ ^ ^ t * O.X.R M M M M M M M m M M M M M M M M M M 7 R 7 % % + O % o % R R R R R R R R 7 5 % O X O + O % % 1 2 P ",
"b 2 5 # O + @ O . @ 6 j { R R M R R W ^ W ^ W * o.l R M m M M M M M M M M M m M M 7 M M 7 % % + X + % + 7 i R M R R R R R R R % 2 + . O O O @ 2 1 % K ",
"n 2 2 # + + @ o X @ 2 f Q t R M R R R R R W W W * d #.E M M M M M M M M M M M M 7 7 7 7 % % o X & + + M R R R R R R R R R 7 5 5 % O X O O O + & 1 & U ",
"K 2 5 % O + + O X @ 2 d A R R W R R R R R R R R M * S #.R M M M M M M m M M M M 7 7 7 R % & . + + & R R R R R R R R R R 5 5 7 % % O . O O O + 2 1 % I ",
"U 5 2 % O + + O . O 2 9 t t R R M R R R R R R R R R % f ..7 M M M M M M M M M M M M 7 M % % O & % R R 7 t t t t R R R 5 5 5 5 % x O . O O O + % 2 x ,.",
":.2 2 % + + O O . O 2 4 5 t R R R R R R M R R R R t 1 z./ i 7 M m M M M M M m M M M m M 7 % + + + 7 R R t t t t R % % 7 5 5 7 5 & o X O O O + & % & 9.",
"0.2 1 2 + O + O X o 2 2 2 7 R R R R R R R R R R R 6 C z.p ^ W 5 M M M M M M M M M M M M t % % X + % R R t 7 t 7 5 5 5 5 5 5 5 % % X X O O O + % 2 % y.",
"0.1 1 1 + O $ O X X % 5 2 5 R R R R R R R R M R M 1 j #.^ ^ W 7 M M M m M m M t M M M M % % % X % % R R R R 7 5 5 5 5 5 5 5 5 % @ X X O O O + 1 % z   ",
"  x % 2 + + + + X . # 5 5 5 M R R R R R R R R R 7 8 z...^ ^ ^ R m M M M m 5 % % % M M M M % % O O + 5 R 7 5 5 5 % 7 5 5 5 5 % % + . X O O O @ 2 % %   ",
"  & 2 % @ + + O O X + % 2 % 5 R R R R R M R R R % s z.W ^ ^ ^ M M M M M 2 % % % % % % % t % % & X % % % 5 5 5 5 t 7 % 5 5 5 % % O X O O O + @ 1 & c   ",
"  K % % $ O O O O X o % 5 % % M R R R R R R R R * l.$.^ ^ ^ R M M M m 2 % % % % % % % & % % % % . % + 5 5 5 5 5 5 5 5 7 7 % % % X X O O O O % 1 2 :.  ",
"  9.x 1 & O O O + X X # 5 5 m % 5 R R R R R R 5 S x.X.^ ^ ^ M M M M 5 % @ o + % % % # % % % % % X % % % 5 5 5 5 5 5 5 5 % % % % X X O + O + 1 & % 0.  ",
"    1 1 % + + O O O . O 5 2 2 2 5 5 t t t t t 1 +.x.[ ^ ^ W m M t % % + X X O X @ % % % % # % # % o % O 7 5 5 5 5 5 7 % % % % + . o O O O @ 2 2 %     ",
"    z 1 x @ O O O O X . % 2 2 2 2 5 5 t t 7 7 * z.z./ W W M M M % % + + + % + + o X @ % % % % % % . % O % 7 5 5 5 5 7 % % 5 % X X O O O O % % % J     ",
"    r.x % % + O O O X X O x 1 1 1 2 2 5 t t % s z.#./ i M M M m % % + % t 7 i % + + O o @ % % % % X % % % % 5 7 5 5 % % % % o X X + O O + % % x 9.    ",
"      # % x + O O O O X X @ 2 1 % 1 2 2 2 7 # l.x.X.W W m M 5 # X % 7 7 7 % % 5 % % O + o o # % % % X % + 5 5 5 % % % % % % X X O O O O + & & x       ",
"      I 2 % # O O + O X . X % 2 1 1 1 % 2 # 9 c.z...W M M 5 O @ % t % t 5 5 5 5 5 5 5 % O + O o % % O % + % 5 % % % % % % X X X O + O + % 1 % 1.      ",
"      t.1 % 1 + O O O O . X + 1 1 1 1 1 1 + k k.v.^ M 5 @ + 2 5 t % t % 5 5 5 7 5 5 % 5 2 + O + X . X % % O % % % % % % + X X + O O O + % 1 x         ",
"        K 2 1 @ O O O O O X . & % 1 1 1 # - c.c.X.7 % + 2 5 5 6 % t % t 5 5 % 7 % 7 7 7 5 5 2 @ O % . + % X % % % % % % X X o + O O O % 1 x :.        ",
"        t.z x % + O O O O X X X % 1 1 1 @ f c.k 4 + @ 2 2 2 2 2 t % t % 5 5 7 5 7 t % 5 5 5 5 2 % + O % % % + % 7 % % X X X + o O O + % % :           ",
"          P 1 1 % O O O O O o . o % 1 1 * k e @ # 1 1 1 1 1 1 1 % % 5 5 5 5 5 5 5 2 2 2 1 1 1 1 2 % % @ + % O % % % X X X O + o O + % % 1 <.          ",
"            z % x + O O O O O X . O % # @ * + % 1 1 1 1 1 % 1 1 % % % % % % % % 1 1 1 1 1 1 1 1 % % % % @ O o # % + . X O + + O + @ % 2 z             ",
"            :.x % # O O O O O O X . o @ + 1 1 1 % 1 1 1 1 % 2 % 5 % 5 5 % % % 5 1 % 2 % 1 % 1 1 % % % % % % + O o X X O O + + O + % & x ,.            ",
"              v 1 2 @ + O O O O O X X o * 1 1 1 1 1 1 1 1 % 1 1 % % % % 2 2 % % 1 % 1 % 1 1 1 1 % 2 2 % % % % o X X O O o O o + # % x P               ",
"                v 1 2 + O O O O O O X X X @ % % 1 % 1 1 1 % 2 1 1 1 1 % % 2 % % 1 1 1 % 2 % 1 1 2 % % 2 % @ X . X O O O + O O @ 1 1 v                 ",
"                f.z % % $ o O O + O O X X X o % % 1 1 1 1 2 1 % % 1 1 1 % 2 % 2 1 1 1 % 1 1 1 % % 2 % # o . . o O O O O O + + % x z J.                ",
"                  P z % & + O O O O O O X X X X + % 1 1 1 % 1 % 1 1 % 1 2 % % % 1 1 1 % % 1 % 2 2 % + X X X o O O O O O O + % % z 9.                  ",
"                    < z 2 % O O O O O O O O X . X X + % 1 1 1 1 1 1 2 % % 2 % 2 1 1 1 2 % % % % o X . X o O O + O O O O + % % % <.                    ",
"                      < 1 1 % O O O O O O O O X . . X X o + % % % % 2 % 2 % % % % 1 % & $ + X X X . X O O O O O + O O O # 2 1 :.                      ",
"                        :.% 1 % @ O O O O O O $ O o X X X X X X o O + + + @ + $ + O O o X X X X X O O O O O O O O O + # 1 z 9.                        ",
"                          f.z 1 1 @ + O O O O O + O O O O X X X . . X X X X X . X X . X X X O O O O O O O O O $ O @ % x z F.                          ",
"                              v x 2 # + O + O O O O O O O O O o O o o X X X X O X X o O O O O O O O O + O O O o @ % 1 J                               ",
"                                1.% 2 % @ + O + O O O O + O O O O O O O O O O O + + O O O O + O O O O + O O + # x z I                                 ",
"                                    v % 1 % @ + O O O O O O O O O + O O O O O O O O O O O O O O O O O + $ $ x % K                                     ",
"                                      9.v 1 2 % # + + O O O O O O O O O O O O O O O O O O O O O O + @ % 1 1 v y.                                      ",
"                                          =.: % 2 & % @ $ + O O O O O O + O O + O O + O O + + # % 1 1 1 v 0.                                          ",
"                                              r.J 1 % 2 % 1 % # # @ + @ + + @ + + + @ # % % 2 x 1 z K 1.                                              ",
"                                                    -.K % 2 % 2 % % % % % % 2 % 2 1 2 x % % z K r.                                                    ",
"                                                            r.:.v : % % % 5 % % z z v :.t.                                                            "
};
