/* XPM */
static char *fa4f7094b3ca4b73ba04fd798c9c16edMIGZ3ZHXMUdo0y5b_1[] = {
/* columns rows colors chars-per-pixel */
"60 66 256 2 ",
"   c None",
".  c #993333",
"X  c #FF9999",
"o  c #99CCFF",
"O  c #CC3300",
"+  c black",
"@  c #996633",
"#  c gray60",
"$  c #CC9933",
"%  c #CC9900",
"&  c white",
"*  c #9A2700",
"=  c #CC9966",
"-  c #336666",
";  c #BB2F00",
":  c #933131",
">  c #882E2D",
",  c #714543",
"<  c #120A08",
"1  c #804D4D",
"2  c #7C2A2A",
"3  c #642222",
"4  c #641900",
"5  c #0E0701",
"6  c #B12C00",
"7  c #E78B8B",
"8  c #DF8686",
"9  c #4E1A1A",
"0  c #070504",
"q  c #EF9090",
"w  c #C63100",
"e  c #761E01",
"r  c #F5FAFE",
"t  c #712626",
"y  c #FFCC66",
"u  c #2F2300",
"i  c #1C1514",
"p  c #274D4D",
"a  c #C59360",
"s  c #362612",
"d  c #CF7C7C",
"f  c #170A02",
"g  c #3C3B3C",
"h  c #87B3DF",
"j  c #0F1013",
"k  c #A62A01",
"l  c #251815",
"z  c #A3D1FF",
"x  c #875251",
"c  c #1B120A",
"v  c #BF7373",
"b  c #A06060",
"n  c #885C2E",
"m  c #623A39",
"M  c #59231E",
"N  c #838383",
"B  c #929292",
"V  c #1A3232",
"C  c #892200",
"Z  c #452F16",
"A  c #571600",
"S  c #4A2B2A",
"D  c #260D0C",
"F  c #7F552B",
"G  c #F59393",
"H  c #563B1D",
"J  c #AED6FE",
"K  c #2F2011",
"L  c #CDE6FE",
"P  c #394B5E",
"I  c #754F27",
"U  c #916232",
"Y  c #361210",
"T  c #2D1C1A",
"R  c #421817",
"E  c #A76564",
"W  c #503030",
"Q  c #431101",
"!  c #C17474",
"~  c #3D2D19",
"^  c #D68181",
"/  c #573633",
"(  c #684E00",
")  c #749AC0",
"_  c #905656",
"`  c #504E4E",
"'  c #13191D",
"]  c #2C100E",
"[  c #402626",
"{  c #826201",
"}  c #B76E6E",
"|  c #802000",
" . c #B68800",
".. c gray45",
"X. c #B7DAFE",
"o. c #320D00",
"O. c #200D0C",
"+. c #272727",
"@. c #693F3E",
"#. c #684A21",
"$. c #8E6A47",
"%. c #922500",
"&. c #B38659",
"*. c #BFC0C0",
"=. c #5F411F",
"-. c #E9F4FF",
";. c #997300",
":. c #B16B6A",
">. c #625E5E",
",. c #794848",
"<. c #6F5437",
"1. c #6C1C02",
"2. c #92C1F1",
"3. c #C87978",
"4. c #261A0D",
"5. c #280A00",
"6. c #A47B01",
"7. c #8A8B8B",
"8. c #3A1414",
"9. c #4A1B0F",
"0. c #8CBAE8",
"q. c #444547",
"w. c #A57B52",
"e. c #4A211F",
"r. c #202223",
"t. c #DEEFFF",
"y. c #392B00",
"u. c #9D734A",
"i. c #323334",
"p. c #597694",
"a. c #306060",
"s. c #455C74",
"d. c #5A4329",
"f. c #4A3525",
"g. c #975B5A",
"h. c #C49300",
"j. c #3A0F00",
"k. c #D1A20D",
"l. c #263341",
"z. c #200801",
"x. c #4A341A",
"c. c #575756",
"v. c #5C4500",
"b. c #422F03",
"n. c #66696B",
"m. c #BF9031",
"M. c #D6AE1F",
"N. c #896442",
"B. c #162226",
"V. c gray48",
"C. c #B78451",
"Z. c #503916",
"A. c #4E6882",
"S. c #6F94B8",
"D. c #423028",
"F. c #6080A0",
"G. c #97C8F9",
"H. c #1C2839",
"J. c #6789AB",
"K. c #3A221F",
"L. c #526C87",
"P. c #73511E",
"I. c #AC7A46",
"U. c #1B1400",
"Y. c #323F4D",
"T. c #4D3A00",
"R. c #6C3F39",
"E. c #79573E",
"W. c #9E9E9F",
"Q. c #342625",
"!. c #7EA8D1",
"~. c #322F30",
"^. c #331D1B",
"/. c #A4723C",
"(. c #C1E0FF",
"). c #42619C",
"_. c #251C00",
"`. c #996E41",
"'. c #F8F185",
"]. c #775901",
"[. c #B4B4B4",
"{. c #A27A29",
"}. c #7E6041",
"|. c #5C2F2E",
" X c #E6CC4E",
".X c #5D1E0B",
"XX c #EFDF6A",
"oX c #8B6824",
"OX c #28211F",
"+X c #B98B2E",
"@X c #6B4B2C",
"#X c #746B6A",
"$X c #BF9155",
"%X c #B2852D",
"&X c #CCCDCD",
"*X c #E1C340",
"=X c #44271B",
"-X c #54443D",
";X c #5F4631",
":X c #FFFE98",
">X c #244044",
",X c #E9E9E9",
"<X c #2B5555",
"1X c #4D1400",
"2X c #F3E673",
"3X c #521B0B",
"4X c #906C01",
"5X c #0B1E26",
"6X c #817473",
"7X c #646565",
"8X c #D3A954",
"9X c #692510",
"0X c #967126",
"qX c #9A7427",
"wX c #B9910E",
"eX c #44515F",
"rX c #565D62",
"tX c #45586D",
"yX c #4E75C2",
"uX c #73270B",
"iX c #E5B75C",
"pX c #98B9D8",
"aX c #EBD65C",
"sX c #DBB62C",
"dX c #ADB0B2",
"fX c #3B5482",
"gX c #805E23",
"hX c #344A73",
"jX c #D7D8D8",
"kX c #5E2F25",
"lX c #ABA6A5",
"zX c #523C2A",
"xX c #7D2B17",
"cX c #293958",
"vX c #4669AD",
"bX c #DDDDDD",
"nX c #672E0F",
"mX c #8A4C1E",
"MX c #2E4163",
"NX c #C4A326",
"BX c #4C6FB2",
"VX c #789FC7",
"CX c #2D436F",
"ZX c #5D6D76",
"AX c #6C788A",
"SX c #E2C84A",
"DX c #F7C663",
"FX c #004D66",
"GX c #8FA7BF",
"HX c #005470",
"JX c #007096",
"KX c #B6C3CF",
"LX c #0086B3",
"PX c #B18B0E",
"IX c #5D8BE7",
"UX c #89949F",
/* pixels */
"                                                                                                ' c.+ +                 ",
"                                                                                                r.r & ,XlXi.            ",
"                                                                                                + pX-.r & [.            ",
"                                                                                                  ) o z X.KXdX7.        ",
"                                                                                                  ) o o z J t.& *.      ",
"                                                          +                                       ) o o o o X.& r ..    ",
"                                    + u                   v.U.                          ~ n Z     ) o o o o o t.& & r.  ",
"                                      4Xb.                b.6.u 0                     K /.a U 4.  VXo o o o o J & & `   ",
"                                      ].6.                  y.{ { v._.                Z.@ C.N.OXY.G.o o o o o z -.& ..  ",
"                                    _.h. .u                   5 u 6. .y.+             K n ~ ZXjXL o o o o o o o L & dX  ",
"                                    ].k. .u                       f { % ;.f           + Q.S.J r r z o o o o o o L & &X  ",
"                                  ]. X% ;.                          + 6.*XwX5           ) o o L & L o o o o o o L & &   ",
"                                T.h.aX% b.                          + {  XsXT.        tXo o o o &XrXH.H.P !.G.o -.& & + ",
"                                ].*XsX% 5         P S.) F.L.Y.      + {  XSX(         l.2.o 2.L.fX).yXBXMXH.P h -.& &X  ",
"                              5 6.2X*X% +       B.2.o o X.J G.S.'   +  .k.k.(           p.o L.vXcXzXi '   j hXhXjX& *.  ",
"                              U.wX'.aX% _.      F.o o o o t.-.(.0.l.( % % % T.          j p.).Y.I = @ 4.      5Xr.*.*.  ",
"                              U.wX'.:Xk. .u + + P 0.o o o o t.& L o q.4X% % 5             + ' j U I.a I           + `   ",
"                              f PX2X:X*X% % % %  .+.h o o o J r & X.0.OX .( +                   Z @ a /.K               ",
"                                ].M.'.XX% % % % % ].F.o o o o t.& t.o F.b.A 5.                  < n /.C.I               ",
"                                y.h.M.M.% % % % % ;.A.o o o o (.& t.0.Q.%.j.                      Z @ $X/.4.            ",
"                                  y.h.% % % % % % ;.s.A.-XtX0.J t.z P k xX        +               5 @ I.C.=.            ",
"                                    U.].6.% % % % T.P 9XO k .XtX2.o kX6 #X7.    0 j.                Z #.s s q X b       ",
"                                      + + y.T.T.i Y.tX' 9.k O * j.o.C | 5Xq.    Q A                 + , G } 1 X 8 l     ",
"                                            + tX!.2.0.!.p.+.3Xk O O 9XS D.l 0 A w A                 W 7 X X S @.,.^.    ",
"                                              L.o o ) ` W n.*.-Xo.o._ X X 7 m ; ; 5.              + 7 v G X :.b X 7 +   ",
"                                              A.J.i.3Xg.v dX& rXLX#X8 X X X v e 1X+               + X } :.X d [ X X [   ",
"                                    + o.4 A j.o.| O * _ 8 ` *.>.5.O.8 X X X X ^.E b @.T           + X 3.K., W g.1 1 T   ",
"                                  + C 6 ; O k 6 6 6 C S v m z.%.O Q m v 3.X X @.E X X 7 K.          x ^ ^ 7 m g.X X x   ",
"                                K./ 1 _ M 1.* Q Q | | 1.4 * ; O O 6 9.q.7Xx v m .X, ! G ^ /         g ^ ,.,.3.X X X q S ",
"                            + / 7 X X X G K.o.6 A 1.w O O O O ; 4 / &XB jXB 5 e w 6 1.|.} 7 ^.    H.AXd 8 1 X X X X ,.i ",
"                            b X X X X X X , M Q k C Q o.4 4 Q Q.B ..,XN 3X%.O O O O O 6 l X 1     ) pXg.X [ q X q ,.<   ",
"                          x X X X X X X X d O.> Y 4 ; * * * %.lX& *.Q %.O O O O O O ; Q v X d   Y.X.r ZX@.b K x.d.w.I   ",
"        f.s l         l l 7 X X X X X X X G ^.t . 8.1.O O O O > &XmXO O O O O e 6 k 5.m X X ^ l i.t.L o p.H.j U /.a /.c ",
"    + ;X$.u.w.N.zXT , ! 3.X X X X X X X X X [ t . . 3 e ; O O 6 =X6 O O O O O f 9.9 2 e.X 7 / E _ UXo o o 2.' x.@ C.u.~ ",
"  5 =.I I K K &.= }.m ^ X X X X X X X X X X [ t . . . 2 o.k O O ; O O O O O O ] . . . 9 7 E E 7 G +.h o o !.  c n n K ~ ",
"  s @ @ @ @ H 0 ~ a &.;Xv X X X X X X X X X [ t . . . . : D A C * * * * | 4 Y M . . . 3 v 3.G X X d Q.tXS.eX  5 H f.a $.",
"  x.@ @ @ U H +X#.}.= a @Xb X X X X X X X 7 l > . . . . . . : 9 5 W 1 1 x [ : . . . . t v X X X X X X v 1 +     f.a $.< ",
"+ H @ @ @ #.oX$ $ =.N.= = D.q X X X X X X _ R . . . . . . . . . t / X X 7 e.. . . . . t v X X X X X X X b       + + +   ",
"+ I @ @ F Z.m.$ $ m.x.u.&.;X, X X X X X :.e.> . . . . . . . . . . 9 ^ X :.3 . . . . . 9 8 X X X X X X X /               ",
"+ I @ @ Z +X$ $ $ $ +Xx.<.w.d.[ / 7 X } c 2 . . . . . . . . . . . 2 x X , 2 . . . . . |.X X X X X X X ^                 ",
"  I @ F gX$ $ $ $ $ m.s w.= &.m 3._ _ S t . . . . . . . . . . . . . S 8 e.: . . . . > 1 X X X X X X X b                 ",
"  x.n P.$ $ $ $ $ $ {.H K = = $.E X m : . . . . . . . . . . . . . . ] ^.t . . . . : ] 8 X X X X X X ^                   ",
"  Z s {.#X<.qX$ $ $ H n K &.= &.@.b [ > . . . . . . . . . . . . . . 9 Y . . . . . t 0 W 7 X X X X G /                   ",
"  5 H A.(.h -Xm.$ m.s @ I @X= = E.8 d M . . . . . . . . . . . . . . 2 > . . . . : Y     T :.X X X ,                     ",
"    s z -.o ZX%X$ oXn @ @ ~ = = N.8 X m . . . . . . . . . . . . . . . . . . . . 3         0 :.X }                       ",
"    Y.(.z o L.{.$ P.@ @ @ Z w.= u.^ X Q.l 2 . . . . . . . . . . . . . . . . . 3 +           0 @.c                       ",
"    p.o o o A.qXm.#.@ @ @ #.<.= u.v _ V a.B.8.: . . . . . . . . . . . . . . 3 +                                         ",
"    + 5 s s s %X0X@ @ @ @ I @X= u.v } p - - p i 3 > . . . . . . . . . . . 3 +                                           ",
"        {.$ $ $ P.@ @ @ @ n @X= u.! ,.V a.- - a.V l 8.3 2 > . . . . . : M                                               ",
"        c %X$ $ I @ @ @ @ F @X= N., M t ' <X- - - a.p V ' < D D D D D O.                                                ",
"          4.+X+XF @ @ @ @ I }.a K 9 . . 2 OXp - - - - - - - - <Xp p V +                                                 ",
"            s #.@ @ @ @ @ s }.=Xt . . . . : 3 l V V p p p p p p p V 0                                                   ",
"              + s F n F =.j ~.8.> . . . . . . . 2 8.D D D D D D D R 3 +                                                 ",
"              + C 1.9.j.g N q.n.Q.M > . . . . . . . . . . . . . . . : Y 5                                               ",
"              5.O O O 6 6X# ` # 7.q.< 9 . . . . . . . . . . . . . . > M < +                                             ",
"              4 O O O 6 6X# N ` # # N ` +.^.Y 9 9 9 9 9 9 9 9 R i +.g ..B V.r.                                          ",
"              4 O O O O kX# # N ..# # # # # V.g n...........7.V.V.# # # # # c.                                          ",
"              1XO ; O O %.7X# # 7.# # # # # # + + j ` q.g i i 7X# # # # # B ~.                                          ",
"              + w O k * O M 7.# # # # # # # # +         1.Y #X# # # # # N i.                                            ",
"                * O O e o.z.+.N # # # # # # #X+       + * 6 9X>.# # # 7Xi                                               ",
"                4 O O ; 5.      c...B # # 7.+.      e w ; O O * uX/ i.+                                                 ",
"                + C %.1X            + + + +         * O O O O O k A 1.e j.                                              ",
"                                                    1.O O O O O O O O O O O o.                                          ",
"                                                    f 1.; O O O O O O O O O ; 5.                                        ",
"                                                        o.| O O O O O O O O O 5.                                        ",
"                                                            f 4 4 C * * * C Q                                           "
};
