/* XPM */
static char *_65a2d8878004266be7a27f58e9e2515UulcPtDvFN8LKCSe[] = {
/* columns rows colors chars-per-pixel */
"75 48 130 2 ",
"   c #4B4B55",
".  c #464B5E",
"X  c #484A5F",
"o  c #50525F",
"O  c #474B64",
"+  c #4B4E64",
"@  c #494E6B",
"#  c #4C5064",
"$  c #4D526C",
"%  c #515264",
"&  c #51556B",
"*  c #4F5370",
"=  c #535673",
"-  c #555975",
";  c #5A5D74",
":  c #565B79",
">  c #5A5E7B",
",  c #5C6177",
"<  c #5E617A",
"1  c #616277",
"2  c #696C75",
"3  c #62647C",
"4  c #66697C",
"5  c #6C707B",
"6  c #71727D",
"7  c #5C6181",
"8  c #666B81",
"9  c #696E84",
"0  c #737780",
"q  c #767A83",
"w  c #7A7E81",
"e  c #72768D",
"r  c #767A8B",
"t  c #7B7C8B",
"y  c #7D818C",
"u  c #7C8099",
"i  c #828594",
"p  c #858995",
"a  c #878A9B",
"s  c #898B98",
"d  c #8D919C",
"f  c #95959F",
"g  c #8A8EA2",
"h  c #8D92A6",
"j  c #9298A4",
"k  c #9C9EA5",
"l  c #9B9DB2",
"z  c #9FA1B0",
"x  c #A2A4B0",
"c  c #A8A7B7",
"v  c #A5A8B7",
"b  c #ACADB2",
"n  c #B2B5BB",
"m  c #BAB9BE",
"M  c #ACB1C5",
"N  c #B6B9C2",
"B  c #BAC0CE",
"V  c #BCC1D5",
"C  c #C0C5C1",
"Z  c #C7C8C2",
"A  c #CACBC7",
"S  c #C3C3CC",
"D  c #C6C9CB",
"F  c #CFCFCD",
"G  c #D1CFCE",
"H  c #CED1CC",
"J  c #D0D1CE",
"K  c #C6CAD1",
"L  c #CDCED2",
"P  c #C4C6DB",
"I  c #CBCEDC",
"U  c #CED2D3",
"Y  c #CED2DA",
"T  c #D4D5D3",
"R  c #D8D6D7",
"E  c #D6D9D4",
"W  c #DADBD7",
"Q  c #D4D5DB",
"!  c #DAD7DA",
"~  c #D6DADB",
"^  c #DBDBD9",
"/  c #E1DFDC",
"(  c #DEE1DB",
")  c #E0E1DD",
"_  c #CCD2E0",
"`  c #D1D5E0",
"'  c #D4D7E0",
"]  c #D0D3E4",
"[  c #D2D5E4",
"{  c #D4D8E1",
"}  c #D6D9E2",
"|  c #DADBE0",
" . c #DBDBE3",
".. c #DBDCE0",
"X. c #D9DCE3",
"o. c #DFDDE0",
"O. c #DDDEE0",
"+. c #DEDEE0",
"@. c #DFDFE1",
"#. c #DDDEE3",
"$. c #DADDE4",
"%. c #DBDEE7",
"&. c #DCDFE4",
"*. c #DFDFE7",
"=. c #D6D9E8",
"-. c #D7D9E8",
";. c #DCDEEB",
":. c #DADCE9",
">. c #DFE0E4",
",. c #DDE2E6",
"<. c #DEE1E8",
"1. c #DDE1EC",
"2. c #DDE1ED",
"3. c gray88",
"4. c #E2E2E0",
"5. c #E3E2E0",
"6. c #E0E0E2",
"7. c #E2E2E4",
"8. c #E2E3E5",
"9. c #E2E6E7",
"0. c #E4E4E6",
"q. c #E2E0E1",
"w. c #E2E6E9",
"e. c #E0E5EB",
"r. c #E1E1ED",
"t. c #E1E5EE",
"y. c #E4E4EC",
"u. c #E3E8EB",
"i. c #E5EAF0",
"p. c #E4E8F4",
/* pixels */
"^ ^ ^ ^ ^ ^ ^ ^ ^ ^ ^ ^ ^ ^ ^ ^ ^ ^ ^ ^ ^ ^ ^ ^ ^ ^ ^ ^ ^ ^ ^ ^ ^ ^ ^ ^ ^ ^ ^ ^ ^ ^ ^ ^ ^ ^ W ^ ^ ^ ^ ^ ^ ^ ^ ^ ^ ^ ^ ! ^ ^ ^ ^ ^ ^ ^ ^ ^ ^ ^ ^ ^ ^ ^ ",
"^ ^ ^ ^ ^ ^ ^ ^ ^ W ^ ^ ^ ^ W ^ ^ ^ ^ ^ ^ ^ ^ ^ ^ ^ ^ ^ ^ ^ ^ ^ ^ ^ ^ ^ ^ ^ ^ ^ W ^ ^ ^ ^ ^ ^ ^ ^ ^ ! ^ ^ ^ ^ ^ ^ ^ ^ ^ ^ ^ ^ ^ ^ ^ W ^ ^ ^ ^ ^ ^ W ^ ",
"^ ^ ^ ^ ^ ^ ^ ^ ^ ^ ^ ^ ^ ^ ^ ^ ^ ^ W ^ ^ W ^ ^ ^ ^ ^ ^ ^ ^ ^ ^ ^ ^ ^ ^ ^ ^ W ^ ^ ^ ^ ^ ^ ^ ^ ^ ^ ^ ^ ^ ^ ^ ^ ^ ^ ^ ^ ^ ^ ^ W ^ ^ ^ ^ ^ ^ ^ ^ ^ ^ ^ ^ ",
"^ ^ ^ ^ ^ ^ ^ ^ ^ ^ ^ ^ ^ ^ ^ ^ ^ ^ ^ ^ ^ ^ ^ ^ ^ W ^ ^ W ^ ^ ^ ^ ^ ! W ^ ^ ^ ^ ^ ^ ^ ^ ^ ^ ^ ^ ^ ^ W ^ W ^ ^ ^ ^ ^ ^ W ^ ^ ^ ^ ^ ^ ^ ^ ^ ^ ^ ^ ^ ^ ^ ",
"^ ^ ^ ^ ^ ^ ^ ^ ^ ^ ^ ^ ^ ^ ^ ^ ^ ^ ^ ^ ^ ^ ^ ^ ^ ^ ^ ^ ^ W ^ ^ ^ ^ ^ ^ ^ ^ ^ ^ ^ ^ ^ ^ ^ ^ ^ ^ ^ ^ ^ ^ W ^ ^ ^ ^ ^ ^ ^ ^ ^ ^ ^ ^ ^ ^ ^ W ^ W / ^ ^ ^ ",
"^ ^ ^ ^ ^ ^ W ^ ^ ^ ^ ^ ^ ^ ^ ^ ^ ^ ^ ^ ^ ^ ^ ^ ^ ^ ^ ^ ^ ^ ^ ^ ^ ^ ^ ^ ^ ^ ^ ^ ^ ^ ^ ^ ^ ^ ^ ^ ^ ^ ^ ^ ^ ^ ^ ^ ^ ^ ^ ^ ^ ^ ^ ^ ^ W ^ ^ ! ^ ^ ! ^ ^ ^ ",
"^ ^ W ^ ^ ^ ^ ^ ^ ^ ^ ^ ^ ^ ^ ^ ^ ^ ^ ^ ^ W ^ ^ ^ ^ ^ ^ ^ ^ ^ ^ ^ ^ ^ ^ ^ W ^ ^ ^ ^ ^ ^ ^ ^ ^ ^ ^ ^ ^ ^ ^ ^ ^ ^ ^ ^ ^ ^ ^ ^ ^ ^ ^ ^ ^ ^ ^ ^ ^ ^ ^ ^ ! ",
"^ ^ ^ ^ ^ ^ ^ ^ ! ^ ^ ^ ^ W ^ ^ ^ ^ ^ ^ ^ ^ ^ ^ ^ ^ ^ ^ ^ ^ ^ ^ ^ ^ ^ ^ ^ ^ ^ ^ ^ W ^ ^ ^ ^ ^ W ^ ^ ^ ^ ^ ^ ^ ^ ^ ^ ^ ^ ^ W ^ ^ ^ ^ ^ ^ ^ ^ ^ W ^ ^ W ",
"^ ^ ^ ^ W ^ ^ ^ W ^ W ^ ^ ^ ^ ^ ^ ^ ^ ^ ^ ^ ^ ^ ^ ^ ^ ^ ^ ^ ^ ^ ^ ^ ^ ^ ^ ^ ^ ^ ^ ^ ^ ^ ^ ^ ^ ! ^ ^ ^ ^ ^ ^ ^ ^ ^ W ^ ^ ^ ^ ^ ^ ^ W ^ ^ ^ ^ ^ ^ ^ ^ ^ ",
"^ ^ ^ ^ ^ ^ ^ ^ ^ ^ ^ ^ ^ ^ ^ ^ ^ ^ ^ ^ ^ ^ ^ ^ ^ ^ ^ ^ ^ ^ ^ ^ ^ W ^ ^ W ^ ^ ^ ^ ^ ^ ^ ^ ^ ^ ^ ^ W ! ^ ^ W ^ ^ ^ ^ ^ ^ ^ ^ ! W ^ ^ ^ ^ ^ ^ ^ ^ ^ ^ ^ ",
"^ ^ ^ ^ ^ ^ ^ ^ ^ ^ ^ ^ ^ ^ ^ ^ ^ ^ ^ ^ ^ ^ ^ ^ ^ ^ ^ ^ ^ ^ ^ ^ ^ ^ ^ ^ ^ ^ ^ ^ W ^ ^ ^ / W ^ ^ ^ ^ ^ ^ ^ ^ ^ ^ ^ ^ ^ ^ ^ ^ / W ^ ^ ^ ^ ^ ^ ^ ^ ^ ^ ^ ",
"W ^ ^ ^ ^ ^ ^ ^ ^ ^ ^ ^ ^ ^ ^ ^ ^ ^ ^ ^ ^ ^ ^ ^ ^ ^ ^ ^ ^ W ^ ^ ^ ^ ^ ^ ^ ^ ^ ^ ^ ^ ^ ^ W ^ ^ ^ ^ ^ ^ ^ ^ ^ ^ ^ ^ ^ ^ ^ ! ^ ^ ^ ^ ^ ^ ^ ^ ^ ^ ^ ^ ^ ^ ",
"^ ^ ^ ^ ^ ^ ^ ^ ^ ^ ^ ^ ^ W ^ ^ ^ ^ ^ ^ ^ ^ ^ ^ ^ W ^ ^ ^ ^ ^ ^ ^ ! ^ ^ ^ ^ ^ ^ ^ ^ ^ ^ ^ ^ ^ ^ ^ ^ ^ ^ ^ ^ ^ ^ ^ ^ ^ ^ W ^ ^ ^ ^ ^ ^ ^ ^ ^ ^ ^ W ^ ^ ",
"^ ^ ^ ^ ^ W ^ ^ ^ W ^ ^ ^ ^ ^ ^ ~ ^ ^ ^ ^ ^ ^ ^ ^ ^ ^ ^ W ^ ^ ^ ^ W ^ ^ ^ ^ ^ ^ ^ ^ ^ ^ ^ ^ ^ ^ ^ ^ ^ ^ ^ ^ ^ ^ ^ ^ ^ ^ ^ ^ ^ ^ ^ ^ ^ ^ ^ ^ ^ ^ ^ ^ ^ ",
"^ ^ ^ ^ ^ ! ^ ^ ^ ^ ^ ^ ^ ^ ^ ^ ^ ^ ^ ^ W ^ ^ ^ ^ ^ ^ ^ ^ ^ W W ^ ^ ^ ^ W ^ ^ ^ ^ ^ ^ ^ ^ ^ ^ ^ ^ ^ ^ ^ ^ ^ ^ ^ ^ ^ ^ ^ ^ ^ ^ ^ W ^ ^ ^ ^ ^ ^ ^ ^ ^ ^ ",
"^ ^ ^ ^ ^ ^ ^ ^ ^ ^ ^ ^ ^ ^ ^ ^ ^ ^ ^ ^ ^ ^ ^ ^ ^ ^ ^ W ^ W W W ^ ^ ^ ^ ^ ^ ^ ^ ^ ^ ! ^ ^ ^ W W ^ ^ W ^ ^ ^ W ^ ^ ^ ^ ^ W ^ ^ ^ ^ ^ ^ ^ ^ ^ W ^ ^ ! ^ ",
"^ ^ ^ ! ^ ^ ^ ^ / W ^ ! W ^ ^ ^ ^ ^ ^ ..! ^ ^ / / T ) W E W ( W W W / W / R / ~ ^ ^ ) E W ( T ( R / / R ( E W W W W ^ ^ ^ ^ ^ ^ ^ ^ ^ ^ ^ ^ ^ ^ ^ ^ ^ ",
"^ ^ ^ ^ W ^ ^ ^ ! W ^ ^ ^ ^ ^ ^ ^ ^ ^ ^ / ! ^ ! ^ o.J ) ( E E ^ / W W W R 5.! ^ / W R ) E W ( E ) T W / W W ) W W W ^ ^ ^ ^ ^ ^ ^ ^ ^ ^ ^ ^ ^ ^ ^ ^ ^ ",
"W ^ ^ ^ ^ ^ ^ ^ ^ ^ ^ ^ ^ ^ ^ ^ ^ ^ ^ ^ / ^ ^ ^ ^ ~ ^ ! ^ w.+.D R E ^ ^ ) R ~ E ! W ( A ^ u.Q ..~ ^ ^ ^ ^ ^ ^ W W W ^ ^ ^ ^ ^ ^ W ^ / ! ^ ^ ^ ^ ^ ^ ^ ",
"^ ^ ^ ^ ^ ^ ^ ^ ^ ^ ^ ^ ^ ^ ^ ^ ^ ^ ^ ^ ! ^ ^ ^ +.~  .*.%.x 0 N ( W ^ ~ ..~ ( ( / R ( B w k =.%. .^ ^ R ^ ^ ^ W W W ^ ^ ^ ^ ^ ^ ! W W ^ ^ ^ ^ W ^ ^ ^ ",
"^ ^ ^ ^ ^ ^ ^ ^ ^ ^ ^ ^ ^ ^ ^ ^ W W ^ W W ^ ^ ^ ^  .r.I t + 3 _ >.( Y X.n ,.n Q E E ^ u.5 # e P y.! ! ..^ ^ ^ W ^ ^ ^ ^ ^ ^ ^ ^ ^ ^ ^ ^ ^ ^ ^ ^ ^ ^ ^ ",
"W ^ ^ ^ ^ ^ ^ W ^ ^ ^ ^ ^ ^ ^ ^ W ) W W W ^ ^ ^ .. .I 4 O 3 * u Y 1.2.p.y p y 2.,.u.[ j & = $ , S +.o.^ ^ ^ ^ ^ ^ ^ ^ ^ ^ ^ ^ ^ ^ ^ ^ ^ ^ ^ ^ ^ W ^ ^ ",
"^ ^ ^ ^ ^ ^ ^ ^ ^ ^ ^ ^ ^ ^ ^ ^ W W W W ^ ^ ^ ^ ~ *.i + 3 = = = < g M V 4 . 4 V M h 9 # : = 7 $ t ~ 9.Q ....! o.^ ^ ^ ^ ^ ^ ^ ^ ^ ^ ^ ^ ^ W ^ ^ ^ ^ ^ ",
"^ ^ ^ ^ ^ ^ ^ ^ ^ ^ W ^ ^ ^ ^ ^ ^ ^ ^ W ^ ^ ^ ^ o.S o % % = - > = $ $ * = , = - * * - - : - $ $   m / ^ ^ ^ ^ ! ^ ^ ^ ^ ^ ^ ^ ^ ^ ^ ^ ^ ^ ^ ^ ^ ^ ^ ^ ",
"^ ^ ^ ^ ^ ^ ^ ^ ^ ^ ^ ^ ^ ^ ^ W ^ ^ ^ ^ W W ^ ^ 9.b 2 s r ; $ , : , , , = - , - : : : : $ , r a 6 k 0.~ ^ ^ ^ ^ ^ ^ ^ ^ ^ ^ ^ ^ ^ ^ ^ ^ ^ ^ ^ ^ ^ ^ ^ ",
"^ ^ ^ ^ ^ ^ ^ ^ ^ ^ W ^ ^ ^ ^ ^ ^ ^ ^ ^ ^ ^ ^ ^ W Q Y ~ Y I u . $ @ * * : - @ 7 * = O $ r V =._ G L 0.Q o.^ ~ ^ ^ ^ ^ ^ ^ ^ ^ ^ ^ ^ ^ ^ ^ ^ ^ ^ ^ W ^ ",
"^ ^ ^ ^ ^ ^ W ^ ^ ^ ^ ^ ^ ^ ^ ^ ^ ^ ^ ^ ^ ^ ^ ^ ( T D Q D Y X.6 y d r & * = : * 9 h s 6 K Y U U T T 6.^ +.! R ^ ^ ^ ^ ^ ^ ^ ^ ^ ^ ^ ^ ^ ^ ^ W ^ ^ ^ ^ ",
"^ ^ ^ ^ ^ ^ ^ ^ ^ ^ ^ ^ ^ ^ ^ ^ ^ +.^ ^ ^ ^ ^ ^ E T Q Z H U D U U E Y v < = - z [ Y ^ U H D U A D Y ~ ^ ^ ^ ^ W ^ ^ ^ ^ ^ W ^ ^ ^ ^ W ^ ^ ^ ^ ^ ^ ^ ^ ",
"W ^ W ^ ^ ^ ^ ^ ^ ^ ! ^ ^ ^ ^ ^ ^ ^ ~ ( W W ^ ^ ( ^ Z F T F J H A H L  .v % z %.K K F A J J J G G / R ! E / / W W ^ ^ ^ ^ ^ ^ ^ ^ ^ ^ ^ ^ ^ ^ ^ ^ ^ ^ ",
"^ ^ ^ ^ ^ ^ ^ ^ ^ ^ ^ W ^ ^ ^ ^ ( ^ ( ~ W W ^ ^ T Q F T A F H H H Z T K Q j Q L T F H Z T A G G D R ^ / W E W W W ^ ^ ^ ^ ^ ^ ^ ^ ^ ^ ^ ^ ^ ^ ^ ^ ^ ^ ",
"^ ! ^ ^ ^ ^ ^ ^ ^ ^ ^ ^ ^ ^ ^ ^ ~ W ( W ^ ..~ ^ / T G F F J A H T F F T D T G F F F G R G G G G J J R ^ ) W W W W ^ ^ ^ ^ ^ ^ ^ ! ^ ^ ^ ^ ^ ^ ^ ^ ^ ^ ",
"^ ^ ^ ^ ^ ^ ^ ^ ^ ^ ^ ^ ^ ^ ^ W W W ~ W ^ ^ ^ ^ ^ T G G H F J J F U F J F F F F G G G A G G T F G T / R W W W W ( W ^ ^ ^ ^ ^ ^ W ^ ^ ^ ^ ^ ^ W ^ ^ ^ ",
"^ ^ ^ ^ ^ ^ ^ ^ ^ ! ^ ^ ^ ^ ^ ^ ^ ^ ^ ^ ^ ^ ^ ^ ^ T F F F F H G F F F F G F G F F F H F F G G F F T ^ ^ ^ ^ ^ ^ ^ ^ ^ ^ ^ ^ ^ ^ ^ ^ ^ ^ ^ ^ ^ ^ ^ ^ ^ ",
"^ ^ ^ ^ ^ ^ W ^ ^ ^ ^ ^ ^ ^ ^ ^ ^ ^ ^ ^ ^ ^ ^ ^ ^ T F F F G F G F F F F F H F F F F G F F F F J F T ^ ^ ^ ^ ^ ^ ^ ^ ^ W ^ ^ ^ ^ ^ ^ ^ W ^ ^ ! W ^ ^ ^ ",
"W ^ ^ ^ ^ ^ ^ ^ ^ ^ ^ ^ ^ ^ ^ ^ W ^ ^ ^ ^ ^ ^ ^ ^ R F F F F F L G F F F F F F F F G G J H F F F F T ^ ^ ^ ^ ^ ^ ^ ^ ^ ^ ^ ^ ^ ^ ^ ^ ^ ^ ^ ^ ^ W ^ ^ ^ ",
"^ ^ ^ ^ ^ ^ ^ ^ ^ W ^ W ^ ^ ^ ^ ^ ^ ^ ^ ^ ^ ^ ^ ^ T F F F J H F F F F G L F F J F F F L F G F F F T ^ ^ ^ ^ ^ ^ ^ ^ ^ ^ ^ ^ ^ ^ ^ ^ ^ ^ ^ ^ ! / ^ ^ W ",
"^ ^ ^ ^ ^ ^ ^ ^ ^ ^ ^ ^ ^ W ^ ^ ^ ^ ^ ^ ^ ^ ^ ^ / T J F G F F G F F G H G F F G F F H F H F F F F T ^ ^ ^ ^ ^ ^ ^ ^ W ^ ^ ^ ^ ^ W ^ ^ ^ ^ ^ ^ W ^ ^ ^ ",
"! ^ ^ ^ ^ ^ ^ ^ ^ ^ ^ ^ ^ ^ ^ ^ ^ ^ ^ ^ ^ ^ ^ ^ ^ E F F F H F F G F F F J F F F F F G F F F G F F T ^ ^ ^ ^ ^ ^ ^ ^ ^ ^ W ^ ^ ^ ^ ^ ^ ^ ^ ^ ^ ^ ^ ^ ^ ",
"^ W ^ ^ ^ ^ W ^ ^ ^ ^ ^ ^ ^ ^ ^ ^ ^ ^ ^ ^ ^ ^ ^ ^ T F F F F F G F F F F F F F F F G J F G F H G F T W ^ ^ ^ ^ ^ ^ ^ ^ ^ ^ ^ ^ ^ ^ ^ ^ ^ ^ ^ ^ ^ ^ ^ ^ ",
"^ ! / W ^ ^ ^ ^ ^ ^ ^ ^ ^ ^ ^ ^ ^ ^ ^ ^ ^ ^ ^ ^ ^ T F F G F F H G H G F F F J F F F F F F F F F A T ^ ^ ^ ^ ^ ^ ^ ^ ^ ^ ^ ^ ^ ^ ^ ^ ^ ^ ^ ^ ^ ^ ^ ^ ^ ",
"^ ^ ^ ^ ^ ^ ^ ^ ^ ^ ^ ^ ^ ^ ^ ^ W ^ ^ ^ ^ ^ ^ W ^ T J F F F F F F F F J F F F J F F F G F F H G F T ^ / ^ ^ ^ ^ ^ ^ ^ ^ ^ ^ ^ ^ ^ ^ ^ ^ ^ ! ^ ^ ^ ^ W ",
"^ ^ ^ ^ ^ ^ ^ ^ ^ ^ ^ ^ ^ ^ ^ ^ ^ ^ ^ ^ ^ ^ ^ ^ / T G F F F F F F F F F G H F F F F F F G F L G F T ^ ^ ^ ^ W ^ ^ ^ ^ ^ ^ ^ ^ ^ ^ ^ ^ ^ ^ W ^ ^ ^ ^ ^ ",
"W ^ ^ ^ ^ ^ ^ W ^ ^ W ! ^ ^ ^ ^ ^ ^ ^ ^ ^ ^ ^ ^ ^ T F F F F H G F H F F F F F F F F F F F F F F F G ^ ^ ^ ^ ^ ^ ^ ^ ^ ^ ^ ^ ^ ^ ^ ^ W ^ ^ ^ ^ ^ ^ ^ ! ",
"^ ^ ^ ^ ^ ^ ^ ^ ^ ^ ^ ^ ^ W ^ ^ ^ ^ ^ ^ ^ ^ ^ ^ W T F F F G F F G G G L G F F G G F G H G H F F F T ^ ^ ^ ^ ^ ^ ^ ^ ^ W W ^ ^ ^ ^ ^ ^ ^ ^ ^ ^ ^ ^ ^ ^ ",
"^ ^ ^ ^ ^ ^ ^ ^ ^ ^ ^ ^ ^ ^ ^ ^ ^ ^ ^ ^ ^ ^ ^ ^ ^ R J F F F F G F F F H G F L J F F F G F F F G F T ^ ^ ^ ^ ^ ^ ^ ^ ^ ^ ! ^ ^ ^ ^ ^ ^ ^ ^ ^ ^ ^ ^ ^ ^ ",
"^ ^ ^ ^ ^ ^ ^ ^ ^ ^ ^ ^ ^ ^ ^ ^ ^ ^ ^ ^ ^ ^ ^ ^ ^ T G F G F F F F F F F F F F F F H F F G H F F F J ^ ^ ^ ^ ^ ^ ^ ^ ^ ^ ^ ^ ^ ^ ^ ^ ^ ^ ^ ^ ^ ^ ^ ^ W ",
"^ ^ ^ ^ W ^ ^ ^ ^ ^ ^ ^ ^ ^ ^ ^ ^ ^ ^ ^ ^ ^ ^ ^ ^ R F F F F F F F F F G F F H F G J F F F F F F F T ^ ^ ^ ^ W ^ ^ ^ ^ ^ ^ W ^ ^ ^ ^ ^ ^ ^ W ^ ^ ^ ^ ^ ",
"^ ^ ^ ^ ^ ^ ^ ^ ^ W ^ ^ ^ ^ ^ ^ W ^ ^ ^ ^ ^ ^ W ^ T F F F F F F J F F F G F G F F L G F F F J F F T ^ / ^ ^ ^ ^ ^ ^ ^ ^ ^ ^ ^ ^ ^ ^ ^ ^ ^ ^ ^ ^ ^ ^ ^ "
};
