/* XPM */
static char *result[] = {
/* columns rows colors chars-per-pixel */
"75 75 158 2 ",
"   c #383042",
".  c #3A3142",
"X  c #3B3143",
"o  c #3E3244",
"O  c #453245",
"+  c #443445",
"@  c #493246",
"#  c #4A3647",
"$  c #4B3647",
"%  c #4C3A48",
"&  c #513848",
"*  c #533D4B",
"=  c #563C4B",
"-  c #593B4A",
";  c #5D3C4B",
":  c #583E4C",
">  c #6A374D",
",  c #613E4D",
"<  c #633E4D",
"1  c #7B3950",
"2  c #5B404D",
"3  c #584650",
"4  c #5C4450",
"5  c #5D4752",
"6  c #5A4852",
"7  c #5E4A54",
"8  c #5F4D57",
"9  c #66404E",
"0  c #66414E",
"q  c #61444F",
"w  c #69404E",
"e  c #70424F",
"r  c #6B4250",
"t  c #6F4250",
"y  c #6A4451",
"u  c #6C4551",
"i  c #6F4B53",
"p  c #754451",
"a  c #744853",
"s  c #754E55",
"d  c #774E57",
"f  c #764F57",
"g  c #794C56",
"h  c #6B545A",
"j  c #7C5157",
"k  c #75565A",
"l  c #795058",
"z  c #7B5058",
"x  c #7B525A",
"c  c #7E5159",
"v  c #7D545B",
"b  c #7F575B",
"n  c #7E575D",
"m  c #7F5C61",
"M  c #7C6162",
"N  c #7E6565",
"B  c #874254",
"V  c #8B4555",
"C  c #8C4656",
"Z  c #824854",
"A  c #884A56",
"S  c #8E4C57",
"D  c #904E58",
"F  c #964D59",
"G  c #80575D",
"H  c #8C5059",
"J  c #8A585C",
"K  c #905059",
"L  c #9A505A",
"P  c #9D525B",
"I  c #9F545D",
"U  c #9E565D",
"Y  c #915B5E",
"T  c #A2565E",
"R  c #A2585F",
"E  c #A5585F",
"W  c #A5595F",
"Q  c #A75C61",
"!  c #A95C62",
"~  c #AA5C62",
"^  c #AB5E63",
"/  c #846467",
"(  c #806A69",
")  c #84686A",
"_  c #866B6C",
"`  c #826F6D",
"'  c #8C6D69",
"]  c #956363",
"[  c #976E6A",
"{  c #847471",
"}  c #9D7971",
"|  c #A56564",
" . c #AF6165",
".. c #A16F6B",
"X. c #B26366",
"o. c #B46567",
"O. c #BA696A",
"+. c #BC6B6B",
"@. c #BF6D6C",
"#. c #A4746E",
"$. c #AC706B",
"%. c #BF706F",
"&. c #A67F75",
"*. c #BC7371",
"=. c #B27B73",
"-. c #B47E74",
";. c #BF7C77",
":. c #BF7C78",
">. c #C16F6E",
",. c #C0706E",
"<. c #C0716F",
"1. c #C1716F",
"2. c #C2706E",
"3. c #C2716F",
"4. c #C3716F",
"5. c #C2726F",
"6. c #C4716F",
"7. c #C4726F",
"8. c #C17270",
"9. c #C17370",
"0. c #C27270",
"q. c #C37270",
"w. c #C27370",
"e. c #C37370",
"r. c #C37371",
"t. c #C47270",
"y. c #C27471",
"u. c #C27572",
"i. c #C27773",
"p. c #C37773",
"a. c #C67874",
"s. c #C77B76",
"d. c #C87E79",
"f. c #AE8579",
"g. c #B58176",
"h. c #B28378",
"j. c #B9867A",
"k. c #B78B7D",
"l. c #BC8C7D",
"z. c #BD8E7F",
"x. c #C2867F",
"c. c #CA857D",
"v. c #BF9181",
"b. c #BDB0B0",
"n. c #CC8B82",
"m. c #CC8E84",
"M. c #C59086",
"N. c #CA9287",
"B. c #C29887",
"V. c #C59F8D",
"C. c #CF988C",
"Z. c #C9A692",
"A. c #CCAE98",
"S. c #D3A595",
"D. c #DDAEAD",
"F. c #D4B6AB",
"G. c #E2B8B7",
"H. c #DFC8C0",
/* pixels */
"( { { { { { { ` N { M M M M M M M ` N ( { { { { { { { { { { M ` ( M M M M M M M M M M M M k q         * k M M { M ` { ` N { { { { { { { { M ` ( M M b.",
"V.A.A.A.A.A.A.Z.B.A.v.v.v.v.v.v.v.Z.B.V.A.A.A.A.A.A.A.A.A.A.v.Z.V.v.v.v.v.v.v.v.v.v.v.v.v.g.] %     % b g.v.v.A.v.Z.A.Z.B.A.A.A.A.A.A.A.A.v.Z.V.v.v.H.",
"v.v.v.v.v.v.v.v.v.v.v.v.v.v.v.v.v.v.v.v.v.v.v.v.v.v.v.v.v.v.v.v.v.v.v.v.v.v.v.v.v.v.v.v.v.v.j.J     J =.v.v.v.v.v.v.v.v.v.v.v.v.v.v.v.v.v.v.v.v.v.v.F.",
"v.v.v.v.v.v.v.v.v.v.v.v.v.v.v.v.v.v.v.v.v.v.v.v.v.v.v.v.v.v.v.v.v.v.v.v.v.v.v.v.v.v.v.v.v.v.j.J     J =.v.v.v.v.v.v.v.v.v.v.v.v.v.v.v.v.v.v.v.v.v.v.v.",
"v.v.v.v.v.v.v.v.v.v.v.v.v.v.v.v.v.v.v.v.v.v.v.v.v.v.v.v.v.v.v.v.v.v.v.v.v.v.' ' &.6 6 6 6 6 3 %     J =.v.v.v.v.v.v.v.v.v.v.v.v.v.v.v.v.v.v.v.v.v.v.v.",
"v.v.v.v.v.v.v.v.v.v.v.v.v.v.v.v.v.v.v.v.v.v.v.v.v.v.v.v.v.v.v.v.v.v.v.v.v.v.#.#.h.J J J J J s       J =.v.v.v.v.v.v.v.v.v.v.v.v.v.v.v.v.v.v.v.v.v.v.v.",
"v.v.v.v.v.v.v.v.v.v.v.v.v.v.v.v.v.v.v.v.v.v.v.v.v.v.v.v.v.v.v.v.v.v.v.v.v.v.j.j.l.=.=.=.=.=...q     q [ v.v.v.v.v.v.v.v.v.v.v.v.v.v.v.v.v.v.v.v.v.v.v.",
"v.v.v.v.v.v.v.v.v.v.v.v.v.v.v.v.v.v.v.v.v.v.v.v.v.v.v.v.v.v.v.v.v.v.v.v.v.v.v.v.z.j.v.j.j.j.-.J       h } } } } } k.f.} &.v.} k.v.v.v.v.v.v.v.v.v.v.v.",
"v.v.v.v.v.v.v.v.v.v.v.v.v.v.v.v.v.v.v.v.v.v.v.v.v.v.v.v.v.v.v.v.v.v.v.v.v.v.v.v.j.| v.| | | | J                   } M   6 v.  } v.v.v.v.v.v.v.v.v.v.v.",
"v.v.v.v.v.v.v.v.v.v.v.v.v.v.v.v.v.v.v.v.v.v.v.v.v.v.v.v.v.v.v.v.v.v.v.v.v.v.v.v.v.v.v.v.$.=.j.J     J | | | | | | j.=.| $.v.| j.v.v.v.v.v.v.v.v.v.v.v.",
"| | | | | | | | | | | | | | | | | | | | | | | | | | | | | | | | | | | | | | | | | | | | | | | J     J | | | | | | | | | | | | | | | | | | | | | | | | ",
"| | | | | | | | | | | | | | | | | | | | | | | | | | | | | | | | | | | | | | | | | | | | | | Y %     % j | | | | | | | | | | | | | | | | | | | | | | | ",
"i i i i i i i i i i i i i i i i i i i i i i i i i i i i i i i i i i i i i i i i i i i i i i q         * i i i i i i i i i i i i i i i i i i i i i i i ",
"                                                                                                                                                      ",
"                                                                                                                                                      ",
"w L L L L L L L L L L L L L L L L L L L L L L L L L L L L L L L L L L L   Z L L L L L L L L L L L L L L L L L L L L L L L L L L L L L L L L L L L L L ",
"w L L L L L L L L L L L L L L L L L L L L L L L L L L L L L L L L L L L   Z L L L L L L L L L L L L L L L L L L L L L L L L L L L L L L L L L L L L L ",
"w T O.O.O.O.O.O.O.O.O.O.O.O.O.O.O.O.O.O.O.O.O.M.M.M.:.*.M.O.O.O.O.O.X.L   Z ~ O.O.O.O.O.O.O.O.*.M.O.x.M.M.x.O.M.O.O.O.O.O.O.O.O.O.O.O.O.O.O.O.O.X.L L ",
"w I  .6.6.6.6.6.6.6.6.6.6.6.6.6.6.6.6.6.6.6.6.n.n.n.d.a.n.6.6.6.6.6.O.L   Z  .6.6.6.6.6.6.6.6.a.n.6.c.n.n.c.6.n.6.6.6.6.6.6.6.6.6.6.6.6.6. .@.O.~ L L ",
"w P E 6.6.6.6.6.6.6.6.6.6.6.6.6.6.6.6.6.6.6.6.6.6.6.6.6.6.6.6.6.6.6.O.L   Z  .6.6.6.6.6.6.6.6.6.6.6.6.6.6.6.6.6.6.6.6.6.6.6.6.6.6.6.6.6.6.E +.o.E T L ",
"w T O.O.O.>.@.+.6.6.6.6.6.6.6.6.6.6.6.6.6.6.6.6.6.6.6.6.6.6.6.6.6.6.O.L   Z  .6.6.6.6.6.6.6.6.6.6.6.6.6.6.6.6.6.6.6.6.6.6.6.6.6.6.6.6.6.6.6.6.6.6.O.L ",
"w L L L L O. .E 6.6.6.6.6.6.6.6.6.6.6.6.6.6.6.6.6.6.6.6.6.6.6.6.6.6.O.L   Z  .6.6.6.6.6.6.6.6.6.6.6.6.6.6.6.6.6.6.6.6.6.6.6.6.6.6.6.6.6.6.6.6.6.6.O.L ",
"w L L L O.6.6.6.6.6.6.6.6.6.6.6.6.6.6.6.6.6.6.6.6.6.6.6.6.6.6.6.6.6.O.L   Z ^ 2.4.7.6.6.6.6.6.6.6.6.6.6.6.6.6.6.6.6.6.6.6.6.6.6.6.6.6.6.6.6.6.6.6.O.L ",
"+ < L L T E E E E E E E E E E E E E E E E E E E E E E E E E E E E E K & . e D U R Q ! W E E E E E E E E E E E E E E E E E E E E E E E E E E E E E K & ",
"  + w w w w w w w w w w w w w w w w w w w w w w w w w w w w w w w w ;   X $ - , 0 y u r w w w w w w w w w w w w w w w w w w w w w w w w w w w w w ;   ",
"c G _ _ _ G c G / c _ G c c g w           + w c c c c c c c c c c c c c z d f l x v n m ) _ / c c c c c a ;       ; a c c c c c c c c c c c c c c c c ",
"6.s.C.C.C.s.6.s.m.6.C.s.6.6.+.E & o     o 9 E 6.6.6.6.6.6.6.6.6.6.6.6.6.3.,.%.<.9.u.i.;.N.C.m.6.6.6.6.6.o.K &   & K o.6.6.6.6.6.6.6.6.6.6.6.6.6.6.6.6.",
"6.6.6.6.6.6.6.6.6.6.6.6.6.6.6.6.L &     & E 6.6.6.6.6.6.6.6.6.6.6.6.6.6.4.1.1.8.w.y.u.p.t.6.6.6.6.6.6.6.6.O.L   L O.6.6.6.6.6.6.6.6.6.6.6.6.6.6.6.6.6.",
"6.6.6.6.6.6.6.6.6.6.6.6.6.6.6.6.L &     & E 6.6.6.6.6.6.6.6.6.6.6.6.6.6.4.4.3.5.0.e.r.e.6.6.6.6.6.6.6.6.6.O.L   L O.6.6.6.6.6.6.6.6.6.6.6.6.6.6.6.6.6.",
"6.6.6.6.6.6.6.6.6.6.6.6.6.6.6.6.L &     & E 6.6.6.6.6.6.6.6.6.6.6.6.6.6.6.4.4.4.q.q.t.7.6.6.6.6.6.6.6.6.6.O.L   L O.6.6.6.6.6.6.6.6.6.6.6.6.6.6.6.6.6.",
"6.6.6.6.6.6.6.6.6.6.6.6.6.6.6.6.L &     & E 6.6.6.6.6.6.6.6.6.6.6.6.6.6.6.6.6.6.6.6.6.6.6.6.6.6.6.6.6.6.6.O.L   L O.6.6.6.6.6.6.6.6.6.6.6.6.6.6.6.6.6.",
"6.6.6.6.6.6.6.6.6.6.6.6.6.6.6.6.L &     & I  .6.6.6.6.6.6.6.6.6.6.6.6.6.6.6.6.6.6.6.6.6.6.6.6.6.6.6.6.6.6.O.L   L ~ O.6.6.6.6.6.6.6.6.6.6.6.6.6.6.6.6.",
"6.6.6.6.6.6.6.6.6.6.6.6.6.6.6.6.L &     & P E 6.6.6.6.6.6.6.6.6.6.6.6.6.6.6.6.6.6.6.6.6.6.6.6.6.6.6.6.6.6.O.L   L T o.6.6.6.6.6.6.6.6.6.6.6.6.6.6.6.6.",
"6.6.6.6.6.6.6.6.6.6.6.6.6.6.6.6.L &     & E 6.6.6.6.6.6.6.6.6.6.6.6.6.6.6.6.6.6.6.6.6.6.6.6.6.6.6.6.6.6.6.O.L   L O.6.6.6.6.6.6.6.6.6.6.6.6.6.6.6.6.D.",
"6.6.6.6.6.6.6.6.6.6.6.6.6. .L L L &     & L L L L  . .E 6.6.6.6.6.6.6.6.6.6.6.6.6.6.6.6.6.6.6.6.6.6.6. .L L L   L L L L E 6.L O.6.6.6.6.6.6.6.6.6.6.G.",
"6.6.6.6.6.6.6.6.6.6.6.6.6.6.O.L L &     & L L L O.6.6.6.6.6.6.6.6.6.6.6.6.6.6.6.6.6.6.6.6.6.6.6.6.6.6.6. .L L   L O. .E 6.6.6.6.6.6.6.6.6.6.6.6.6.6.D.",
"E E E E E E E E E E E E E E T L & o     o < L L T E E E E E E E E E E E E E E E E E E E E E E E E E E E I A &   & K I P E E E E E E E E E E E E E E E ",
"w w w w w w w w w w w w w w w w           + w w w w w w w w w w w w w w w w w w w w w w w w w w w w w w w ;       ; w w w w w w w w w w w w w w w w w ",
"  o & 2 2 2 2 2 2 2 2 2 2 2 2 2 2 2 7 5 4 8 8 8 4 5 8 7 2 2 2 2 2 : #       + = 2 2 2 2 2 2 2 4 8 8 8 5 5 7 2 2 2 2 2 2 2 2 2 2 2 2 2 2 2 2 2 2 : #   ",
"  & L 6.6.6.6.6.6.6.6.6.6.6.6.6.6.6.C.n.d.S.S.S.d.n.S.C.6.6.6.6.6.O.Z       w  .6.6.6.6.6.6.6.d.S.S.S.n.n.C.6.6.6.6.6.6.6.6.6.6.6.6.6.6.6.6.6.6.O.Z   ",
"w E 6.6.6.6.6.6.6.6.6.6.6.6.6.6.6.6.6.6.6.6.6.6.6.6.6.6.6.6.6.6.6.6.O.L   Z  .6.6.6.6.6.6.6.6.6.6.6.6.6.6.6.6.6.6.6.6.6.6.6.6.6.6.6.6.6.6.6.6.6.6.O.L ",
"w E 6.6.6.6.6.6.6.6.6.6.6.6.6.6.6.6.6.6.6.6.6.6.6.6.6.6.6.6.6.6.6.6.O.L   Z  .6.6.6.6.6.6.6.6.6.6.6.6.6.6.6.6.6.6.6.6.6.6.6.6.6.6.6.6.6.6.6.6.6.6.O.L ",
"w E 6.6.6.6.6.6.6.6.6.6.6.6.6.6.6.6.6.6.6.6.6.6.6.6.6.6.6.6.6.6.6.6.O.L   Z  .6.6.6.6.6.6.6.6.6.6.6.6.6.6.6.6.6.6.6.6.6.6.6.6.6.6.6.6.6.6.6.6.6.6.O.L ",
"w E 6.6.6.6.6.6.6.6.6.6.6.6.6.6.6.6.6.6.6.6.6.6.6.6.6.6.6.6.6.6.6.6.O.L   Z  .6.6.6.6.6.6.6.6.6.6.6.6.6.6.6.6.6.6.6.6.6.6.6.6.6.6.6.6.6.6.6.6.6.6.O.L ",
"w T O.6.6.6.6.6.6.6.6.6.6.6.6.6.6.6.6.6.6.6.6.6.6.6.6.6.6.6.6.6.6.6.O.L   Z  .6.6.6.6.6.6.6.6.6.6.6.6.6.6.6.6.6.6.6.6.6.6.6.6.6.6.6.6.6.6.6.6.6.>.X.L ",
"w P E 6.6.6.6.6.6.6.6.6.6.6.6.6.6.6.6.6.6.6.6.6.6.6.6.6.6.6.6.6.6.6.O.L   Z  .6.6.6.6.6.6.6.6.6.6.6.6.6.6.6.6.6.6.6.6.6.6.6.6.6.6.6.6.6.6.6.6.6.+.T L ",
"w E 6.6.6.6.6.6.6.6.6.6.6.6.6.6.6.6.6.6.6.6.6.6.6.6.6.6.6.6.6.6.6.6.O.L   Z  .6.6.6.6.6.6.6.6.6.6.6.6.6.6.6.6.6.6.6.6.6.6.6.6.6.6.6.6.6.6.6.6.6.6.O.L ",
"w L L L L O. .E 6.6.6.6.6.6.6.6.6.6.6.6.6.6.6.6.6.6.6.6.6.6.6.6. .L L L   Z L L E 6.6.6.6.6.6.6.6.6.6.6.6.6.6.6.6.6.6.6.6.6.6.6.6.6.6.6.6.L L L L L L ",
"w L L L X.>.@.+.6.6.6.6.6.6.6.6.6.6.6.6.6.6.6.6.6.6.6.6.6.6.6.6.@.X.L L   Z L ~ +.6.6.6.6.6.6.6.6.6.6.6.6.6.6.6.6.6.6.6.6.6.6.6.6.6.6.6.6.O.T ~ X.L L ",
"& p L L ~  . . . . . . . . . . . . . . . . . . . . . . . . . . . .~ S w   ; Z E  . . . . . . . . . . . . . . . . . . . . . . . . . . . . . .I E ~ S w ",
"  + w w w w w w w w w w w w w w w w w w w w w w w w w w w w w w w w ;       & w w w w w w w w w w w w w w w w w w w w w w w w w w w w w w w w w w ;   ",
"2 2 2 2 7 8 8 7 4 8 2 2 2 2 : &                                                                                   # = 2 2 2 2 2 2 2 2 2 2 2 2 2 2 2 2 ",
"6.6.6.6.C.S.S.C.d.S.6.6.6.6.O.L                                                                                   Z  .6.6.6.6.6.6.6.6.6.6.6.6.6.6.6.6.",
"6.6.6.6.6.6.6.6.6.6.6.6.6.6.6.6.L &                                                                             L O.6.6.6.6.6.6.6.6.6.6.6.6.6.6.6.6.6.",
"6.6.6.6.6.6.6.6.6.6.6.6.6.6.6.6.L &     O > > > > > > > > > > > > > > > > > > > > > > > > > > > > > > > > > >   L O.6.6.6.6.6.6.6.6.6.6.6.6.6.6.6.6.6.",
"6.6.6.6.6.6.6.6.6.6.6.6.6.6.6.6.L &     @ 1 1 1 1 1 1 1 1 1 1 1 1 1 1 1 1 1 1 1 1 1 1 1 1 1 1 1 1 1 1 1 1 1 1   L O.6.6.6.6.6.6.6.6.6.6.6.6.6.6.6.6.6.",
"6.6.6.6.6.6.6.6.6.6.6.6.6.6.6.6.L &     @ 1 1 1 B V V V V V V V V V V V V V V V V V V V V V V V V V V V V V V   L O.6.6.6.6.6.6.6.6.6.6.6.6.6.6.6.6.6.",
"6.6.6.6.6.6.6.6.6.6.6.6.6.6.6.6.L &     @ 1 1 1 C F L L L L L L L L L L L L L L L L L L L L L L L L L L L L L   L O.6.6.6.6.6.6.6.6.6.6.6.6.6.6.6.6.6.",
"6.6.6.6.6.6.6.6.6.6.6.6.6.6.6.6.L &     @ 1 1 1 1 V L L L L L L L L L L L L L L L L L L L L L L L L L L L L L   L O.6.6.6.6.6.6.6.6.6.6.6.6.6.6.6.6.6.",
"6.6.6.6.6.6.6.6.6.6.6.6.6.6.6.6.L &     @ 1 1 L L L L L L L L L L L L L L L L L L L L L L L L L L L L L L L L   L O.6.6.6.6.6.6.6.6.6.6.6.6.6.6.6.6.6.",
"6.6.6.6.6.6.6.6.6.6.6.6.6. .L L L &     @ 1 1 L L L L L L L L L L L L L L L L L L L L L L L L L L L L L L L L   L L L E 6.6.6.6.6.6.6.6.6.6.6.6.6.6.6.",
"6.6.6.6.6.6.6.6.6.6.6.6.6.@.X.L L &     @ 1 1 L L L L L L L L L L L L L L L L L L L L L L L L L L L L L L L L   L L ~ +.6.6.6.6.6.6.6.6.6.6.6.6.6.6.6.",
" . . . . . . . . . . . . . .~ L w +     @ 1 1 L L L L L L L L L L L L L L L L L L L L L L L L L L L L L L S w   w S E  . . . . . . . . . . . . . . . .",
"Z Z Z Z Z Z Z Z Z Z Z Z Z Z Z Z         O > > Z Z Z Z Z Z Z Z Z Z Z Z Z Z Z Z Z Z Z Z Z Z Z Z Z Z Z Z Z Z t       t Z Z Z Z Z Z Z Z Z Z Z Z Z Z Z Z Z ",
"                                                                                                                                                      ",
"  & L 6.6.6.6.d.C.6.S.S.S.S.C.6.S.d.6.6.6.6.6.6.6.6.6.6.6.6.6.E w           w  .6.6.6.6.6.6.d.S.S.S.d.n.n.6.6.6.6.6.6.6.6.6.6.6.6.6.6.6.6.6.6.6.O.Z   ",
"w E 6.6.6.6.6.6.6.6.6.6.6.6.6.6.6.6.6.6.6.6.6.6.6.6.6.6.6.6.6.6. .Z       Z  .6.6.6.6.6.6.6.6.6.6.6.6.6.6.6.6.6.6.6.6.6.6.6.6.6.6.6.6.6.6.6.6.6.6.O.L ",
"w E 6.6.6.6.6.6.6.6.6.6.6.6.6.6.6.6.6.6.6.6.6.6.6.6.6.6.6.6.6.6. .Z       Z  .6.6.6.6.6.6.6.6.6.6.6.6.6.6.6.6.6.6.6.6.6.6.6.6.6.6.6.6.6.6.6.6.6.6.O.L ",
"w E 6.6.6.6.6.6.6.6.6.6.6.6.6.6.6.6.6.6.6.6.6.6.6.6.6.6.6.6.6.6. .Z       Z  .6.6.6.6.6.6.6.6.6.6.6.6.6.6.6.6.6.6.6.6.6.6.6.6.6.6.6.6.6.6.6.6.6.6.O.L ",
"w E 6.6.6.6.6.6.6.6.6.6.6.6.6.6.6.6.6.6.6.6.6.6.6.6.6.6.6.6.6.6. .Z       Z  .6.6.6.6.6.6.6.6.6.6.6.6.6.6.6.6.6.6.6.6.6.6.6.6.6.6.6.6.6.6.6.6.6.6.O.L ",
"w E 6.6.6.6.6.6.6.6.6.6.6.6.6.6.6.6.6.6.6.6.6.6.6.6.6.6.6.6.6.6. .Z       Z  .6.6.6.6.6.6.6.6.6.6.6.6.6.6.6.6.6.6.6.6.6.6.6.6.6.6.6.6.6.6.6.6.6.6.O.L ",
"w E 6.6.6.6.6.6.6.6.6.6.6.6.6.6.6.6.6.6.6.6.6.6.6.6.6.6.6.6.6.6. .Z       Z  .6.6.6.6.6.6.6.6.6.6.6.6.6.6.6.6.6.6.6.6.6.6.6.6.6.6.6.6.6.6.6.6.6.6.O.L ",
"w L L L O.6.6.6.6.6.6.6.6.6.6.6.6.6.6.6.6.6.6.6.6.6.6.6.6.L L L L Z       Z L L E 6.6.6.6.6.6.6.6.6.6.6.6.6.6.6.6.6.6.6.6.6.6.6.6.6.6.6.L 6.E L L L L ",
"w L L O.>.6.6.6.6.6.6.6.6.6.6.6.6.6.6.6.6.6.6.6.6.6.6.6.6.O.L X.~ Z       Z L ~ +.6.6.6.6.6.6.6.6.6.6.6.6.6.6.6.6.6.6.6.6.6.6.6.6.6.6.6.O.6.+.O.X.L L ",
"& p L  . . . . . . . . . . . . . . . . . . . . . . . . . . .L ~ H ;       ; Z E  . . . . . . . . . . . . . . . . . . . . . . . . . . . . . . . .~ S w "
};
