/* XPM */
static char *result[] = {
/* columns rows colors chars-per-pixel */
"75 75 199 2 ",
"   c #050505",
".  c #0B0605",
"X  c #0B0B05",
"o  c #0D0C0C",
"O  c #070B0F",
"+  c #120603",
"@  c #1A0604",
"#  c #170B08",
"$  c #13130C",
"%  c #1B1B0D",
"&  c #16150B",
"*  c #070E14",
"=  c #0B1216",
"-  c #131312",
";  c #191515",
":  c #1C1B12",
">  c #1B1719",
",  c #1C1B1C",
"<  c #14191D",
"1  c #250C06",
"2  c #2C0E07",
"3  c #2B0D09",
"4  c #340A06",
"5  c #3C0A05",
"6  c #320E09",
"7  c #3A0E09",
"8  c #28170D",
"9  c #3C100A",
"0  c #381711",
"q  c #201B1D",
"w  c #1F210E",
"e  c #1F2114",
"r  c #23230E",
"t  c #26280F",
"y  c #222412",
"u  c #2C2D13",
"i  c #25241A",
"p  c #2B2B1C",
"a  c #272719",
"s  c #34251D",
"d  c #2F3114",
"f  c #333414",
"g  c #3B3C16",
"h  c #333419",
"j  c #363A18",
"k  c #3A3C19",
"l  c #373B17",
"z  c #0F1D29",
"x  c #091721",
"c  c #1A1D28",
"v  c #241F21",
"b  c #0C273B",
"n  c #092132",
"m  c #2A2426",
"M  c #2D2629",
"N  c #2A2725",
"B  c #32292D",
"V  c #302E23",
"C  c #343324",
"Z  c #3B3B25",
"A  c #3F3D2D",
"S  c #362D31",
"D  c #392F33",
"F  c #3D3437",
"G  c #2F3021",
"H  c #470E08",
"J  c #44120B",
"K  c #4B130C",
"L  c #55140C",
"P  c #5B150D",
"I  c #62170E",
"U  c #67180F",
"Y  c #68180F",
"T  c #46261C",
"R  c #443A3D",
"E  c #42373B",
"W  c #5B3739",
"Q  c #433727",
"!  c #68373B",
"~  c #733A3F",
"^  c #3D401A",
"/  c #43451C",
"(  c #46491D",
")  c #4B4C1C",
"_  c #414117",
"`  c #4B501E",
"'  c #52531E",
"]  c #454824",
"[  c #4D5221",
"{  c #555621",
"}  c #545A23",
"|  c #5A5C22",
" . c #4B4A32",
".. c #474332",
"X. c #594331",
"o. c #5B5A3C",
"O. c #624534",
"+. c #695537",
"@. c #6D5134",
"#. c #5E6225",
"$. c #5E632A",
"%. c #636524",
"&. c #656826",
"*. c #6A6A26",
"=. c #656B29",
"-. c #686A2A",
";. c #746A2E",
":. c #6C722B",
">. c #6F7027",
",. c #737429",
"<. c #747B2D",
"1. c #797A2B",
"2. c #64763D",
"3. c #747233",
"4. c #0B2E46",
"5. c #0E324A",
"6. c #173643",
"7. c #0D3958",
"8. c #0D3856",
"9. c #123C55",
"0. c #493F41",
"q. c #6C3B40",
"w. c #1A4254",
"e. c #3D5C4B",
"r. c #234952",
"t. c #4D4245",
"y. c #5A5741",
"u. c #7E4748",
"i. c #625E44",
"p. c #556C44",
"a. c #636343",
"s. c #6E6E4A",
"d. c #6C6848",
"f. c #74754C",
"g. c #736E52",
"h. c #7A7657",
"j. c #7D7C53",
"k. c #607441",
"l. c #906B3C",
"z. c #8A4247",
"x. c #98474C",
"c. c #905E40",
"v. c #A44A52",
"b. c #AB4B54",
"n. c #B24E57",
"m. c #B74F58",
"M. c #B95159",
"N. c #A45751",
"B. c #877E5D",
"V. c #BA5962",
"C. c #C4545E",
"Z. c #CB565F",
"A. c #CE5762",
"S. c #D35863",
"D. c #D25964",
"F. c #D1606A",
"G. c #7E822E",
"H. c #7D8531",
"J. c #818531",
"K. c #848C34",
"L. c #879035",
"P. c #899236",
"I. c #838159",
"U. c #91925E",
"Y. c #8B8563",
"T. c #8E8966",
"R. c #918C68",
"E. c #999569",
"W. c #9E9870",
"Q. c #A1966E",
"!. c #AAA576",
"~. c #B1AB7E",
"^. c #BABA7A",
"/. c #C3C57D",
"(. c #B9B383",
"). c #B7B182",
"_. c #B4AD80",
"`. c #C1BA89",
"'. c #C9CB81",
"]. c #C8C687",
"[. c #D0D088",
"{. c #D0D087",
"}. c #CFC893",
"|. c #D3CB95",
" X c #D7CF98",
".X c #DEDB96",
"XX c #DBD39B",
"oX c #D8D592",
"OX c #E1DC9C",
"+X c #E0DC97",
"@X c #E6E19D",
"#X c #E5DDA2",
"$X c #EAE3A4",
"%X c #EEE6A9",
"&X c #F4ECAC",
"*X c #F8EFAF",
"=X c #F9F0B0",
"-X c #F8EFB0",
";X c None",
/* pixels */
";X;X;X;X;X;X;X;X;X;X;X;X;X;X;X;X;X;X;X;X;X;X;X;X;X;X;X;X;X;X;X;X;X;X;X;X;X;X;X;X;X;X;X;X;X;X;X;X;X;X;X;X;X;X;X;X;X;X;X;X;X;X;X;X;X;X;X;X;X;X;X;X;X;X;X",
";X;X;X;X;X;X;X;X;X;X;X;X;X;X;X;X;X;X;X;X;X;X;X;X;X;X;X;X;X;X;X;X;X;X;X;X;X;X;X;X;X;X;X;X;X;X;X;X;X;X;X;X;X;X;X;X;X;X;X;X;X;X;X;X;X;X;X;X;X;X;X;X;X;X;X",
";X;X;X;X;X;X;X;X;X;X;X;X;X;X;X;X;X;X;X;X;X;X;X;X;X;X;X;X;X;X;X;X;X;X;X;X;X;X;X;X;X;X;X;X;X;X;X;X;X;X;X;X;X;X;X;X;X;X;X;X;X;X;X;X;X;X;X;X;X;X;X;X;X;X;X",
";X;X;X;X;X;X;X;X;X;X;X;X;X;X;X;X;X;X;X;X;X;X;X;X;X;X;X;X;X;X;X;X;X;X;X;X;X;X;X;X;X;X;X;X;X;X;X;X;X;X;X;X;X;X;X;X;X;X;X;X;X;X;X;X;X;X;X;X;X;X;X;X;X;X;X",
";X;X;X;X;X;X;X;X;X;X;X;X;X;X;X;X;X;X;X;X;X;X;X;X;X;X;X;X;X;X;X;X;X;X;X;X;X;X;X;X;X;X;X;X;X;X;X;X;X;X;X;X;X;X;X;X;X;X;X;X;X;X;X;X;X;X;X;X;X;X;X;X;X;X;X",
";X;X;X;X;X;X;X;X;X;X;X;X;X;X;X;X;X;X;X;X;X;X;X;X;X;X;X;X;X;X;X;X;X;X;X;X;X;X;X;X;X;X;X;X;X;X;X;X;X;X;X;X;X;X;X;X;X;X;X;X;X;X;X;X;X;X;X;X;X;X;X;X;X;X;X",
";X;X;X;X;X;X;X;X;X;X;X;X;X;X;X;X;X;X;X;X;X;X;X;X;X;X;X;X;X;X;X;X;X;X;X;X;X;X;X;X;X;X;X;X;X;XF.Z.;X;X;X;X;X;X;X;X;X;X;X;X;X;X;X;X;X;X;X;X;X;X;X;X;X;X;X",
";X;X;X;X;X;X;X;X;X;X;X;X;X;X;X;X;X;X;X;X;X;X;X;X;X;X;X;X;X; ; o o % w t y t : & o $ ; ;XF.D.S.S.S.A.V.;X;X;X;X;X;X;X;X;X;X;X;X;X;X;X;X;X;X;X;X;X;X;X;X",
";X;X;X;X;X;X;X;X;X;X;X;X;X;X;X;X;X;X;X;X;X;XV.C.A.M.q.Q =.<.H.L.P.P.P.P.P.P.P.K.1.*.*.C.S.S.S.S.S.S.D.A.A.M.b.u.;X;X;X;X;X;X;X;X;X;X;X;X;X;X;X;X;X;X;X",
";X;X;X;X;X;X;X;X;X;X;X;X;X;X;X;X;X;X;X;X- s m.D.A.S.n.X.P.P.P.P.P.P.P.P.P.P.J.1.1.1.l.A.S.S.S.S.S.S.A.S.A.D.D.S.v.;X;X;X;X;X;X;X;X;X;X;X;X;X;X;X;X;X;X",
";X;X;X;X;X;X;X;X;X;X;X;X;X;X;X;X;X- q ] <.K.+.z.z.z.O.1.P.P.P.P.P.P.P.P.P.L.1.1.1.1.l.S.S.S.S.S.S.S.S.S.A.D.S.S.D.n.q.;X;X;X;X;X;X;X;X;X;X;X;X;X;X;X;X",
";X;X;X;X;X;X;X;X;X;X;X;X;X;X;X;Xy } K.P.L.L.P.P.J.J.P.P.P.P.P.P.P.P.P.P.L.K.1.1.1.1.1.N.S.S.S.S.S.S.D.v.C.D.S.S.D.S.C.q.;X;X;X;X;X;X;X;X;X;X;X;X;X;X;X",
";X;X;X;X;X;X;X;X;X;X;X;X;X;X> j K.P.P.P.P.P.P.P.P.P.P.P.P.P.P.P.P.P.P.P.P.L.1.1.1.1.1.1.c.Z.S.S.S.S.v.z.S.S.S.S.S.S.A.v.;X;X;X;X;X;X;X;X;X;X;X;X;X;X;X",
";X;X;X;X;X;X;X;X;X;X;X;X;X$ } L.P.P.P.P.P.P.P.P.P.P.P.P.P.P.P.P.P.P.P.P.P.P.G.1.1.1.1.1.1.;.n.S.S.S.~ n.S.S.S.S.S.S.S.S.W ;X;X;X;X;X;X;X;X;X;X;X;X;X;X",
";X;X;X;X;X;X;X;X;X;X;X;X- [ P.P.P.P.P.P.P.P.P.L.P.P.P.P.P.P.P.P.P.P.P.P.P.P.P.K.1.1.1.1.1.1.;.v.S.A.! n.A.v.x.x.Z.S.S.S.! ;X;X;X;X;X;X;X;X;X;X;X;X;X;X",
";X;X;X;X;X;X;X;X;X;X;Xm d K.P.P.P.P.P.P.P.P.P.P.P.P.P.P.P.P.P.P.P.P.P.P.P.P.P.P.L.J.1.1.1.1.1.;.v.Z.! C.A.C.b.n.A.S.S.S.q.;X;X;X;X;X;X;X;X;X;X;X;X;X;X",
";X;X;X;X;X;X;X;X;X;X;Xo :.P.P.P.P.P.P.P.P.P.P.P.P.P.P.P.P.P.P.P.P.P.P.L.P.P.P.L.P.K.1.1.1.1.1.1.@.~ @.C.S.S.S.S.S.S.S.S.~ ;X;X;X;X;X;X;X;X;X;X;X;X;X;X",
";X;X;X;X;X;X;X;X;X;X;X$ L.P.P.P.P.P.L.L.P.P.P.P.P.P.P.P.P.P.P.P.P.K.K.K.J.G.G.G.1.1.1.1.1.1.1.1.1.1.;.O.v.S.S.S.S.S.S.S.W ;X;X;X;X;X;X;X;X;X;X;X;X;X;X",
";X;X;X;X;X;X;X;X;X;X;Xu L.K.K.K.K.K.K.L.P.L.P.P.P.P.P.P.P.P.K.G.1.1.1.1.%.) Q g _ [ #.,.1.1.1.1.1.1.1.1.X.b.S.A.S.S.S.b.W ;X;X;X;X;X;X;X;X;X;X;X;X;X;X",
";X;X;X;X;X;X;X;X;X;X;Xt | _ f f f ) *.1.1.K.P.P.P.P.P.L.K.1.1.1.1.} y A I.).}.|.}.).B.A y { 1.1.1.1.1.1.1.O.z.Z.S.S.n.W ;X;X;X;X;X;X;X;X;X;X;X;X;X;X;X",
";X;X;X;X;X;X;X;X;X;Xo N Y.(. X X|.!.i.% _ <.G.L.P.P.P.K.1.1.1.%.% g.OX=X=X=X=X=X=X=X=X=XXXg.y %.1.1.1.1.1.1.%.! ! ! W ;X;X;X;X;X;X;X;X;X;X;X;X;X;X;X;X",
";X;X;X;X;X;X;X;X;XV !.=X=X=X-X=X*X=X*X$Xj.8 %.G.P.P.P.1.1.1.' i (.=X=X=X=X=X=X=X=X=X=X=X=X=X).a | 1.1.1.1.1.1.1.,.$ ;X;X;X;X;X;X;X;X;X;X;X;X;X;X;X;X;X",
";X;X;X;X;X;X;X, C #X=X=X=X=X=X=X=X=X=X=X=X~.$ *.L.L.L.1.1.*.% ^.=X=X=X=X=X=X=X=X=X=X=X=X=X=X-X^.; &.1.1.1.1.1.1.1.y ;X;X;X;X;X;X;X;X;X;X;X;X;X;X;X;X;X",
";X;X;X;X;X;X;X$ #X=X=X=X=X=X=X=X=X=X=X=X=X=XT.% K.P.L.1.1.y I.$X=X=X=X=X=X=X=X=X=X=X=X=X=X=X=X$Xj.8 1.1.1.1.1.1.1.u ;X;X;X;X;X;X;X;X;X;X;X;X;X;X;X;X;X",
";X;X;X;X;X;X- h.-X-X-X-X-X-X-X=X=X=X=X=X=X=X=X% :.P.P.1.:.$ /.$X=X=X=X=X=X=X=X=X-X-X-X=X-X=X=X$X'.: *.1.1.1.=.[ k u e - < ;X;X;X;X;X;X;X;X;X;X;X;X;X;X",
";X;X;X;X;X;X  E.=X=XE...i.&X=X=X=X=X=X=X=X=X=XC #.P.P.G.' C /.@X=X=X=X=X=X=X). .o.OX=X=X=X=X=X+X'.C | 1.1.J.P.K.K.K.K.<.f o ;X;X;X;X;X;X;X;X;X;X;X;X;X",
";X;X;X;X;X;Xo f.&X=Xh.: C %X=X=X=X=X=X=X=X=X=Xe :.P.P.J.| p '.[.=X=X=X=X=X=XW.q a  X=X=X=X=X&X[.'.G | 1.1.J.P.u & % ^ P.H.X ;X;X;X;X;X;X;X;X;X;X;X;X;X",
";X;X;X;X;X;X;Xa oX=X&X X$X=X=X=X=X=X=X=X=X=X(.& K.P.P.K.>.$ ^./.+X=X=X=X=X=X=X XOX=X=X=X=X=X+X'.^.$ *.1.1.G.P.t       :.K.X ;X;X;X;X;X;X;X;X;X;X;X;X;X",
";X;X;X;X;X;X;X- o.oX&X=X=X=X=X=X=X=X=X=X=X].a #.H.L.P.L.1.d a.'./.@X*X=X=X=X=X=X=X=X=X=X&X.X'.'.o.f 1.1.1.H.P.f X   X #.=.  ;X;X;X;X;X;X;X;X;X;X;X;X;X",
";X;X;X;X;X;X;X;X$  ./.@X&X=X=X=X=X=X=X@X!.: ' :.% G.P.P.1.>.% U././.{.@X&X=X=X=X=X=X&X.X'.'./.U.: >.1.1.<.K.P.u     $ H.d - ;X;X;X;X;X;X;X;X;X;X;X;X;X",
";X;X;X;X;X;X;X;X;X;X-  .E./.{.[.[.^.B.u t *.L.w d P.P.P.1.1.*.% f./././.'.'.'.'.{.{././.'.'.s.% *.1.1.1.L.P.P.[ [ :.L.:.o ;X;X;X;X;X;X;X;X;X;X;X;X;X;X",
";X;X;X;X;X;X;X;X;X;X;X- t u j j d u ^ %.1.1.L.g #.P.P.L.1.1.1.,.k / I././.'.'.'./.'.'./.I.Z j ,.1.1.H.L.P.P.P.P.H.=.( - ;X;X;X;X;X;X;X;X;X;X;X;X;X;X;X",
";X;X;X;X;X;X;X;X;X;X;Xo ( 1.1.1.1.1.1.1.,.G.G.l.J.J.J.1.1.1.1.1.1.*._ d  .o.s.f.s.o. .u _ *.1.1.1.1.P.P.P.L.:.^ $ ;X;X;X;X;X;X;X;X;X;X;X;X;X;X;X;X;X;X",
";X;X;X;X;X;X;X;X;X;X;XN u 1.1.1.1.1.1.1.,.>.=.*.%.*.%.*.*.>.1.1.1.1.1.1.,.%.' ' ' %.1.1.1.1.1.1.1.J.P.K.P.P.L.y ;X;X;X;X;X;X;X;X;X;X;X;X;X;X;X;X;X;X;X",
";X;X;X;X;X;X;X;X;X;X;X;X$ 1.1.,.' _ r + X + @ @ @ C h.s.y.R > & u ) *.,.1.1.1.1.1.1.1.1.1.1.1.1.G.P.K.| L.L.( - ;X;X;X;X;X;X;X;X;X;X;X;X;X;X;X;X;X;X;X",
";X;X;X;X;X;X;X;X;X;X;X;Xo ' u q j.~...2 5 5 5 5 1 (.=X=X=X*X|.6 P J 1 & ) 1.1.1.1.1.1.1.1.1.1.H.P.L./ #.L.#.- ;X;X;X;X;X;X;X;X;X;X;X;X;X;X;X;X;X;X;X;X",
";X;X;X;X;X;X;X;X;X;X;X;XO @ # ~.=X=X%X .4 5 5 5 1 ].-X-X=X=X=XC U Y Y L 2 r *.1.1.1.1.1.1.1.G.L.P.H.X H.#.- ;X;X;X;X;X;X;X;X;X;X;X;X;X;X;X;X;X;X;X;X;X",
";X;X;X;X;X;X;X;X;X;X;X< @ 5 1 _.=X=X=XT.3 K P I L X.(.#X#XXXW.0 Y Y Y Y Y J & ,.1.1.1.1.1.K.L.L.P.d t ` - ;X;X;X;X;X;X;X;X;X;X;X;X;X;X;X;X;X;X;X;X;X;X",
";X;X;X;X;X;X;X;X;X;X;X  4 5 7 0 B.Q.B.T I U Y Y Y I J T T T K Y Y U U U Y Y @ ' 1.1.1.1.H.P.L.L.#.  % ; ;X;X;X;X;X;X;X;X;X;X;X;X;X;X;X;X;X;X;X;X;X;X;X",
";X;X;X;X;X;X;X;X;X;X;X+ 5 7 7 5 H L U Y Y Y Y Y Y Y Y Y Y Y Y Y Y Y Y Y Y Y 2 g 1.1.1.K.P.P.L.H.X X ;X;X;X;X;X;X;X;X;X;X;X;X;X;X;X;X;X;X;X;X;X;X;X;X;X",
";X;X;X;X;X;X;X;X;X;X;X. 4 Q Y.d.0 Y Y Y Y Y Y Y 0 h.B.+.0 L Y Y Y Y Y Y U U @ ` 1.1.P.P.L.L.H.X   ;X;X;X;X;X;X;X;X;X;X;X;X;X;X;X;X;X;X;X;X;X;X;X;X;X;X",
";X;X;X;X;X;X;X;X;X;X;X- $ #X=X=XW.J Y Y Y Y Y 6 `.=X*X=X%XB.J Y Y Y Y U K @ l 1.J.P.P.P.L.*.X   , ;X;X;X;X;X;X;X;X;X;X;X;X;X;X;X;X;X;X;X;X;X;X;X;X;X;X",
";X;X;X;X;X;X;X;X;X;X;X;X- i g.E.B.9 P I P L K # Y.I.U.T.R.R.# 9 7 2 1 8 g | 1.K.P.L.P.P.` t j $ ;X;X;X;X;X;X;X;X;X;X;X;X;X;X;X;X;X;X;X;X;X;X;X;X;X;X;X",
";X;X;X;X;X;X;X;X;X;X;X;X;X> & ( k j f f f g Q / ) ) ( ( / / ) ) ' %.,.1.1.H.P.P.P.L.<.| &.=.- ;X;X;X;X;X;X;X;X;X;X;X;X;X;X;X;X;X;X;X;X;X;X;X;X;X;X;X;X",
";X;X;X;X;X;X;X;X;X;X;X;X;X;X= h &.H.L.K.K.K.K.J.H.G.G.G.G.G.G.G.J.J.K.K.P.P.P.P.P.P.P.P.=.$ ;X;X;X;X;X;X;X;X;X;X;X;X;X;X;X;X;X;X;X;X;X;X;X;X;X;X;X;X;X",
";X;X;X;X;X;X;X;X;X;X;XK.1.;X;X;Xe - : l ' :.G.H.L.P.P.P.P.P.L.P.P.P.P.P.P.P.P.P.P.P.H.k - ;X;X;X;X;X;X;X;X;X;X;X;X;X;X;X;X;X;X;X;X;X;X;X;X;X;X;X;X;X;X",
";X;X;X;X;X;X;X;X;X;X;X} =.$.] :.$.;X;X, ; N p p a p h h j h j k ^ / ^ / / ( ( { ( f % ;X;X;X;X;X;X;X;X;X;X;X;X;X;X;X;X;X;X;X;X;X;X;X;X;X;X;X;X;X;X;X;X",
";X;X;X;X;X;X;X;X;X;X} ` C ] $.<.P.H.^ : v t.t.t.t.t.0.E M ; - m N B B B m - , m m B O ;X;X;X;X;X;X;X;X;X;X;X;X;X;X;X;X;X;X;X;X;X;X;X;X;X;X;X;X;X;X;X;X",
";X;X;X;X;X;X;X;X;X;X^ y ] $.2.j ] =.:.[ k C C V F t.t.M > B S D D D D D D S - S D D > ;X;X;X;X;X;X;X;X;X;X;X;X;X;X;X;X;X;X;X;X;X;X;X;X;X;X;X;X;X;X;X;X",
";X;X;X;X;X;X;X;X;X;X;X;X[ ] i *.>.=.=.:.P.P.P.:.y B D M > D D D D D D D D D - B D D m - ;X;X;X;X;X;X;X;X;X;X;X;X;X;X;X;X;X;X;X;X;X;X;X;X;X;X;X;X;X;X;X",
";X;X;X;X;X;X;X;X;X;X;X;X;Xq } J.% o & #.P.P.P.J.=.% :.<.; S D D D D D D D S - B D D B - ;X;X;X;X;X;X;X;X;X;X;X;X;X;X;X;X;X;X;X;X;X;X;X;X;X;X;X;X;X;X;X",
";X;X;X;X;X;X;X;X;X;X;X;X;X= } [ O y =.] <.L.J.1.,.$ N N > M D S D D D S v - B D D D D   ;X;X;X;X;X;X;X;X;X;X;X;X;X;X;X;X;X;X;X;X;X;X;X;X;X;X;X;X;X;X;X",
";X;X;X;X;X;X;X;X;X;X;X;X;X;Xv > , =.P.Z t.Z ) ( a E t.0.S - ; ; ; > > v B D D D D D D   ;X;X;X;X;X;X;X;X;X;X;X;X;X;X;X;X;X;X;X;X;X;X;X;X;X;X;X;X;X;X;X",
";X;X;X;X;X;X;X;X;X;X;X;X;X;X;X;X;Xk } N t.t.t.R E F D D S S D D D D D D D D D D D D D   ;X;X;X;X;X;X;X;X;X;X;X;X;X;X;X;X;X;X;X;X;X;X;X;X;X;X;X;X;X;X;X",
";X;X;X;X;X;X;X;X;X;X;X;X;X;X;X;X;X;X;X, t.t.F D D D D D D D D D D D D D D D D D D D D   ;X;X;X;X;X;X;X;X;X;X;X;X;X;X;X;X;X;X;X;X;X;X;X;X;X;X;X;X;X;X;X",
";X;X;X;X;X;X;X;X;X;X;X;X;X;X;X;X;X;X;X$ E S D D D D D D D D D D D D D D D D D D D D D   ;X;X;X;X;X;X;X;X;X;X;X;X;X;X;X;X;X;X;X;X;X;X;X;X;X;X;X;X;X;X;X",
";X;X;X;X;X;X;X;X;X;X;X;X;X;X;X;X;X;X;X      - O * * * = *       . * = O = * O o         ;X;X;X;X;X;X;X;X;X;X;X;X;X;X;X;X;X;X;X;X;X;X;X;X;X;X;X;X;X;X;X",
";X;X;X;X;X;X;X;X;X;X;X;X;X;X;X;X;X;X;X;X;X;Xi b w.w.7.7.5.- ;X;X= 6.9.9.8.8.8.< ;X;X;X;X;X;X;X;X;X;X;X;X;X;X;X;X;X;X;X;X;X;X;X;X;X;X;X;X;X;X;X;X;X;X;X",
";X;X;X;X;X;X;X;X;X;X;X;X;X;X;X;X;X;X;X;X;X;X- 2.k.p.e.w.8.x ;X;X. 2.k.p.y.r.8.4., ;X;X;X;X;X;X;X;X;X;X;X;X;X;X;X;X;X;X;X;X;X;X;X;X;X;X;X;X;X;X;X;X;X;X",
";X;X;X;X;X;X;X;X;X;X;X;X;X;X;X;X;X;X;X;X;X;Xo 8.7.7.7.7.7.5.- ;X= 4.8.8.7.8.8.8.= ;X;X;X;X;X;X;X;X;X;X;X;X;X;X;X;X;X;X;X;X;X;X;X;X;X;X;X;X;X;X;X;X;X;X",
";X;X;X;X;X;X;X;X;X;X;X;X;X;X;X;X;X;X;X;X;X;X# c z z z z z z - ;X;X< b b 4.b b n , ;X;X;X;X;X;X;X;X;X;X;X;X;X;X;X;X;X;X;X;X;X;X;X;X;X;X;X;X;X;X;X;X;X;X",
";X;X;X;X;X;X;X;X;X;X;X;X;X;X;X;X;X;X;X;X3 L I U U K 6 6 2 @ @ J L L P 9 # 1 1 @ - ;X;X;X;X;X;X;X;X;X;X;X;X;X;X;X;X;X;X;X;X;X;X;X;X;X;X;X;X;X;X;X;X;X;X",
";X;X;X;X;X;X;X;X;X;X;X;X;X;X;X;X;X;X;X9 Y Y U L 9 2 3 3 @ 9 Y Y U P J 2 2 2 2 2 + ;X;X;X;X;X;X;X;X;X;X;X;X;X;X;X;X;X;X;X;X;X;X;X;X;X;X;X;X;X;X;X;X;X;X",
";X;X;X;X;X;X;X;X;X;X;X;X;X;X;X;X;X;X> # 2 6 2 1 1 3 1 1 . J J J 9 2 2 2 2 2 2 2 X ;X;X;X;X;X;X;X;X;X;X;X;X;X;X;X;X;X;X;X;X;X;X;X;X;X;X;X;X;X;X;X;X;X;X",
";X;X;X;X;X;X;X;X;X;X;X;X;X;X;X;X;X;X;X;X;X;X;X;X;X;X;X;X;Xo + + + + ; # + + + + X ;X;X;X;X;X;X;X;X;X;X;X;X;X;X;X;X;X;X;X;X;X;X;X;X;X;X;X;X;X;X;X;X;X;X",
";X;X;X;X;X;X;X;X;X;X;X;X;X;X;X;X;X;X;X;X;X;X;X;X;X;X;X;X;X;X;X;X;X;X;X;X;X;X;X;X;X;X;X;X;X;X;X;X;X;X;X;X;X;X;X;X;X;X;X;X;X;X;X;X;X;X;X;X;X;X;X;X;X;X;X",
";X;X;X;X;X;X;X;X;X;X;X;X;X;X;X;X;X;X;X;X;X;X;X;X;X;X;X;X;X;X;X;X;X;X;X;X;X;X;X;X;X;X;X;X;X;X;X;X;X;X;X;X;X;X;X;X;X;X;X;X;X;X;X;X;X;X;X;X;X;X;X;X;X;X;X",
";X;X;X;X;X;X;X;X;X;X;X;X;X;X;X;X;X;X;X;X;X;X;X;X;X;X;X;X;X;X;X;X;X;X;X;X;X;X;X;X;X;X;X;X;X;X;X;X;X;X;X;X;X;X;X;X;X;X;X;X;X;X;X;X;X;X;X;X;X;X;X;X;X;X;X",
";X;X;X;X;X;X;X;X;X;X;X;X;X;X;X;X;X;X;X;X;X;X;X;X;X;X;X;X;X;X;X;X;X;X;X;X;X;X;X;X;X;X;X;X;X;X;X;X;X;X;X;X;X;X;X;X;X;X;X;X;X;X;X;X;X;X;X;X;X;X;X;X;X;X;X",
";X;X;X;X;X;X;X;X;X;X;X;X;X;X;X;X;X;X;X;X;X;X;X;X;X;X;X;X;X;X;X;X;X;X;X;X;X;X;X;X;X;X;X;X;X;X;X;X;X;X;X;X;X;X;X;X;X;X;X;X;X;X;X;X;X;X;X;X;X;X;X;X;X;X;X",
";X;X;X;X;X;X;X;X;X;X;X;X;X;X;X;X;X;X;X;X;X;X;X;X;X;X;X;X;X;X;X;X;X;X;X;X;X;X;X;X;X;X;X;X;X;X;X;X;X;X;X;X;X;X;X;X;X;X;X;X;X;X;X;X;X;X;X;X;X;X;X;X;X;X;X",
";X;X;X;X;X;X;X;X;X;X;X;X;X;X;X;X;X;X;X;X;X;X;X;X;X;X;X;X;X;X;X;X;X;X;X;X;X;X;X;X;X;X;X;X;X;X;X;X;X;X;X;X;X;X;X;X;X;X;X;X;X;X;X;X;X;X;X;X;X;X;X;X;X;X;X",
";X;X;X;X;X;X;X;X;X;X;X;X;X;X;X;X;X;X;X;X;X;X;X;X;X;X;X;X;X;X;X;X;X;X;X;X;X;X;X;X;X;X;X;X;X;X;X;X;X;X;X;X;X;X;X;X;X;X;X;X;X;X;X;X;X;X;X;X;X;X;X;X;X;X;X",
";X;X;X;X;X;X;X;X;X;X;X;X;X;X;X;X;X;X;X;X;X;X;X;X;X;X;X;X;X;X;X;X;X;X;X;X;X;X;X;X;X;X;X;X;X;X;X;X;X;X;X;X;X;X;X;X;X;X;X;X;X;X;X;X;X;X;X;X;X;X;X;X;X;X;X",
";X;X;X;X;X;X;X;X;X;X;X;X;X;X;X;X;X;X;X;X;X;X;X;X;X;X;X;X;X;X;X;X;X;X;X;X;X;X;X;X;X;X;X;X;X;X;X;X;X;X;X;X;X;X;X;X;X;X;X;X;X;X;X;X;X;X;X;X;X;X;X;X;X;X;X"
};
